<?xml version="1.0" encoding="UTF-8"?>
<svg id="cinesplain_logo_wag_right_Image" data-name="cinesplain_logo_wag_right Image" xmlns="http://www.w3.org/2000/svg"
     viewBox="0 0 240 240">
    <defs>
        <style>
            .cls-cs_icon_wag_secondary {
            fill: #fefefecc;
            }
            .cls-cs_icon_wag_primary {
            fill: #000000;
            }

            .cls-cs_icon_wag_secondary, .cls-cs_icon_wag_primary {
            stroke-width: 0px;
            }
        </style>
    </defs>
    <path class="cls-cs_icon_wag_primary"
          d="M174.47,57.85c.28,2.01.5,4.04.92,6.03.04.19.06.4.04.59-.07.86.12,1.56,1.14,1.78.45,2.79.89,5.53,1.33,8.29-.45.44-.54,1.09-1.13,1.36-.29.08-.67-.26-.88.18-.58-.14-1.06.33-1.63.25-.02-.15-.04-.29-.06-.49-1.22.03-2.43-.14-3.53.5-.75.4-1.54.17-2.33.21-2.38-2.58-4.74-5.15-7.11-7.73.42-.32.87-.02,1.24-.39h-4.52c-2.75.63-5.58.87-8.47,1.52,1.84,1.57,3.06,3.57,4.84,4.99.8.63,1.1,1.85,2.33,1.94-.04.23-.29.12-.36.27.17.21.32.45.59.54.63-.49,1.16.28,1.8.09.54-.17,1.24.21,1.66-.53.13.1.27.18.37.29.06.08.06.22.12.43-2.56-.15-4.86.76-7.21,1.44-.14.03-.27.07-.41.1-.33.11-.73-.28-1.02.13-.09,0-.18,0-.28,0-.32-.27-.63-.32-.93.01-.13.03-.27.06-.4.1-.92-.19-1.78.26-2.59.3-1.21-1.55-2.81-2.65-4.06-4.1-1.32-1.53-2.91-2.81-4.36-4.17-1.72-.12-3.36.37-5.04.02.09.21.3.2.26.36-1.86.2-3.7.4-5.72.61,1.54,1.54,2.94,2.99,4.4,4.38,1.48,1.4,2.68,3.13,4.57,3.97,1.6-.46,3.13-.43,4.69-.34-.81-.04-1.46.52-2.2.61-1.73.21-3.44.56-5.2.46-.21-.01-.4.03-.52.22-1.54.26-3.1.33-4.63.64-.49.1-.97.32-1.49.3-.59-.76-1.36-1.32-2.07-1.95-1.26-1.11-2.5-2.24-3.7-3.42-1.27-1.24-2.6-2.4-3.94-3.5-1.34.89-3,.34-4.12,1.13.13,1.31.33,2.4.6,3.48.15.63.2,1.44.77,1.75.71.38,1.01,1.08,1.66,1.61h2.25c-.77.34-1.38.09-1.96.25.11.58.79.61,1.04,1.09.06-.41.3-.46.7-.4.11.18.13.55.47.63.25-.1.34-.48.79-.36-.15.27.29.36.2.68l-.11-.03-.1.05c-.37.09-.76-.13-1.11.07-.02.13-.04.24-.05.36-.42.26-.83.52-1.25.78-.06.06-.12.12-.17.18l-.27.05c-.13,0-.19.08-.22.2-1.25.48-2.51.92-3.72,1.52-.17-.02-.34-.03-.38.19l.03-.02c-.07.07-.14.14-.21.21-.34.2-.61.48-.81.82-.19.14-.49.2-.41.55.11.17.27.07.4.08,2.35.34,4.69.77,7.04.99,1.62.15,3.25.33,4.87.47,2.77.25,5.55.52,8.32.71,2.5.17,4.95.71,7.46.83,3.39.16,6.75.7,10.15.95,2.43.18,4.87.55,7.3.85,1.25.15,2.53.32,3.81.29,1.2-.03,2.36.19,3.53.43.35.07.71.08,1.07.07,3.14-.05,6.25.34,9.36.7.78.09,1.57-.04,2.36.22.41.14.72.29,1.04.8-.18,3.4-.29,6.95-1.35,10.44-2.96,0-5.72-.63-8.53-.71-.52-.43-1.09,0-1.63-.09-1.12-.32-2.26-.4-3.42-.41.01-.19.03-.39.04-.56.27-.22.64.04.66-.29.06-.32.13-.63.2-.98.94-.27,1.04-.47.92-1.48.78-1.77,1.99-2.96,2.12-4.73.72-.08.61-.73.81-1.16-.08-.15-.33-.05-.31-.28.09-.1.33-.04.29-.29-2.4-.26-4.81-.21-7.21-.29-.03-.27.3-.19.23-.42-1.32-.18-2.66.13-3.99-.17-.31-.07-.59.15-.78.53-.5.99-1.1,1.93-1.65,2.9-.86,1.51-1.7,3.03-2.58,4.53-.26.44-.28.85-.08,1.3-2.57-.52-5.22-.57-7.78-1.2-.49-.12-1.03-.05-1.55-.07-.07-.07-.14-.13-.21-.2l.04.02c.14-.27.26-.55.43-.81,1.12-1.68,2.25-3.35,3.36-5.04.2-.3.23-.92.44-.97.64-.16.46-.72.99-1.16-1.23.33-2.11.08-3.01-.05.83-.15,1.66-.26,2.58-.13-.37-.49-.51-1.04-1.15-.99-2.62.2-5.24.09-7.89-.3-.54-1.02-1.37-.56-2.16-.32-.15.12-.02.32-.1.44-1.42,2.1-2.49,4.44-4.02,6.47-.39.52-.62,1.05-.79,1.64-1.88-.07-3.77-.17-5.64-.72-.09.44.37.68.36,1.05.04.3-.25.36-.28.37.58,1.94.23,3.81.26,5.66,0,.45.14.93-.02,1.38-.36-.23-.19-.77-.6-1.01-.49.05-.64.61-1.14.75-1.66.47-3.22,1.23-4.65,2.17-1.02.67-2.32,1.06-2.99,2.13-.38.6-.81.58-1.31.49-.17.73.24.86.67.79.64-.11,1.32-.05,1.93-.31l-.03-.03c.45.89,1.43,1.21,2.06,1.92.08-.15.15-.28.22-.42q.59.56.56,1.13c.15.02.3.04.5.07.02.77.5,1.49.11,2.27.11.24.47.35.34.69-.23,1.25-1.18,2.23-1.2,3.58-.02.88-.65,1.37-1.5,1.52-.31.06-.63.05-.95.05-.79,0-1.18.39-1.34,1.15-.16.73-.41,1.45-.62,2.15.29.57.91.09,1.35.5-.73,0-1.34.17-1.96.43.53,1.16,1.24,2.13,1.96,3.08.96,1.25,1.59,2.71,1.84,4.18.21,1.29.39,2.66.31,4.01-.09,1.64.04,3.27,0,4.9-.02.84.1,1.66.06,2.5-.09,1.95.2,3.91.16,5.87-.03,1.42-.11,2.85-.27,4.26-.12,1.06-.22,2.13-.14,3.17.09,1.05-.13,2.07-.19,3.08-.07,1.12-.42,2.29-.53,3.43-.25,2.61-.83,5.17-1.31,7.73-.64,3.39-1.42,6.78-2.48,10.08-.14.44.08.91-.14,1.28-.69,1.15-.79,2.45-1.02,3.67-.07.53-.6.12-.76.44.16.2.5-.02.62.26-1.29,4.7-2.47,9.42-3.72,14.13-.03-2.01-.51-3.97-.35-5.96.02-.19-.02-.4-.05-.59-.4-2.46-.08-4.95-.37-7.43-.13-1.13.06-2.38-.14-3.47-.22-1.17.13-2.35-.31-3.5-.23-.59-.11-1.34-.08-2.01.07-1.46.07-2.92.02-4.39-.08-2.78-.08-5.56-.25-8.33-.11-1.8.13-3.6,0-5.41-.02-.34-.32-.59-.23-.89.4-1.36.23-2.74.21-4.12-.06-3.77.2-7.53.21-11.29.01-3.1.33-6.19.27-9.29-.02-1.19.04-2.44.33-3.52.42-1.55.31-3.1.59-4.64.36-1.98.46-4.01.69-6.13-.75-.65-1.57-1.38-2.37-2.13-.82-.78-.5-2.05-1.31-2.7-.43,0-.26.45-.52.4-1.35-.31-2.18-1.31-3.16-2.14-.58-.49-1.18-1.01-1.83-1.44-1.26-.84-2.55-1.67-3.65-2.7-2.17-2.03-4.78-3.54-6.78-5.77-.17-.19-.42-.2-.6-.07.39,2.19,1.25,4.21,1.94,6.26.69,2.07,1.34,4.16,2.07,6.22.26.72.46,1.4.43,2.15.16.2.4.37.43.57.24,1.82,1.15,3.43,1.53,5.21.17.8.21,1.65.5,2.38.72,1.84.95,3.81,1.58,5.68.38,1.14.4,2.4.58,3.6.33,2.21,1.27,4.26,1.48,6.56.24,2.61.82,5.23,1.41,7.8.64,2.76.82,5.6,1.65,8.3.3.96.09,1.92.41,2.88.61,1.89.65,3.9.98,5.85.25,1.45.42,2.92.74,4.39-.11.21-.24.43-.38.69-.74-2.04-.91-4.18-1.55-6.2-.38-1.2-.77-2.41-1.15-3.61-.41-1.27-.7-2.59-1.11-3.87-.41-1.28-.84-2.54-1.32-3.8-.45-1.18-.74-2.43-1.23-3.59-1.12-2.69-2.34-5.35-3.43-8.06-.77-1.91-1.34-3.89-2.51-5.66-1.63-2.46-2.76-5.23-3.95-7.93-1.25-2.83-2.97-5.37-4.35-8.1-.67-1.33-1.3-2.69-2.11-3.93-.51-.78-.87-1.63-1.35-2.41-1.3-2.13-2.85-4.12-3.66-6.54-.29-.87-.88-1.62-2-2.16.46.88.34,1.63.33,2.36,0,.49.13.99.36,1.33,1.28,1.89,1.64,4.19,2.94,6.11,1.27,1.88,2,4.14,2.96,6.24,1.16,2.55,2.34,5.1,3.79,7.51.33.54.6,1.13.83,1.75.44,1.18.74,2.46,1.44,3.51.95,1.44,1.32,3.11,2.04,4.64.24.5.45,1.04.67,1.57.59,1.37,1.5,2.63,1.61,4.18.26.34.53.62.7,1.05.42,1.04.82,2.07,1.09,3.16.39,1.57,1.3,2.95,1.77,4.5.34,1.13,1.07,2.11,1.42,3.26.66,2.2,1.25,4.43,2.11,6.58.67,1.66,1.1,3.45,1.44,5.21.28,1.42.91,2.71,1.25,4.1.4,1.67.6,3.39,1.14,5.04.33,1.01.65,2.05.81,3.13.22,1.58.4,3.19.8,4.71.67,2.5.73,5.07,1.26,7.58.34,1.62.67,3.25,1.04,4.87.4,1.78.87,3.58.9,5.39.04,2.19.39,4.35.31,6.54-.03.8.23,1.6.39,2.64,1.56-3.45,2.36-6.87,3.7-10.15-.08-.07-.12-.38-.02-.55.51-.85.48-1.87.85-2.74.54-1.26.6-2.62,1.02-3.9.45-1.38.64-2.89,1.14-4.23.92-2.5,1.42-5.1,2.2-7.63.61-1.97.92-4.03,1.74-5.95.72-1.67,1.03-3.46,1.65-5.16.15-.4-.09-.85.16-1.27.82-1.34,1.21-2.9,1.69-4.35.53-1.59,1.11-3.2,1.48-4.85.45-2,1.37-3.83,1.95-5.78.27-.92.55-1.84.83-2.76.34-1.1.78-2.16,1.19-3.22.53-1.37.73-2.84,1.26-4.18.92-2.32,1.63-4.71,2.49-7.05.45-1.22,1.01-2.4,1.43-3.63.75-2.19.97-4.52,1.63-6.74.47-1.58.5-3.24.51-4.88.02-1.79-.09-3.62-.73-5.3-.63-1.65-1.04-3.37-2.21-4.84-.84-1.05-1.95-1.98-2.38-3.34,1.6.3,2.82,1.35,4.19,2.11,1.54.86,3.02,1.82,4.55,2.69,1.72.97,3.54,1.75,5.21,2.83,1.28.83,2.74,1.42,3.83,2.53.94.95,2.3,1.41,2.93,2.72.71,1.49,1.56,2.92,2.27,4.41.51,1.06.54,2.27.81,3.41.19.79.32,1.61.5,2.44-.2.23-.41.48-.67.78.74,1.56,0,3.37.77,4.97.65.97,1.3,1.94,2.01,3.01,1.07.41,1.32,1.65,1.99,2.55.5.67.75,1.46.58,2.33-.11.59.34.93.66,1.34.5-.2.95,0,1.45.19.18.45.61.77.72,1.31.21,1.04.81,1.71,1.86,2.07.45.16.91.41,1.37.65.84-.45,1.41-1.05,1.85-1.87.7-1.3,1.54-2.52,2.5-3.65.42-.49.71-1.02.99-1.59.31-.62.48-1.32,1.08-1.8.76-.61.95-1.58,1.05-2.44.17-1.35.94-2.38,1.53-3.49.7-1.33,1.59-2.57,2.37-3.86.4-.67.89-1.28,1.33-1.92.91-1.31,1.74-2.7,2.3-4.22.21-.56.44-1.11.8-1.57.38-.48.55-1.03.51-1.6-.07-1.17.46-2.27,1.01-3.08.55-.8.71-1.63.95-2.44.33-1.14.21-1.17,1-1.63-.19-1.02.7-1.66,1.11-2.47.81-1.58,1-3.08.59-4.8-.24-1.01-.14-2.11.24-3.15-.4-1.45-.34-2.96.17-4.31.23-.61-.19-1.17.22-1.68.09-.11.62-4.1.72-4.17.29-.22.35-.74.46-.81.65-.41.14-.86.2-1.27.31-1.15.94-2.15,1.41-3.23.67-1.55,1.6-2.94,2.81-4.1.36-.35.35-.81.67-1.18.42-.49.73-.6,1.35-.44.54.13,1.23-.2,1.71.01.93.4,1.69.07,2.5-.2.96.48,2.05.77,2.69,1.83.04.59-.12,1.3.57,1.85.39-.88.57-1.95,1.76-1.91,1.25-1.32,2.44-2.59,3.64-3.85,1.51-1.6,3.23-2.96,4.87-4.41.18-.16.39-.31.49-.51.68-1.4,2.08-1.92,3.3-2.59.67-.37,1.32-.71,1.69-1.15,2.16-.64,3.95-.49,5.12,1.38.86,2.18-.7,3.65-1.53,5.51-.26.29-.93.35-1.18,1-.72,1.88-2.77,2.8-3.61,4.84-.57.05-.95.72-1.58,1.16-.37,1.09-.47,2.42-1.81,3.08.6,1.13.7,2.37,1.09,3.59-.3,1.09-.64,2.19.61,3.1.43.31.32,1.1.82,1.67-.9.1-.62.92-1.02,1.33.64.97,1.54,3.45,1.41,4.45.18.43.75.47.91.92-.1,0-.23-.06-.29.13.09.05.18.1.28.16.02.55.59.72.77,1.17.51,1.24.07,2.46-1.11,3.6-1.16,1.12-2.14,2.42-3.32,3.52-.7.65-.88,1.72-1.88,2.1-.31.12-.18.68-.58,1-.22.09-.55.21-.78.31-1.74,2.25-4.11,3.66-6.18,5.52.36.93.97,1.73,1.81,2.43.65.55.85,1.35.86,2.29.02.98-.26,1.96-.01,2.96.23.91-.2,1.8-.67,2.52-.88,1.33-1.34,2.87-2.26,4.19-.56.81-1.13,1.61-1.72,2.51,1.91,1.64,3.33,3.69,4.6,5.84.37.63.6,1.35.83,2.05.37,1.08-.38,1.82-1,2.46-.42.44-.86.89-1.22,1.36-.56.73-1.24,1.31-1.91,1.92-.99.91-1.86,1.96-2.72,3-1.65,2-3.41,3.94-4.82,6.1-1.42,2.18-3.28,4.05-4.41,6.45-.34.72-.76,1.66-1.76,1.97.21.61-.07.97-.7,1.13-.42,1.7-1.66,2.93-2.64,4.29-.83,1.16-1.72,2.28-2.23,3.62-.17.45-.46.84-.73,1.14-.81.91-1.19,2.02-1.72,3.06-.31.61-.5,1.38-1.44,1.35-.7,2.5-2.81,3.9-4.32,5.76h-.63c0,.14.05.21.16.25-.22.28-.64.15-.88.61-.32.61-1.11.81-1.79,1.02-.49.15-.97.31-1.54.49-.79-.56-1.72.02-2.66-.2-2.2-.51-4.33-1.26-6.59-1.56-.48-.06-1.08-.4-1.43-.91-.24-.42-.62-.14-.94-.19-.67.07-1.04-.48-1.64-.79-.76.24-1.48-.22-2.14-.57-1.41-.76-2.86-1.41-4.35-1.98-.38-.15-.67-.4-1.01-.56-.15-.39-.45-.17-.7-.19-1.1-.3-1.86-1.14-2.78-1.72-1.22-.78-2.66-1.11-3.86-1.93-1.13-.77-2.63-.9-3.54-2.08-.15-.2-.64-.13-1.04-.2-.06.56.64,1.21-.31,1.41.16.3.28.54.22.84-.98,4.5-1.44,9.11-2.69,13.55-.25.26.23.19.15.52-.24.98-.4,1.99-.57,2.99-.24,1.42-.4,2.85-.72,4.25-.39,1.72-.38,3.5-1.06,5.18-.2.49-.05,1.16-.6,1.58.18.1.29.16.48.26-.38.36-.2.89-.32,1.26-.28.87-.23,1.77-.45,2.61-.57,2.15-1.06,4.31-1.45,6.49-.1.56-.24,1.18-.83,1.68-2.03-.17-4.13.24-6.25.29-1.42.03-2.87.23-4.32.19-2.06-.06-4.13-.22-6.19-.28-1.72-.04-3.38-.51-5.08-.59-1.16-.06-2.3-.25-3.45-.34-.15-.39-.45-.17-.7-.19-1.82-.07-3.59-.53-5.38-.81-1.93-.31-3.85-.72-5.76-1.14-2.22-.49-4.43-1.02-6.63-1.58-.17-.04-.75.09-.57-.36-6.48-1.36-12.46-4.03-18.26-7.17-.22-.29-.53-.27-.84-.22-2.36-1.12-4.76-2.09-6.87-3.74-1.27-.99-2.91-1.59-4.23-2.57-2.41-1.78-4.99-3.34-7.33-5.22-.51-.41-.58-.9-.49-1.48.18-1.18.38-2.35.55-3.53.37-2.61.79-5.21,1.45-7.77.55-2.13.98-4.28,1.52-6.42.26-1.05.47-2.13.7-3.2.12-.56.42-.9.79-1.22-.32-.62.21-1.05.26-1.59.16-1.79.79-3.48,1.26-5.2.42-1.54.54-3.14.88-4.69.29-1.3.45-2.63.78-3.93.33-1.31.36-2.69.64-4.02.64-3.03,1.16-6.08,1.86-9.1.24-1.03.24-2.1.79-3.05.08-.14,0-.4-.3-.5-1.46,3.28-2.74,6.61-3.61,10.12-.32,1.28-.71,2.62-1.18,3.9-.48,1.3-.86,2.7-1.16,4.1-.38,1.79-1.03,3.53-1.44,5.31-.63,2.68-1.7,5.22-2.41,7.87-.58,2.17-1.1,4.36-1.75,6.51-.81,2.7-1.57,5.45-1.87,8.29-.08.72-.15,1.48-.41,2.2-.35.97-.16,2.02-.26,3.03-.05.45-.1.85-.56,1.28-.76-1.16-2.01-1.73-2.92-2.8-.95-1.11-2.15-2.08-3.19-3.17-.9-.94-2-1.68-2.68-2.82-.12-.2-.38-.29-.56-.43-.87-.67-1.8-1.32-1.88-2.59-.02-.37-.53-.5-.42-.92-1.45-.41-2.26-1.52-3.05-2.56-.91-1.2-2.03-2.24-2.75-3.59-.81-1.52-2.02-2.77-2.92-4.25-.72-1.18-1.43-2.41-2.31-3.53-1.16-1.48-1.81-3.3-2.86-4.87-1.12-1.67-1.71-3.6-2.79-5.3-.55-.86-.78-1.96-1.42-2.85.44-.79-.03-1.78.7-2.51-.1-.3-.31-.66-.03-1.05.16-.29.51-.14.74-.3.1-.33-.39-.22-.34-.66.14-.26.12-.75.45-1.14.39-.46.41-1.06.47-1.63.03-.32-.08-.69.06-.94.82-1.47.7-3.22,1.46-4.71.34-.65.33-1.45.5-2.17.41-1.77,1.11-3.47,1.44-5.22.29-1.53,1.19-2.89,1.12-4.51-.03-.62.46-1.15.69-1.73.42-1.09.44-2.24.51-3.45.83-.61.56-1.68.93-2.53.62-1.44.67-3.07,1.46-4.47.31-.56-.05-1.34.48-1.88.37.01.75.12,1.13-.07-.27-.26-.61-.06-.9-.17-.02-.96.23-1.86.54-2.77.65-1.89,1.28-3.79,1.82-5.72.16-.56.39-1.02.7-1.46.28-4.51,4.39-8.77,8.38-8.73,1.16-.73,2.46-1.01,3.78-1.2,1.22-.18,2.47-.33,3.67-.37,1.92-.07,3.74-.88,5.69-.57.68.11,1.34-.52,1.92-.22.44-.06.35-.47.64-.49,1.2.36,2.18-.31,3.24-.5,2.06-.7,4.3.33,6.34-.91.6-.36,1.37-.74,2.26-.43.36.13.89-.24,1.35-.34,1.11-.25,2.27,0,3.38-.47,1.61-.68,3.19-1.35,4.43-2.66.83-.88,1.76-1.66,2.85-2.25,1.83-.98,3.59-2.1,5.38-3.15.24-.14.5-.24.8-.39.62.32,1.36.21,1.97.49.43-.07.71-.31,1-.57.05.15.08.26.12.38-.35.83-.37,1.69-.2,2.56.12.59.31,1.19.36,1.75.11,1.27.55,2.4.98,3.56.37.97.73,1.96.78,2.91,3.04,2.71,5.8,5.59,8.77,8.26.37.12.87.23,1.07.57.38.65.99.93,1.56,1.31.39.26.79.55,1.1.87,1.8,1.86,4.11,3.08,6.07,5.03.53-1.51.83-2.9,1.45-4.09.98-.74,2.06-.31,3.13-.49.24-.14.39-.52.74-.54.9.07,1.81.08,2.61.52.36-.74-.45-.64-.58-1.01-.51-1.48-1.82-2.33-2.91-3.23-.81-.66-1.61-1.34-2.39-2.04-.15-.13-.3-.25-.45-.38-1.13-.95-2.45-1.75-3.36-2.88-1.07-1.34-2.43-2.35-3.59-3.58-1-1.05-2.33-1.76-3.32-2.91-1.48-1.72-3.52-2.9-4.84-4.82-.77-1.11-1.53-2.22-2.16-3.41-.31-.59.14-1.25-.17-1.84-.81.11-.77,1.14-1.51,1.25.12-1.13.65-2.12,1.18-3.08.9-1.61,1.85-3.18,2.55-4.91.26-.65.06-1.31.3-1.93.41-.22.35-.45,0-.68-.09-.5.37-.74.63-.9,1.03-.64.92-1.58.69-2.48-.19-.72-.33-1.45-.43-2.18.03-.14-.08-.17-.17-.2-.01-.13-.02-.25-.03-.38.09-.05.19-.1.3-.17-.17-.11-.22-.15-.28-.2l.02.02c.03-.63-.6-1.22-.09-1.93.25,0,.54.06.8,0,1.89-.47,3.83-.66,5.75-.95,1.81-.27,3.61-.74,5.43-.87,1.3-.1,2.51-.54,3.82-.6,1.15-.05,2.35-.25,3.44-.58,1.35-.41,2.73-.56,4.09-.77,1.79-.28,3.53-.92,5.36-.9.72,0,.84-.79,1.44-.82.68-.03,1.36,0,2.04-.02.11,0,.22-.09.33-.11,1.34-.23,2.67-.7,4.04-.57,1.01.09,2-.03,2.99,0,2.19.08,4.36-.28,6.54-.27.16,0,.32-.02.47-.06,3.62-.96,7.26-1.77,11.05-1.71.08-.34-.29-.87.39-1.15.33.29.67.63,1.21.52.76-.15,1.54-.25,2.31-.35,1.43-.18,2.78-.81,4.27-.63.27.03.54-.03.82-.09,1.44-.32,2.87-.65,4.33-.84,2.42-.33,4.85-.69,7.22-1.26.47-.11.91-.18,1.38-.19ZM202.81,106.32c.63.15.73-.89,1.42-.62.37.25.28.59.15.99-.68.37-1.26.88-1.44,1.65-.7.24-1.4.27-1.92.88.49,1.2.55,2.5.91,3.64.67.82,2.01-.52,2.38.75,2.28-.08,4.09-1.35,6.07-2.27.14.58.78.19,1,.54-.11.61-.78.4-1.08.8,0,.33.5.65.07,1.08-.24-.11-.51-.23-.74-.34-.2-.27.02-.59-.19-.79-.5.07-.23.6-.36.71-1.09.18-1.86.58-2.43,1.35-.93.12-1.77.75-2.71.48-.5-.15-.63-.64-.97-.92-.35.12-.59.53-1.02.4-.31-.23-.16-.71-.53-.91-.22.08-.43.16-.59.22-.66-.53-.88-1.25-.89-1.98-.02-1.3-.19-2.51-1.17-3.48-.1-.1-.21-.3-.18-.42.2-.92-.35-1.66-.56-2.48.14-.03.31.04.41-.14-.08-.14-.1-.38-.36-.27-.12.16-.07.3-.01.45-.39-.07-.43.62-.94.37-.12-.38-.09-.79-.01-1.23.28-.11.53-.21.83-.32-.18-.42-.36-.85.15-.87.18-1.98-.05-3.86-.53-5.67.2-.19.37-.29.58-.21.44.24.44.81.77,1.11,1.05-.69,1.51-2.26,3.26-1.9-.18-1.51-.88-2.84-1.13-4.1-.45-.54-.91-.68-1.46-.67-1.39.03-2.74.5-4.15.42-.43-.02-.82.29-1.05.81-.51,1.17-.93,2.46-1.62,3.46-.93,1.34-1.05,2.95-1.9,4.3-.41.65-.48,1.63-.62,2.41-.24,1.31-1.02,2.45-.99,3.87.01.72-.21,1.46-.07,2.26.1.56.29,1.28-.23,1.7.5,2.01.43,4.12,2.03,5.65,1.06-.26,1.47,1.13,2.54.96.17.28.34.58.5.85-.16.31-.46.36-.73.55,1.22.26.51,1.45,1.16,2-.37.28-.61.55-.98.67-1.31-1.11-2.61-2.22-4.12-3.5.04,2.22-1.26,3.73-1.71,5.56,2.13,2.3,4.92,3.82,6.96,6.02,1.93.83,3.41,2.29,5.16,3.29.47-.34.46-.97.85-1.28,1.27-1.03,2.28-2.32,3.43-3.47.65-.65,1.6-1,2.01-1.81.38-.74,1.04-1.14,1.6-1.62,2-1.7,4.01-3.36,5.43-5.62.52-.83,1.23-1.57,1.99-2.07,1.3-.84,1.82-2.21,2.93-3.29-1.37-.73-1.61-2.08-1.9-3.16-.34-1.28-.65-2.43-1.69-3.22.06-.33.66-.4.27-.82-.8-.08-.42.93-.96,1.08-.31-.11-.33-.44-.43-.53-3.2,1.09-6.35,2.13-9.33,3.52-.45-.44.13-.71.02-1.08-.3-.45-.76-.84-.96-1.41.14-.16.2-.36.41-.41.52.53,1.13,1,1.09,1.81.89-.18,1.38-1.15,2.01-1.24,1.15-.15,2.17-.62,3.27-.85,1.17-.25,2.38-.44,3.36-1.24.25-.08.37.3.67.18.05-.36-.23-.87.38-1.04.18.26.4.45.82.33v-1.53c-1.82-2.02-1.6-4.49-1.42-7.01-.61.42-.97.9-1.34,1.59-.55-.5-1.04-.03-1.56.06-.52.09-.98.23-1.5.04.1-.56.64-.7.8-1.2-.32-.44-.12-1.2-.83-1.53-.17.09-.38.2-.56.3-.36-.24-.18-.47-.03-.7.58-.42,1.09.02,1.63.12.09.23-.16.34-.2.56.48.26.63.74.63,1.32.64-.16.55-.75.86-1,1.53.35,1.55-1.67,2.87-1.69-.22-.55.49-.63.44-.91-.02-.55-.45-.79-.24-1.29.87-.17.25-1.01.5-1.5.36-.15.68-.28.95-.4.24.14.4.35.67.22,2.13-2.89,4.18-5.84,6.67-8.15v-1.99c-.75.24-1.12-.31-1.59-.63-.31-.22-.53.3-.88.08-.93-.6-1.78-.13-2.5.4-.4.29-.82.68-1.25.73-.67.08-.47.72-.86,1-.57.41-1.22.73-1.7,1.24-1.04,1.12-2.06,2.26-3.22,3.26-1.09.94-2.24,1.82-3.17,2.93-.43.51-.76,1.13-1.43,1.27-.51,1.06-1.37,1.76-2.31,2.67.86-.18,1.35-.01,1.54.66-.19.12-.39.24-.28.65.89-.55,1.79-.37,2.69-.1.28.08.09.22.02.34-.62.45-.86,1.4-1.69,1.45-.54-.23.18-.68-.47-.85-.81.54-1.8,1.13-2.82,1.2-.93.07-1.54.47-2.11.98-.74.66-1.58,1.29-1.77,2.41.42.39.15,1.14.7,1.55.53-.18.81-.73,1.33-.86-.37-.65.3-1.46-.48-1.88.16-.28.26-.5.62-.48.21.41.44.85.66,1.29.09.34-.46.48-.3.83.65.08,1.03-.68,1.68-.43,0,.16.02.32.03.48-1.36.63-2.61,1.51-4.1,1.81-.28.33.21.48.15.77-.02.26-.48.3-.29.93.3.55.75,1.35.98,2.24.94-.2,1.63-.73,2.34-1.24l-.04.03ZM186.28,125.26c-.36,1.86-1.63,3.31-2.13,5.11-.49,1.77-.89,3.56-1.32,5.38,5.29,4.84,10.83,9.34,15.58,14.56.62-.14.83-.45,1.04-.8,1.13-1.83,2.32-3.63,3.43-5.48,1.58-2.62,3.48-5.1,3.84-8.36-.65-1.64-2.46-1.83-3.68-2.69h-1.23c-.75.21-.52,1.07-1.12,1.44-.33-.24-.75-.29-1.18-.25-.64.05-1.21-.13-1.81-.36-1.15-.43-2.22-.89-3.04-1.86-.19-.23-.45-.47-.72-.65-2.61-1.81-5.17-3.67-7.37-5.98-.02-.02-.07-.02-.3-.06ZM104.89,102.69c.98.5,2.05.1,3.06.33,1.23,1.23,2.48,2.47,3.71,3.72,1.16,1.18,2.45,2.21,3.75,3.23.43.34,1,.84,1.56.63.89-.34,1.84-.48,2.71-.94,1.52-.81,2.9-1.9,4.76-2.29.79-2.05.32-4.33.85-6.41-.71-.71-1.66-.19-2.47-.58,1.83-2.81,3.6-5.55,5.51-8.5-.95-.05-1.73-.1-2.55-.15,0-.12-.05-.26-.24-.29-.63.41-1.23.59-1.85.46-1.97-.41-3.97-.32-5.89-.51-1.27,1.19-3.96,5.41-4.14,6.48-1-.09-.63.98-1.28,1.48-3.02-.08-6.14-.64-9.47-.97,1.22,1.74,3.2,2.56,4.32,4.29-.87.1-1.6,0-2.35,0ZM98.08,94.2c-.43-2.05-.85-4.07-1.27-6.09-.12-.57.03-1.28-.59-1.61-.52-.27-.57-.72-.67-1.17-.14-.7-.24-1.4-.36-2.13-.72,1.77-.85,3.66-1.57,5.5v.95c1.24,1.91,2.73,3.32,4.46,4.55ZM79.49,109.04c-.81-3.92-2.15-7.64-3.86-11.26-.36.79-.05,1.59-.05,2.36,0,1.46.21,2.92.39,4.37.13,1.07-.2,2.31.56,3.01.98.8,1.91,1.18,2.96,1.52ZM100.94,84.7c0-.3-.28-.17-.33-.34.46-.24.93-.49,1.36-.71.13-.4-.32-.28-.36-.5.1-.06.2-.12.3-.18,0-.26-.37-.08-.37-.38.06-.15.15-.36.25-.59-.5-.14-.75-.57-1.12-.83-1.35-.02-1.81.2-1.94.89-.18.08-.41-.03-.59.23.47.4-.28.94.13,1.42.65-.48.81.42,1.29.42-.17.23-.51,0-.61.27.59.43,1.27.35,1.99.31ZM110.64,80.05c.31.65-.36.83-.67,1.15.17.41.72.4.63.86.5.06.95-.06,1.38.23-.42.02-.84.04-1.33.06.62.84,1.43.67,2.16.68.65-.15.52-.81.84-1.12-.16-.15-.42.04-.53-.21.21-.25.6.08.8-.24-.62-.31-.41-.74-.2-1.24-.69.15-.81-.81-1.32-.78-.63.22-1.1.38-1.76.6ZM105.06,91.82c.1-.25.16-.59-.02-.77-.59-.57-.99-1.44-1.75-1.7-.99-.33-1.58.58-2.23,1.12-.22.39.38.84-.21,1.15.46.02.58.49.95.52,1.11.14,2.18-.09,3.27-.33ZM80.59,112.42c-.48-1.35-1.44-1.95-2.43-2.52-.2.2-.4.29-.39.54.79,1.1,2.02,1.89,2.54,3.27.39-.14.95.75,1.29-.19-.2-.51-.4-1.03-1-1.1ZM140.52,65.58h-2.43c.8.27,1.6.15,2.43,0ZM167.41,70.51c-.76-.15-1.47-.26-2.18,0h2.18ZM190.81,117.96c.32.3.63.53,1.17.48-.24-.44-.73-.42-.8-.91-.16.18-.24.27-.37.43ZM151.07,181.78c-.66-.06-1.3-.19-1.92.04.65.13,1.3.13,1.92-.04ZM30.1,170.01c-.65-.03-1.29-.19-2.2.07.93.11,1.58.1,2.2-.07ZM184.15,153.24c.9.17,1.55.11,2.19,0-.65-.11-1.3-.18-2.19,0ZM146.51,168.84c-.65-.11-1.3-.18-2.18,0,.89.18,1.54.11,2.18,0ZM79.52,220.76l.06-.12h-1.91s0,.08,0,.12h1.85ZM90.82,220.42c-.65-.06-1.29-.19-2.2.06.93.11,1.58.1,2.2-.06ZM138.16,158.44l-.06.12h1.91s0-.08,0-.12h-1.85ZM146.77,159.74c.66.06,1.3.19,1.92-.04-.65-.13-1.3-.13-1.92.04ZM69.04,203.32l-.06.12h1.91s0-.08,0-.12h-1.85ZM41.94,184.12c.55.24,1.2.25,1.85,0h-1.85ZM28.48,140.2s-.04.08-.06.12h1.91s0-.08,0-.12h-1.85ZM162.9,68.52c.56.16.98.18,1.57-.02-.6-.13-1.01-.15-1.57.02ZM150.57,185.93c.32-.05.67.25,1.15-.22-.5.11-.84-.06-1.15.22ZM73.63,174.66c.46.04.8.16,1.14-.1-.34-.04-.68-.17-1.14.1ZM116.54,211.4c-.55-.26-.89-.23-1.22,0h1.22ZM62.41,117.24c.4.17.74.17,1.2-.01-.47-.14-.8-.16-1.2.01ZM61.28,127.35c-.52-.19-.86-.2-1.31-.01.43.14.75.13,1.31.01ZM34.59,176.78c.39.11.72.22,1.11-.08-.4-.06-.74-.14-1.11.08ZM102.38,92.56c.57.08.9.17,1.26-.06-.39-.15-.73-.15-1.26.06ZM140.13,93.05c-.17-.25-.29-.51-.66-.33-.03.5.27.42.66.33ZM164.04,70.49c.24-.06.52.25.73-.11-.26-.1-.5-.11-.73.11ZM62.16,102.1c-.37-.11-.63-.24-.85.07.26.1.51.11.85-.07ZM190.25,118.13c-.29.05-.39.14-.2.36.18,0,.25-.09.2-.36ZM115.15,207.48c-.29-.19-.57-.18-.87,0,.29.19.57.17.87,0ZM34.3,176.75c-.27-.11-.46-.2-.63.04.21.13.38.14.63-.04ZM148.99,185.88c-.21-.17-.42-.17-.63,0,.21.17.42.17.63,0ZM60.1,117.17c.42.2.61.28.83,0h-.83ZM62.14,117.21c-.24-.09-.44-.17-.68.06.24.09.44.17.68-.06ZM141.34,93c-.27-.13-.46-.21-.63.02.2.15.38.13.63-.02ZM110.43,122.96c.12.2.21.33.43.32.03-.36-.09-.46-.43-.32ZM133.49,71.88c.21.17.42.17.63,0-.21-.17-.42-.17-.63,0ZM72.77,174.6c.21.17.42.17.63,0-.21-.17-.42-.17-.63,0ZM72.22,174.6c-.27-.13-.46-.21-.63.02.2.15.38.13.63-.02ZM102.2,92.52c-.18-.18-.29-.1-.4,0,.12.1.23.18.4,0ZM115.16,94.45c-.13-.12-.26-.22-.38.02.15.17.26.08.38-.02Z"/>
    <path class="cls-cs_icon_wag_primary"
          d="M91.22,50.67c-.52-1.74-.81-3.52-.98-5.32,3.85-.77,7.72-1.39,11.68-1.5-.27-.38-.76.03-1.06-.39,2.77-.2,5.42-.73,7.95-1.21,4.49-.23,8.66-1.62,12.98-2.05-.71-.23-1.46.01-2.16-.31,4.49.26,8.79-.77,13.16-1.93.17-.17.26-.51.41-.83-.22-.18-.15-.54-.54-.7-2.75.66-5.64.95-8.49,1.48.01.1.02.19.03.29h4.55v.2h-7.08c.22.19.32.28.41.37-.41.36-.71-.23-1.09-.14-1.15.26-2.32.36-3.47.56-1.82.32-3.67.41-5.48.83-1.2.28-2.44.56-3.7.57.03.25.32.18.25.45-1.06,0-2.17-.18-3.19.04-2.08.45-4.18.71-6.27,1-2,.27-3.99.56-5.98.85-1.12.16-2.2.56-3.34.54-.28-1.81-.54-3.63-.85-5.44-.08-.43-.11-.85-.13-1.28.28-.3.65-.21,1-.27,1.84-.3,3.66-.64,5.5-.94,1.56-.26,3.11-.6,4.68-.69,1.15-.07,2.27-.24,3.33-.58.57-.18,1-.57,1.61-.2.03.02.13-.1.19-.1,1.81-.02,3.52-.79,4.47-.69,6.42-1.27,12.1-1.85,17.64-3.11.27.01.15-.4.74-.38.6.07,1.42-.07,2.31-.42-.72-.21-1.38.08-2.11-.25,1.72-.25,3.32.27,4.91-.06.21-.04.36-.12.5-.27.02-.02.02-.06.04-.12-.12-.07-.24-.14-.41-.24.25-.15.64-.15.63-.59-.6-.32-1.23-.65-1.88-.45-1.04.32-2.13.41-3.18.63-2.48.51-4.91,1.28-7.41,1.67-1.73.27-3.45.65-5.19.76-1.88.11-3.67.67-5.53.89-1.5.18-2.96.71-4.45.78-2.46.13-4.78.95-7.23,1.02,0,.08.01.16.02.24h3.18c-1.4.16-2.79.36-4.14.07-.56.36.31.44.09.73-.29-.12-.55.29-.84.03.04-.28.46-.3.42-.64-.03-.06-.05-.15-.09-.16-.14-.04-.16.07-.18.17-1.09-.09-2.12.34-3.45.28.66.37,1.18.04,1.57.39-.17.42-.42.31-.69.24-.92-.25-1.88-.07-2.8-.07-1.17,0-2.37.26-3.56.4-.68-2.24-1.01-4.54-1.34-6.85-.08-.54-.33-1.07-.21-1.65.26-1.26.93-2.24,2.1-2.73,1.38-.58,2.79-1.14,4.32-1.23,1.59-.1,3.12-.55,4.69-.79,2.15-.33,4.28-.77,6.43-1.14,2.26-.38,4.53-.69,6.78-1.14,2.13-.42,4.29-.74,6.45-1.01,1.69-.21,3.36-.59,5.05-.81,2.83-.36,5.63-.91,8.45-1.38.47-.08.95-.13,1.41-.25,2.38-.61,4.9-.26,7.26-.95,1.64-.48,3.34-.67,5-1.1,2.1-.54,4.29-.72,6.45-1.06,2.98-.47,5.96-1,8.95-1.37,1.88-.23,3.78-.68,5.68-.07,1.23.39,2.06,1.08,2.33,2.43.48,2.37.81,4.76,1.13,7.15.09.71.34,1.4.25,2.12-1.22,0-2.44.14-3.62.43-1.3.32-2.58.6-3.92.57-.4,0-.83-.08-1.19.05-2.31.83-4.73.87-6.99,1.21-1.6.74-3.32.43-4.84,1.01.21.29.63-.05.9.34.08.07-.14.33.2.5,1.35-.12,2.8.38,4.25-.11-.1-.25-.51.01-.54-.37h2.97c-.04-.46.25-.49.59-.49.84.01,1.69-.06,2.52.02,1.25.11,2.47-.23,3.55-.62,2.07-.75,4.2-.98,6.33-1.3.32,2.06.4,4.15.9,6.18.2.8-.13,1.67.28,2.45-1.67-.18-3.27.37-4.89.59-1.84.24-3.69.57-5.54.79-1.82.22-3.55.93-5.44.85-.42-.02-1.12-.07-1.46.24-.86.75-1.84.62-2.82.65-.55.01-1.14-.1-1.56.4.19.52.72.2,1.05.42-.13.09-.3.14-.37.26-.11.16-.15.36-.22.54,1.03.08,1.13.06,2.04-.51,0-.21-.42-.02-.28-.46,5.17.52,10.17-1.18,15.27-1.39.2-.14-.07-.27.06-.42.48-.19.86.38,1.34.19.92-.37,1.93-.24,2.85-.54.43,1.18.5,2.44.66,3.66.12.93.41,1.86.3,2.82-.45.12-.9.09-1.31.04-.09-.18.17-.35-.09-.38-3.07.01-5.96,1.29-8.99,1.16-.17.28.38.17.06.52-1.68-.45-3.27.49-4.98.45-.46-.01-1.21.21-1.34.53-.29.71-.93.6-1.26.54-.98-.18-1.78.14-2.5.55-.51.09-.95-.09-1.38.15.5.27,1.04,0,1.52.17-.03.2-.19.46.23.43.27-.02.37.08.18.33-.25.32-.7-.02-1.03.36.46-.04.88.23,1.22-.19.78-.14,1.58-.23,2.16-1.04,4.08.47,8.05-.63,12.07-1.42h-3.81c1.44-.32,2.91-.31,4.32-.31,1.77,0,3.46-.15,5.16-.59,0,0-.03-.02-.03-.02.08.08.15.15.23.23.03.28.07.57.1.85.11.26-.21.6.14.82.24,1.78.48,3.57.71,5.35.18,1.44.35,2.88.5,4.32.08.78.4,1.54.25,2.34-3.7.34-7.34,1.17-11.26,1.55-.21.08-.58.34-1.08.4-1.69.2-3.39.34-5.05.85-.76.23-1.55.52-2.36.57-1.48.08-2.9.64-4.37.66-1.12.01-2.14.46-3.22.53-1.41.08-2.76.46-4.15.67-1.9.28-3.78.66-5.48.81-2.15-1.13-3.98.18-6.07.12-.25-.21-.79-.22-1.28-.12-1.81.36-3.66.55-5.43,1.16-1.36.47-2.83.49-4.22.79-2.62.56-5.27.94-7.9,1.42-1.6.29-3.22.3-4.8.87-1.4.51-2.96.65-4.47.75-1.53.1-3,.47-4.51.68-1.42.2-2.83.46-4.27.45-.44-2.46-.88-4.91-1.31-7.37-.04-.23-.05-.47-.08-.7.93-.39,1.92-.62,2.91-.69,1.72-.11,3.41-.43,5.07-.82,2.26-.54,4.58-.7,6.85-1.27,1.09-.27,2.3-.44,3.42-.66,2.04-.39,4.05-.89,6.13-1.01-.02-.11-.19-.25.21-.41,1.88.56,3.75-.66,5.78-.43-.12-.34-.43-.13-.52-.28-.12-.2-.49-.06-.49-.46,3.71.63,7.23-.63,10.85-.95-.04-.19-.06-.3-.05-.27,1.45-.71,3.21-.4,4.44-1.47,0-.47-.32-.36-.41-.52.12-.08.25-.17.42-.29-1.7-.55-3.19.74-4.81.36-.38.33-.75.53-1.28.55-1.79.06-3.59.43-5.3.83-2.72.64-5.48.8-8.21,1.27-1.72.3-3.45.59-5.17.9-1.67.31-3.33.7-4.99,1.04-1.97.4-3.94.83-5.93,1.17-1.56.27-3.11.57-4.66.95-1.49.37-3.04.54-4.51,1.03-.3-1.79-.58-3.58-.91-5.36-.1-.52,0-1.03-.1-1.54,1.91-.06,3.79-.3,5.69-.66.09-.23-.38-.05-.27-.39,1.04.2,2.08-.03,3.24-.05-.3-.31-.71-.04-.93-.47h3.23c-.17-.41-.66.04-.77-.44,4.21.23,8.21-1.19,12.45-1.47.33-.51.93-.47,1.53-.45.28,0,.58.06.84-.02,1.43-.42,2.93-.53,4.38-.64,1.77-.13,3.52-.39,5.26-.6,2.83-.35,5.62-1.08,8.42-1.67.12-.03.21-.19.35-.31-.14-.07-.24-.12-.34-.17-.07.14-.17-.21-.04-.11.51-.18.53-.21.5-.75-1.66-.3-3.2.38-4.89.51.46.33.96-.03,1.43.38-6.53-.14-12.76,1.45-19.1,2.2h5.92c-.33.29-.58.21-.81.22-2.81.11-5.63-.14-8.45.22-2,.26-3.96.76-5.96,1.06-1.91.29-3.77.88-5.69,1.18-.66.1-1.35.01-1.97.22-1.46.5-3.03.48-4.49.95ZM162.63,52.26v-.11h-3.62s0,.07,0,.11h3.62ZM152.08,27.43h-1.74c.54.44,1.11,0,1.74,0ZM143.41,31.32c.65.11,1.3.18,2.18,0-.89-.18-1.54-.11-2.18,0ZM163.05,45.28h1.94c-.65-.11-1.3-.25-1.94,0ZM142.42,31.83c-.54-.2-.88-.21-1.26-.05.36.22.69.13,1.26.05ZM144.56,31.85c-.5-.23-.84-.21-1.28-.05.41.18.71.12,1.28.05ZM163.81,16.97c.34,0,.68.2,1.1-.13-.44-.02-.77-.13-1.1.13ZM149.6,44.57c-.5-.23-.84-.21-1.28-.05.41.18.71.12,1.28.05ZM112.53,21.84c.38-.06.65.14,1.02-.23-.38.06-.65-.14-1.02.23ZM161.51,16.96c.35.07.63.17.98-.09-.35-.07-.63-.17-.98.09ZM121.39,19.08c-.21-.18-.41-.17-.63,0,.21.18.41.17.63,0ZM135.89,57.96c.21.17.42.17.63,0-.21-.17-.42-.17-.63,0ZM108.67,39.72c-.21-.18-.41-.17-.63,0,.21.18.41.17.63,0ZM171.83,40.68c-.07-.1-.15-.11-.22,0,.07.11.15.11.22,0Z"/>
    <path class="cls-cs_icon_wag_secondary"
          d="M118.82,114.26c-.62.26-1.29.2-1.93.31-.43.07-.84-.06-.67-.79.5.09.93.11,1.31-.49.68-1.07,1.97-1.45,2.99-2.13,1.42-.94,2.99-1.7,4.65-2.17.49-.14.65-.71,1.14-.75.41.24.24.77.6,1.01v-.02c.06.51.1,1.03.02,1.53-.75.43-1.03,1.17-1.14,1.91-.19,1.28-.7,2.42-1,3.05-.55,2.95.67,5.19.49,7.51.52.59,1.16.98,1.18,1.76-.19.05-.26-.24-.44-.05v.34c-.06.27-.48-.11-.49.26.03.19.16.23.29.21.21-.13-.06-.38.17-.5.39.22.31.5.09.78-.14.19-.36.31-.33.6.13,1.08.16,2.19.32,3.25.22,1.48.15,2.97.35,4.45.23,1.7.1,3.46.25,5.19.09,1.01.22,2.06.05,3.1-.16,1-.23,2.11-.12,3.03.11.95-.03,1.9-.02,2.81,0,.93-.02,1.91-.12,3.03.27-.39.45-.6.49-.93.16-1.19.76-2.27,1.18-3.36.37-.95.78-1.92,1.21-2.87.28-.62.46-1.29.76-1.89,1.05-2.14,1.85-4.38,2.8-6.56.76-1.75,1.03-3.7,1.62-5.53.43-1.34.71-2.69.84-4.08.13-1.36-.09-2.69-.55-3.93-.48-1.3-.97-2.59-2.03-3.66-.95-.96-1.8-2.12-2.26-3.39.17-.43.4-.61.77-.55,0,.31.2.25.39.22.43,1.37,1.54,2.29,2.38,3.34,1.17,1.47,1.58,3.2,2.21,4.84.64,1.68.75,3.51.73,5.3-.02,1.63-.05,3.3-.51,4.88-.66,2.22-.88,4.55-1.63,6.74-.42,1.23-.98,2.41-1.43,3.63-.86,2.34-1.57,4.73-2.49,7.05-.53,1.34-.73,2.81-1.26,4.18-.41,1.06-.85,2.12-1.19,3.22-.28.92-.56,1.84-.83,2.76-.58,1.95-1.51,3.78-1.95,5.78-.37,1.65-.95,3.26-1.48,4.85-.48,1.46-.87,3.01-1.69,4.35-.26.42-.02.88-.16,1.27-.62,1.7-.94,3.49-1.65,5.16-.82,1.91-1.14,3.98-1.74,5.95-.78,2.53-1.28,5.13-2.2,7.63-.5,1.35-.68,2.85-1.14,4.23-.42,1.28-.49,2.64-1.02,3.9-.37.86-.34,1.88-.85,2.74-.1.17-.06.48.02.55-1.34,3.28-2.14,6.69-3.7,10.15-.16-1.04-.42-1.84-.39-2.64.08-2.19-.28-4.35-.31-6.54-.03-1.81-.49-3.61-.9-5.39-.37-1.62-.69-3.25-1.04-4.87-.53-2.51-.59-5.08-1.26-7.58-.4-1.52-.58-3.13-.8-4.71-.15-1.09-.48-2.12-.81-3.13-.54-1.65-.74-3.37-1.14-5.04-.33-1.39-.97-2.68-1.25-4.1-.35-1.77-.77-3.55-1.44-5.21-.87-2.15-1.45-4.37-2.11-6.58-.35-1.15-1.08-2.13-1.42-3.26-.47-1.55-1.38-2.92-1.77-4.5-.27-1.09-.67-2.12-1.09-3.16-.18-.44-.44-.72-.7-1.05-.11-1.55-1.03-2.81-1.61-4.18-.22-.52-.43-1.07-.67-1.57-.72-1.53-1.09-3.2-2.04-4.64-.7-1.06-1-2.33-1.44-3.51-.23-.62-.51-1.21-.83-1.75-1.45-2.41-2.63-4.95-3.79-7.51-.95-2.1-1.68-4.35-2.96-6.24-1.3-1.92-1.66-4.22-2.94-6.11-.23-.34-.36-.84-.36-1.33,0-.73.13-1.47-.33-2.36,1.12.54,1.71,1.29,2,2.16.81,2.42,2.36,4.41,3.66,6.54.48.79.84,1.63,1.35,2.41.81,1.24,1.44,2.6,2.11,3.93,1.38,2.74,3.1,5.28,4.35,8.1,1.19,2.69,2.32,5.47,3.95,7.93,1.18,1.77,1.74,3.75,2.51,5.66,1.09,2.71,2.31,5.36,3.43,8.06.49,1.17.77,2.41,1.23,3.59.48,1.25.91,2.52,1.32,3.8.41,1.28.7,2.6,1.11,3.87.38,1.2.77,2.41,1.15,3.61.64,2.02.81,4.17,1.55,6.2.14-.25.27-.48.38-.69-.32-1.48-.5-2.94-.74-4.39-.33-1.95-.37-3.97-.98-5.85-.31-.96-.11-1.92-.41-2.88-.83-2.7-1.02-5.54-1.65-8.3-.59-2.57-1.17-5.18-1.41-7.8-.21-2.3-1.15-4.35-1.48-6.56-.18-1.2-.2-2.47-.58-3.6-.63-1.87-.86-3.83-1.58-5.68-.28-.73-.33-1.58-.5-2.38-.38-1.78-1.29-3.39-1.53-5.21-.03-.2-.28-.37-.43-.57.03-.75-.17-1.42-.43-2.15-.74-2.06-1.38-4.15-2.07-6.22-.69-2.05-1.55-4.08-1.94-6.26.18-.13.43-.12.6.07,2,2.23,4.6,3.74,6.78,5.77,1.1,1.03,2.39,1.86,3.65,2.7.65.43,1.25.95,1.83,1.44.98.83,1.82,1.84,3.16,2.14.26.05.09-.41.52-.4.81.64.48,1.91,1.31,2.7.79.75,1.61,1.48,2.37,2.13-.23,2.11-.33,4.14-.69,6.13-.28,1.53-.17,3.09-.59,4.64-.29,1.08-.36,2.33-.33,3.52.06,3.1-.26,6.19-.27,9.29-.01,3.76-.28,7.52-.21,11.29.02,1.37.19,2.76-.21,4.12-.09.3.21.55.23.89.13,1.81-.12,3.61,0,5.41.18,2.78.17,5.56.25,8.33.04,1.47.05,2.93-.02,4.39-.03.67-.15,1.41.08,2.01.44,1.15.09,2.33.31,3.5.21,1.09.01,2.34.14,3.47.29,2.48-.04,4.97.37,7.43.03.19.07.4.05.59-.16,1.99.32,3.95.35,5.96,1.25-4.71,2.43-9.44,3.72-14.13-.13-.28-.46-.06-.62-.26.16-.32.69.08.76-.44.23-1.22.32-2.52,1.02-3.67.22-.37,0-.85.14-1.28,1.06-3.3,1.84-6.69,2.48-10.08.48-2.56,1.06-5.11,1.31-7.73.11-1.14.46-2.31.53-3.43.06-1.01.27-2.03.19-3.08-.09-1.04.02-2.11.14-3.17.15-1.4.24-2.84.27-4.26.04-1.96-.24-3.92-.16-5.87.04-.85-.09-1.67-.06-2.5.05-1.63-.08-3.27,0-4.9.07-1.35-.1-2.72-.31-4.01-.24-1.47-.87-2.92-1.84-4.18-.72-.94-1.43-1.92-1.96-3.08.63-.26,1.24-.43,1.96-.43-.44-.41-1.07.07-1.35-.5.21-.71.46-1.42.62-2.15.16-.76.56-1.15,1.34-1.15.32,0,.64,0,.95-.05.85-.15,1.48-.65,1.5-1.52.03-1.35.97-2.33,1.2-3.58.13-.34-.23-.44-.34-.69.39-.78-.1-1.5-.11-2.27-.2-.03-.35-.05-.5-.07q.03-.57-.56-1.13c-.07.13-.14.27-.22.42-.63-.72-1.61-1.03-2.06-1.92.23,0,.46.08.67-.08-.17-.2-.39-.25-.64-.31v.42ZM118.83,127.85c-.12-.53-.35-.51-.67-.27.13.2.26.39.67.27ZM126.74,151.59c-.63.22-.54.45-.36.73.1-.2.19-.38.36-.73Z"/>
    <path class="cls-cs_icon_wag_secondary"
          d="M90.3,89.09c.74-.11.7-1.14,1.51-1.25.31.59-.15,1.25.17,1.84.64,1.19,1.4,2.3,2.16,3.41,1.32,1.93,3.36,3.1,4.84,4.82.99,1.15,2.32,1.86,3.32,2.91,1.16,1.22,2.52,2.24,3.59,3.58.9,1.13,2.22,1.93,3.36,2.88.15.13.31.25.45.38.78.7,1.59,1.38,2.39,2.04,1.09.9,2.4,1.76,2.91,3.23.13.37.94.27.58,1.01-.8-.44-1.71-.46-2.61-.52-.35.02-.5.4-.74.54-1.07.17-2.15-.26-3.13.49-.62,1.19-.91,2.58-1.45,4.09-1.96-1.95-4.27-3.16-6.07-5.03-.31-.32-.71-.61-1.1-.87-.57-.38-1.18-.66-1.56-1.31-.2-.34-.7-.45-1.07-.57-2.97-2.67-5.73-5.55-8.77-8.26-.05-.95-.42-1.94-.78-2.91-.44-1.16-.87-2.3-.98-3.56-.05-.57-.25-1.17-.36-1.75-.17-.86-.15-1.73.2-2.56.55-.58,1.1-1.15,1.65-1.73.29,0,.6.08.88-.06.08-.22.15-.43.22-.64.19.05.31-.03.4-.19Z"/>
    <path class="cls-cs_icon_wag_primary"
          d="M126.02,125.28v-.34c.18-.19.26.09.44.05-.03-.79-.67-1.17-1.18-1.76.17-2.31-1.05-4.56-.49-7.51.3-.63.82-1.77,1-3.05.11-.74.39-1.47,1.14-1.91.08-.5.04-1.02-.02-1.53.77-.06.8.67,1.17,1.02.72.66.96,1.61,1.69,2.24.27.24.36.69.53,1.05-.35.25-.21.57-.15.98h1.14s-.03-.03-.03-.03c0,.09,0,.18,0,.26h.03c-.38-.07-.6.11-.77.54.46,1.27,1.31,2.43,2.26,3.39,1.06,1.07,1.55,2.36,2.03,3.66.46,1.24.68,2.57.55,3.93-.13,1.4-.41,2.74-.84,4.08-.59,1.83-.86,3.79-1.62,5.53-.95,2.18-1.75,4.42-2.8,6.56-.3.61-.48,1.27-.76,1.89-.42.95-.84,1.93-1.21,2.87-.42,1.09-1.02,2.17-1.18,3.36-.04.33-.23.55-.49.93.1-1.11.13-2.09.12-3.03,0-.91.12-1.86.02-2.81-.1-.93-.04-2.03.12-3.03.17-1.04.04-2.09-.05-3.1-.16-1.73-.02-3.49-.25-5.19-.2-1.48-.13-2.97-.35-4.45-.16-1.05-.19-2.16-.32-3.25-.03-.29.18-.42.33-.6.21-.28.3-.56-.09-.78l.03.03ZM129.06,115.37c-.16-.47-.67-.36-.84-.73-.16-.4,0-.83-.23-1.26-.18-.36-.09-.86-.13-1.41-1.23,1.8-1.59,2.74-1.53,3.87.18.11.36.11.62-.05-.06-.43.11-.85.34-1.28.2.34.43.65.77.89.29-.54.67.18,1-.04ZM125.83,117.78c.38.18.44-.15.66-.3-.14-.15-.22-.24-.31-.33-.25.18-.52.29-.35.63ZM126.62,116.04c-.41.25-.5.44-.24.76.21-.13.39-.26.24-.76Z"/>
    <path class="cls-cs_icon_wag_secondary"
          d="M94.3,68.3c1.44.01,2.85-.25,4.27-.45,1.5-.21,2.98-.58,4.51-.68,1.51-.1,3.07-.25,4.47-.75,1.58-.57,3.21-.58,4.8-.87,2.63-.48,5.28-.86,7.9-1.42,1.39-.3,2.87-.33,4.22-.79,1.77-.61,3.62-.8,5.43-1.16.49-.1,1.03-.09,1.28.12,2.09.06,3.92-1.24,6.07-.12,1.7-.15,3.58-.52,5.48-.81,1.38-.21,2.74-.59,4.15-.67,1.08-.06,2.1-.51,3.22-.53,1.47-.02,2.89-.58,4.37-.66.81-.05,1.6-.34,2.36-.57,1.66-.5,3.35-.64,5.05-.85.5-.06.87-.32,1.08-.4,3.93-.38,7.56-1.21,11.26-1.55.02.19.05.39.06.51-.12.28-.56.08-.49.47-.57-.19-1.06.2-1.61.24-1.86.12-3.67.62-5.51.9-1.23.19-2.46.43-3.7.5-1.33.08-2.58.56-3.9.65-1.63.11-3.18.89-4.87.65-.11-.02-.69.04-.57.54.08.03.16.1.22.09,1.95-.31,3.89-.66,5.85-.94,1.73-.25,3.48-.47,5.19-.79,2.09-.39,4.23-.58,6.27-1.18.87-.26,1.93.22,2.61-.68.19.02.37.04.56.06.13.22.13.45.13.68-.47.02-.91.08-1.38.19-2.38.57-4.8.93-7.22,1.26-1.46.2-2.89.53-4.33.84-.28.06-.55.13-.82.09-1.48-.18-2.84.45-4.27.63-.77.1-1.55.2-2.31.35-.54.11-.88-.23-1.21-.52-.68.27-.3.81-.39,1.15-3.79-.06-7.43.75-11.05,1.71-.15.04-.31.06-.47.06-2.18-.01-4.35.35-6.54.27-.99-.04-1.98.09-2.99,0-1.37-.13-2.69.34-4.04.57-.11.02-.22.11-.33.11-.68.01-1.36-.01-2.04.02-.6.03-.72.82-1.44.82-1.83-.02-3.56.62-5.36.9-1.36.21-2.74.37-4.09.77-1.1.33-2.29.52-3.44.58-1.31.06-2.52.51-3.82.6-1.82.13-3.62.6-5.43.87-1.92.29-3.86.48-5.75.95-.26.06-.55,0-.8,0-.51.71.12,1.3.09,1.93-.44,0-.32-.4-.35-.6-.15-1.03-.54-2.04-.41-3.11ZM131.19,63.16c.35.23.75.23,1.15,0h-1.15ZM143.75,61.6c.35.07.63.17.98-.09-.35-.07-.63-.17-.98.09ZM142.92,62.09c.24-.06.52.25.73-.11-.26-.1-.5-.11-.73.11ZM137.9,63.31c-.42-.2-.61-.28-.83,0h.83Z"/>
    <path class="cls-cs_icon_wag_secondary"
          d="M153.04,104.17c-.2-.45-.18-.86.08-1.3.87-1.5,1.72-3.02,2.58-4.53.55-.97,1.15-1.91,1.65-2.9.19-.38.46-.6.78-.53,1.33.3,2.67-.01,3.99.17.07.23-.26.14-.23.42,2.4.08,4.82.03,7.21.29.04.25-.2.18-.29.29-.03.23.22.12.31.28-.2.42-.09,1.08-.81,1.16-.13,1.76-1.34,2.96-2.12,4.73.12,1.01.02,1.21-.92,1.48-.07.35-.13.67-.2.98-.02.33-.39.06-.66.29-.01.18-.03.37-.04.56-.3-.12-.68.17-.95-.17.23,0,.47.1.72-.1-.15-.17-.22-.4-.56-.39-.07.16-.43.16-.27.49-.23.1-.32-.09-.43-.23-.18,0-.22.3-.45.21-.15-.42-.42-.22-.66-.13-.26.06-.2-.28-.41-.3-.03.11-.06.22-.09.35-2.01-.23-4.05-.46-6.08-.69-.02.14-.19-.13-.05-.1.08.01.11-.17.04-.37-.7.47-1.42.41-2.13.05ZM160.89,104.46s0,.07,0,.1h3.61s0-.07,0-.1h-3.61ZM168.05,96.6c.21.18.41.17.63,0-.21-.18-.41-.17-.63,0Z"/>
    <path class="cls-cs_icon_wag_secondary"
          d="M153.6,79.42c2.35-.68,4.65-1.59,7.21-1.44-.05-.22-.05-.35-.12-.43-.09-.12-.24-.19-.37-.29-.41.74-1.11.36-1.66.53-.64.19-1.17-.58-1.8-.09-.28-.09-.42-.33-.59-.54.07-.15.32-.04.36-.27-1.23-.09-1.53-1.31-2.33-1.94-1.79-1.42-3.01-3.41-4.84-4.99,2.89-.66,5.72-.89,8.47-1.52h4.52c-.37.37-.82.07-1.24.39,2.37,2.58,4.73,5.15,7.11,7.73.78-.05,1.58.19,2.33-.21l-.03-.04c.16.4-.2.48-.53.73.29.04.47.06.65.08-3.46.6-6.94.97-10.42,1.39-1.34.16-2.64.56-3.99.73-.91.11-1.82.22-2.74.19ZM159.89,74.63c0,.47-.25.92.27,1.14-.21-.31.05-.76-.27-1.14ZM164.64,74.77c-.36-.18-.62-.18-.91,0,.29.16.54.14.91,0Z"/>
    <path class="cls-cs_icon_wag_secondary"
          d="M132.22,101.51c.18-.59.4-1.12.79-1.64,1.53-2.03,2.59-4.36,4.02-6.47.08-.12-.05-.32.1-.44.8-.25,1.63-.7,2.16.32,2.66.39,5.27.5,7.89.3.63-.05.77.51,1.15.99-.93-.14-1.75-.02-2.58.13.89.13,1.78.37,3.01.05-.53.44-.35,1-.99,1.16-.21.05-.24.67-.44.97-1.11,1.69-2.24,3.36-3.36,5.04-.17.25-.29.54-.43.81-1.6.17-3.2-.06-4.74-.36-1-.19-2.01-.11-2.99-.37-.21-.46-.45-.31-.69-.03-.98-.02-1.93-.31-2.89-.46ZM135.26,98.7c.89.16,1.78.25,2.66,0h-2.66ZM143.78,95.94c-.45-.17-.86-.37-1.16.21.14.14.22.33.46.33.19-.22.35-.47.7-.53ZM147.56,93.94s-.05-.06-.08-.08c-.03.03-.06.05-.08.08.04.03.08.06.12.08.01-.03.03-.05.04-.08ZM146.58,97.52s-.06-.05-.08-.04c-.03.01-.09.06-.08.07.04.1.1.12.16.05.01-.02,0-.05,0-.08Z"/>
    <path class="cls-cs_icon_wag_secondary"
          d="M134.8,82.09c.12-.19.31-.23.52-.22,1.75.09,3.47-.26,5.2-.46.74-.09,1.38-.66,2.2-.61-1.55-.09-3.09-.11-4.69.34-1.88-.84-3.09-2.57-4.57-3.97-1.46-1.39-2.86-2.84-4.4-4.38,2.01-.22,3.86-.41,5.72-.61.04-.16-.18-.15-.26-.36,1.68.35,3.32-.14,5.04-.02,1.44,1.36,3.04,2.65,4.36,4.17,1.25,1.45,2.85,2.55,4.06,4.1.82-.03,1.67-.49,2.59-.3-2.52.62-5.12.76-7.64,1.3-2.38.5-4.79.65-7.18,1.02-.31.05-.63.13-.94.01ZM144.26,80.22c-.3.09-.52.14-.68.37.29.05.6.26.68-.37Z"/>
    <path class="cls-cs_icon_wag_secondary"
          d="M92.68,58.82c1.47-.49,3.02-.66,4.51-1.03,1.54-.38,3.09-.68,4.66-.95,1.98-.34,3.95-.76,5.93-1.17,1.67-.34,3.32-.74,4.99-1.04,1.72-.32,3.45-.6,5.17-.9,2.73-.48,5.49-.63,8.21-1.27,1.71-.4,3.51-.77,5.3-.83.53-.02.9-.21,1.28-.55,1.62.38,3.1-.91,4.81-.36-.18.12-.3.2-.42.29.1.16.41.05.41.52-1.23,1.07-2.99.76-4.44,1.47,0-.03.02.08.05.27-3.62.32-7.14,1.57-10.85.95,0,.41.36.27.49.46.1.15.4-.06.52.28-2.04-.24-3.9.99-5.78.43-.4.16-.22.31-.21.41-2.08.11-4.09.62-6.13,1.01-1.13.22-2.34.39-3.42.66-2.26.57-4.58.73-6.85,1.27-1.65.39-3.35.71-5.07.82-.99.07-1.98.29-2.91.69-.08-.47-.16-.94-.24-1.41ZM121.83,54.32h-2.9c.97.11,1.94.26,2.9,0ZM115.31,54.86c.6.1.94.18,1.29-.03-.37-.17-.7-.14-1.29.03ZM116.67,54.37c.26.11.45.19.65-.08-.23-.04-.41-.11-.65.08Z"/>
    <path class="cls-cs_icon_wag_secondary"
          d="M88.5,34.81c1.19-.14,2.39-.39,3.56-.4.92,0,1.88-.18,2.8.07.27.07.52.19.69-.24-.39-.35-.92-.02-1.57-.39,1.33.07,2.36-.36,3.45-.28.09,0,.18,0,.27,0,.04.33-.38.36-.42.64.29.26.56-.15.84-.03.22-.29-.65-.37-.09-.73,1.35.29,2.74.09,4.14-.07h-3.18c0-.08-.01-.16-.02-.24,2.45-.07,4.77-.89,7.23-1.02,1.49-.08,2.96-.6,4.45-.78,1.86-.23,3.65-.78,5.53-.89,1.74-.11,3.46-.49,5.19-.76,2.51-.39,4.93-1.16,7.41-1.67,1.05-.21,2.14-.31,3.18-.63.65-.2,1.29.12,1.88.45,0,.43-.38.44-.63.59.16.1.29.17.41.24-.02.06-.02.1-.04.12-.14.15-.29.22-.5.27-1.59.33-3.18-.19-4.91.06.73.34,1.39.04,2.11.25-.89.34-1.71.49-2.31.42-.58-.02-.47.39-.74.38-5.54,1.27-11.22,1.84-17.64,3.11-.95-.1-2.66.68-4.47.69-.07,0-.16.12-.19.1-.61-.37-1.04.02-1.61.2-1.05.34-2.18.51-3.33.58-1.57.09-3.12.43-4.68.69-1.83.3-3.66.64-5.5.94-.35.06-.72-.03-1,.27-.28-.61-.27-1.28-.32-1.93ZM94.81,35c-.52.23-1.01.03-1.5.52.58-.07,1.1.25,1.5-.52ZM100.28,34.23q-.5-.36-.92-.07c.29.26.59.19.92.07ZM103.15,33.48c-.21-.17-.42-.17-.63,0,.21.17.42.17.63,0Z"/>
    <path class="cls-cs_icon_wag_secondary"
          d="M121.37,84.01c.09-.31-.35-.4-.2-.68-.45-.11-.54.26-.79.36-.34-.08-.35-.45-.47-.63-.4-.07-.64,0-.7.4-.25-.48-.93-.51-1.04-1.09.58-.16,1.18.09,1.96-.25h-2.25c-.65-.53-.95-1.23-1.66-1.61-.57-.31-.62-1.12-.77-1.75-.26-1.08-.47-2.17-.6-3.48,1.12-.79,2.78-.23,4.12-1.13,1.33,1.11,2.67,2.26,3.94,3.5,1.2,1.17,2.44,2.31,3.7,3.42.71.63,1.48,1.2,2.07,1.95-2.43.35-4.82,1.02-7.3.98ZM122.91,83.24c.39.02.73.09,1.07-.12-.33.26-.69-.65-1.07.12ZM120.22,79.57c.06.32.21.36.36.37.12.01.2.27.33.09.1-.22,0-.31-.17-.35-.13-.04-.27-.06-.51-.11ZM120.11,79.31q-.33-.28-.57-.03c.13.2.3.2.57.03ZM120.85,82.15c-.16.06-.39-.24-.55.12.21.04.39.11.55-.12Z"/>
    <path class="cls-cs_icon_wag_secondary"
          d="M91.22,50.67c1.46-.47,3.02-.46,4.49-.95.62-.21,1.31-.12,1.97-.22,1.93-.3,3.79-.89,5.69-1.18,2-.3,3.95-.8,5.96-1.06,2.81-.37,5.63-.11,8.45-.22.23,0,.48.07.81-.22h-5.92c6.34-.75,12.57-2.35,19.1-2.2-.47-.4-.97-.05-1.43-.38,1.69-.13,3.23-.81,4.89-.51.03.54,0,.58-.5.75-.12-.1-.03.26.04.11.1.05.2.1.34.17-.14.12-.23.29-.35.31-2.8.58-5.59,1.32-8.42,1.67-1.74.21-3.5.47-5.26.6-1.45.11-2.95.22-4.38.64-.26.08-.56.03-.84.02-.6-.02-1.2-.06-1.53.45-4.24.29-8.24,1.7-12.45,1.47.11.48.6.03.77.44h-3.23c.22.43.63.16.93.47-1.16.01-2.2.24-3.24.05-.1.33.36.16.27.39-1.89.36-3.78.6-5.69.66-.15-.42-.3-.84-.45-1.25ZM133.83,44.44q-1.24-.07-1.71.45c.47-.62,1.28.39,1.71-.45Z"/>
    <path class="cls-cs_icon_wag_secondary"
          d="M89.8,43.46c1.15.02,2.23-.38,3.34-.54,1.99-.29,3.99-.58,5.98-.85,2.09-.28,4.2-.55,6.27-1,1.03-.22,2.14-.04,3.19-.04.08-.27-.22-.2-.25-.45,1.26,0,2.5-.29,3.7-.57,1.81-.42,3.66-.51,5.48-.83,1.15-.2,2.32-.3,3.47-.56.39-.09.68.5,1.09.14-.1-.09-.2-.18-.41-.37h7.08v-.2h-4.55c-.01-.1-.02-.19-.03-.29,2.85-.53,5.75-.82,8.49-1.48.39.16.32.52.54.7-.15.31-.23.66-.41.83-4.38,1.16-8.67,2.18-13.16,1.93.7.32,1.45.07,2.16.31-4.32.43-8.5,1.82-12.98,2.05-2.52.48-5.18,1.02-7.95,1.21.3.42.79,0,1.06.39-3.96.11-7.83.74-11.68,1.5-.15-.63-.29-1.26-.44-1.89ZM104.79,42.04s-.03.08-.04.12h3.33s0-.08,0-.12h-3.28ZM102.81,42.92s.03-.08.04-.12h-1.9s0,.08,0,.12h1.85Z"/>
    <path class="cls-cs_icon_wag_secondary"
          d="M152.22,45.45c.19-.24.1-.35-.18-.33-.42.03-.26-.22-.23-.43-.48-.17-1.02.09-1.52-.17.43-.24.87-.06,1.38-.15.71-.41,1.51-.73,2.5-.55.33.06.97.17,1.26-.54.13-.31.88-.54,1.34-.53,1.71.04,3.3-.9,4.98-.45.32-.35-.24-.23-.06-.52,3.03.13,5.92-1.15,8.99-1.16.26.03,0,.19.09.38.41.05.86.08,1.31-.04.44.36-.09.91.24,1.29-1.69.43-3.39.59-5.16.59-1.42,0-2.88,0-4.32.31h3.81c-4.02.79-7.99,1.89-12.07,1.42-.58.81-1.38.9-2.16,1.04-.06-.06-.13-.11-.19-.17ZM160.52,43.05c-.34-.1-.6-.23-.89.18.33-.09.58.07.89-.18ZM160.84,43.59c.34.1.6.23.89-.18-.33.09-.58-.07-.89.18ZM155.04,44.29c-.36-.18-.62-.18-.91,0,.29.16.54.14.91,0ZM162.19,43.08c-.21-.18-.41-.17-.63,0,.21.18.41.17.63,0ZM158.62,43.07c-.27-.11-.46-.2-.63.04.21.13.38.14.63-.04Z"/>
    <path class="cls-cs_icon_wag_secondary"
          d="M171.12,34.49c-.93.3-1.94.17-2.85.54-.48.19-.87-.38-1.34-.19-.13.15.14.28-.06.42-5.09.21-10.09,1.91-15.27,1.39-.14.43.28.25.28.46-.91.57-1.01.59-2.04.51.07-.18.11-.38.22-.54.08-.11.24-.17.37-.26-.33-.22-.86.1-1.05-.42.42-.5,1.01-.39,1.56-.4.98-.02,1.97.11,2.82-.65.35-.3,1.04-.26,1.46-.24,1.88.08,3.62-.62,5.44-.85,1.84-.23,3.7-.55,5.54-.79,1.62-.21,3.22-.77,4.89-.59-.39.35.21.67.04,1.01-.53.17-.16.34,0,.51v.09Z"/>
    <path class="cls-cs_icon_wag_secondary"
          d="M169.91,24.25c-2.13.33-4.26.56-6.33,1.3-1.09.39-2.31.73-3.55.62-.83-.07-1.68,0-2.52-.02-.34,0-.64.02-.59.49h-2.97c.03.38.44.12.54.37-1.45.49-2.9-.01-4.25.11-.34-.17-.12-.43-.2-.5-.27-.39-.68-.05-.9-.34,1.52-.58,3.24-.27,4.84-1.01,2.26-.34,4.69-.38,6.99-1.21.36-.13.79-.06,1.19-.05,1.34.03,2.62-.26,3.92-.57,1.18-.29,2.39-.43,3.62-.43.17.4.23.82.23,1.25ZM153.5,26.72c-.17.04-.38-.24-.54.07.19.14.37.12.54-.07ZM153.89,26.28c.21.18.41.17.63,0-.21-.18-.41-.17-.63,0ZM168.29,23.64c.21.18.41.17.63,0-.21-.18-.41-.17-.63,0Z"/>
    <path class="cls-cs_icon_wag_secondary"
          d="M170.65,76.34c1.11-.64,2.31-.47,3.53-.5.03.2.04.35.06.49h0c-.3.11-.72-.26-.94.22-.6.33-1.29.3-1.93.45-.25-.23-.51-.46-.76-.69l.03.04Z"/>
    <path class="cls-cs_icon_wag_secondary" d="M131.29,114.5h-1.14c-.06-.4-.2-.72.15-.98.29.37.85.46.99.98Z"/>
    <path class="cls-cs_icon_wag_secondary" d="M167.79,105.96c.54.08,1.11-.34,1.63.09-.55.11-1.08-.25-1.63-.09Z"/>
    <path class="cls-cs_icon_wag_secondary"
          d="M119.99,84.46c.02-.11.03-.23.05-.36.35-.2.75.01,1.11-.07-.39.14-.78.29-1.17.43Z"/>
    <path class="cls-cs_icon_wag_primary"
          d="M89.9,89.28c-.07.21-.14.42-.22.64-.28.15-.58.06-.88.06.37-.23.63-.63,1.09-.71Z"/>
    <path class="cls-cs_icon_wag_primary"
          d="M170.62,76.3c.25.23.51.46.76.69-.21.04-.43.08-.64.11-.18-.02-.36-.05-.65-.08.33-.25.69-.33.53-.73Z"/>
    <path class="cls-cs_icon_wag_primary"
          d="M163.31,105.38c-.15-.33.21-.33.27-.49.34,0,.41.23.56.39-.25.2-.49.1-.72.1l-.06-.04-.06.04Z"/>
    <path class="cls-cs_icon_wag_secondary"
          d="M112.99,89c-.13-.01-.29.08-.4-.08-.08-.34.22-.4.41-.55-.16.21-.08.42-.01.63Z"/>
    <path class="cls-cs_icon_wag_secondary" d="M152.17,79.65c.29-.42.69-.02,1.02-.13-.34.04-.68.09-1.02.13Z"/>
    <path class="cls-cs_icon_wag_secondary"
          d="M26.88,124.04c.28.12.62-.08.9.17-.37.19-.75.09-1.13.07,0-.15.11-.21.23-.25Z"/>
    <path class="cls-cs_icon_wag_secondary" d="M172.76,44.14c-.34-.22-.02-.56-.14-.82.05.27.09.55.14.82Z"/>
    <path class="cls-cs_icon_wag_secondary" d="M150.96,79.66c.31-.33.62-.28.93-.01-.31,0-.62,0-.93.01Z"/>
    <path class="cls-cs_icon_wag_secondary"
          d="M218.36,111.89c-.1-.05-.19-.11-.28-.16.06-.18.18-.12.29-.13,0,.09,0,.19,0,.28Z"/>
    <path class="cls-cs_icon_wag_primary" d="M173.31,76.55c.22-.48.64-.11.94-.23-.25.33-.62.17-.94.23Z"/>
    <path class="cls-cs_icon_wag_secondary" d="M175.88,76.08c.21-.45.59-.1.88-.18-.28.13-.57.22-.88.18Z"/>
    <path class="cls-cs_icon_wag_secondary" d="M160.81,197.07c.32.05.7-.24.94.19-.32-.05-.69.22-.94-.19Z"/>
    <path class="cls-cs_icon_wag_secondary" d="M94.34,78.49c.34.23.4.46,0,.68,0-.23,0-.45,0-.68Z"/>
    <path class="cls-cs_icon_wag_primary" d="M135.11,101.97c.25-.27.48-.43.69.03-.23-.01-.46-.02-.69-.03Z"/>
    <path class="cls-cs_icon_wag_secondary" d="M150.97,192.99c.25.02.55-.2.7.19-.24-.03-.55.18-.7-.19Z"/>
    <path class="cls-cs_icon_wag_secondary" d="M176.64,197.8c-.11-.04-.17-.11-.16-.25h.63c-.05.28-.31.17-.47.25Z"/>
    <path class="cls-cs_icon_wag_primary"
          d="M161.77,105.23c.25-.09.52-.3.66.13-.11.03-.23.06-.34.09,0,0,.05,0,.05,0-.13-.07-.25-.14-.38-.22Z"/>
    <path class="cls-cs_icon_wag_secondary" d="M68.18,217.47c.31-.05.62-.07.84.22-.27-.1-.65.19-.84-.22Z"/>
    <path class="cls-cs_icon_wag_secondary" d="M105.61,228.75c.25.02.55-.2.7.19-.24-.03-.55.18-.7-.19Z"/>
    <path class="cls-cs_icon_wag_secondary" d="M113.98,87.37c.05-.23.21-.22.38-.19-.13.06-.26.13-.38.19Z"/>
    <path class="cls-cs_icon_wag_primary" d="M171.13,34.4c-.16-.17-.53-.33,0-.51,0,.17,0,.34,0,.51Z"/>
    <path class="cls-cs_icon_wag_secondary" d="M143.5,102.7c.07.07.14.13.21.2-.07-.07-.14-.13-.21-.2Z"/>
    <path class="cls-cs_icon_wag_secondary"
          d="M131.27,114.73c0-.09,0-.18,0-.26.06.02.12.05.2.08-.07.07-.13.12-.19.18Z"/>
    <path class="cls-cs_icon_wag_secondary" d="M118.57,85.42c.06-.06.12-.12.17-.18-.06.06-.12.12-.17.18Z"/>
    <path class="cls-cs_icon_wag_secondary" d="M118.08,85.66c.03-.11.09-.19.22-.2.01.16-.11.17-.22.2Z"/>
    <path class="cls-cs_icon_wag_secondary" d="M95.05,72.72c.1.03.2.06.17.2-.06-.07-.11-.13-.17-.2Z"/>
    <path class="cls-cs_icon_wag_secondary"
          d="M95.04,71.98c.06.04.12.08.28.2-.12.06-.21.11-.3.17-.03-.06-.06-.12-.09-.19.04-.06.08-.12.12-.17Z"/>
    <path class="cls-cs_icon_wag_secondary" d="M113.81,87.56c.07-.07.14-.14.21-.21-.07.07-.14.14-.21.21Z"/>
    <path class="cls-cs_icon_wag_secondary" d="M172.53,42.47c-.08-.08-.15-.15-.23-.23.23-.08.2.11.23.23Z"/>
    <path class="cls-cs_icon_wag_secondary" d="M162.15,105.45h-.05s.05,0,.05,0Z"/>
    <path class="cls-cs_icon_wag_secondary"
          d="M208.58,96.26c-.14.23-.33.46.03.7.18-.1.39-.2.56-.3.71.33.5,1.09.83,1.53-.16.5-.7.64-.8,1.2.52.19.98.05,1.5-.04.52-.09,1.01-.56,1.56-.06.37-.69.74-1.17,1.34-1.59-.17,2.51-.39,4.99,1.42,7.01v1.53c-.42.12-.64-.07-.82-.33-.61.17-.33.68-.38,1.04-.31.12-.42-.26-.67-.18-.98.79-2.19.99-3.36,1.24-1.1.23-2.12.7-3.27.85-.63.08-1.12,1.06-2.01,1.24.05-.81-.57-1.28-1.09-1.81-.21.05-.27.25-.41.41.19.57.66.96.96,1.41.11.37-.46.64-.02,1.08,2.99-1.39,6.14-2.43,9.33-3.52.09.09.12.41.43.53.54-.15.15-1.16.96-1.08.39.42-.21.49-.27.82,1.04.79,1.35,1.94,1.69,3.22.29,1.08.53,2.43,1.9,3.16-1.11,1.08-1.63,2.45-2.93,3.29-.76.5-1.47,1.24-1.99,2.07-1.42,2.25-3.44,3.92-5.43,5.62-.56.48-1.22.87-1.6,1.62-.42.81-1.37,1.16-2.01,1.81-1.15,1.15-2.16,2.44-3.43,3.47-.39.31-.37.95-.85,1.28-1.75-1-3.23-2.46-5.16-3.29-2.04-2.2-4.83-3.72-6.96-6.02.45-1.83,1.76-3.34,1.71-5.56,1.51,1.28,2.82,2.39,4.12,3.5.37-.12.61-.38.98-.67-.65-.56.05-1.74-1.16-2,.27-.19.57-.24.73-.55-.16-.27-.33-.56-.5-.85-1.08.17-1.49-1.22-2.54-.96-1.6-1.53-1.52-3.64-2.03-5.65.52-.42.33-1.14.23-1.7-.14-.8.08-1.53.07-2.26-.03-1.42.75-2.56.99-3.87.14-.79.22-1.76.62-2.41.85-1.35.97-2.96,1.9-4.3.7-1.01,1.11-2.29,1.62-3.46.23-.53.62-.84,1.05-.81,1.41.08,2.76-.38,4.15-.42.55-.01,1.01.12,1.46.67.25,1.26.95,2.58,1.13,4.1-1.75-.37-2.21,1.2-3.26,1.9-.33-.3-.33-.87-.77-1.11-.22-.08-.38.02-.58.21.48,1.81.71,3.69.53,5.67-.51.02-.33.45-.15.87-.3.12-.55.21-.83.32-.08.44-.11.85.01,1.23.51.25.55-.44.94-.37l-.04-.04c.2.82.76,1.56.56,2.48-.03.12.08.32.18.42.99.96,1.15,2.18,1.17,3.48.01.73.24,1.45.89,1.98.15-.06.37-.14.59-.22.36.2.22.68.53.91.43.13.67-.29,1.02-.4.35.28.47.77.97.92.94.27,1.78-.37,2.71-.48.56-.77,1.34-1.16,2.43-1.35.13-.11-.14-.64.36-.71.21.21,0,.52.19.79.23.1.5.23.74.34.44-.42-.06-.75-.07-1.08.31-.39.97-.19,1.08-.8-.22-.35-.85.04-1-.54-1.98.92-3.79,2.19-6.07,2.27-.37-1.27-1.7.07-2.38-.75-.36-1.14-.42-2.44-.91-3.64.53-.61,1.23-.64,1.92-.88.18-.77.76-1.29,1.44-1.65.13-.4.22-.74-.15-.99-.69-.27-.8.76-1.42.62-.3-.34-.16-1.08-.78-.97-.42-.53-.12-1.26-.76-1.65-.39-.04-.61.11-.62.49.03.44.49.36.68.59-.06.15-.12.3-.17.43.08.35.48.15.63.35.07.23-.09.49.21.73.24-.15.54-.08.84-.02-.71.51-1.4,1.04-2.34,1.24-.23-.9-.68-1.69-.98-2.24-.19-.63.27-.67.29-.93.06-.29-.43-.44-.15-.77,1.49-.3,2.74-1.18,4.1-1.81l-.03-.02c.05.18,0,.41.24.49,1.23-.38,2.17-1.24,3.25-1.88-.06-.16-.12-.31-.18-.47-1.02.5-2.15.6-3.12,1.25-.06.05-.13.1-.19.15-.64-.25-1.02.51-1.68.43-.16-.35.39-.49.3-.83-.22-.44-.45-.87-.66-1.29-.36-.02-.46.2-.62.48.78.41.11,1.23.48,1.88-.52.13-.8.68-1.33.86-.55-.41-.28-1.16-.7-1.55.19-1.12,1.03-1.75,1.77-2.41.57-.51,1.19-.92,2.11-.98,1.02-.07,2.01-.66,2.82-1.2.65.17-.06.62.47.85.83-.05,1.07-1,1.69-1.45.06.06.11.13.17.19ZM206.5,106.05c.62-1.18,1.6-1.61,2.71-1.18q.61-.47.29-1.05c-1.74.32-3.62.1-5.07,1.4.2.43.43.78.85.96.2-.3.48-.46.8-.57.14.15.28.29.41.43Z"/>
    <path class="cls-cs_icon_wag_secondary"
          d="M186.28,125.26c.22.04.28.03.3.06,2.2,2.31,4.76,4.17,7.37,5.98.26.18.52.42.72.65.82.97,1.89,1.43,3.04,1.86.61.23,1.18.4,1.81.36.43-.03.84.02,1.18.25.59-.36.37-1.23,1.12-1.44h1.23c1.22.86,3.03,1.05,3.68,2.69-.36,3.26-2.27,5.74-3.84,8.36-1.11,1.85-2.3,3.65-3.43,5.48-.21.35-.42.66-1.04.8-4.75-5.21-10.28-9.72-15.58-14.56.43-1.82.83-3.61,1.32-5.38.49-1.8,1.76-3.24,2.13-5.11Z"/>
    <path class="cls-cs_icon_wag_secondary"
          d="M104.89,102.69c.75,0,1.48.09,2.35,0-1.12-1.73-3.1-2.55-4.32-4.29,3.32.33,6.45.89,9.47.97.65-.5.27-1.57,1.28-1.48.18-1.07,2.87-5.29,4.14-6.48,1.91.19,3.92.1,5.89.51.62.13,1.22-.04,1.85-.46.2.03.24.17.24.29.82.05,1.6.09,2.55.15-1.91,2.94-3.69,5.68-5.51,8.5.81.39,1.76-.13,2.47.58-.52,2.09-.05,4.36-.85,6.41-1.85.39-3.24,1.48-4.76,2.29-.86.46-1.81.6-2.71.94-.56.22-1.13-.28-1.56-.63-1.29-1.02-2.58-2.06-3.75-3.23-1.24-1.25-2.48-2.49-3.71-3.72-1.02-.23-2.09.16-3.06-.33ZM120.95,93.77c-.13-.15-.17-.36-.41-.33-.1.28-.08.46.41.33Z"/>
    <path class="cls-cs_icon_wag_secondary"
          d="M208.41,96.08c.07-.12.26-.25-.02-.34-.9-.27-1.8-.45-2.69.1-.11-.42.1-.53.29-.65-.19-.67-.68-.84-1.54-.66.94-.91,1.8-1.61,2.31-2.67.67-.15,1-.76,1.43-1.27.93-1.11,2.08-1.99,3.17-2.93,1.16-1,2.18-2.14,3.22-3.26.47-.51,1.13-.83,1.7-1.24.39-.28.19-.92.86-1,.44-.05.85-.44,1.25-.73.72-.52,1.57-1,2.5-.4.35.23.57-.29.88-.08.47.32.85.87,1.59.63v1.99c-2.49,2.3-4.54,5.26-6.67,8.15-.28.12-.43-.08-.67-.22-.28.12-.59.25-.95.4-.25.5.36,1.33-.5,1.5-.2.5.22.75.24,1.29.05.27-.67.36-.44.91-1.32.02-1.34,2.05-2.87,1.69-.31.25-.22.84-.86,1,0-.58-.15-1.06-.63-1.32.03-.23.28-.33.2-.56-.54-.1-1.05-.54-1.63-.12-.06-.06-.11-.13-.17-.19Z"/>
    <path class="cls-cs_icon_wag_secondary"
          d="M98.08,94.2c-1.73-1.23-3.22-2.64-4.46-4.55v-.95c.73-1.84.85-3.73,1.57-5.5.12.73.22,1.44.36,2.13.09.45.15.9.67,1.17.62.33.47,1.04.59,1.61.43,2.02.84,4.03,1.27,6.09Z"/>
    <path class="cls-cs_icon_wag_secondary"
          d="M79.49,109.04c-1.06-.34-1.99-.72-2.96-1.52-.76-.71-.42-1.94-.56-3.01-.18-1.45-.39-2.91-.39-4.37,0-.77-.31-1.57.05-2.36,1.71,3.62,3.06,7.33,3.86,11.26Z"/>
    <path class="cls-cs_icon_wag_secondary"
          d="M100.94,84.7c-.72.04-1.4.12-1.99-.31.11-.27.44-.05.61-.27-.48,0-.65-.9-1.29-.42-.41-.47.34-1.01-.13-1.42.18-.27.41-.15.59-.23.12-.7.59-.91,1.94-.89.37.26.63.69,1.12.83-.1.24-.19.44-.25.59,0,.31.38.12.37.38-.1.06-.2.12-.3.18.04.22.49.1.36.5-.43.23-.9.47-1.36.71.05.17.33.04.33.34Z"/>
    <path class="cls-cs_icon_wag_secondary"
          d="M110.64,80.05c.65-.22,1.12-.39,1.76-.6.5-.03.62.93,1.32.78-.2.5-.42.93.2,1.24-.2.32-.59,0-.8.24.1.25.36.06.53.21-.32.32-.19.97-.84,1.12-.73,0-1.55.17-2.16-.68.5-.02.91-.04,1.33-.06-.42-.29-.88-.17-1.38-.23.09-.46-.46-.45-.63-.86.31-.32.98-.5.67-1.15ZM110.74,81.64c.55.26.89.23,1.23,0h-1.23Z"/>
    <path class="cls-cs_icon_wag_secondary"
          d="M105.06,91.82c-1.09.24-2.16.46-3.27.33-.37-.03-.49-.5-.95-.52.6-.32,0-.77.21-1.15.65-.54,1.24-1.46,2.23-1.12.76.26,1.16,1.13,1.75,1.7.19.18.13.51.02.77ZM104.78,91.4l.08-.08s-.05-.06-.08-.08c-.03.04-.06.08-.08.12l.08.04Z"/>
    <path class="cls-cs_icon_wag_secondary"
          d="M80.59,112.42c.6.08.8.59,1,1.1-.33.94-.9.05-1.29.19-.52-1.38-1.75-2.17-2.54-3.27,0-.26.2-.35.39-.54.99.57,1.95,1.17,2.43,2.52Z"/>
    <path class="cls-cs_icon_wag_secondary" d="M140.52,65.58c-.82.15-1.63.27-2.43,0h2.43Z"/>
    <path class="cls-cs_icon_wag_secondary" d="M167.41,70.51h-2.18c.71-.26,1.42-.15,2.18,0Z"/>
    <path class="cls-cs_icon_wag_secondary"
          d="M190.81,117.96c.14-.16.21-.24.37-.43.07.49.56.47.8.91-.54.05-.85-.18-1.17-.48Z"/>
    <path class="cls-cs_icon_wag_secondary" d="M151.07,181.78c-.62.17-1.27.17-1.92.04.63-.23,1.27-.11,1.92-.04Z"/>
    <path class="cls-cs_icon_wag_secondary" d="M30.1,170.01c-.62.17-1.27.18-2.2.07.91-.25,1.55-.1,2.2-.07Z"/>
    <path class="cls-cs_icon_wag_secondary" d="M184.15,153.24c.89-.19,1.54-.11,2.19,0-.64.12-1.29.18-2.19,0Z"/>
    <path class="cls-cs_icon_wag_secondary" d="M146.51,168.84c-.65.12-1.3.18-2.18,0,.88-.19,1.53-.11,2.18,0Z"/>
    <path class="cls-cs_icon_wag_secondary" d="M79.52,220.76h-1.85s0-.08,0-.12h1.91l-.06.12Z"/>
    <path class="cls-cs_icon_wag_secondary" d="M90.82,220.42c-.62.16-1.27.17-2.2.06.91-.25,1.55-.12,2.2-.06Z"/>
    <path class="cls-cs_icon_wag_secondary" d="M138.16,158.44h1.85s0,.08,0,.12h-1.91l.06-.12Z"/>
    <path class="cls-cs_icon_wag_secondary" d="M146.77,159.74c.62-.17,1.27-.17,1.92-.04-.63.23-1.27.11-1.92.04Z"/>
    <path class="cls-cs_icon_wag_secondary" d="M69.04,203.32h1.85s0,.08,0,.12h-1.91l.06-.12Z"/>
    <path class="cls-cs_icon_wag_secondary" d="M41.94,184.12h1.85c-.65.25-1.3.24-1.85,0Z"/>
    <path class="cls-cs_icon_wag_secondary" d="M28.48,140.2h1.85s0,.08,0,.12h-1.91s.04-.08.06-.12Z"/>
    <path class="cls-cs_icon_wag_secondary" d="M162.9,68.52c.56-.16.98-.15,1.57-.02-.6.2-1.01.18-1.57.02Z"/>
    <path class="cls-cs_icon_wag_secondary" d="M150.57,185.93c.31-.28.65-.11,1.15-.22-.47.47-.82.17-1.15.22Z"/>
    <path class="cls-cs_icon_wag_secondary" d="M73.63,174.66c.46-.27.8-.13,1.14-.1-.33.25-.67.13-1.14.1Z"/>
    <path class="cls-cs_icon_wag_secondary" d="M116.54,211.4h-1.22c.34-.23.67-.26,1.22,0Z"/>
    <path class="cls-cs_icon_wag_secondary" d="M62.41,117.24c.4-.18.73-.15,1.2-.01-.46.18-.8.18-1.2.01Z"/>
    <path class="cls-cs_icon_wag_secondary" d="M61.28,127.35c-.55.12-.88.12-1.31-.01.44-.19.78-.18,1.31.01Z"/>
    <path class="cls-cs_icon_wag_secondary" d="M34.59,176.78c.37-.22.7-.14,1.11-.08-.38.3-.72.19-1.11.08Z"/>
    <path class="cls-cs_icon_wag_secondary" d="M102.38,92.56c.53-.21.87-.21,1.26-.06-.36.22-.69.13-1.26.06Z"/>
    <path class="cls-cs_icon_wag_secondary" d="M140.13,93.05c-.39.09-.7.17-.66-.33.37-.18.5.07.66.33Z"/>
    <path class="cls-cs_icon_wag_secondary" d="M164.04,70.49c.23-.22.48-.21.73-.11-.21.36-.49.05-.73.11Z"/>
    <path class="cls-cs_icon_wag_secondary" d="M62.16,102.1c-.34.18-.59.17-.85.07.22-.31.48-.18.85-.07Z"/>
    <path class="cls-cs_icon_wag_secondary"
          d="M198.06,105.65c-.06-.15-.11-.29.01-.45.26-.11.28.12.36.27-.09.18-.27.11-.41.14l.04.04Z"/>
    <path class="cls-cs_icon_wag_secondary" d="M115.15,207.48c-.3.17-.58.18-.87,0,.3-.17.58-.18.87,0Z"/>
    <path class="cls-cs_icon_wag_secondary" d="M34.3,176.75c-.25.17-.42.17-.63.04.17-.24.36-.15.63-.04Z"/>
    <path class="cls-cs_icon_wag_secondary" d="M148.99,185.88c-.21.17-.42.17-.63,0,.21-.17.42-.17.63,0Z"/>
    <path class="cls-cs_icon_wag_secondary" d="M60.1,117.17h.83c-.22.28-.4.2-.83,0Z"/>
    <path class="cls-cs_icon_wag_secondary" d="M62.14,117.21c-.24.23-.44.15-.68.06.24-.23.44-.15.68-.06Z"/>
    <path class="cls-cs_icon_wag_secondary" d="M141.34,93c-.26.15-.43.17-.63.02.18-.23.36-.15.63-.02Z"/>
    <path class="cls-cs_icon_wag_secondary" d="M110.43,122.96c.34-.14.46-.04.43.32-.22,0-.31-.12-.43-.32Z"/>
    <path class="cls-cs_icon_wag_secondary" d="M133.49,71.88c.21-.17.42-.17.63,0-.21.17-.42.17-.63,0Z"/>
    <path class="cls-cs_icon_wag_secondary" d="M72.77,174.6c.21-.17.42-.17.63,0-.21.17-.42.17-.63,0Z"/>
    <path class="cls-cs_icon_wag_secondary" d="M72.22,174.6c-.26.15-.43.17-.63.02.18-.23.36-.15.63-.02Z"/>
    <path class="cls-cs_icon_wag_secondary"
          d="M203.77,101.77c0-.16-.02-.32-.03-.48.06-.05.13-.1.19-.15.04.17.09.35.12.48-.09.15-.2.14-.31.13l.03.02Z"/>
    <path class="cls-cs_icon_wag_secondary" d="M102.2,92.52c-.17.19-.29.1-.4,0,.11-.11.23-.18.4,0Z"/>
    <path class="cls-cs_icon_wag_secondary" d="M115.16,94.45c-.12.09-.23.18-.38.02.12-.24.25-.14.38-.02Z"/>
    <path class="cls-cs_icon_wag_secondary" d="M162.63,52.26h-3.62s0-.07,0-.11h3.62v.11Z"/>
    <path class="cls-cs_icon_wag_secondary" d="M152.08,27.43c-.63,0-1.19.44-1.74,0h1.74Z"/>
    <path class="cls-cs_icon_wag_secondary" d="M143.41,31.32c.65-.12,1.3-.18,2.18,0-.88.19-1.53.11-2.18,0Z"/>
    <path class="cls-cs_icon_wag_secondary" d="M163.05,45.28c.64-.25,1.29-.11,1.94,0h-1.94Z"/>
    <path class="cls-cs_icon_wag_secondary" d="M142.42,31.83c-.57.09-.9.17-1.26-.05.38-.16.72-.15,1.26.05Z"/>
    <path class="cls-cs_icon_wag_secondary" d="M144.56,31.85c-.56.07-.87.13-1.28-.05.44-.16.78-.18,1.28.05Z"/>
    <path class="cls-cs_icon_wag_secondary" d="M163.81,16.97c.33-.25.66-.14,1.1-.13-.42.32-.76.12-1.1.13Z"/>
    <path class="cls-cs_icon_wag_secondary"
          d="M152.42,45.62c-.34.42-.76.15-1.22.19.32-.38.77-.04,1.03-.36.06.06.13.11.19.17Z"/>
    <path class="cls-cs_icon_wag_secondary" d="M149.6,44.57c-.56.07-.87.13-1.28-.05.44-.16.78-.18,1.28.05Z"/>
    <path class="cls-cs_icon_wag_secondary" d="M112.53,21.84c.37-.37.64-.17,1.02-.23-.37.37-.64.17-1.02.23Z"/>
    <path class="cls-cs_icon_wag_secondary" d="M161.51,16.96c.36-.25.63-.16.98-.09-.35.25-.63.16-.98.09Z"/>
    <path class="cls-cs_icon_wag_secondary" d="M121.39,19.08c-.21.16-.42.17-.63,0,.21-.16.42-.17.63,0Z"/>
    <path class="cls-cs_icon_wag_secondary" d="M135.89,57.96c.21-.17.42-.17.63,0-.21.17-.42.17-.63,0Z"/>
    <path class="cls-cs_icon_wag_secondary" d="M108.67,39.72c-.21.16-.42.17-.63,0,.21-.16.42-.17.63,0Z"/>
    <path class="cls-cs_icon_wag_secondary" d="M97.42,33.58c.02-.1.05-.21.18-.17.04.01.06.11.09.16-.09,0-.18,0-.27,0Z"/>
    <path class="cls-cs_icon_wag_primary" d="M118.83,127.85c-.41.12-.54-.06-.67-.27.31-.24.55-.26.67.27Z"/>
    <path class="cls-cs_icon_wag_primary" d="M118.82,114.26v-.42c.25.06.47.11.64.31-.21.16-.45.07-.67.08l.03.03Z"/>
    <path class="cls-cs_icon_wag_primary" d="M126.74,151.59c-.17.35-.26.54-.36.73-.18-.28-.27-.52.36-.73Z"/>
    <path class="cls-cs_icon_wag_primary"
          d="M125.99,125.25c-.23.11.04.36-.17.5-.13.02-.26-.01-.29-.21,0-.37.42,0,.49-.26l-.03-.03Z"/>
    <path class="cls-cs_icon_wag_secondary"
          d="M129.06,115.37c-.33.22-.71-.5-1,.04-.34-.24-.57-.54-.77-.89-.23.43-.4.85-.34,1.28-.26.15-.44.15-.62.05-.06-1.13.31-2.07,1.53-3.87.04.55-.05,1.05.13,1.41.22.43.06.86.23,1.26.16.36.67.25.84.73Z"/>
    <path class="cls-cs_icon_wag_secondary"
          d="M125.83,117.78c-.17-.34.1-.46.35-.63.09.09.17.18.31.33-.22.15-.28.48-.66.3Z"/>
    <path class="cls-cs_icon_wag_secondary" d="M126.62,116.04c.15.51-.04.64-.24.76-.25-.32-.17-.52.24-.76Z"/>
    <path class="cls-cs_icon_wag_primary"
          d="M173.77,57.11c-.68.9-1.74.43-2.61.68-2.04.6-4.18.79-6.27,1.18-1.71.32-3.45.55-5.19.79-1.95.28-3.9.63-5.85.94-.07.01-.14-.05-.22-.09-.13-.51.46-.56.57-.54,1.69.24,3.23-.54,4.87-.65,1.32-.09,2.57-.57,3.9-.65,1.24-.07,2.47-.31,3.7-.5,1.84-.28,3.65-.78,5.51-.9.55-.04,1.03-.43,1.61-.24l-.02-.02Z"/>
    <path class="cls-cs_icon_wag_primary" d="M131.19,63.16h1.15c-.39.23-.79.23-1.15,0Z"/>
    <path class="cls-cs_icon_wag_primary" d="M143.75,61.6c.36-.25.63-.16.98-.09-.35.25-.63.16-.98.09Z"/>
    <path class="cls-cs_icon_wag_primary" d="M142.92,62.09c.23-.22.48-.21.73-.11-.21.36-.49.05-.73.11Z"/>
    <path class="cls-cs_icon_wag_primary" d="M137.9,63.31h-.83c.22-.28.41-.2.83,0Z"/>
    <path class="cls-cs_icon_wag_primary" d="M160.89,104.46h3.61s0,.07,0,.1h-3.61s0-.07,0-.1Z"/>
    <path class="cls-cs_icon_wag_primary" d="M168.05,96.6c.21-.16.42-.17.63,0-.21.16-.42.17-.63,0Z"/>
    <path class="cls-cs_icon_wag_primary" d="M159.89,74.63c.32.38.05.83.27,1.14-.52-.22-.27-.66-.27-1.14Z"/>
    <path class="cls-cs_icon_wag_primary" d="M164.64,74.77c-.37.14-.62.16-.91,0,.29-.18.55-.17.91,0Z"/>
    <path class="cls-cs_icon_wag_primary" d="M135.26,98.7h2.66c-.88.25-1.77.16-2.66,0Z"/>
    <path class="cls-cs_icon_wag_primary"
          d="M143.78,95.94c-.35.06-.51.31-.7.53-.24,0-.32-.19-.46-.33.3-.57.72-.37,1.16-.21Z"/>
    <path class="cls-cs_icon_wag_primary"
          d="M147.56,93.94s-.03.05-.04.08c-.04-.03-.08-.06-.12-.08.03-.03.06-.05.08-.08.03.03.05.06.08.08Z"/>
    <path class="cls-cs_icon_wag_primary"
          d="M146.58,97.52s.01.06,0,.08c-.05.07-.11.05-.16-.05,0-.01.05-.06.08-.07.02,0,.05.02.08.04Z"/>
    <path class="cls-cs_icon_wag_primary" d="M144.26,80.22c-.08.63-.38.42-.68.37.16-.23.38-.28.68-.37Z"/>
    <path class="cls-cs_icon_wag_primary" d="M121.83,54.32c-.96.26-1.93.11-2.9,0h2.9Z"/>
    <path class="cls-cs_icon_wag_primary" d="M115.31,54.86c.59-.17.92-.2,1.29-.03-.35.21-.69.14-1.29.03Z"/>
    <path class="cls-cs_icon_wag_primary" d="M116.67,54.37c.24-.2.42-.12.65-.08-.2.28-.39.19-.65.08Z"/>
    <path class="cls-cs_icon_wag_primary" d="M94.81,35c-.4.77-.91.45-1.5.52.49-.49.98-.29,1.5-.52Z"/>
    <path class="cls-cs_icon_wag_primary" d="M100.28,34.23c-.33.12-.63.19-.92-.07q.42-.29.92.07Z"/>
    <path class="cls-cs_icon_wag_primary" d="M103.15,33.48c-.21.17-.42.17-.63,0,.21-.17.42-.17.63,0Z"/>
    <path class="cls-cs_icon_wag_primary" d="M122.91,83.24c.38-.77.73.14,1.07-.12-.33.22-.67.15-1.07.12Z"/>
    <path class="cls-cs_icon_wag_primary"
          d="M120.22,79.57c.24.05.38.07.51.11.16.04.27.13.17.35-.13.18-.21-.08-.33-.09-.14-.01-.3-.05-.36-.37Z"/>
    <path class="cls-cs_icon_wag_primary" d="M120.11,79.31c-.27.16-.44.17-.57-.03q.24-.25.57.03Z"/>
    <path class="cls-cs_icon_wag_primary" d="M120.85,82.15c-.16.24-.34.16-.55.12.16-.36.39-.06.55-.12Z"/>
    <path class="cls-cs_icon_wag_primary" d="M133.83,44.44c-.43.83-1.23-.17-1.71.45q.47-.52,1.71-.45Z"/>
    <path class="cls-cs_icon_wag_primary" d="M104.79,42.04h3.28s0,.08,0,.12h-3.33s.03-.08.04-.12Z"/>
    <path class="cls-cs_icon_wag_primary" d="M102.81,42.92h-1.85s0-.08,0-.12h1.9s-.03.08-.04.12Z"/>
    <path class="cls-cs_icon_wag_primary" d="M160.52,43.05c-.31.24-.56.09-.89.18.29-.4.55-.28.89-.18Z"/>
    <path class="cls-cs_icon_wag_primary" d="M160.84,43.59c.31-.24.56-.09.89-.18-.29.4-.55.28-.89.18Z"/>
    <path class="cls-cs_icon_wag_primary" d="M155.04,44.29c-.37.14-.62.16-.91,0,.29-.18.55-.17.91,0Z"/>
    <path class="cls-cs_icon_wag_primary" d="M162.19,43.08c-.21.16-.42.17-.63,0,.21-.16.42-.17.63,0Z"/>
    <path class="cls-cs_icon_wag_primary" d="M158.62,43.07c-.25.17-.42.17-.63.04.17-.24.36-.15.63-.04Z"/>
    <path class="cls-cs_icon_wag_primary" d="M153.5,26.72c-.17.2-.35.21-.54.07.16-.31.37-.03.54-.07Z"/>
    <path class="cls-cs_icon_wag_primary" d="M153.89,26.28c.21-.16.42-.17.63,0-.21.16-.42.17-.63,0Z"/>
    <path class="cls-cs_icon_wag_primary" d="M168.29,23.64c.21-.16.42-.17.63,0-.21.16-.42.17-.63,0Z"/>
    <path class="cls-cs_icon_wag_primary"
          d="M206.5,106.05c-.14-.14-.27-.29-.41-.43-.32.11-.6.27-.8.57-.42-.18-.65-.53-.85-.96,1.45-1.31,3.33-1.08,5.07-1.4q.32.58-.29,1.05c-1.11-.43-2.09,0-2.71,1.18Z"/>
    <path class="cls-cs_icon_wag_primary"
          d="M203.75,101.75c.11.01.22.02.31-.13-.03-.14-.08-.31-.12-.48.97-.65,2.1-.75,3.12-1.25.06.16.12.31.18.47-1.08.64-2.01,1.5-3.25,1.88-.25-.08-.19-.31-.24-.49Z"/>
    <path class="cls-cs_icon_wag_primary"
          d="M202.85,106.29c-.3-.06-.6-.13-.84.02-.3-.24-.14-.5-.21-.73-.15-.2-.54,0-.63-.35.06-.14.11-.29.17-.43-.19-.24-.65-.16-.68-.59,0-.38.22-.54.62-.49.63.39.34,1.12.76,1.65.62-.11.48.64.78.97l.04-.03Z"/>
    <path class="cls-cs_icon_wag_primary" d="M120.95,93.77c-.49.13-.5-.05-.41-.33.24-.03.28.18.41.33Z"/>
    <path class="cls-cs_icon_wag_primary" d="M110.74,81.64h1.23c-.34.23-.67.26-1.23,0Z"/>
    <path class="cls-cs_icon_wag_primary" d="M104.78,91.4l-.08-.04s.06-.08.08-.12c.03.03.05.06.08.08l-.08.08Z"/>
</svg>