<?xml version="1.0" encoding="UTF-8"?>
<svg id="cinesplain_logo_up_Image" data-name="cinesplain_logo_up Image" xmlns="http://www.w3.org/2000/svg" width="40px"
     height="40px" viewBox="0 0 240 240">
    <defs>
        <style>
            .cls-1 {
            fill: #fefefe;
            }

            .cls-1, .cls-2 {
            stroke-width: 0px;
            }
        </style>
    </defs>
    <path class="cls-2"
          d="M174.47,57.85c.28,2.01.5,4.04.92,6.03.04.19.06.4.04.59-.07.86.12,1.56,1.14,1.78.45,2.79.89,5.53,1.33,8.29-.45.44-.54,1.09-1.13,1.36-.29.08-.67-.26-.88.18-.58-.14-1.06.33-1.63.25-.02-.15-.04-.29-.06-.47-1.23-.04-2.43-.13-3.54.47-.75.4-1.54.17-2.33.21-2.38-2.58-4.74-5.15-7.11-7.73.42-.32.87-.02,1.24-.39h-4.52c-2.75.63-5.58.87-8.47,1.52,1.84,1.57,3.06,3.57,4.84,4.99.8.63,1.1,1.85,2.33,1.94-.04.23-.29.12-.36.27.17.21.32.45.45.49,1.28-.23,2.54.71,3.62-.38.11.09.25.16.35.28.06.08.06.22.12.43-2.56-.15-4.86.76-7.21,1.44-.14.03-.27.07-.41.1-.33.11-.73-.28-1.02.13h-.28c-.32-.27-.63-.32-.93,0-.13.03-.27.06-.4.1-.92-.19-1.78.26-2.47.29-3.07-2.68-5.59-5.72-8.59-8.27-1.67-.12-3.31.38-5.09-.1.17.35.42.31.37.48-1.86.2-3.71.4-5.76.62,3.12,2.87,5.66,6.08,8.87,8.39,1.73-.49,3.27-.47,4.82-.38-.81-.04-1.46.52-2.2.61-1.73.21-3.44.56-5.2.46-.21-.01-.4.03-.52.22-1.54.26-3.1.33-4.63.64-.49.1-.97.32-1.49.3-.59-.76-1.36-1.32-2.07-1.95-1.26-1.11-2.5-2.24-3.7-3.42-1.27-1.24-2.6-2.4-3.94-3.5-1.34.89-3,.34-4.12,1.13.13,1.31.33,2.4.6,3.48.15.63.2,1.44.77,1.75.71.38,1.01,1.08,1.66,1.61h2.25c-.77.34-1.38.09-1.96.25.11.58.79.61,1.13,1.27-.11-.71.24-.59.53-.6.25.15.17.6.48.64.33-.07.39-.48.85-.35-.15.27.29.36.2.67l-.11-.03-.1.05c-.37.09-.76-.13-1.11.07-.02.13-.04.24-.05.36-.42.26-.83.52-1.25.78-.06.06-.12.12-.17.18-.09.02-.18.03-.27.05-.13,0-.19.08-.22.2-1.25.48-2.51.92-3.72,1.52-.17-.02-.34-.04-.38.19l.03-.02c-.07.07-.14.14-.21.21-.34.2-.61.48-.81.82-.19.14-.49.2-.41.55.11.17.27.07.4.08,2.35.34,4.69.78,7.05.99,1.66.15,3.32.34,4.99.48,2.66.22,5.31.53,7.96.68,2.59.14,5.11.72,7.7.86,1.75.1,3.53.13,5.28.59,1.08.28,2.28.17,3.43.26,2.88.21,5.74.63,8.61.93,1.22.13,2.46.27,3.69.29,1.32.01,2.6.16,3.88.46.3.07.64.05.95.04,2.23-.06,4.42.24,6.63.42,1.26.1,2.53.3,3.81.32.78,0,1.69,0,2.33.96-.16,3.42-.34,6.97-1.34,10.47-2.97,0-5.74-.63-8.54-.71-.52-.43-1.09,0-1.63-.09-1.12-.32-2.26-.4-3.42-.41.01-.19.03-.39.04-.53.27-.27.65.02.89-.27-.81-.3.47-.71-.11-1.01,1.01-.29,1.11-.49.95-1.84.95-.38.52-1.74,1.49-2.05.01-.83.83-1.42.58-2.33.81-.09.69-.74.9-1.16-.08-.15-.33-.05-.31-.28.09-.1.33-.04.29-.29-2.39-.25-4.81-.19-7.21-.28-.03-.27.3-.18.23-.41-1.32-.18-2.66.13-3.99-.17-.31-.07-.59.15-.78.53-.5.99-1.1,1.93-1.65,2.9-.86,1.51-1.7,3.03-2.58,4.53-.26.44-.28.85-.08,1.3-2.57-.52-5.22-.57-7.78-1.2-.49-.12-1.03-.05-1.55-.07l-.21-.2.04.02c.73-1.18,1.34-2.45,2.23-3.5.87-1.03,1.3-2.34,2.25-3.3.26-.27.37-.69.64-1.23-1.13.47-2,.07-2.9.02.83-.16,1.66-.28,2.53-.14-.51-.79-.57-.85-1.09-.97-2.62.15-5.24.11-7.91-.32-.71-.65-.41-.84-2.23-.29,0,.12.04.31-.03.41-1.42,2.11-2.48,4.44-4.01,6.47-.39.52-.62,1.05-.79,1.64-1.88-.07-3.77-.17-5.64-.73-.09.44.37.68.36,1.08.08.32-.33.27-.32.23.62,2.05.27,3.93.3,5.77,0,.45.14.93-.01,1.38-.36-.23-.19-.77-.6-1.01-.49.05-.64.61-1.13.75-1.66.47-3.22,1.23-4.65,2.17-1.02.67-2.32,1.06-2.99,2.13-.38.6-.81.58-1.3.49-.2.74.23.86.66.78.64-.11,1.32-.05,1.93-.31l-.03-.03c.45.89,1.43,1.21,2.06,1.92.08-.15.15-.28.22-.42.41.27.77.56.48,1.12.23.03.38.05.61.08-.05.77.5,1.48.08,2.26.11.25.47.35.34.69-.23,1.25-1.18,2.23-1.2,3.58-.02.88-.65,1.37-1.5,1.52-.31.06-.63.05-.95.05-.79,0-1.18.39-1.34,1.15-.16.73-.41,1.45-.61,2.13.27.63.91.11,1.45.65-.86-.21-1.43.1-2.07.3.53,1.16,1.24,2.14,1.96,3.08.96,1.25,1.59,2.71,1.84,4.18.21,1.29.39,2.66.31,4.01-.09,1.64.04,3.27,0,4.9-.02.84.1,1.66.06,2.5-.09,1.95.2,3.91.16,5.87-.03,1.42-.11,2.85-.27,4.26-.12,1.06-.22,2.13-.14,3.17.09,1.05-.13,2.07-.19,3.08-.07,1.12-.42,2.29-.53,3.43-.25,2.61-.83,5.17-1.31,7.73-.64,3.39-1.42,6.78-2.48,10.08-.14.44.08.91-.14,1.28-.69,1.15-.79,2.45-.95,3.58-.2.48-.62.29-.83.53.17.21.5-.01.63.28-1.29,4.68-2.47,9.41-3.72,14.12-.02-2.01-.52-3.97-.35-5.96.02-.19-.02-.4-.05-.59-.4-2.46-.08-4.95-.37-7.43-.13-1.13.06-2.38-.14-3.47-.22-1.17.13-2.35-.31-3.5-.23-.59-.11-1.34-.08-2.01.07-1.46.07-2.92.02-4.39-.08-2.78-.07-5.56-.25-8.33-.11-1.8.13-3.6,0-5.41-.02-.34-.32-.59-.23-.89.4-1.36.23-2.74.21-4.12-.06-3.77.2-7.53.21-11.29.01-3.1.33-6.19.27-9.29-.02-1.19.04-2.44.33-3.52.42-1.55.31-3.1.59-4.64.36-1.98.46-4.01.69-6.13-.75-.65-1.57-1.38-2.37-2.13-.82-.78-.5-2.05-1.31-2.7-.43,0-.26.45-.49.45-1.28-.5-2.25-1.29-3.2-2.19-.55-.52-1.17-1.01-1.83-1.44-1.26-.84-2.55-1.67-3.65-2.7-2.17-2.03-4.78-3.54-6.78-5.77-.17-.19-.42-.2-.6-.07.39,2.19,1.25,4.21,1.94,6.26.69,2.07,1.34,4.16,2.07,6.22.26.72.46,1.4.43,2.15.16.2.4.37.43.57.24,1.82,1.15,3.43,1.53,5.21.17.8.21,1.65.5,2.38.72,1.84.95,3.81,1.58,5.68.38,1.14.4,2.4.58,3.6.33,2.21,1.27,4.26,1.48,6.56.24,2.61.82,5.23,1.41,7.8.64,2.76.82,5.6,1.65,8.3.3.96.09,1.92.41,2.88.61,1.89.65,3.9.98,5.85.25,1.45.42,2.92.74,4.39-.11.21-.24.43-.38.7-.73-2.05-.9-4.19-1.54-6.21-.38-1.21-.77-2.41-1.15-3.61-.41-1.27-.7-2.59-1.11-3.87-.41-1.28-.84-2.54-1.32-3.8-.45-1.18-.74-2.43-1.23-3.59-1.12-2.69-2.34-5.35-3.43-8.05-.77-1.9-1.34-3.89-2.51-5.66-1.63-2.46-2.76-5.23-3.95-7.93-1.25-2.83-2.97-5.37-4.35-8.1-.67-1.33-1.3-2.69-2.11-3.93-.51-.78-.87-1.63-1.35-2.41-1.3-2.13-2.85-4.12-3.66-6.54-.29-.87-.88-1.62-1.98-2.15.41.87.32,1.61.31,2.34,0,.49.13.99.36,1.33,1.27,1.89,1.64,4.19,2.94,6.11,1.27,1.88,2,4.14,2.96,6.24,1.16,2.55,2.34,5.1,3.79,7.51.33.54.6,1.13.83,1.75.44,1.18.74,2.46,1.44,3.51.95,1.44,1.32,3.11,2.04,4.64.24.5.44,1.04.67,1.57.59,1.37,1.5,2.63,1.61,4.18.26.34.53.62.7,1.05.42,1.04.82,2.07,1.09,3.16.39,1.57,1.29,2.95,1.77,4.5.34,1.13,1.07,2.11,1.42,3.26.66,2.2,1.25,4.43,2.11,6.58.67,1.66,1.1,3.45,1.44,5.21.28,1.42.91,2.71,1.25,4.1.4,1.67.6,3.39,1.14,5.04.33,1.01.65,2.05.81,3.13.22,1.58.4,3.19.8,4.71.67,2.5.73,5.07,1.26,7.58.34,1.62.67,3.25,1.04,4.87.4,1.78.87,3.58.9,5.39.04,2.19.39,4.35.31,6.54-.03.8.23,1.6.39,2.64,1.56-3.45,2.36-6.87,3.7-10.15-.08-.07-.12-.38-.02-.55.51-.85.48-1.87.85-2.74.54-1.26.6-2.62,1.02-3.9.45-1.38.64-2.89,1.14-4.23.92-2.5,1.42-5.1,2.2-7.63.61-1.97.92-4.03,1.74-5.95.72-1.67,1.03-3.46,1.65-5.16.15-.4-.09-.85.16-1.27.82-1.34,1.21-2.9,1.69-4.35.53-1.59,1.11-3.2,1.48-4.85.45-2,1.37-3.83,1.95-5.78.27-.92.55-1.84.83-2.76.34-1.1.78-2.16,1.19-3.22.53-1.37.73-2.84,1.26-4.18.92-2.32,1.63-4.71,2.49-7.05.45-1.22,1.01-2.4,1.43-3.63.75-2.19.98-4.52,1.63-6.74.48-1.66.52-3.41.51-5.11-.01-1.66-.09-3.37-.7-4.95-.65-1.68-1.07-3.44-2.24-4.95-.83-1.07-1.95-1.98-2.38-3.35,1.6.3,2.82,1.35,4.19,2.11,1.54.86,3.01,1.82,4.55,2.69,1.72.97,3.54,1.75,5.21,2.83,1.28.83,2.73,1.42,3.83,2.53.88.89,2.13,1.33,2.8,2.52.87,1.55,1.71,3.12,2.43,4.73.47,1.05.66,2.25.8,3.4.1.79.32,1.54.47,2.34-.21.25-.44.52-.65.78.2.98.64,1.86.29,2.9-.22.67.71,1.27.39,1.95.72,1.08,1.37,2.05,2.08,3.12,1.06.41,1.32,1.65,1.99,2.55.5.67.76,1.46.59,2.33-.12.59.34.93.66,1.36.49-.23.93,0,1.44.17.17.44.61.76.72,1.3.22,1.03.79,1.72,1.86,2.08.45.15.92.4,1.37.65.85-.43,1.41-1.04,1.85-1.86.7-1.3,1.54-2.52,2.49-3.65.41-.49.79-.96.99-1.59.18-.55.42-1.17.84-1.52.87-.73,1.17-1.73,1.3-2.71.18-1.35.94-2.38,1.53-3.5.7-1.34,1.6-2.56,2.37-3.86.4-.68.89-1.28,1.33-1.92.93-1.35,1.79-2.76,2.35-4.33.17-.48.36-.97.69-1.36.32-.38.5-.81.54-1.28.09-1.09.35-2.13.85-3.1.08-.16-.01-.44.17-.55.96-.54.74-1.59.95-2.39.25-.93.08-.98,1.01-1.54-.08-1.07.87-1.72,1.24-2.66.19-.47.38-.99.64-1.46.32-.57.44-1.33,0-2.06-.31-.52-.41-1.14-.2-1.8.22-.66-.34-1.38.05-2.06.23-.06.25-.2.13-.47h-.37c.1-.54.28-1.07.03-1.63-.26-.6.11-1.17.22-1.74.2-1.03-.08-2.09.22-3.09.4-1.36.29-2.84.98-4.13.07-.14.18-.29.19-.43.13-2.04,1.15-3.77,1.95-5.58.66-1.5,1.88-2.65,2.67-4.08.14-.25.46-.43.69-.4,1,.15,2.05-.35,2.95.21.71-.14,1.37-.41,2.01-.38,1.45.09,2.42,1.07,2.74,2.55.04.17.17.26.31.33.02.17-.21.38.05.54.16-.2.02-.37,0-.54.31-.4.63-.8,1.01-1.28,1.15.21,1.46-1,2.05-1.61.53-.56,1.06-1.22,1.58-1.84,1.21-1.45,2.6-2.74,3.94-4.07.78-.77,1.64-1.45,2.27-2.39.56-.83,1.42-1.38,2.32-1.82.86-.42,1.68-.9,2.24-1.57,2.19-.77,3.97-.41,5.26,1.5.5,2.41-.78,4.14-2.24,5.78-.47.53-.81,1.16-1.13,1.76-.68,1.27-2.1,1.97-2.53,3.4-.07.22-.3.24-.43.37-.63.64-1.32,1.24-1.53,2.2-.2.9-.65,1.68-1.45,2.28.82,1.63,1.29,3.33,1.03,5.24-.02.01-.15.1-.32.21.56.28.72.95,1.37,1.16.1.51.19,1.06.74,1.45-.64.46-.65,1.08-.86,1.55.65,1.28,1.19,2.57,1.46,3.96,0,.18-.05.37.19.43.57.66.69,1.64,1.55,2.06.13.53.26,1.02.4,1.59-.42.96-.78,2.02-1.88,2.57-.09.22.14.47-.15.69-1.51,1.15-2.45,2.79-3.65,4.21-.56.67-.74,1.96-1.96,1.85-.79,1.01-1.3,2.17-2.63,2.73-.91,1.43-2.51,2.29-3.86,3.45.41,1.01,1.02,1.87,1.96,2.54.5.35.59,1.09.77,1.67-.05.96-.27,1.93-.11,2.83.3,1.78-.45,3.1-1.31,4.18-.14,1.36-1.05,2.08-1.49,3.02-.46.98-1.17,1.78-1.8,2.71,1.93,1.65,3.35,3.7,4.62,5.86.37.63.6,1.35.83,2.05.36,1.14-.47,1.87-1.1,2.55-.5.53-.98,1.08-1.43,1.64-.17.21-.32.46-.53.64-3.2,2.76-5.6,6.2-8.16,9.5-1.17,1.5-2.22,3.07-3.44,4.55-.87,1.06-1.42,2.43-2.22,3.58-.22.31-.29.94-1,.65.28.77-.07,1.09-.67,1.28-.4,1.7-1.65,2.92-2.63,4.28-.83,1.16-1.72,2.28-2.22,3.62-.17.45-.46.83-.73,1.14-.81.91-1.17,2.03-1.72,3.06-.31.59-.42,1.45-1.42,1.31-.7,2.54-2.82,3.93-4.33,5.79h-.63c0,.14.05.21.16.25-.22.28-.64.15-.88.61-.32.61-1.11.81-1.79,1.02-.49.15-.97.31-1.54.49-.79-.56-1.72.02-2.66-.2-2.2-.51-4.33-1.27-6.59-1.56-.48-.06-1.08-.4-1.43-.91-.24-.43-.62-.14-.94-.19-.67.07-1.04-.48-1.64-.79-.76.24-1.48-.22-2.14-.57-1.41-.76-2.86-1.41-4.35-1.98-.38-.15-.67-.4-1.01-.56-.15-.39-.45-.17-.7-.19-1.1-.3-1.86-1.14-2.78-1.72-1.22-.78-2.66-1.11-3.86-1.93-1.13-.77-2.63-.9-3.54-2.08-.15-.19-.63-.29-1.06-.07.05.45.53,1.04-.03,1.23-.78,4.93-1.54,9.72-2.71,14.43-.27.26.21.19.13.52-.24.98-.4,1.99-.57,2.99-.24,1.42-.4,2.85-.72,4.25-.39,1.72-.38,3.5-1.06,5.18-.2.49-.05,1.16-.6,1.58.18.1.29.16.48.26-.38.36-.2.89-.32,1.26-.28.87-.23,1.77-.45,2.61-.57,2.15-1.06,4.31-1.45,6.49-.1.56-.24,1.18-.82,1.68-2.03-.17-4.13.24-6.25.29-1.42.03-2.87.23-4.32.19-2.06-.06-4.13-.22-6.19-.28-1.72-.04-3.38-.51-5.08-.59-1.16-.06-2.3-.25-3.45-.34-.15-.39-.45-.17-.7-.19-1.82-.07-3.59-.53-5.38-.81-1.93-.31-3.85-.72-5.76-1.14-2.22-.49-4.43-1.02-6.63-1.58-.17-.04-.75.09-.48-.59-2.02.3-3.69-.71-5.46-1.31-1.74-.59-3.51-1.12-5.21-1.82-1.6-.65-3.15-1.44-4.66-2.27-.99-.55-2.15-.76-3.03-1.54-.22-.29-.53-.27-.84-.22-2.36-1.12-4.76-2.09-6.87-3.74-1.27-.99-2.91-1.59-4.23-2.57-2.41-1.78-4.99-3.34-7.33-5.22-.51-.41-.58-.9-.49-1.48.18-1.18.38-2.35.55-3.53.37-2.61.79-5.21,1.45-7.77.55-2.13.98-4.28,1.52-6.42.26-1.05.47-2.13.7-3.2.12-.57.42-.9.79-1.22-.32-.62.21-1.05.26-1.59.16-1.79.79-3.48,1.26-5.2.42-1.54.54-3.14.88-4.69.29-1.3.45-2.63.78-3.93.33-1.31.36-2.69.64-4.02.64-3.03,1.16-6.08,1.86-9.1.24-1.03.24-2.1.79-3.05.08-.14,0-.4-.3-.5-1.46,3.28-2.74,6.61-3.61,10.12-.32,1.28-.71,2.62-1.18,3.9-.48,1.3-.86,2.7-1.16,4.1-.38,1.79-1.03,3.53-1.44,5.31-.63,2.68-1.7,5.22-2.41,7.87-.58,2.17-1.1,4.36-1.75,6.51-.81,2.7-1.57,5.45-1.87,8.29-.08.72-.15,1.48-.41,2.2-.35.97-.16,2.02-.26,3.03-.05.45-.1.85-.56,1.28-.76-1.16-1.99-1.76-2.92-2.8-1.03-1.15-2.26-2.2-3.36-3.34-.82-.85-1.84-1.5-2.43-2.57-.13-.23-.42-.35-.64-.52-.88-.67-1.79-1.32-1.89-2.58-.03-.35-.45-.55-.47-.94-1.4-.39-2.2-1.51-3-2.55-.92-1.2-2.03-2.24-2.75-3.59-.81-1.52-2.02-2.77-2.92-4.25-.72-1.18-1.43-2.41-2.31-3.53-1.16-1.48-1.81-3.31-2.86-4.87-1.12-1.67-1.72-3.6-2.79-5.3-.54-.86-.8-1.96-1.42-2.86.44-.78-.04-1.76.7-2.5-.11-.3-.3-.66-.05-1.04.18-.26.5-.2.73-.25.12-.38-.38-.27-.32-.71.14-.26.12-.75.45-1.14.39-.46.41-1.06.47-1.63.03-.32-.08-.69.06-.94.82-1.47.7-3.22,1.46-4.71.33-.65.33-1.45.5-2.17.41-1.77,1.11-3.47,1.44-5.22.29-1.53,1.19-2.89,1.12-4.51-.03-.62.47-1.15.69-1.73.41-1.09.47-2.23.49-3.44.84-.62.58-1.69.94-2.54.63-1.44.67-3.07,1.46-4.47.31-.56-.05-1.34.48-1.88.37.01.75.12,1.13-.07-.27-.26-.61-.06-.9-.17-.02-.96.23-1.86.54-2.77.65-1.89,1.28-3.79,1.83-5.72.16-.55.37-1.03.7-1.43.29-4.54,4.39-8.8,8.38-8.76,1.16-.73,2.46-1.01,3.78-1.2,1.22-.18,2.47-.33,3.67-.37,1.92-.07,3.74-.87,5.69-.58.67.1,1.35-.44,1.98-.22.38-.05.29-.46.58-.48,1.2.36,2.18-.31,3.24-.5,2.06-.7,4.3.33,6.34-.91.6-.36,1.37-.74,2.26-.43.36.13.89-.24,1.35-.34,1.11-.25,2.27,0,3.38-.47,1.61-.68,3.19-1.35,4.43-2.66.83-.88,1.76-1.66,2.85-2.25,1.83-.98,3.59-2.1,5.38-3.15.24-.14.5-.24.8-.39.62.32,1.36.21,1.97.49.43-.07.71-.31,1-.57.05.15.08.26.12.38-.35.83-.37,1.69-.2,2.56.12.59.31,1.19.36,1.75.11,1.27.55,2.4.98,3.56.37.97.73,1.96.78,2.91,3.04,2.71,5.8,5.59,8.77,8.26.37.12.87.23,1.07.57.38.65.99.93,1.56,1.31.39.26.79.55,1.1.87,1.8,1.86,4.11,3.08,6.07,5.03.53-1.51.83-2.9,1.45-4.1.97-.73,2.05-.31,3.08-.47.3-.12.43-.54.79-.54.9.07,1.81.08,2.61.52.36-.74-.45-.64-.58-1.01-.51-1.48-1.82-2.33-2.91-3.23-.81-.66-1.61-1.34-2.39-2.04-.15-.13-.3-.25-.45-.38-1.13-.95-2.45-1.75-3.36-2.88-1.07-1.34-2.43-2.35-3.59-3.58-1-1.05-2.33-1.76-3.32-2.91-1.48-1.72-3.52-2.9-4.84-4.82-.77-1.11-1.53-2.22-2.16-3.41-.31-.59.14-1.25-.17-1.84-.81.11-.77,1.14-1.51,1.25.12-1.13.65-2.12,1.18-3.08.9-1.61,1.85-3.18,2.55-4.91.26-.65.06-1.31.3-1.93.41-.22.35-.45.01-.68-.09-.5.37-.74.63-.9,1.03-.64.92-1.58.69-2.48-.19-.72-.33-1.45-.43-2.18.03-.14-.08-.17-.17-.2-.01-.13-.02-.25-.03-.38.09-.05.19-.1.3-.17-.17-.11-.22-.15-.28-.2l.02.02c.03-.63-.6-1.22-.09-1.93.25,0,.54.06.8,0,1.89-.47,3.83-.66,5.75-.95,1.81-.27,3.61-.74,5.43-.87,1.3-.1,2.51-.54,3.82-.6,1.15-.05,2.35-.25,3.44-.58,1.35-.41,2.73-.56,4.09-.77,1.79-.28,3.53-.92,5.36-.9.72,0,.84-.79,1.44-.82.68-.03,1.36,0,2.04-.02.11,0,.22-.09.33-.11,1.34-.23,2.67-.7,4.04-.57,1.01.09,2-.03,2.99,0,2.19.08,4.36-.28,6.54-.27.16,0,.32-.02.47-.06,3.62-.96,7.26-1.77,11.05-1.71.08-.34-.29-.87.39-1.15.33.29.67.63,1.21.52.76-.15,1.54-.25,2.31-.35,1.43-.18,2.78-.81,4.27-.63.27.03.54-.03.82-.09,1.44-.32,2.87-.65,4.33-.84,2.42-.33,4.85-.69,7.22-1.26.47-.11.91-.18,1.38-.19ZM190.12,118.84c-.38,0-.64.32-.69.55-.35,1.67-1.36,3.09-1.82,4.8,3.8,3.45,7.87,6.5,12.27,9.36.57-1.88,2.3-2.72,3.41-4.12,1.02-1.29,2.55-2.21,3.73-3.43.39-.41.79-.82,1.22-1.18,1.68-1.37,3.2-2.88,4.43-4.68.95-1.4,1.82-2.89,3.48-3.73.24-1.14,1.55-1.69,1.76-2.92-1.02-1.11-1.63-2.38-1.99-3.86-.22-.9-.53-1.95-1.65-2.43.34-.23.32-.5.21-.85-.28,0-.62.28-.89-.05l.03.03c0-.23-.11-.47.05-.64.34-.24.6.1.91.06.44-.65.13-1.33.23-2.02-1.19-.67-1.41-1.94-1.62-3.05-.22-1.16-.38-2.41-.02-3.65-.89.15-1.18.79-1.56,1.38-.97-.29-1.78.74-3.11.26,1.11-.41.65-1.24.84-1.87.65.12.22.95.86,1.07.72-1.18,2.2-1.49,3.03-2.69.54-.78,1.16-1.3.64-2.15-.03-.45.42-.3.5-.58v-.95c.43-.67.87-.5,1.31-.26.44-.55.86-1.03,1.23-1.54,1.37-1.9,2.34-4.07,4.18-5.64,1.03-.88,1.48-2.08,1.05-3.46-.47-.2-.88-.45-1.32-.54-.72-.15-1.44-.51-2.18-.35-1.28.28-2.35,1.1-3.22,1.97-1.41,1.42-2.91,2.75-4.21,4.3-1.25,1.49-2.84,2.68-4.14,4.16-1.14,1.3-2.25,2.62-3.39,4.03.54.27,1.53-.04,1.26.93-.15.31-.53,0-.58.4,1.06.15,2.16-.73,3.16.11-.5.4-.74,1.13-1.34,1.33-.43-.15-.05-.61-.62-.74-.67.21-1.3.87-2.16.99-1.64.22-2.78,1.21-3.83,2.39-.66.74-.68,2.6.03,3.11h.65c.56-1.18,1.83-.89,2.83-1.61-.43,1.17-1.5.74-1.95,1.31-.54.69-1.41.59-1.79.85-.88,1.82.33,2.96.73,4.3,1.57-.18,2.46-1.6,3.94-1.81-.94,1.29-1.64,2.79-3.49,3.08.67,1.45.71,2.87,1.22,3.96.84.81,1.98-.36,2.46.68,2.32-.01,3.96-1.41,5.8-2.34.26.25.61.24.91.4-.43.09-.6.42-.86.7.21.24.33.51.28.59-1.03.39-.59-.59-1.03-.75-1.67,1.75-3.79,2.75-5.47,2.61-.34-.35-.65-.74-1.2-.8-.05.31-.21.44-.62.35-.17-.93-1.22-.55-1.74-1.01-.6-1.73-.07-3.8-1.8-5.15.24-1.06-.59-1.9-.67-2.94-.38.17-.32.79-.87.71-.16-.33-.25-.72.06-.96.91-.7.75-1.66.82-2.63.12-1.49-.67-2.82-.59-4.3.56.12.68.64.97.97,1.18-.51,1.55-2.23,3.16-2.04.39-.95-.72-3.91-1.82-4.88-1.7-.33-3.25.62-4.93.5-.42-.03-.95.35-1.15.89-.66,1.76-1.52,3.43-2.22,5.17-.36.91-.25,2.04-1.17,2.68.19,1.26-.35,2.35-.63,3.47-.47,1.89-1.13,3.73-.56,5.72.07.25.07.59-.04.82-.18.35-.08.62-.03.98.21,1.51.79,2.91,1.1,4.36,1.17.79,2.4,1.39,3.75,1.93-.11.22.32.32.28.6-.07.27-.51.12-.46.53.86.35.57,1.28.95,1.86-.2.38-.45.52-.83.42-1.14-1.04-2.61-1.73-3.49-3.09.14-.02.31.04.43-.1-.15-.22-.27-.49-.64-.3.1.17.17.3.24.43ZM200.74,134.4c-.36-.1-.66-.25-1.03-.26-1.85-.04-3.47-.65-4.81-1.99-.56-.56-1.16-1.1-1.82-1.54-2.05-1.37-4.06-2.79-5.76-4.6-.26-.28-.47-.65-.88-.73-1.74,3.32-3.03,6.77-3.55,10.53,5.27,4.78,10.78,9.31,15.69,14.64,1.48-1.41,2.07-3.19,3.2-4.6.75-.93,1.25-2.1,1.91-3.14.72-1.13,1.36-2.31,2-3.49.59-1.08.61-2.3,1.11-3.42-.23-.35-.39-.8-.7-1.06-.93-.76-2.05-1.21-3.06-1.76h-1.18c-.81.22-.62.99-1.14,1.42ZM112.54,99.37c-3.18-.07-6.32-.67-9.61-.94,1.24,1.71,3.18,2.54,4.33,4.25-.87.11-1.61,0-2.36,0,.98.48,2.04.12,3.06.32,1.23,1.24,2.48,2.48,3.71,3.73,1.16,1.18,2.45,2.21,3.75,3.23.43.34,1,.84,1.56.63.89-.34,1.84-.48,2.71-.94,1.52-.8,2.91-1.89,4.78-2.29.75-2.05.33-4.32.83-6.41-.7-.71-1.65-.19-2.47-.58,1.82-2.81,3.6-5.55,5.52-8.5-.94-.05-1.73-.1-2.55-.14-.04-.08-.03-.26-.34-.3-.4.62-1.11.58-1.75.46-1.98-.37-3.97-.32-5.97-.5-1.77,1.92-2.9,4.19-4.23,6.47-.73-.04-.54.82-.96,1.5ZM95.22,83.23c-.75,1.73-.87,3.62-1.6,5.45v.94c1.22,1.96,2.75,3.32,4.46,4.58-.43-2.05-.85-4.07-1.27-6.08-.12-.57.03-1.28-.58-1.61-.52-.27-.6-.72-.66-1.17-.09-.71-.36-1.38-.34-2.1ZM75.56,97.79c-.07.82,0,1.62.02,2.4.07,2,.48,3.98.52,5.99.01.68.31,1.28.94,1.72.74.52,1.56.83,2.61,1.37-.9-4.14-2.33-7.85-4.09-11.48ZM98.88,84.33c.66.48,1.33.41,1.99.36.26-.15.05-.46.22-.6.32-.17.62-.32.83-.43.24-.47-.31-.27-.3-.52.06-.15.31-.05.3-.27-.11-.1-.32-.05-.39-.27.08-.18.16-.38.26-.62-.5-.15-.75-.58-1.13-.83-1.34-.02-1.81.2-1.93.89-.18.08-.41-.03-.59.23.47.4-.28.94.13,1.42.65-.48.81.42,1.43.42-.33.09-.51.14-.82.22ZM113.16,81.8s-.04-.1-.06-.15c.27-.03.54-.06.85-.1-.56-.38-.52-.81-.2-1.34-.72.14-.86-.81-1.35-.76-.7.24-1.2.41-1.73.59-.03.26-.05.53-.08.81-.3.04-.53.14-.59.43.14.32.68.32.54.88h1.6c-.57.3-1.03.03-1.45.28.6.75,1.41.6,2.14.6.61-.18.52-.79.87-1.15-.23-.04-.38-.06-.53-.09ZM100.74,91.62c.55.04.69.48,1.05.53,1.11.14,2.18-.09,3.27-.32.12-.25.17-.59-.01-.76-.59-.57-.98-1.44-1.75-1.71-1-.34-1.59.57-2.07.91-.41.55.26,1.01-.49,1.34ZM80.53,112.37c-.33-1.32-1.41-1.83-2.33-2.49-.22.2-.46.31-.45.45.76,1.32,2.16,1.97,2.55,3.42.37-.18.6.36,1,.18.1-.11.2-.22.29-.33-.1-.67-.53-1.03-1.06-1.24ZM192.25,118.43c-.9-.5-1.03-.53-1.55-.22.51.07.72.48,1.12.63.14-.13.25-.24.43-.41ZM140.53,65.7c-.84-.12-1.63-.29-2.42,0h2.42ZM167.42,70.5c-.73-.23-1.46-.24-2.19,0h2.19ZM30.35,140.28c-.64-.12-1.3-.18-2.18,0,.88.19,1.53.11,2.18,0ZM184.45,153.18c.65.17,1.3.24,1.95,0h-1.95ZM137.83,158.52c.9.17,1.55.11,2.19,0-.65-.11-1.3-.18-2.19,0ZM148.67,159.72c-.64-.12-1.3-.18-2.18,0,.88.19,1.53.11,2.18,0ZM28.23,169.96s-.03.08-.04.12h1.9s0-.08,0-.12h-1.85ZM148.84,181.81c.93.15,1.58.17,2.23-.04-.65-.08-1.3-.15-2.23.04ZM44.09,184.2c-.9-.17-1.55-.11-2.19,0,.65.11,1.3.18,2.19,0ZM69.03,203.32s-.03.08-.04.12h1.9s0-.08,0-.12h-1.85ZM88.93,220.5h1.95c-.64-.25-1.29-.17-1.95,0ZM79.88,220.67c-.93-.15-1.58-.17-2.23.04.65.08,1.3.15,2.23-.04ZM146.48,168.92s.04-.08.06-.12h-1.91s0,.08,0,.12h1.85ZM163.09,68.55c.42.03.83.2,1.31-.05-.5-.15-.91-.13-1.31.05ZM73.63,174.66c.46.04.8.16,1.14-.1-.34-.04-.68-.17-1.14.1ZM34.59,176.78c.39.11.72.22,1.11-.08-.4-.06-.74-.14-1.11.08ZM150.6,185.89c.32.07.66.19,1.03,0-.34-.21-.68-.13-1.03,0ZM115.15,211.38c.46.04.8.16,1.14-.09-.34-.04-.68-.17-1.14.09ZM63.7,117.2c-.57-.08-.9-.17-1.26.06.39.15.73.15,1.26-.06ZM60.01,127.32c.4.17.74.17,1.2-.01-.47-.14-.8-.16-1.2.01ZM103.59,92.46c-.33.04-.67-.23-1.18.23.53-.13.87.05,1.18-.23ZM140.16,93.02c-.29-.27-.51-.7-.72-.06.21.21.42.18.72.06ZM164.82,70.42c-.3-.13-.57-.19-.85.04.3.13.57.19.85-.04ZM61.25,102.12c.29.19.57.18.87,0-.29-.19-.57-.17-.87,0ZM115.09,207.45c-.25-.05-.51-.2-.78.04.28.15.53.13.78-.04ZM60.91,117.24c-.21-.18-.41-.17-.63,0,.21.18.41.17.63,0ZM62.14,117.23c-.27-.11-.46-.2-.63.04.21.13.38.14.63-.04ZM110.42,122.94c.12.16.17.36.4.34.1-.27.09-.46-.4-.34ZM134.14,71.87c-.27-.11-.46-.2-.63.04.21.13.38.14.63-.04ZM141.34,92.99c-.27-.11-.46-.2-.63.04.21.13.38.14.63-.04ZM71.57,174.6c.21.17.42.17.63,0-.21-.17-.42-.17-.63,0ZM33.71,176.81c.16-.06.39.24.53-.09-.19-.12-.37-.13-.53.09ZM148.34,185.88c.27.13.46.21.63-.02-.2-.15-.38-.13-.63.02ZM72.74,174.62c.23.1.44.17.68-.05-.23-.1-.44-.17-.68.05Z"/>
    <path class="cls-2"
          d="M88.5,34.81c-.68-2.24-1.01-4.54-1.34-6.85-.08-.54-.33-1.07-.21-1.65.26-1.26.93-2.23,2.1-2.73,1.38-.58,2.79-1.14,4.32-1.23,1.63-.1,3.19-.59,4.8-.83,2.11-.32,4.21-.74,6.32-1.1,2.26-.38,4.53-.69,6.78-1.14,2.13-.42,4.29-.74,6.45-1.01,1.69-.21,3.36-.59,5.05-.81,2.83-.36,5.63-.91,8.45-1.38.47-.08.95-.13,1.41-.25,2.38-.61,4.87-.35,7.27-.93,4.98-1.21,10.03-2,15.1-2.7,2.4-.33,4.79-.78,7.19-1.08,1.33-.17,2.7-.28,4.02.23,1.06.41,1.82,1.05,2.07,2.25.51,2.4.83,4.83,1.16,7.27.09.71.34,1.4.25,2.12-1.22,0-2.44.14-3.62.43-1.3.32-2.58.6-3.92.57-.4,0-.83-.08-1.19.05-2.31.83-4.73.87-7.17,1.24-1.41.78-3.15.37-4.66.98.2.3.62-.05.84.28.12.14-.09.4.26.56,1.35-.12,2.8.38,4.24-.1-.07-.27-.5.02-.53-.37h2.84c.21-.24.29-.53.72-.5.84.06,1.69-.04,2.52.03,1.25.11,2.47-.23,3.56-.62,2.07-.75,4.2-.98,6.33-1.3.32,2.06.4,4.15.9,6.18.2.8-.13,1.67.28,2.45-1.67-.18-3.27.37-4.89.59-1.84.24-3.69.57-5.54.79-1.82.22-3.55.93-5.44.85-.42-.02-1.12-.07-1.46.24-.86.75-1.84.62-2.82.65-.55.01-1.14-.1-1.56.4.19.52.72.2,1.17.5-.61-.02-.54.44-.72.74.78.15,1.46-.04,2.06-.5,0-.24-.42-.05-.27-.5,5.17.55,10.17-1.18,15.25-1.37.21-.14-.06-.27.07-.42.48-.19.86.38,1.34.19.92-.37,1.93-.24,2.85-.54.43,1.18.5,2.44.66,3.66.12.93.41,1.86.3,2.81-.45.12-.9.09-1.1.07-.36-.2-.01-.38-.3-.4-3.07.01-5.96,1.29-8.97,1.16-.17.27.33.18.06.52-1.69-.45-3.28.49-4.99.45-.46-.01-1.21.21-1.34.53-.29.71-.93.6-1.26.54-.98-.18-1.78.14-2.59.57-.41.11-.86-.13-1.29.13.5.26,1.03,0,1.52.17-.03.2-.19.46.23.43.27-.02.37.08.18.33-.25.32-.7-.02-1.03.36.46-.04.88.23,1.22-.19.78-.14,1.58-.23,2.17-1.06,4.07.53,8.04-.64,12.06-1.41h-3.81c1.44-.34,2.91-.31,4.32-.31,1.77,0,3.46-.15,5.16-.59,0,0-.03-.02-.03-.02.05.11.1.21.23.23.03.28.07.57.1.85.11.26-.21.6.14.82.24,1.78.48,3.57.71,5.35.18,1.44.35,2.88.5,4.32.08.78.4,1.54.25,2.34-3.7.34-7.34,1.17-11.25,1.54-.22.11-.6.34-1.1.4-1.69.2-3.39.35-5.05.85-.76.23-1.55.52-2.36.57-1.48.08-2.9.64-4.37.66-1.12.01-2.14.46-3.22.53-1.41.08-2.76.46-4.15.67-1.9.28-3.78.66-5.48.81-2.15-1.13-3.98.18-6.07.12-.25-.21-.79-.22-1.28-.12-1.81.36-3.66.55-5.43,1.16-1.36.47-2.83.49-4.22.79-2.62.56-5.27.94-7.9,1.42-1.6.29-3.22.3-4.8.87-1.4.51-2.96.65-4.47.75-1.53.1-3,.47-4.51.68-1.42.2-2.83.46-4.27.45-.44-2.46-.88-4.91-1.31-7.37-.04-.23-.05-.47-.08-.7.93-.39,1.92-.62,2.91-.69,1.72-.11,3.41-.43,5.07-.82,2.26-.54,4.58-.7,6.85-1.27,1.09-.27,2.3-.44,3.42-.66,2.04-.39,4.05-.9,6.09-1.01.09-.1-.18-.26.24-.39,1.89.5,3.76-.66,5.79-.45-.12-.34-.43-.13-.52-.28-.12-.2-.49-.06-.49-.46,3.71.63,7.23-.63,10.85-.95-.04-.19-.06-.3-.06-.33,1.48-.58,3.21-.37,4.41-1.36.06-.52-.28-.38-.37-.56.12-.08.24-.16.42-.28-1.7-.55-3.19.74-4.81.36-.38.33-.75.53-1.28.55-1.79.06-3.59.43-5.3.83-2.72.64-5.48.8-8.21,1.28-1.72.3-3.45.59-5.17.9-1.67.31-3.33.7-4.99,1.04-1.97.4-3.94.83-5.93,1.17-1.56.27-3.11.57-4.66.95-1.49.37-3.04.54-4.51,1.03-.3-1.79-.58-3.58-.91-5.36-.1-.52,0-1.03-.1-1.54,1.91-.06,3.79-.3,5.69-.66.09-.23-.38-.05-.27-.39,1.04.22,2.07-.06,3.16-.03-.18-.41-.67.03-.8-.48h3.33c-.36-.31-.76-.05-.95-.45,4.25.23,8.24-1.19,12.55-1.48.24-.62.88-.43,1.47-.44.28,0,.58.05.84-.02,1.43-.42,2.93-.53,4.38-.64,1.77-.13,3.52-.39,5.26-.6,2.83-.35,5.62-1.08,8.42-1.67.12-.03.21-.19.35-.31-.14-.07-.24-.12-.34-.17-.07.14-.17-.21-.04-.11.51-.18.53-.21.49-.81-.81.12-1.61-.12-2.46.21-.72.28-1.56.25-2.49.38.53.27,1.01,0,1.55.38-6.59-.18-12.81,1.45-19.16,2.19h5.92c-.33.29-.58.21-.81.22-2.81.11-5.63-.14-8.45.22-2,.26-3.96.76-5.96,1.06-1.91.29-3.77.88-5.69,1.18-.66.1-1.35.01-1.97.22-1.46.5-3.03.48-4.49.95-.52-1.74-.81-3.52-.98-5.32,3.85-.77,7.72-1.39,11.68-1.5-.27-.38-.76.03-1.05-.38,2.76-.22,5.42-.73,7.92-1.22,4.51-.23,8.68-1.62,13-2.05-.71-.23-1.46.01-2.16-.31,4.49.26,8.79-.77,13.16-1.93.17-.17.26-.51.41-.83-.22-.18-.15-.54-.54-.7-2.75.66-5.64.95-8.49,1.48.01.1.02.19.03.29h4.55c0,.07,0,.13,0,.2h-7.08c.22.19.32.28.41.36-.41.39-.7-.23-1.09-.13-1.15.26-2.32.36-3.47.56-1.82.32-3.67.41-5.48.83-1.2.28-2.44.56-3.7.57.03.25.32.18.25.45-1.06,0-2.17-.18-3.19.04-2.08.45-4.18.71-6.27,1-2,.27-3.99.56-5.98.85-1.12.16-2.2.56-3.34.54-.28-1.81-.54-3.63-.85-5.44-.08-.43-.11-.85-.13-1.29.28-.3.65-.21,1-.27,1.84-.3,3.66-.64,5.5-.94,1.56-.26,3.11-.6,4.68-.69,1.15-.07,2.27-.24,3.33-.58.57-.18,1-.57,1.61-.2.03.02.13-.1.19-.1,1.81-.02,3.52-.79,4.47-.69,6.42-1.27,12.1-1.85,17.65-3.11.26.01.15-.4.75-.38.58.07,1.39-.08,2.18-.44-.32-.06-.64-.03-.96-.07-.3-.04-.66.17-.94-.16,1.78-.34,3.62.5,5.47-.36-.25-.15-.38-.22-.5-.3.18-.21.63-.15.57-.7-.6-.12-1.19-.57-1.86-.36-1.04.33-2.13.42-3.18.63-2.48.51-4.91,1.28-7.41,1.67-1.73.27-3.45.65-5.19.76-1.88.11-3.67.67-5.53.89-1.5.18-2.96.71-4.45.78-2.46.13-4.78.95-7.23,1.02,0,.08.01.16.02.24h3.18c-1.4.16-2.79.36-4.14.07-.56.36.31.44.04.81-.24-.39-.5.28-.79-.04.04-.28.46-.3.42-.64-.03-.06-.05-.15-.09-.16-.14-.04-.16.07-.18.17-1.09-.09-2.12.34-3.45.28.66.37,1.18.04,1.57.39-.17.42-.42.31-.69.24-.92-.25-1.88-.07-2.8-.07-1.17,0-2.37.26-3.56.4ZM159.02,52.14s-.01.08-.02.12h3.62s0-.08,0-.12h-3.61ZM150.34,27.48c.57.2,1.15.09,1.72,0-.57-.18-1.15-.13-1.72,0ZM143.43,31.24s-.03.08-.04.12h1.9s0-.08,0-.12h-1.85ZM163.14,45.16c.55.24,1.2.25,1.85,0h-1.85ZM163.59,16.87c.5.23.84.21,1.28.05-.41-.18-.71-.12-1.28-.05ZM148.27,44.56c.51.09.85.16,1.32-.11-.48-.02-.82-.13-1.32.11ZM142.37,31.74c-.46-.04-.8-.16-1.14.09.34.04.68.17,1.14-.09ZM143.18,31.77c.54.2.88.21,1.26.05-.36-.22-.69-.13-1.26-.05ZM162.5,16.9c-.41-.13-.66-.16-.92,0,.28.22.55.16.92,0ZM112.56,21.74c.39.12.64.15.95-.05-.34-.11-.6-.17-.95.05ZM121.39,19.08c-.21-.17-.42-.17-.63,0,.21.17.42.17.63,0ZM108.7,39.71c-.27-.11-.46-.2-.63.04.21.13.38.14.63-.04ZM136.54,57.96c-.27-.13-.46-.21-.63.02.2.15.38.13.63-.02ZM171.72,40.79c.11-.07.11-.15,0-.22-.11.07-.11.15,0,.22Z"/>
    <path class="cls-1"
          d="M118.82,114.26c-.62.26-1.29.2-1.93.31-.43.07-.86-.05-.66-.78.49.09.92.11,1.3-.49.68-1.07,1.97-1.45,2.99-2.13,1.42-.94,2.99-1.7,4.65-2.17.49-.14.65-.71,1.13-.75.41.24.24.77.6,1.01v-.02c.06.51.1,1.03.02,1.53-.75.43-1.03,1.17-1.14,1.91-.19,1.28-.7,2.42-1,3.05-.55,2.95.66,5.2.49,7.51.52.59,1.16.98,1.19,1.77-.19.05-.26-.24-.44-.05v.34c-.06.27-.48-.11-.49.26.03.19.16.23.32.2.16-.14-.08-.37.14-.49.39.22.31.5.09.78-.14.19-.36.31-.33.6.13,1.08.16,2.19.32,3.25.22,1.48.15,2.97.35,4.45.23,1.7.1,3.46.25,5.19.09,1.01.22,2.06.05,3.1-.16,1-.23,2.11-.12,3.03.11.95-.03,1.9-.02,2.81,0,.93-.02,1.91-.02,2.9.04-.32.36-.45.4-.8.14-1.2.75-2.27,1.17-3.36.37-.95.78-1.92,1.21-2.87.28-.62.46-1.29.76-1.89,1.05-2.14,1.85-4.38,2.8-6.56.76-1.75,1.03-3.7,1.62-5.53.43-1.34.71-2.69.84-4.08.13-1.36-.09-2.69-.55-3.93-.48-1.3-.97-2.59-2.03-3.66-.95-.96-1.8-2.12-2.26-3.39.17-.43.4-.61.77-.55,0,.31.2.25.39.22.43,1.37,1.55,2.28,2.38,3.35,1.17,1.51,1.58,3.27,2.24,4.95.61,1.58.69,3.29.7,4.95.01,1.71-.02,3.46-.51,5.11-.65,2.23-.88,4.55-1.63,6.74-.42,1.23-.98,2.41-1.43,3.63-.86,2.34-1.57,4.73-2.49,7.05-.53,1.34-.73,2.81-1.26,4.18-.41,1.06-.85,2.12-1.19,3.22-.28.92-.56,1.84-.83,2.76-.58,1.95-1.51,3.78-1.95,5.78-.37,1.65-.95,3.26-1.48,4.85-.48,1.46-.87,3.01-1.69,4.35-.26.42-.02.88-.16,1.27-.62,1.7-.94,3.49-1.65,5.16-.83,1.91-1.14,3.98-1.74,5.95-.78,2.53-1.28,5.13-2.2,7.63-.5,1.35-.68,2.85-1.14,4.23-.42,1.28-.49,2.64-1.02,3.9-.37.86-.34,1.88-.85,2.74-.1.17-.06.48.02.55-1.34,3.28-2.14,6.69-3.7,10.15-.16-1.04-.42-1.84-.39-2.64.08-2.19-.28-4.35-.31-6.54-.03-1.81-.49-3.61-.9-5.39-.37-1.62-.69-3.25-1.04-4.87-.53-2.51-.59-5.08-1.26-7.58-.4-1.52-.58-3.13-.8-4.71-.15-1.09-.48-2.12-.81-3.13-.54-1.65-.74-3.37-1.14-5.04-.33-1.39-.97-2.68-1.25-4.1-.35-1.77-.77-3.55-1.44-5.21-.87-2.15-1.45-4.37-2.11-6.58-.35-1.15-1.08-2.13-1.42-3.26-.47-1.55-1.38-2.92-1.77-4.5-.27-1.09-.67-2.12-1.09-3.16-.18-.44-.44-.72-.7-1.05-.11-1.55-1.03-2.81-1.61-4.18-.22-.52-.43-1.07-.67-1.57-.72-1.53-1.09-3.2-2.04-4.64-.7-1.06-1-2.33-1.44-3.51-.23-.62-.51-1.21-.83-1.75-1.45-2.41-2.63-4.95-3.79-7.51-.95-2.1-1.68-4.35-2.96-6.24-1.3-1.92-1.66-4.22-2.94-6.11-.23-.34-.37-.84-.36-1.33.01-.73.1-1.47-.31-2.34,1.1.53,1.68,1.28,1.98,2.15.81,2.42,2.36,4.41,3.66,6.54.48.79.84,1.63,1.35,2.41.81,1.24,1.44,2.6,2.11,3.93,1.38,2.74,3.1,5.28,4.35,8.1,1.19,2.69,2.32,5.47,3.95,7.93,1.18,1.77,1.74,3.75,2.51,5.66,1.09,2.71,2.31,5.36,3.43,8.05.49,1.17.77,2.41,1.23,3.59.48,1.25.91,2.52,1.32,3.8.41,1.28.7,2.6,1.11,3.87.38,1.2.77,2.41,1.15,3.61.64,2.02.82,4.16,1.54,6.21.14-.26.27-.49.38-.7-.32-1.48-.5-2.94-.74-4.39-.33-1.95-.37-3.97-.98-5.85-.31-.96-.11-1.92-.41-2.88-.83-2.7-1.02-5.54-1.65-8.3-.59-2.57-1.17-5.18-1.41-7.8-.21-2.3-1.15-4.35-1.48-6.56-.18-1.2-.2-2.47-.58-3.6-.63-1.87-.86-3.83-1.58-5.68-.28-.73-.33-1.58-.5-2.38-.38-1.78-1.29-3.39-1.53-5.21-.03-.2-.28-.37-.43-.57.03-.75-.17-1.42-.43-2.15-.74-2.06-1.38-4.15-2.07-6.22-.69-2.05-1.55-4.08-1.94-6.26.18-.13.43-.12.6.07,2,2.23,4.61,3.74,6.78,5.77,1.1,1.03,2.39,1.86,3.65,2.7.65.43,1.28.93,1.83,1.44.95.9,1.93,1.69,3.2,2.19.23,0,.06-.46.49-.45.81.64.48,1.91,1.31,2.7.79.75,1.61,1.48,2.37,2.13-.23,2.11-.33,4.14-.69,6.13-.28,1.53-.17,3.09-.59,4.64-.29,1.08-.36,2.33-.33,3.52.06,3.1-.26,6.19-.27,9.29-.01,3.76-.28,7.52-.21,11.29.02,1.37.19,2.76-.21,4.12-.09.29.21.55.23.89.13,1.81-.12,3.61,0,5.41.18,2.78.17,5.56.25,8.33.04,1.47.05,2.93-.02,4.39-.03.67-.15,1.41.08,2.01.44,1.15.09,2.33.31,3.5.21,1.09.01,2.34.14,3.47.29,2.48-.04,4.97.37,7.43.03.19.07.4.05.59-.17,1.99.33,3.95.35,5.96,1.26-4.71,2.43-9.44,3.72-14.12-.13-.29-.46-.07-.63-.28.21-.23.63-.04.83-.53.16-1.13.26-2.43.95-3.58.22-.37,0-.85.14-1.28,1.06-3.3,1.84-6.69,2.48-10.08.48-2.56,1.06-5.12,1.31-7.73.11-1.14.46-2.31.53-3.43.06-1.01.27-2.03.19-3.08-.09-1.04.02-2.11.14-3.17.15-1.4.24-2.84.27-4.26.04-1.96-.24-3.92-.16-5.87.04-.85-.09-1.67-.06-2.5.05-1.63-.08-3.27,0-4.9.07-1.35-.1-2.72-.31-4.01-.24-1.47-.87-2.92-1.84-4.18-.73-.94-1.43-1.92-1.96-3.08.64-.2,1.21-.52,2.07-.3-.54-.54-1.18-.02-1.45-.65.2-.68.45-1.39.61-2.13.16-.76.56-1.15,1.34-1.15.32,0,.64,0,.95-.05.85-.16,1.48-.64,1.5-1.52.02-1.35.97-2.33,1.2-3.58.13-.34-.23-.44-.34-.69.42-.78-.13-1.49-.08-2.26-.23-.03-.38-.05-.61-.08.29-.56-.07-.85-.48-1.12-.07.14-.15.27-.22.42-.63-.71-1.61-1.03-2.06-1.92.23,0,.46.08.67-.08-.17-.21-.39-.25-.64-.31v.42ZM118.83,127.85c-.12-.53-.35-.51-.67-.27.13.2.26.39.67.27ZM126.73,151.6c-.63.2-.53.44-.35.73.1-.2.18-.39.35-.73Z"/>
    <path class="cls-1"
          d="M90.3,89.09c.74-.11.7-1.14,1.51-1.25.31.59-.15,1.25.17,1.84.64,1.19,1.4,2.3,2.16,3.41,1.32,1.93,3.36,3.1,4.84,4.82.99,1.15,2.32,1.86,3.32,2.91,1.16,1.22,2.52,2.24,3.59,3.58.9,1.13,2.22,1.93,3.36,2.88.15.13.31.25.45.38.78.7,1.59,1.38,2.39,2.04,1.09.9,2.4,1.76,2.91,3.23.13.37.94.27.58,1.01-.8-.44-1.71-.46-2.61-.52-.36,0-.49.42-.79.54-1.03.16-2.11-.26-3.08.47-.62,1.2-.92,2.59-1.45,4.1-1.96-1.95-4.27-3.16-6.07-5.03-.31-.32-.71-.61-1.1-.87-.57-.38-1.18-.66-1.56-1.31-.2-.34-.7-.45-1.07-.57-2.97-2.67-5.73-5.55-8.77-8.26-.05-.95-.42-1.94-.78-2.91-.44-1.16-.87-2.3-.98-3.56-.05-.57-.25-1.17-.36-1.75-.17-.86-.15-1.73.2-2.56.55-.58,1.1-1.15,1.65-1.73.29,0,.6.08.88-.06.08-.22.15-.43.22-.64.19.05.31-.03.4-.19Z"/>
    <path class="cls-2"
          d="M126.02,125.28v-.34c.18-.19.26.09.44.05-.03-.79-.67-1.17-1.19-1.77.17-2.31-1.04-4.56-.49-7.51.3-.62.82-1.77,1-3.05.11-.74.39-1.47,1.14-1.91.08-.5.04-1.02-.02-1.53.77-.06.8.67,1.17,1.02.72.66.96,1.61,1.69,2.24.27.24.36.69.53,1.05-.35.25-.21.57-.15.98h1.14l-.03-.03c0,.09,0,.18,0,.26h.03c-.38-.07-.6.11-.77.54.46,1.27,1.31,2.43,2.26,3.39,1.06,1.07,1.55,2.36,2.03,3.66.46,1.24.68,2.57.55,3.93-.13,1.4-.41,2.74-.84,4.08-.59,1.83-.86,3.79-1.62,5.53-.95,2.18-1.75,4.42-2.8,6.56-.3.61-.48,1.27-.76,1.89-.42.95-.84,1.93-1.21,2.87-.42,1.09-1.03,2.17-1.17,3.36-.04.36-.36.48-.4.8,0-.99.03-1.97.02-2.9,0-.91.12-1.86.02-2.81-.1-.93-.04-2.03.12-3.03.17-1.04.04-2.09-.05-3.1-.16-1.73-.02-3.49-.25-5.19-.2-1.48-.13-2.97-.35-4.45-.16-1.05-.19-2.16-.32-3.25-.03-.29.18-.42.33-.6.21-.28.3-.56-.09-.78l.03.03ZM129.07,115.36c-.14-.46-.72-.34-.89-.85.06-.78-.39-1.56-.37-2.45-.59,1.24-1.69,2.28-1.5,3.84h.61c.09-.45,0-.99.42-1.33.2.32.38.66.76.82.3-.52.61.19.98-.04ZM125.82,117.89c.45-.17.93-.23.31-.73-.2.15-.41.27-.31.73ZM126.69,116.19c-.66-.01-.42.35-.37.66.23-.15.43-.27.37-.66Z"/>
    <path class="cls-1"
          d="M94.3,68.3c1.44.01,2.85-.25,4.27-.45,1.5-.21,2.98-.58,4.51-.68,1.51-.1,3.07-.25,4.47-.75,1.58-.57,3.21-.58,4.8-.87,2.63-.48,5.28-.86,7.9-1.42,1.39-.3,2.87-.33,4.22-.79,1.77-.61,3.62-.8,5.43-1.16.49-.1,1.03-.09,1.28.12,2.09.06,3.92-1.24,6.07-.12,1.7-.15,3.58-.52,5.48-.81,1.38-.21,2.74-.59,4.15-.67,1.08-.06,2.1-.51,3.22-.53,1.47-.02,2.89-.58,4.37-.66.81-.05,1.6-.34,2.36-.57,1.66-.5,3.35-.64,5.05-.85.5-.06.88-.29,1.1-.4,3.91-.38,7.54-1.2,11.25-1.54.02.19.05.39.06.51-.12.28-.56.08-.49.47-.57-.19-1.06.2-1.61.24-1.86.12-3.67.62-5.51.9-1.23.19-2.46.43-3.7.5-1.33.08-2.58.56-3.9.65-1.63.11-3.18.89-4.87.65-.11-.02-.69.04-.57.54.08.03.16.1.22.09,1.95-.31,3.89-.66,5.85-.94,1.73-.25,3.48-.47,5.19-.79,2.09-.39,4.23-.58,6.27-1.18.87-.26,1.93.22,2.61-.68.19.02.37.04.56.06.13.22.13.45.13.68-.47.02-.91.08-1.38.19-2.38.57-4.8.93-7.22,1.26-1.46.2-2.89.53-4.33.84-.28.06-.55.13-.82.09-1.48-.18-2.84.45-4.27.63-.77.1-1.55.2-2.31.35-.54.11-.88-.23-1.21-.52-.68.27-.3.81-.39,1.15-3.79-.06-7.43.75-11.05,1.71-.15.04-.31.06-.47.06-2.18-.01-4.35.35-6.54.27-.99-.04-1.98.09-2.99,0-1.37-.13-2.69.34-4.04.57-.11.02-.22.11-.33.11-.68.01-1.36-.01-2.04.02-.6.03-.72.82-1.44.82-1.83-.02-3.56.62-5.36.9-1.36.21-2.74.37-4.09.77-1.1.33-2.29.52-3.44.58-1.31.06-2.52.51-3.82.6-1.82.13-3.62.6-5.43.87-1.92.29-3.86.48-5.75.95-.26.06-.55,0-.8,0-.51.71.12,1.3.09,1.93-.44,0-.32-.4-.35-.6-.15-1.03-.54-2.04-.41-3.11ZM132.4,63.2c-.42-.05-.83-.16-1.24.08.41.03.83.17,1.24-.08ZM142.8,62.06c.39.12.64.15.95-.05-.34-.11-.6-.17-.95.05ZM143.78,61.59c.37.12.62.14.92-.04-.32-.12-.58-.2-.92.04ZM137.74,63.23c-.27-.11-.46-.2-.63.04.21.13.38.14.63-.04Z"/>
    <path class="cls-1"
          d="M153.04,104.17c-.2-.45-.18-.86.08-1.3.87-1.5,1.72-3.02,2.58-4.53.55-.97,1.15-1.91,1.65-2.9.19-.38.46-.6.78-.53,1.33.3,2.67-.01,3.99.17.07.23-.26.14-.23.41,2.4.09,4.82.03,7.21.28.05.26-.2.19-.29.29-.03.23.22.12.31.28-.2.42-.09,1.08-.9,1.16.25.9-.57,1.5-.58,2.33-.97.31-.54,1.68-1.49,2.05.16,1.35.06,1.55-.95,1.84.57.3-.71.71.11,1.01-.24.29-.62,0-.89.27-.01.15-.03.34-.04.53-.3-.12-.68.17-.95-.17.23,0,.47.1.72-.1-.15-.17-.22-.4-.51-.4-.15.14-.48.16-.32.49-.23.1-.32-.09-.43-.23-.18,0-.22.3-.45.21-.15-.42-.42-.22-.66-.13-.26.06-.2-.28-.41-.3-.03.11-.06.22-.09.35-2.01-.23-4.05-.46-6.08-.69-.02.14-.19-.13-.05-.1.08.01.11-.17.04-.37-.7.47-1.42.41-2.13.05ZM164.49,104.46h-3.58c1.21.21,2.41.2,3.58,0ZM168.02,96.61c.27.11.46.2.63-.04-.21-.13-.38-.14-.63.04Z"/>
    <path class="cls-1"
          d="M153.6,79.42c2.35-.68,4.65-1.59,7.21-1.44-.05-.22-.05-.35-.12-.43-.09-.12-.24-.19-.35-.28-1.07,1.09-2.34.15-3.62.38-.13-.04-.28-.28-.45-.49.07-.15.32-.04.36-.27-1.23-.09-1.53-1.31-2.33-1.94-1.79-1.42-3.01-3.41-4.84-4.99,2.89-.66,5.72-.89,8.47-1.52h4.52c-.37.37-.82.07-1.24.39,2.37,2.58,4.73,5.15,7.11,7.73.78-.05,1.58.19,2.33-.21l-.03-.04c.16.4-.2.48-.42.64.15.22.36.15.54.17-3.46.6-6.94.97-10.42,1.39-1.34.16-2.64.56-3.99.73-.91.11-1.82.22-2.74.19ZM160.13,75.8c-.21-.33.09-.77-.23-1.17-.05.48-.16.87.23,1.17ZM164.63,74.73c-.37-.12-.62-.14-.92.04.32.12.58.19.92-.04Z"/>
    <path class="cls-1"
          d="M132.22,101.51c.18-.59.4-1.12.79-1.64,1.53-2.03,2.6-4.36,4.01-6.47.07-.11.02-.29.03-.41,1.81-.56,1.51-.37,2.23.29,2.67.44,5.29.47,7.91.32.52.13.58.19,1.09.97-.87-.13-1.7-.01-2.53.14.9.05,1.77.45,2.9-.02-.27.54-.37.96-.64,1.23-.95.97-1.38,2.27-2.25,3.3-.88,1.05-1.49,2.33-2.23,3.5-1.6.17-3.2-.06-4.74-.36-1-.19-2.01-.11-2.99-.37-.21-.46-.45-.31-.69-.03-.98-.02-1.93-.31-2.89-.46ZM135.22,98.8h2.64c-.88-.13-1.76-.24-2.64,0ZM143.82,95.85c-.5-.09-.91-.28-1.2.28.11.16.21.34.54.34-.18-.58.5-.17.66-.62ZM147.44,93.9s-.05.06-.04.08c.01.03.06.09.07.08.1-.04.12-.1.05-.16-.02-.01-.05,0-.08,0Z"/>
    <path class="cls-1"
          d="M134.8,82.09c.12-.19.31-.23.52-.22,1.75.09,3.47-.26,5.2-.46.74-.09,1.38-.66,2.2-.61-1.55-.09-3.09-.11-4.82.38-3.21-2.31-5.75-5.52-8.87-8.39,2.05-.22,3.9-.42,5.76-.62.05-.17-.2-.14-.37-.48,1.78.47,3.43-.02,5.09.1,3,2.55,5.52,5.6,8.59,8.27.7-.03,1.55-.48,2.47-.29-2.52.62-5.12.76-7.64,1.3-2.38.5-4.79.65-7.18,1.02-.31.05-.63.13-.94.01ZM144.3,80.05c-.31.33-.58.25-.72.51.29.1.59.25.72-.51Z"/>
    <path class="cls-1"
          d="M92.68,58.82c1.47-.49,3.02-.66,4.51-1.03,1.54-.38,3.09-.68,4.66-.95,1.98-.34,3.95-.76,5.93-1.17,1.67-.34,3.32-.74,4.99-1.04,1.72-.32,3.45-.6,5.17-.9,2.73-.48,5.49-.64,8.21-1.28,1.71-.4,3.51-.77,5.3-.83.53-.02.9-.21,1.28-.55,1.62.38,3.1-.91,4.81-.36-.18.12-.3.2-.42.28.09.17.43.03.37.56-1.2,1-2.93.78-4.41,1.36,0,.04.03.15.06.33-3.62.32-7.14,1.57-10.85.95,0,.41.36.27.49.46.1.15.4-.06.52.28-2.03-.21-3.9.95-5.79.45-.42.14-.15.29-.24.39-2.03.11-4.05.61-6.09,1.01-1.13.22-2.34.39-3.42.66-2.26.57-4.58.73-6.85,1.27-1.65.39-3.35.71-5.07.82-.99.07-1.98.29-2.91.69-.08-.47-.16-.94-.24-1.41ZM118.93,54.37c.97.08,1.93.19,2.89-.02-.97-.17-1.94-.11-2.89.02ZM115.34,54.88c.57.08.9.17,1.26-.06-.39-.15-.73-.15-1.26.06ZM117.34,54.33c-.24-.09-.44-.17-.68.05.24.09.44.17.68-.05Z"/>
    <path class="cls-1"
          d="M88.5,34.81c1.19-.14,2.39-.4,3.56-.4.92,0,1.88-.18,2.8.07.27.07.52.19.69-.24-.39-.35-.92-.02-1.57-.39,1.33.07,2.36-.36,3.45-.28h.27c.04.33-.38.35-.42.63.29.32.55-.35.79.04.28-.37-.6-.45-.04-.81,1.35.29,2.74.09,4.14-.07h-3.18c0-.08-.01-.16-.02-.24,2.45-.07,4.77-.89,7.23-1.02,1.49-.08,2.96-.6,4.45-.78,1.86-.23,3.65-.78,5.53-.89,1.74-.11,3.46-.49,5.19-.76,2.51-.39,4.93-1.16,7.41-1.67,1.05-.21,2.14-.3,3.18-.63.66-.21,1.26.24,1.86.36.06.56-.39.5-.57.7.12.07.25.15.5.3-1.85.86-3.69.03-5.47.36.28.33.64.13.94.16.31.04.63,0,.96.07-.79.36-1.6.51-2.18.44-.6-.02-.49.39-.75.38-5.55,1.26-11.23,1.84-17.65,3.11-.94-.1-2.66.68-4.47.69-.07,0-.16.12-.19.1-.61-.37-1.04.02-1.61.2-1.05.34-2.18.51-3.33.58-1.57.09-3.12.43-4.68.69-1.83.3-3.66.64-5.5.94-.35.06-.72-.03-1,.27-.28-.61-.27-1.28-.32-1.93ZM93.28,35.51c.63-.04,1.15.23,1.54-.54-.55.25-1.02.12-1.54.54ZM99.25,34.06c.4.35.7.28,1.03.17-.25-.41-.53-.52-1.03-.17ZM103.15,33.48c-.21-.17-.42-.17-.63,0,.21.17.42.17.63,0Z"/>
    <path class="cls-1"
          d="M121.37,84.01c.09-.31-.35-.4-.2-.67-.46-.13-.53.28-.85.35-.31-.04-.23-.49-.48-.64-.29,0-.64-.11-.53.6-.34-.66-1.02-.69-1.13-1.27.58-.16,1.18.09,1.96-.25h-2.25c-.65-.53-.95-1.23-1.66-1.61-.57-.31-.62-1.12-.77-1.75-.26-1.08-.47-2.17-.6-3.48,1.12-.79,2.78-.23,4.12-1.13,1.33,1.11,2.67,2.26,3.94,3.5,1.2,1.17,2.44,2.31,3.7,3.42.71.63,1.48,1.2,2.07,1.95-2.43.35-4.82,1.02-7.3.98ZM122.87,83.23c.45.06.78.11,1.12-.09-.34.06-.69-.51-1.12.09ZM121.1,80.16c-.29-.55-.53-.59-.89-.48.22.3.47.3.89.48ZM119.48,79.22c.23.27.4.29.6.02-.16-.22-.29-.5-.6-.02ZM120.94,82.19c-.27-.11-.46-.2-.63.04.21.13.38.14.63-.04Z"/>
    <path class="cls-1"
          d="M91.22,50.67c1.46-.47,3.02-.46,4.49-.95.62-.21,1.31-.12,1.97-.22,1.93-.3,3.79-.89,5.69-1.18,2-.3,3.95-.8,5.96-1.06,2.81-.37,5.63-.11,8.45-.22.23,0,.48.07.81-.22h-5.92c6.34-.74,12.57-2.37,19.16-2.19-.53-.38-1.01-.11-1.55-.38.93-.13,1.77-.1,2.49-.38.84-.32,1.64-.08,2.46-.21.04.6.01.64-.49.81-.12-.1-.03.26.04.11.1.05.2.1.34.17-.14.12-.23.29-.35.31-2.8.58-5.59,1.32-8.42,1.67-1.74.21-3.5.47-5.26.6-1.45.11-2.95.22-4.38.64-.26.08-.56.02-.84.02-.59.01-1.23-.17-1.47.44-4.31.29-8.3,1.71-12.55,1.48.18.39.59.13.95.45h-3.33c.13.51.62.07.8.48-1.09-.03-2.12.25-3.16.03-.11.34.36.17.27.39-1.89.36-3.78.6-5.69.66-.15-.42-.3-.84-.45-1.25ZM133.92,44.36c-.7.16-1.37-.23-1.8.45.5-.44,1.23.36,1.8-.45Z"/>
    <path class="cls-1"
          d="M89.8,43.46c1.15.02,2.23-.38,3.34-.54,1.99-.29,3.99-.58,5.98-.85,2.09-.28,4.2-.55,6.27-1,1.03-.22,2.14-.04,3.19-.04.08-.27-.22-.2-.25-.45,1.26,0,2.5-.29,3.7-.57,1.81-.42,3.66-.51,5.48-.83,1.15-.2,2.32-.3,3.47-.56.39-.09.68.53,1.09.13-.09-.08-.19-.17-.41-.36h7.08c0-.07,0-.13,0-.2h-4.55c-.01-.1-.02-.19-.03-.29,2.85-.53,5.75-.82,8.49-1.48.39.16.32.52.54.7-.15.31-.23.66-.41.83-4.38,1.16-8.67,2.19-13.16,1.93.7.32,1.45.07,2.16.31-4.32.43-8.5,1.82-13,2.05-2.5.49-5.16,1-7.92,1.22.29.41.78,0,1.05.38-3.96.11-7.83.74-11.68,1.5l-.44-1.89ZM104.79,42.18h3.35c-1.13-.22-2.26-.18-3.35,0ZM100.98,42.76c.55.13,1.2.31,1.85,0h-1.85Z"/>
    <path class="cls-1"
          d="M152.22,45.45c.19-.24.1-.35-.18-.33-.42.03-.26-.22-.23-.43-.48-.17-1.02.09-1.52-.17.43-.27.87-.02,1.29-.13.81-.43,1.61-.75,2.59-.57.33.06.97.17,1.26-.54.13-.32.88-.54,1.34-.53,1.71.04,3.3-.9,4.99-.45.28-.34-.22-.25-.06-.52,3.01.13,5.9-1.15,8.97-1.16.29.02-.06.2.3.4.2.02.65.05,1.1-.07.44.36-.09.91.24,1.29-1.69.43-3.39.59-5.16.59-1.42,0-2.89-.03-4.32.31h3.81c-4.02.77-7.99,1.93-12.06,1.41-.59.83-1.39.92-2.17,1.06-.06-.06-.13-.11-.19-.17ZM159.65,43.08c.29.19.57.18.87,0-.29-.19-.57-.17-.87,0ZM160.86,43.58c.3.13.57.19.85-.04-.3-.13-.57-.19-.85.04ZM154.06,44.3c.41.13.66.16.92,0-.28-.22-.55-.16-.92,0ZM158.62,43.08c-.27-.13-.46-.21-.63.02.2.15.38.13.63-.02ZM162.19,43.08c-.21-.18-.41-.17-.63,0,.21.18.41.17.63,0Z"/>
    <path class="cls-1"
          d="M171.12,34.49c-.93.3-1.94.17-2.85.54-.48.19-.87-.38-1.34-.19-.13.15.14.28-.07.42-5.09.19-10.08,1.92-15.25,1.37-.15.45.28.26.27.5-.6.46-1.28.65-2.06.5.18-.3.11-.76.72-.74-.45-.3-.97.02-1.17-.5.42-.5,1.01-.39,1.56-.4.98-.02,1.97.11,2.82-.65.35-.3,1.04-.26,1.46-.24,1.88.08,3.62-.62,5.44-.85,1.84-.23,3.7-.55,5.54-.79,1.62-.21,3.22-.77,4.89-.59-.39.35.21.67.04,1.01-.53.17-.16.34,0,.51v.09Z"/>
    <path class="cls-1"
          d="M169.91,24.25c-2.13.33-4.26.56-6.33,1.3-1.09.39-2.31.73-3.56.62-.83-.07-1.69.03-2.52-.03-.42-.03-.5.26-.72.5h-2.84c.02.4.45.1.53.37-1.44.48-2.89-.01-4.24.1-.34-.17-.14-.43-.26-.56-.22-.33-.63.02-.84-.28,1.5-.61,3.25-.21,4.66-.98,2.44-.36,4.86-.4,7.17-1.24.36-.13.79-.06,1.19-.05,1.34.03,2.62-.26,3.92-.57,1.18-.29,2.39-.43,3.62-.43.17.4.23.82.23,1.25ZM168.35,23.69c.16-.06.39.24.53-.09-.19-.12-.37-.13-.53.09ZM154.54,26.26c-.23-.1-.44-.17-.68.05.23.1.44.17.68-.05ZM152.74,26.69c.42.2.61.28.83,0h-.83Z"/>
    <path class="cls-1"
          d="M170.65,76.34c1.11-.6,2.3-.51,3.54-.47.02.18.04.32.06.47,0,0,0,0,0,0-.3.12-.72-.26-.94.23-.6.33-1.29.3-1.93.45-.25-.23-.51-.46-.76-.69l.03.04Z"/>
    <path class="cls-1" d="M131.29,114.5h-1.14c-.06-.4-.2-.72.15-.98.29.37.85.46.99.98Z"/>
    <path class="cls-1" d="M167.79,105.96c.54.08,1.11-.34,1.63.09-.55.11-1.08-.25-1.63-.09Z"/>
    <path class="cls-1" d="M119.99,84.46c.02-.11.03-.23.05-.36.35-.2.75.01,1.11-.07-.39.14-.78.29-1.17.43Z"/>
    <path class="cls-2"
          d="M170.62,76.3c.25.23.51.46.76.69-.21.04-.43.08-.64.11-.18-.02-.39.05-.54-.17.22-.16.58-.24.42-.64Z"/>
    <path class="cls-2" d="M89.9,89.28c-.07.21-.14.42-.22.64-.28.15-.58.06-.88.06.37-.23.63-.63,1.09-.71Z"/>
    <path class="cls-2" d="M163.31,105.38c-.16-.34.17-.36.32-.49.29,0,.36.23.51.4-.25.2-.49.1-.72.1l-.06-.04-.06.04Z"/>
    <path class="cls-1" d="M152.17,79.65c.29-.42.69-.02,1.02-.13-.34.04-.68.09-1.02.13Z"/>
    <path class="cls-1" d="M26.88,124.04c.28.12.62-.08.9.17-.37.19-.75.09-1.13.07,0-.15.11-.21.23-.25Z"/>
    <path class="cls-1" d="M112.99,89c-.13-.01-.29.08-.4-.08-.08-.34.22-.4.41-.55-.16.21-.09.42-.01.63Z"/>
    <path class="cls-1" d="M175.88,76.08c.21-.45.59-.1.88-.18-.28.13-.57.22-.88.18Z"/>
    <path class="cls-1" d="M160.81,197.07c.32.05.7-.24.94.19-.32-.05-.69.22-.94-.19Z"/>
    <path class="cls-2" d="M173.31,76.55c.22-.48.64-.11.94-.23-.25.33-.62.17-.94.23Z"/>
    <path class="cls-1" d="M172.76,44.14c-.34-.22-.02-.56-.14-.82.05.27.09.55.14.82Z"/>
    <path class="cls-1" d="M150.96,79.66c.31-.33.62-.28.93-.01h-.93Z"/>
    <path class="cls-2" d="M135.11,101.97c.25-.27.48-.43.69.03-.23-.01-.46-.02-.69-.03Z"/>
    <path class="cls-1" d="M94.34,78.49c.34.23.4.46-.01.68,0-.23,0-.45.01-.68Z"/>
    <path class="cls-2"
          d="M161.77,105.23c.25-.09.52-.3.66.13-.11.03-.23.06-.34.09,0,0,.05,0,.05,0-.13-.07-.25-.14-.38-.22Z"/>
    <path class="cls-1" d="M187.46,111.61h.37c.12.26.1.41-.13.47-.08-.16-.16-.31-.24-.47Z"/>
    <path class="cls-1" d="M202.47,93.24c.01.17.16.34,0,.54-.25-.17-.03-.37-.05-.54h.05Z"/>
    <path class="cls-1" d="M150.97,192.99c.25.02.55-.2.7.19-.24-.03-.55.18-.7-.19Z"/>
    <path class="cls-1" d="M176.64,197.8c-.11-.04-.17-.11-.16-.25h.63c-.05.28-.31.17-.47.25Z"/>
    <path class="cls-1" d="M68.18,217.47c.31-.05.62-.07.84.22-.27-.1-.65.19-.84-.22Z"/>
    <path class="cls-1" d="M105.61,228.75c.25.02.55-.2.7.19-.24-.03-.55.18-.7-.19Z"/>
    <path class="cls-1" d="M217.44,109.95c-.24-.07-.2-.26-.19-.43.16.1.18.27.19.43Z"/>
    <path class="cls-2" d="M171.13,34.4c-.16-.17-.53-.33,0-.51v.51Z"/>
    <path class="cls-1" d="M113.98,87.37c.05-.23.21-.22.38-.19-.13.06-.26.13-.38.19Z"/>
    <path class="cls-1" d="M143.5,102.7l.21.2-.21-.2Z"/>
    <path class="cls-1" d="M172.53,42.47c-.13-.02-.18-.12-.23-.23.23-.08.2.11.23.23Z"/>
    <path class="cls-1" d="M113.81,87.56c.07-.07.14-.14.21-.21-.07.07-.14.14-.21.21Z"/>
    <path class="cls-1" d="M162.15,105.45h-.05s.05,0,.05,0Z"/>
    <path class="cls-1" d="M95.05,72.72c.1.03.2.06.17.2-.06-.07-.11-.13-.17-.2Z"/>
    <path class="cls-1" d="M118.57,85.42c.06-.06.12-.12.17-.18-.06.06-.12.12-.17.18Z"/>
    <path class="cls-1" d="M118.08,85.66c.03-.11.09-.19.22-.2.01.16-.11.17-.22.2Z"/>
    <path class="cls-1" d="M131.27,114.73c0-.09,0-.18,0-.26.06.02.12.05.2.08-.07.07-.13.12-.19.18Z"/>
    <path class="cls-1"
          d="M95.04,71.98c.06.04.12.08.28.2-.12.06-.21.11-.3.17-.03-.06-.06-.12-.09-.19.04-.06.08-.12.12-.17Z"/>
    <path class="cls-1"
          d="M213.59,106.29c.26.32.61.04.89.05.11.35.13.61-.21.85,1.12.47,1.43,1.53,1.65,2.43.37,1.48.97,2.75,1.99,3.86-.22,1.23-1.52,1.79-1.76,2.92-1.66.84-2.52,2.33-3.48,3.73-1.23,1.8-2.75,3.31-4.43,4.68-.44.36-.83.77-1.22,1.18-1.18,1.22-2.7,2.14-3.73,3.43-1.11,1.4-2.84,2.24-3.41,4.12-4.4-2.85-8.46-5.91-12.27-9.36.46-1.7,1.47-3.12,1.82-4.8.05-.23.31-.55.69-.55l-.04-.04c.88,1.35,2.35,2.05,3.49,3.09.38.11.63-.04.83-.42-.38-.58-.09-1.51-.95-1.86-.05-.4.39-.26.46-.53.05-.28-.39-.38-.28-.6-1.35-.54-2.58-1.15-3.75-1.93-.31-1.45-.89-2.85-1.1-4.36-.05-.36-.14-.63.03-.98.11-.23.12-.57.04-.82-.56-1.99.1-3.83.56-5.72.28-1.12.82-2.21.63-3.47.92-.64.8-1.77,1.17-2.68.7-1.74,1.56-3.41,2.22-5.17.2-.54.73-.92,1.15-.89,1.68.12,3.23-.82,4.93-.5,1.1.97,2.21,3.93,1.82,4.88-1.61-.19-1.98,1.53-3.16,2.04-.29-.33-.41-.84-.97-.97-.08,1.48.71,2.82.59,4.3-.08.97.08,1.93-.82,2.63-.31.24-.22.64-.06.96.55.08.49-.54.87-.71.08,1.05.91,1.88.67,2.94,1.73,1.35,1.2,3.42,1.8,5.15.52.46,1.57.08,1.74,1.01.41.09.57-.04.62-.35.55.05.86.44,1.2.8,1.68.14,3.8-.86,5.47-2.61.44.16,0,1.14,1.03.75.05-.08-.07-.35-.28-.59.26-.29.43-.62.86-.7-.3-.16-.65-.15-.91-.4-1.84.93-3.48,2.33-5.8,2.34-.48-1.04-1.62.13-2.46-.68-.51-1.08-.55-2.51-1.22-3.96,1.85-.29,2.55-1.79,3.49-3.08-1.48.21-2.37,1.63-3.94,1.81-.41-1.34-1.61-2.48-.73-4.3.38-.26,1.26-.16,1.79-.85.45-.57,1.53-.14,1.95-1.31-1,.72-2.27.43-2.83,1.61h-.65c-.71-.51-.68-2.37-.03-3.11,1.04-1.17,2.19-2.17,3.83-2.39.85-.11,1.49-.78,2.16-.99.57.13.19.59.62.74.59-.21.84-.93,1.34-1.33-1-.84-2.1.04-3.16-.11.06-.4.43-.09.58-.4.27-.97-.73-.65-1.26-.93,1.14-1.41,2.25-2.73,3.39-4.03,1.3-1.48,2.89-2.67,4.14-4.16,1.3-1.55,2.8-2.88,4.21-4.3.87-.88,1.94-1.69,3.22-1.97.73-.16,1.46.2,2.18.35.44.09.85.34,1.32.54.42,1.38-.02,2.57-1.05,3.46-1.84,1.57-2.81,3.74-4.18,5.64-.37.52-.79,1-1.23,1.54-.44-.24-.88-.41-1.31.26v.95c-.08.27-.52.12-.5.58.52.85-.1,1.37-.64,2.15-.83,1.2-2.31,1.52-3.03,2.69-.63-.12-.2-.95-.86-1.07-.18.63.27,1.46-.84,1.87,1.33.47,2.13-.55,3.11-.26.39-.59.67-1.23,1.56-1.38-.36,1.24-.2,2.49.02,3.65.21,1.1.43,2.38,1.62,3.05-.09.69.21,1.37-.23,2.02-.3.04-.56-.3-.91-.06-.16.16-.04.41-.05.64-1.17-.04-1.95.94-3.05,1.1.91.23,1.65-.21,2.32-.51.34-.06.37.37.66.26.2-.29-.2-.59.04-.88ZM203.86,110.6c2.14-.91,4.23-1.81,6.59-2.81-2.68-.1-4.48,1.35-6.47,2.29-.15.07-.32.26-.11.52ZM204.86,105.67c.73-.53,1.55-.6,2.11-1.2.58-.63,1.61-.09,2.21-.75-1.73.09-3.52-.07-4.95,1.24.22.24.4.45.63.71ZM206.31,99.92c-.95.22-1.88.47-2.74.99.38.22-.26.53.04.78.62-.24,1.41-.2,1.44-1.11.54-.03.95-.22,1.25-.65ZM200.76,99.53c.39.74.14,1.4.52,2.13.03-.49.36-.68.31-1.09-.16-.27-.18-.69-.83-1.04ZM203.57,108.88c-.09.52.12.71.74.85-.34-.36-.2-.77-.74-.85ZM201.09,104.27c-.08-.31-.16-.62-.56-.55-.05,0-.08.11-.15.22.1.31.45.26.71.34ZM209.04,96.01c-.13,0-.2.08-.22.2-.03.15.07.23.18.25.17.03.3-.06.28-.25-.01-.11-.09-.21-.23-.19ZM208.33,97.59q.4,0,.32-.35c-.11.12-.21.23-.32.35ZM201.65,105.32c-.08.58.08.58.39.36-.11-.1-.22-.2-.39-.36ZM201.31,105.16c.08-.58-.08-.58-.39-.36.11.1.22.2.39.36ZM203.21,108.72c.29-.16.08-.3-.02-.44-.2.16-.2.3.02.44Z"/>
    <path class="cls-1"
          d="M200.74,134.4c.52-.43.32-1.2,1.14-1.42h1.18c1.01.55,2.13,1,3.06,1.76.31.26.47.7.7,1.06-.5,1.12-.53,2.34-1.11,3.42-.64,1.18-1.28,2.36-2,3.49-.66,1.04-1.16,2.21-1.91,3.14-1.13,1.41-1.72,3.2-3.2,4.6-4.91-5.33-10.42-9.86-15.69-14.64.52-3.77,1.8-7.22,3.55-10.53.41.08.62.46.88.73,1.71,1.8,3.71,3.22,5.76,4.6.66.44,1.26.98,1.82,1.54,1.34,1.34,2.96,1.95,4.81,1.99.37,0,.67.16,1.03.26Z"/>
    <path class="cls-1"
          d="M112.54,99.37c.41-.68.22-1.54.96-1.5,1.33-2.28,2.46-4.55,4.23-6.47,2,.18,4,.13,5.97.5.64.12,1.35.16,1.75-.46.31.03.3.22.34.3.82.05,1.61.09,2.55.14-1.92,2.96-3.7,5.7-5.52,8.5.82.39,1.77-.14,2.47.58-.5,2.1-.08,4.36-.83,6.41-1.87.4-3.26,1.49-4.78,2.29-.86.46-1.81.6-2.71.94-.56.21-1.13-.29-1.56-.63-1.3-1.02-2.58-2.06-3.75-3.23-1.24-1.25-2.48-2.49-3.71-3.73-1.02-.21-2.08.16-3.06-.32.75,0,1.49.1,2.36,0-1.15-1.71-3.09-2.55-4.33-4.25,3.29.27,6.44.87,9.61.94ZM120.47,93.23c.03.54.09.73.47.51-.1-.11-.2-.22-.47-.51Z"/>
    <path class="cls-1"
          d="M95.22,83.23c-.02.72.24,1.4.34,2.1.06.45.15.9.66,1.17.62.33.46,1.04.58,1.61.43,2.01.84,4.03,1.27,6.08-1.72-1.25-3.25-2.62-4.46-4.58v-.94c.73-1.83.85-3.72,1.6-5.45Z"/>
    <path class="cls-1"
          d="M75.56,97.79c1.75,3.63,3.19,7.34,4.09,11.48-1.05-.54-1.87-.85-2.61-1.37-.63-.44-.93-1.04-.94-1.72-.03-2.01-.45-3.99-.52-5.99-.03-.79-.09-1.58-.02-2.4Z"/>
    <path class="cls-1"
          d="M98.88,84.33c.31-.08.49-.13.82-.22-.63,0-.79-.9-1.43-.42-.41-.47.34-1.01-.13-1.42.18-.27.41-.15.59-.23.12-.7.59-.91,1.93-.89.37.26.63.68,1.13.83-.1.23-.19.44-.26.62.07.22.28.17.39.27.01.21-.24.12-.3.27-.01.25.54.05.3.52-.21.11-.51.26-.83.43-.17.14.03.45-.22.6-.66.04-1.33.11-1.99-.36Z"/>
    <path class="cls-1"
          d="M113.16,81.8c.15.02.3.05.53.09-.34.36-.26.96-.87,1.15-.73,0-1.54.15-2.14-.6.42-.26.88.02,1.45-.28h-1.6c.14-.56-.4-.56-.54-.88.06-.29.29-.39.59-.43.03-.28.06-.55.08-.81.53-.18,1.03-.35,1.73-.59.48-.05.63.9,1.35.76-.33.54-.37.96.2,1.34-.31.04-.58.07-.85.1.02.05.04.1.06.15ZM112.05,81.7c-.39-.11-.72-.22-1.11.08.4.06.74.14,1.11-.08Z"/>
    <path class="cls-1"
          d="M100.74,91.62c.75-.34.09-.79.49-1.34.48-.34,1.06-1.26,2.07-.91.77.26,1.16,1.14,1.75,1.71.18.18.13.51.01.76-1.09.23-2.16.46-3.27.32-.36-.06-.5-.49-1.05-.53Z"/>
    <path class="cls-1"
          d="M80.53,112.37c.54.21.97.57,1.06,1.24-.09.1-.19.22-.29.33-.4.18-.63-.37-1-.18-.39-1.45-1.79-2.1-2.55-3.42-.02-.14.22-.25.45-.45.92.66,2.01,1.17,2.33,2.49Z"/>
    <path class="cls-1" d="M192.25,118.43c-.18.17-.29.27-.43.41-.4-.15-.62-.56-1.12-.63.52-.31.65-.28,1.55.22Z"/>
    <path class="cls-1" d="M140.53,65.7h-2.42c.79-.29,1.58-.12,2.42,0Z"/>
    <path class="cls-1" d="M167.42,70.5h-2.19c.73-.24,1.46-.23,2.19,0Z"/>
    <path class="cls-1" d="M30.35,140.28c-.65.1-1.3.18-2.18,0,.89-.18,1.54-.11,2.18,0Z"/>
    <path class="cls-1" d="M184.45,153.18h1.95c-.65.24-1.3.17-1.95,0Z"/>
    <path class="cls-1" d="M137.83,158.52c.89-.19,1.54-.11,2.19,0-.64.12-1.29.18-2.19,0Z"/>
    <path class="cls-1" d="M148.67,159.72c-.65.1-1.3.18-2.18,0,.89-.18,1.54-.11,2.18,0Z"/>
    <path class="cls-1" d="M28.23,169.96h1.85s0,.08,0,.12h-1.9s.03-.08.04-.12Z"/>
    <path class="cls-1" d="M148.84,181.81c.93-.19,1.58-.12,2.23-.04-.65.21-1.3.19-2.23.04Z"/>
    <path class="cls-1" d="M44.09,184.2c-.89.19-1.54.11-2.19,0,.64-.12,1.29-.18,2.19,0Z"/>
    <path class="cls-1" d="M69.03,203.32h1.85s0,.08,0,.12h-1.9s.03-.08.04-.12Z"/>
    <path class="cls-1" d="M88.93,220.5c.66-.17,1.3-.25,1.95,0h-1.95Z"/>
    <path class="cls-1" d="M79.88,220.67c-.93.19-1.58.12-2.23.04.65-.21,1.3-.19,2.23-.04Z"/>
    <path class="cls-1" d="M146.48,168.92h-1.85s0-.08,0-.12h1.91s-.04.08-.06.12Z"/>
    <path class="cls-1" d="M163.09,68.55c.4-.18.81-.2,1.31-.05-.48.25-.9.08-1.31.05Z"/>
    <path class="cls-1" d="M73.63,174.66c.46-.27.8-.13,1.14-.1-.33.25-.67.13-1.14.1Z"/>
    <path class="cls-1" d="M34.59,176.78c.37-.22.7-.14,1.11-.08-.38.3-.72.19-1.11.08Z"/>
    <path class="cls-1" d="M150.6,185.89c.35-.14.68-.22,1.03,0-.36.2-.7.08-1.03,0Z"/>
    <path class="cls-1" d="M115.15,211.38c.46-.27.8-.14,1.14-.09-.33.25-.67.13-1.14.09Z"/>
    <path class="cls-1" d="M63.7,117.2c-.53.21-.87.21-1.26.06.36-.22.69-.13,1.26-.06Z"/>
    <path class="cls-1" d="M60.01,127.32c.4-.18.73-.15,1.2-.01-.46.18-.8.18-1.2.01Z"/>
    <path class="cls-1" d="M103.59,92.46c-.31.29-.65.11-1.18.23.51-.47.85-.19,1.18-.23Z"/>
    <path class="cls-1" d="M140.16,93.02c-.3.12-.52.16-.72-.06.21-.64.43-.22.72.06Z"/>
    <path class="cls-1" d="M190.12,118.84c-.07-.13-.14-.26-.24-.43.37-.19.49.08.64.3-.13.14-.29.08-.43.1l.04.04Z"/>
    <path class="cls-1" d="M164.82,70.42c-.28.22-.55.17-.85.04.28-.22.55-.17.85-.04Z"/>
    <path class="cls-1" d="M61.25,102.12c.3-.17.58-.18.87,0-.3.17-.58.18-.87,0Z"/>
    <path class="cls-1" d="M115.09,207.45c-.26.18-.51.2-.78.04.27-.24.54-.09.78-.04Z"/>
    <path class="cls-1" d="M60.91,117.24c-.21.16-.42.17-.63,0,.21-.16.42-.17.63,0Z"/>
    <path class="cls-1" d="M62.14,117.23c-.25.17-.42.17-.63.04.17-.24.36-.15.63-.04Z"/>
    <path class="cls-1" d="M110.42,122.94c.49-.12.5.06.4.34-.24.02-.28-.18-.4-.34Z"/>
    <path class="cls-1" d="M134.14,71.87c-.25.17-.42.17-.63.04.17-.24.36-.15.63-.04Z"/>
    <path class="cls-1" d="M141.34,92.99c-.25.17-.42.17-.63.04.17-.24.36-.15.63-.04Z"/>
    <path class="cls-1" d="M71.57,174.6c.21-.17.42-.17.63,0-.21.17-.42.17-.63,0Z"/>
    <path class="cls-1" d="M33.71,176.81c.16-.21.34-.21.53-.09-.15.33-.37.03-.53.09Z"/>
    <path class="cls-1" d="M148.34,185.88c.26-.15.43-.17.63-.02-.18.23-.36.15-.63.02Z"/>
    <path class="cls-1" d="M72.74,174.62c.24-.22.44-.15.68-.05-.24.22-.44.15-.68.05Z"/>
    <path class="cls-1" d="M159.02,52.14h3.61s0,.08,0,.12h-3.62s.01-.08.02-.12Z"/>
    <path class="cls-1" d="M150.34,27.48c.57-.12,1.15-.17,1.72,0-.57.09-1.15.2-1.72,0Z"/>
    <path class="cls-1" d="M143.43,31.24h1.85s0,.08,0,.12h-1.9s.03-.08.04-.12Z"/>
    <path class="cls-1" d="M163.14,45.16h1.85c-.65.25-1.3.24-1.85,0Z"/>
    <path class="cls-1" d="M163.59,16.87c.56-.07.87-.13,1.28.05-.44.16-.78.18-1.28-.05Z"/>
    <path class="cls-1" d="M148.27,44.56c.5-.24.84-.13,1.32-.11-.47.27-.81.2-1.32.11Z"/>
    <path class="cls-1" d="M152.42,45.62c-.34.42-.76.15-1.22.19.32-.38.77-.04,1.03-.36.06.06.13.11.19.17Z"/>
    <path class="cls-1" d="M142.37,31.74c-.46.27-.8.13-1.14.09.33-.25.67-.13,1.14-.09Z"/>
    <path class="cls-1" d="M143.18,31.77c.57-.09.9-.17,1.26.05-.38.16-.72.15-1.26-.05Z"/>
    <path class="cls-1" d="M162.5,16.9c-.38.17-.64.22-.92,0,.26-.16.51-.13.92,0Z"/>
    <path class="cls-1" d="M112.56,21.74c.35-.21.62-.16.95-.05-.32.2-.57.17-.95.05Z"/>
    <path class="cls-1" d="M121.39,19.08c-.21.17-.42.17-.63,0,.21-.17.42-.17.63,0Z"/>
    <path class="cls-1" d="M108.7,39.71c-.25.17-.42.17-.63.04.17-.24.36-.15.63-.04Z"/>
    <path class="cls-1" d="M136.54,57.96c-.26.15-.43.17-.63.02.18-.23.36-.15.63-.02Z"/>
    <path class="cls-1" d="M97.42,33.58c.02-.1.05-.21.18-.17.04.01.06.11.09.16h-.27Z"/>
    <path class="cls-2" d="M118.83,127.85c-.41.12-.54-.06-.67-.27.31-.24.55-.26.67.27Z"/>
    <path class="cls-2" d="M125.99,125.25c-.22.12.02.35-.14.49-.16.03-.29,0-.32-.2,0-.37.42,0,.49-.26l-.03-.03Z"/>
    <path class="cls-2" d="M126.73,151.6c-.17.35-.25.53-.35.73-.18-.29-.28-.53.35-.73Z"/>
    <path class="cls-2" d="M118.82,114.26v-.42c.25.06.47.11.64.31-.21.16-.45.07-.67.08l.03.03Z"/>
    <path class="cls-1"
          d="M129.07,115.36c-.37.23-.67-.48-.98.04-.38-.17-.56-.51-.76-.82-.42.34-.33.87-.42,1.33h-.61c-.18-1.56.91-2.6,1.5-3.84-.02.89.43,1.67.37,2.45.17.5.75.39.89.85Z"/>
    <path class="cls-1" d="M125.82,117.89c-.1-.47.11-.59.31-.73.62.51.14.56-.31.73Z"/>
    <path class="cls-1" d="M126.69,116.19c.06.39-.15.5-.37.66-.05-.31-.29-.67.37-.66Z"/>
    <path class="cls-2"
          d="M173.77,57.11c-.68.9-1.74.43-2.61.68-2.04.6-4.18.79-6.27,1.18-1.71.32-3.45.55-5.19.79-1.95.28-3.9.63-5.85.94-.07.01-.14-.05-.22-.09-.13-.51.46-.56.57-.54,1.69.24,3.23-.54,4.87-.65,1.32-.09,2.57-.57,3.9-.65,1.24-.07,2.47-.31,3.7-.5,1.84-.28,3.65-.78,5.51-.9.55-.04,1.03-.43,1.61-.24l-.02-.02Z"/>
    <path class="cls-2" d="M132.4,63.2c-.41.25-.83.12-1.24.08.41-.25.83-.14,1.24-.08Z"/>
    <path class="cls-2" d="M142.8,62.06c.35-.21.62-.16.95-.05-.32.2-.57.17-.95.05Z"/>
    <path class="cls-2" d="M143.78,61.59c.34-.25.6-.16.92-.04-.3.19-.55.16-.92.04Z"/>
    <path class="cls-2" d="M137.74,63.23c-.25.17-.42.17-.63.04.17-.24.36-.15.63-.04Z"/>
    <path class="cls-2" d="M164.49,104.46c-1.16.2-2.37.21-3.58,0h3.58Z"/>
    <path class="cls-2" d="M168.02,96.61c.25-.17.42-.17.63-.04-.17.24-.36.15-.63.04Z"/>
    <path class="cls-2" d="M160.13,75.8c-.39-.31-.28-.7-.23-1.17.32.4.02.85.23,1.17Z"/>
    <path class="cls-2" d="M164.63,74.73c-.34.23-.6.17-.92.04.3-.19.55-.16.92-.04Z"/>
    <path class="cls-2" d="M135.22,98.8c.87-.24,1.76-.13,2.64,0h-2.64Z"/>
    <path class="cls-2" d="M143.82,95.85c-.16.46-.84.04-.66.62-.33,0-.43-.18-.54-.34.29-.56.7-.37,1.2-.28Z"/>
    <path class="cls-2" d="M147.44,93.9s.06-.01.08,0c.07.05.06.11-.05.16-.01,0-.06-.05-.07-.08,0-.02.02-.05.04-.08Z"/>
    <path class="cls-2" d="M144.3,80.05c-.14.76-.44.62-.72.51.14-.26.42-.18.72-.51Z"/>
    <path class="cls-2" d="M118.93,54.37c.96-.12,1.92-.18,2.89-.02-.96.2-1.92.09-2.89.02Z"/>
    <path class="cls-2" d="M115.34,54.88c.53-.21.87-.21,1.26-.06-.36.22-.69.13-1.26.06Z"/>
    <path class="cls-2" d="M117.34,54.33c-.24.22-.45.15-.68.05.24-.22.44-.15.68-.05Z"/>
    <path class="cls-2" d="M93.28,35.51c.52-.42.99-.3,1.54-.54-.39.78-.92.5-1.54.54Z"/>
    <path class="cls-2" d="M99.25,34.06c.49-.35.78-.25,1.03.17-.33.11-.63.19-1.03-.17Z"/>
    <path class="cls-2" d="M103.15,33.48c-.21.17-.42.17-.63,0,.21-.17.42-.17.63,0Z"/>
    <path class="cls-2" d="M122.87,83.23c.43-.6.78-.03,1.12-.09-.33.2-.67.15-1.12.09Z"/>
    <path class="cls-2" d="M121.1,80.16c-.42-.18-.67-.18-.89-.48.36-.11.6-.07.89.48Z"/>
    <path class="cls-2" d="M119.48,79.22c.31-.48.44-.21.6.02-.2.27-.37.25-.6-.02Z"/>
    <path class="cls-2" d="M120.94,82.19c-.25.17-.42.17-.63.04.17-.24.36-.15.63-.04Z"/>
    <path class="cls-2" d="M133.92,44.36c-.57.81-1.3,0-1.8.45.43-.67,1.1-.29,1.8-.45Z"/>
    <path class="cls-2" d="M104.79,42.18c1.1-.18,2.22-.22,3.35,0h-3.35Z"/>
    <path class="cls-2" d="M100.98,42.76h1.85c-.65.31-1.3.13-1.85,0Z"/>
    <path class="cls-2" d="M159.65,43.08c.3-.17.58-.18.87,0-.3.17-.58.18-.87,0Z"/>
    <path class="cls-2" d="M160.86,43.58c.28-.22.55-.17.85-.04-.28.22-.55.17-.85.04Z"/>
    <path class="cls-2" d="M154.06,44.3c.38-.17.64-.22.92,0-.26.16-.51.13-.92,0Z"/>
    <path class="cls-2" d="M158.62,43.08c-.26.15-.43.17-.63.02.18-.23.36-.15.63-.02Z"/>
    <path class="cls-2" d="M162.19,43.08c-.21.16-.42.17-.63,0,.21-.16.42-.17.63,0Z"/>
    <path class="cls-2" d="M168.35,23.69c.17-.21.34-.21.53-.09-.15.33-.37.03-.53.09Z"/>
    <path class="cls-2" d="M154.54,26.26c-.24.22-.44.15-.68.05.24-.22.44-.15.68-.05Z"/>
    <path class="cls-2" d="M152.74,26.69h.83c-.22.28-.41.2-.83,0Z"/>
    <path class="cls-2"
          d="M203.86,110.6c-.21-.26-.04-.45.11-.52,1.99-.95,3.8-2.4,6.47-2.29-2.35,1-4.45,1.9-6.59,2.81Z"/>
    <path class="cls-2"
          d="M204.86,105.67c-.23-.26-.42-.47-.63-.71,1.43-1.3,3.22-1.15,4.95-1.24-.6.66-1.63.11-2.21.75-.55.6-1.38.67-2.11,1.2Z"/>
    <path class="cls-2"
          d="M206.31,99.92c-.3.44-.71.62-1.25.65-.03.91-.83.87-1.44,1.11-.3-.24.34-.55-.04-.78.85-.52,1.79-.77,2.74-.99Z"/>
    <path class="cls-2"
          d="M213.59,106.29c-.23.28.16.59-.04.88-.3.11-.32-.31-.66-.26-.67.3-1.4.74-2.32.51,1.09-.16,1.88-1.14,3.05-1.1l-.03-.03Z"/>
    <path class="cls-2" d="M200.76,99.53c.65.35.67.77.83,1.04.05.4-.28.6-.31,1.09-.37-.73-.13-1.39-.52-2.13Z"/>
    <path class="cls-2" d="M203.57,108.88c.54.08.4.5.74.85-.61-.14-.83-.33-.74-.85Z"/>
    <path class="cls-2" d="M201.09,104.27c-.26-.08-.61-.03-.71-.34.07-.1.1-.21.15-.22.4-.06.47.25.56.55Z"/>
    <path class="cls-2"
          d="M209.04,96.01c.14-.01.21.08.23.19.03.2-.1.28-.28.25-.11-.02-.21-.1-.18-.25.03-.12.09-.2.22-.2Z"/>
    <path class="cls-2" d="M208.33,97.59c.11-.12.21-.23.32-.35q.08.35-.32.35Z"/>
    <path class="cls-2" d="M201.65,105.32c.17.16.28.26.39.36-.3.22-.46.21-.39-.36Z"/>
    <path class="cls-2" d="M201.31,105.16c-.17-.16-.28-.26-.39-.36.3-.22.46-.21.39.36Z"/>
    <path class="cls-2" d="M203.21,108.72c-.22-.14-.22-.28-.02-.44.1.14.31.28.02.44Z"/>
    <path class="cls-2" d="M120.47,93.23c.27.29.37.4.47.51-.39.22-.44.03-.47-.51Z"/>
    <path class="cls-2" d="M112.05,81.7c-.37.22-.7.14-1.11.08.38-.3.72-.19,1.11-.08Z"/>
</svg>