<?xml version="1.0" encoding="UTF-8"?>
<svg id="cinesplain_text_logo_Image" data-name="cinesplain_text_logo Image" xmlns="http://www.w3.org/2000/svg"
     width="474.72" height="72.24" viewBox="0 0 474.72 72.24">
    <defs>
        <style>
            .cls-1 {
            fill: #b3179c;
            }

            .cls-1, .cls-2, .cls-3, .cls-4, .cls-5, .cls-6, .cls-7, .cls-8, .cls-9, .cls-10, .cls-11, .cls-12, .cls-13,
            .cls-14 {
            stroke-width: 0px;
            }

            .cls-2 {
            fill: #f42584;
            }

            .cls-3 {
            fill: #3e36c7;
            }

            .cls-4 {
            fill: #060103;
            }

            .cls-5 {
            fill: #050203;
            }

            .cls-6 {
            fill: #070104;
            }

            .cls-7 {
            fill: #4bc7ed;
            }

            .cls-8 {
            fill: #040104;
            }

            .cls-9 {
            fill: #040305;
            }

            .cls-10 {
            fill: #090202;
            }

            .cls-11 {
            fill: #390ca1;
            }

            .cls-12 {
            fill: #080202;
            }

            .cls-13 {
            fill: #4793ed;
            }

            .cls-14 {
            fill: #080103;
            }
        </style>
    </defs>
    <path class="cls-12"
          d="M.24,10.8h256.47v51.36H.24V10.8ZM34.93,58.56c7.2,0,14.39.01,21.59,0,3.26,0,5.74-1.47,7.47-4.22.39-.62.57-1.28.57-2.04-.02-10.56-.02-21.11,0-31.67,0-.76-.19-1.41-.59-2.03-1.74-2.75-4.22-4.19-7.48-4.2-12.31-.01-24.63,0-36.94,0-2.16,0-4.32-.03-6.48.01-4.33.1-7.99,3.7-8,7.98-.04,9.4-.03,18.79,0,28.19,0,2.03.75,3.81,2.18,5.3,1.73,1.8,3.84,2.67,6.33,2.67,7.12,0,14.23,0,21.35,0ZM96.58,58.56c6.28,0,12.55,0,18.83,0,2.59,0,4.73-1.06,6.42-2.98.71-.81,1.3-1.67,1.3-2.87-.02-10.83-.02-21.67-.01-32.5,0-.49-.05-.95-.3-1.39-1.47-2.55-3.59-4.11-6.57-4.46-1.32-.16-2.63-.02-3.95-.02-11.43.02-22.87.05-34.3.06-2.72,0-4.99.97-6.76,3.04-.78.91-1.43,1.88-1.43,3.2.02,10.55.02,21.11,0,31.66,0,.75.18,1.42.57,2.04,1.67,2.67,4.07,4.17,7.23,4.2,6.32.05,12.63.02,18.95.02ZM222,58.56h0c7.32,0,14.64.02,21.96-.01,4.42-.02,8.12-3.78,8.1-7.98-.06-9.36.02-18.72-.03-28.07-.03-4.48-3.66-8.06-8.14-8.07-14.52-.03-29.03-.03-43.55,0-3.07,0-5.42,1.44-7.11,4-.34.52-.5,1.05-.5,1.68.01,10.96.01,21.92,0,32.87,0,.63.16,1.17.51,1.68,1.76,2.56,4.17,3.9,7.29,3.9,7.16.01,14.32,0,21.48,0ZM157.96,14.4c-7.24,0-14.48-.02-21.71,0-3.07.01-5.41,1.46-7.15,3.95-.36.51-.51,1.06-.51,1.68,0,10.96,0,21.91,0,32.87,0,.58.11,1.1.44,1.59,1.71,2.51,4.02,4.04,7.1,4.04,14.52.04,29.03.04,43.55,0,3.12,0,5.48-1.52,7.14-4.15.29-.46.4-.93.4-1.47,0-10.96,0-21.91,0-32.87,0-.59-.15-1.09-.46-1.57-1.69-2.61-4.07-4.04-7.19-4.06-7.2-.04-14.4-.01-21.59-.01Z"/>
    <path class="cls-10"
          d="M.24.72h256.4c.29,1.03.13,1.97.13,2.89-1.9,1.05-1.8,2.67,0,3.81.04.73.08,1.48-.03,2.21-.47.33-.97.2-1.43.2-85.02,0-170.04,0-255.07,0v-2.64c1.22-.22,1.9-.85,1.87-1.76-.03-.89-.68-1.45-1.87-1.6V.72ZM106.52,5.6c.08-1.17-.5-1.91-1.57-1.99-1.19-.09-1.9.53-1.95,1.73-.05,1.1.52,1.78,1.57,1.85,1.17.08,1.88-.49,1.96-1.59ZM74.98,3.61c-1.12.01-1.76.68-1.74,1.83.02,1.16.65,1.77,1.8,1.76,1.14-.02,1.74-.65,1.73-1.82-.01-1.15-.65-1.78-1.79-1.76ZM86.82,5.38c-.01-1.08-.74-1.79-1.82-1.77-1.13.02-1.72.65-1.71,1.83.01,1.16.62,1.77,1.77,1.76,1.09,0,1.76-.71,1.75-1.82ZM101.75,5.45c.02-1.19-.58-1.82-1.72-1.84-1.09-.01-1.79.7-1.78,1.81.01,1.07.66,1.75,1.69,1.77,1.16.02,1.78-.58,1.8-1.75ZM133.54,7.2c1.11.01,1.76-.59,1.79-1.65.02-1.03-.77-1.91-1.73-1.93-.97-.02-1.81.86-1.79,1.87.02,1.09.64,1.7,1.74,1.71ZM175.63,5.45c0-.96-.79-1.8-1.71-1.83-.97-.03-1.8.81-1.82,1.85-.02,1.11.66,1.76,1.82,1.73,1.09-.02,1.71-.66,1.7-1.74ZM51.01,7.2c1.11,0,1.74-.61,1.75-1.68.02-1.1-.71-1.84-1.78-1.83-1.08,0-1.78.76-1.75,1.86.03,1.07.66,1.66,1.78,1.65ZM155.71,5.46c-.02-1.04-.85-1.88-1.82-1.84-.97.04-1.74.93-1.7,1.96.04,1.06.7,1.64,1.81,1.62,1.09-.02,1.73-.67,1.7-1.74ZM247.51,3.69c-1.07.03-1.76.79-1.71,1.89.05,1.07.69,1.64,1.81,1.62,1.1-.02,1.72-.63,1.72-1.72,0-1.09-.74-1.82-1.82-1.79ZM71.91,5.38c-.02-.95-.84-1.77-1.76-1.76-1.12,0-1.75.67-1.74,1.83.02,1.12.62,1.75,1.67,1.75,1.03,0,1.85-.81,1.83-1.81ZM12.45,5.52c.02-1.11-.68-1.84-1.77-1.84-1.02,0-1.75.71-1.76,1.72-.02,1.15.62,1.79,1.77,1.79,1.11,0,1.73-.6,1.75-1.67ZM31.03,3.69c-1.08.03-1.76.77-1.72,1.87.04,1.07.67,1.65,1.79,1.64,1.14-.01,1.77-.68,1.73-1.82-.04-1.02-.78-1.71-1.8-1.68ZM199.41,5.52c.02-1.11-.69-1.83-1.77-1.83-1.02,0-1.74.71-1.75,1.73-.01,1.15.62,1.78,1.78,1.78,1.11,0,1.73-.6,1.75-1.68ZM60.53,7.2c1.16.03,1.8-.57,1.83-1.7.03-1.06-.71-1.81-1.77-1.81-1.03,0-1.71.66-1.76,1.69-.05,1.13.57,1.79,1.7,1.82ZM81.65,5.44c.01-1.22-.55-1.82-1.69-1.83-1.12,0-1.73.64-1.72,1.82.01,1.13.57,1.72,1.65,1.76,1.16.04,1.74-.54,1.75-1.75ZM22.49,5.45c-.02-1.04-.71-1.75-1.72-1.76-1.1-.02-1.8.69-1.79,1.79.01,1.15.64,1.75,1.82,1.72,1.06-.02,1.71-.7,1.7-1.75ZM38.33,5.47c0-1.04-.69-1.75-1.7-1.78-1.1-.03-1.81.67-1.81,1.77,0,1.15.63,1.76,1.8,1.74,1.06-.02,1.72-.68,1.72-1.73ZM91.92,5.37c-.01-1.17-.64-1.79-1.77-1.76-1.12.03-1.66.66-1.63,1.89.03,1.15.58,1.7,1.69,1.69,1.15-.01,1.72-.62,1.71-1.82ZM161.21,5.48c-.02-1.02-.86-1.89-1.81-1.86-.96.03-1.73.91-1.7,1.94.03,1.06.67,1.65,1.79,1.63,1.06-.01,1.74-.7,1.73-1.72ZM205.94,5.41c-.02,1.16.59,1.79,1.75,1.79,1.08,0,1.74-.63,1.76-1.68.02-1.08-.72-1.84-1.77-1.83-1.06.01-1.72.67-1.74,1.72ZM223.56,3.69c-1.05-.01-1.75.64-1.78,1.67-.04,1.17.56,1.81,1.7,1.83,1.09.02,1.76-.58,1.81-1.63.05-1.07-.68-1.86-1.73-1.88ZM111.4,5.44c0-1.22-.55-1.82-1.69-1.82-1.12,0-1.72.63-1.7,1.83.01,1.18.61,1.77,1.77,1.75,1.09-.02,1.62-.59,1.62-1.76ZM57.5,5.45c.01-1.03-.68-1.75-1.7-1.77-1.1-.02-1.8.68-1.79,1.77,0,1.11.58,1.7,1.67,1.73,1.11.03,1.81-.63,1.82-1.74ZM47.9,5.44c0-1.02-.7-1.74-1.72-1.75-1.1-.01-1.79.69-1.77,1.79.01,1.11.59,1.69,1.69,1.71,1.1.02,1.8-.65,1.8-1.76ZM242.7,3.69c-1.1.02-1.76.72-1.73,1.84.03,1.1.62,1.67,1.74,1.67,1.1,0,1.78-.7,1.76-1.81-.02-1.03-.74-1.72-1.77-1.7ZM183.49,3.62c-.95-.02-1.78.85-1.78,1.88,0,1.02.61,1.67,1.61,1.7,1.02.03,1.92-.79,1.91-1.74-.02-.92-.87-1.81-1.74-1.83ZM15.69,3.69c-1.1,0-1.78.69-1.77,1.79.01,1.11.59,1.69,1.69,1.71,1.12.02,1.8-.65,1.78-1.76-.02-1.08-.67-1.74-1.7-1.75ZM202.7,3.69c-1.05-.03-1.76.61-1.81,1.63-.06,1.19.51,1.83,1.64,1.88,1.13.04,1.82-.61,1.82-1.71,0-1.08-.63-1.76-1.65-1.79ZM233.13,7.2c1.06,0,1.7-.66,1.71-1.71,0-1.12-.7-1.83-1.77-1.79-1.06.04-1.69.69-1.7,1.74,0,1.15.61,1.77,1.76,1.76ZM211.16,5.4c-.02,1.17.5,1.76,1.57,1.8,1.18.04,1.8-.53,1.83-1.68.03-1.15-.58-1.8-1.72-1.82-1.07-.02-1.66.58-1.68,1.71ZM239.72,5.49c.02-1.02-.67-1.77-1.67-1.79-.92-.02-1.81.78-1.85,1.68-.04.97.78,1.8,1.81,1.82,1.05.02,1.69-.61,1.71-1.71ZM219.79,5.44c0-1.01-.73-1.75-1.72-1.75-.93,0-1.79.83-1.8,1.73-.01.97.83,1.78,1.86,1.77,1.04,0,1.67-.67,1.66-1.76ZM24.2,5.53c.02,1.12.58,1.68,1.7,1.67,1.15-.01,1.72-.63,1.7-1.81-.02-1.11-.72-1.75-1.84-1.7-1.05.05-1.58.67-1.56,1.84ZM138.46,7.19c1.01.02,1.65-.59,1.69-1.6.04-1.04-.71-1.93-1.66-1.97-.82-.03-1.78.88-1.82,1.74-.05.98.77,1.82,1.8,1.83ZM168.88,7.2c1.11,0,1.74-.6,1.74-1.68,0-1.05-.78-1.9-1.75-1.9-.96,0-1.63.75-1.64,1.83-.02,1.14.55,1.74,1.65,1.74ZM253.96,5.48c0-1.16-.52-1.76-1.59-1.79-1.09-.03-1.8.66-1.8,1.75,0,1.16.6,1.77,1.75,1.76,1.1,0,1.63-.57,1.64-1.72ZM112.76,5.43c0,1.16.55,1.76,1.6,1.76,1.02,0,1.8-.78,1.79-1.8,0-1-.83-1.8-1.83-1.78-1.02.02-1.57.66-1.57,1.81ZM93.58,5.4c0,1.16.53,1.77,1.58,1.8,1.01.03,1.81-.75,1.81-1.78,0-1.02-.79-1.82-1.79-1.8-1.05.02-1.6.63-1.6,1.78ZM230.11,5.53c.02-.88-.8-1.77-1.7-1.83-.98-.06-1.75.65-1.8,1.65-.05,1.09.54,1.8,1.56,1.85,1.02.05,1.92-.72,1.95-1.67ZM165.87,5.5c0-1.08-.76-1.91-1.73-1.88-.91.02-1.64.84-1.65,1.86-.01,1.1.58,1.71,1.69,1.72,1.11.02,1.69-.57,1.69-1.69ZM5.74,3.7c-1.07.04-1.72.79-1.65,1.91.06,1.03.67,1.61,1.69,1.59,1.04-.01,1.86-.83,1.81-1.81-.04-.87-.97-1.72-1.85-1.69ZM117.6,5.43c0,1.15.59,1.77,1.64,1.76,1,0,1.72-.73,1.74-1.74.02-1.04-.77-1.85-1.78-1.84-1.04.02-1.61.66-1.6,1.81ZM180.36,5.6c.08-.85-.74-1.87-1.58-1.97-.94-.11-1.82.69-1.89,1.73-.07,1.03.48,1.73,1.44,1.83,1.03.11,1.93-.61,2.02-1.59ZM145.2,5.5c0-1.05-.78-1.91-1.72-1.88-.89.03-1.67.88-1.67,1.82,0,1.02.7,1.73,1.7,1.75,1.06.02,1.7-.61,1.69-1.69ZM148.71,3.62c-.93,0-1.66.89-1.63,1.96.03,1.05.61,1.63,1.63,1.62.97-.01,1.75-.77,1.77-1.71.01-.98-.83-1.88-1.77-1.87ZM42.99,5.53c.02-1.17-.54-1.82-1.58-1.84-.97-.02-1.78.74-1.82,1.7-.04,1.01.75,1.81,1.8,1.81,1.03,0,1.58-.58,1.6-1.67ZM128.93,3.61c-1.5.48-1.97.93-1.91,1.85.08,1.22,1.01,1.48,1.91,1.73.93-.17,1.35-.7,1.4-1.57.06-1.02-.44-1.64-1.39-2.01ZM192.97,3.71c-1.55.54-1.9,1.01-1.69,2.19.13.74.73,1.26,1.49,1.28.8.03,1.51-.54,1.71-1.37.23-.94-.23-1.58-1.52-2.11ZM64.92,3.85c-.81-.01-1.29.54-1.32,1.51-.03,1.04.5,1.76,1.33,1.81.8.05,1.46-.7,1.5-1.67.03-.94-.6-1.63-1.51-1.65ZM187.78,7.17c1-.45,1.43-1.15,1.27-2.03-.15-.86-.6-1.18-1.7-1.23-1.32,1.24-1.18,2.53.43,3.26ZM123.58,7.18c1.12-.53,1.47-1.25,1.19-2.3-.21-.78-.8-1.06-1.88-.91-.97,1.31-.74,2.51.69,3.21Z"/>
    <path class="cls-10"
          d="M.24,63.36h256.37c.33.92.17,1.79.15,2.61-1.81,1.41-1.82,2.39-.03,3.71.14.81.03,1.69.06,2.56-85.52,0-171.04,0-256.56,0v-2.64c1.21-.22,1.84-.8,1.87-1.74.04-.98-.62-1.63-1.87-1.86v-2.64ZM106.52,67.92c.02-1.24-.59-1.91-1.76-1.91-1.13,0-1.72.6-1.77,1.79-.04,1.16.67,1.96,1.76,1.96,1.05,0,1.75-.73,1.77-1.83ZM74.95,66c-1.1.02-1.76.79-1.71,1.98.05,1.09.79,1.81,1.83,1.77,1.05-.04,1.71-.77,1.7-1.89-.01-1.23-.65-1.88-1.82-1.85ZM83.29,67.88c.02,1.16.66,1.85,1.74,1.87,1.04.01,1.77-.75,1.77-1.85,0-1.19-.7-1.92-1.83-1.89-1.12.03-1.7.68-1.68,1.88ZM12.45,67.74c-.03-1.16-.66-1.76-1.82-1.74-1.13.02-1.74.69-1.71,1.86.03,1.16.67,1.77,1.83,1.74,1.13-.03,1.73-.68,1.7-1.86ZM51.05,69.6c1.13-.02,1.74-.69,1.71-1.86-.03-1.16-.67-1.76-1.83-1.74-1.13.03-1.73.68-1.7,1.86.03,1.15.66,1.76,1.82,1.74ZM62.36,67.85c.03-1.15-.58-1.82-1.69-1.85-1.16-.03-1.8.55-1.85,1.68-.05,1.22.57,1.9,1.74,1.91,1.14.01,1.77-.59,1.8-1.74ZM197.7,69.6c1.14-.02,1.74-.67,1.72-1.84-.02-1.16-.65-1.77-1.8-1.75-1.13.02-1.75.68-1.72,1.84.02,1.16.66,1.77,1.81,1.75ZM249.32,67.74c-.03-1.16-.67-1.77-1.82-1.74-1.13.03-1.73.68-1.71,1.85.03,1.15.66,1.76,1.82,1.74,1.13-.02,1.74-.69,1.71-1.85ZM101.75,67.87c.01-1.2-.56-1.84-1.69-1.86-1.09-.02-1.78.65-1.81,1.78-.03,1.16.72,1.99,1.78,1.96,1.08-.03,1.71-.71,1.72-1.88ZM30.88,69.6c1.15.08,1.84-.5,1.94-1.63.1-1.09-.56-1.9-1.6-1.96-1.17-.07-1.84.5-1.91,1.63-.08,1.18.5,1.89,1.58,1.96ZM152.19,67.68c-.03,1.05.83,2.06,1.76,2.06.88,0,1.76-.96,1.77-1.94.01-1.05-.64-1.76-1.65-1.8-1.15-.05-1.84.57-1.87,1.68ZM111.4,67.84c0-1.25-.54-1.84-1.68-1.83-1.17,0-1.74.64-1.72,1.93.02,1.14.68,1.83,1.76,1.82,1.05,0,1.64-.7,1.64-1.91ZM88.52,67.86c0,1.2.61,1.89,1.67,1.89,1.08,0,1.72-.69,1.73-1.84.01-1.28-.57-1.91-1.75-1.9-1.12,0-1.66.61-1.65,1.86ZM135.33,67.83c.03-1.14-.61-1.82-1.73-1.83-1.1-.01-1.79.67-1.8,1.78,0,.98.85,1.95,1.74,1.97.88.02,1.76-.92,1.79-1.91ZM157.7,67.76c0,1.03.77,1.93,1.69,1.98.93.04,1.83-.96,1.81-2-.03-1.06-.69-1.72-1.72-1.74-1.14-.01-1.77.61-1.78,1.76ZM81.65,67.83c0-1.24-.55-1.83-1.68-1.83-1.17,0-1.75.65-1.73,1.92.02,1.14.69,1.83,1.76,1.8,1.1-.03,1.65-.66,1.65-1.89ZM173.83,66c-1.12.02-1.76.69-1.72,1.83.03.99.91,1.93,1.79,1.91.88-.02,1.74-1,1.73-1.97,0-1.11-.7-1.79-1.8-1.77ZM205.93,67.78c0,1.18.58,1.81,1.71,1.82,1.08.01,1.79-.69,1.81-1.77.01-1.08-.69-1.82-1.76-1.82-1.14,0-1.75.61-1.76,1.77ZM20.77,66c-1.15-.02-1.77.58-1.8,1.74-.02,1.18.56,1.82,1.68,1.85,1.09.03,1.81-.65,1.84-1.74.03-1.08-.67-1.84-1.73-1.86ZM36.55,66c-1.14,0-1.74.62-1.74,1.8,0,1.17.6,1.79,1.74,1.8,1.07,0,1.79-.71,1.79-1.8,0-1.08-.71-1.8-1.78-1.8ZM221.77,67.73c-.03,1.19.55,1.83,1.67,1.86,1.09.03,1.81-.64,1.85-1.73.04-1.08-.66-1.84-1.72-1.87-1.15-.03-1.78.57-1.81,1.73ZM54.01,67.77c-.01,1.18.57,1.8,1.7,1.82,1.09.02,1.78-.66,1.79-1.77.01-1.11-.66-1.82-1.74-1.82-1.14,0-1.74.6-1.75,1.77ZM46.15,66c-1.14,0-1.74.62-1.74,1.78,0,1.17.59,1.8,1.72,1.81,1.09.01,1.77-.67,1.78-1.78,0-1.11-.67-1.81-1.75-1.81ZM240.97,67.74c-.03,1.19.55,1.82,1.67,1.86,1.1.03,1.79-.62,1.83-1.73.04-1.11-.63-1.84-1.7-1.86-1.15-.02-1.77.58-1.79,1.73ZM233.17,66c-1.15-.02-1.77.57-1.79,1.73-.03,1.18.54,1.83,1.66,1.86,1.1.04,1.79-.61,1.83-1.73.04-1.11-.63-1.84-1.69-1.87ZM185.22,67.8c-.04-1.02-.85-1.8-1.86-1.8-1.03,0-1.68.7-1.65,1.78.02,1.01.87,1.96,1.74,1.96.85,0,1.81-1.05,1.77-1.94ZM165.87,67.8c.02-1.16-.53-1.77-1.6-1.8-1.15-.03-1.78.59-1.79,1.76,0,1.11.71,1.95,1.67,1.96.97.01,1.7-.8,1.71-1.92ZM180.36,67.89c.03-1.02-.76-1.86-1.76-1.89-1.05-.03-1.68.6-1.71,1.7-.03,1.1.66,1.96,1.61,2.01.89.05,1.84-.88,1.86-1.83ZM136.66,67.85c.02.95.94,1.89,1.83,1.87.91-.02,1.68-.94,1.66-1.98-.02-1.1-.64-1.75-1.68-1.73-.99.01-1.82.86-1.81,1.85ZM228.25,69.6c1.02.01,1.87-.8,1.87-1.79,0-.99-.84-1.81-1.86-1.8-1.03,0-1.65.68-1.66,1.79,0,1.11.61,1.79,1.64,1.8ZM5.73,66c-1.07.01-1.67.71-1.64,1.89.04,1.1.66,1.72,1.7,1.7,1.02-.02,1.82-.83,1.8-1.83-.02-1-.84-1.78-1.87-1.76ZM238.08,66c-1.01-.01-1.86.78-1.88,1.75-.02.97.79,1.81,1.8,1.84,1.07.03,1.74-.67,1.73-1.81,0-1.1-.62-1.76-1.65-1.78ZM93.58,67.82c0,1.24.57,1.9,1.65,1.9.99,0,1.75-.82,1.74-1.9,0-1.06-.79-1.85-1.8-1.82-1.05.03-1.59.64-1.59,1.82ZM167.23,67.78c0,1.11.71,1.94,1.68,1.94.92,0,1.71-.9,1.71-1.95,0-1.16-.63-1.79-1.78-1.77-1.08.02-1.62.61-1.62,1.78ZM112.76,67.88c.01,1.21.64,1.89,1.72,1.84.99-.04,1.72-.9,1.68-1.97-.03-.99-.79-1.74-1.76-1.75-1.09-.02-1.65.63-1.64,1.88ZM219.79,67.84c.03-1.11-.58-1.81-1.61-1.84-1.03-.03-1.88.75-1.91,1.74-.03.99.79,1.83,1.81,1.85,1.02.02,1.68-.66,1.71-1.75ZM253.96,67.77c0-1.18-.54-1.75-1.62-1.77-1.15-.02-1.76.59-1.78,1.77-.01,1.19.58,1.82,1.71,1.83,1.15.01,1.69-.58,1.68-1.82ZM13.92,67.8c0,1.18.6,1.8,1.74,1.8,1.1,0,1.64-.56,1.66-1.73.02-1.25-.52-1.86-1.65-1.86-1.15,0-1.75.61-1.75,1.79ZM204.29,67.8c0-1.24-.56-1.82-1.71-1.8-1.1.02-1.67.61-1.69,1.73-.03,1.2.55,1.84,1.68,1.86,1.16.03,1.72-.56,1.72-1.79ZM214.56,67.74c-.02-1.17-.64-1.77-1.8-1.74-1.12.03-1.64.65-1.6,1.91.04,1.15.6,1.7,1.71,1.68,1.13-.02,1.71-.65,1.69-1.85ZM27.6,67.82c0-1.19-.58-1.81-1.73-1.81-1.1,0-1.65.56-1.67,1.72-.03,1.25.51,1.86,1.64,1.87,1.15.01,1.75-.59,1.76-1.78ZM70.23,65.99c-.98.4-1.98.69-1.82,2.05.11,1.01.39,1.3,1.83,1.7,1.16-.42,1.69-1.02,1.68-1.91,0-.84-.55-1.45-1.68-1.84ZM117.6,67.91c.01,1.11.62,1.79,1.62,1.81.98.02,1.75-.8,1.76-1.87,0-1.06-.76-1.86-1.76-1.85-1.08,0-1.64.66-1.62,1.91ZM145.2,67.82c.02-1.13-.58-1.8-1.62-1.81-1.04-.01-1.79.76-1.78,1.84.01,1,.76,1.84,1.66,1.88.96.04,1.72-.8,1.73-1.91ZM148.65,66c-1.04.02-1.6.67-1.57,1.83.03,1.11.8,1.95,1.75,1.89.82-.05,1.65-1.02,1.65-1.92,0-1.03-.81-1.82-1.83-1.8ZM43,67.85c.02-1.19-.5-1.81-1.54-1.84-1.04-.03-1.84.71-1.86,1.74-.02,1.04.73,1.83,1.76,1.85,1.06.01,1.62-.58,1.64-1.75ZM191.25,67.79c0,1.11.63,1.82,1.62,1.8.87-.02,1.64-.81,1.68-1.72.04-.94-.74-1.82-1.66-1.86-.98-.04-1.63.67-1.64,1.78ZM128.99,66.03c-1.51.45-2.11,1.09-1.97,2.11.11.81.79,1.43,1.63,1.49.82.06,1.48-.51,1.64-1.41.2-1.1-.18-1.74-1.3-2.18ZM66.43,67.88c.03-1.01-.64-1.87-1.45-1.85-.78.02-1.33.68-1.38,1.65-.05,1.09.51,1.86,1.37,1.9.79.03,1.44-.72,1.46-1.69ZM187.76,66.03c-.93.26-1.27.87-1.27,1.71,0,.86.29,1.54,1.13,1.84,1.04-.11,1.36-.79,1.44-1.65.08-.91-.31-1.46-1.31-1.9ZM123.64,66.02c-1.32.57-1.75,1.9-1.04,3.02.43.68,1.13.75,1.69.16.91-.94.61-2.48-.66-3.19Z"/>
    <path class="cls-5"
          d="M412.05,58.79c.51-1.49.51-3.06.72-4.59.83-6.05,1.62-12.11,2.37-18.17.62-4.99,1.19-9.99,1.76-14.99.57-4.96,1.1-9.92,1.67-14.88.12-1.04.52-1.5,1.57-1.65,1.26-.19,2.54-.28,3.81-.39,2.63-.22,5.25-.42,7.88-.64,1.39-.11,2.2.73,1.98,2.14-.66,4.26-1.34,8.52-1.99,12.78-.75,4.93-1.49,9.87-2.23,14.81-1.03,6.91-2.05,13.82-3.07,20.74-.5,3.36-.97,6.72-1.47,10.08-.2,1.31-.5,1.64-1.84,1.8-2.18.26-4.37.44-6.56.64-1.07.1-2.15.18-3.22.27-1.04.08-1.96-.06-2.16-1.37-3.63.71-7.15,1.41-10.68,2.1-1.77.35-2.46-.13-2.61-1.95-.22-2.55-.35-5.1-.55-7.65-.17-2.11-.21-4.23-.54-6.42h-10.88c-.41.65-.6,1.38-.85,2.1-1.57,4.53-3.13,9.07-4.71,13.6-.58,1.67-.94,1.93-2.63,1.71-3.05-.4-6.09-.84-9.13-1.29-.76-.11-1.49-.25-2.24.05-.21.09-.47.07-.71.08-2.48.07-4.95.16-7.43.2-5.6.11-11.19.18-16.79.33-1.76.05-3.51.15-5.27.16-1.75,0-2.33-.76-2.07-2.51.71-4.82,1.4-9.64,2.06-14.47.72-5.3,1.42-10.61,2.08-15.92.55-4.4,1.04-8.8,1.54-13.21.47-4.13.92-8.26,1.37-12.38.19-1.79.36-3.58.53-5.37.14-1.41.58-1.93,2-2.06,2.98-.28,5.97-.52,8.95-.77,1.11-.09,2.23-.22,3.34-.25,1.44-.03,1.96.61,1.72,2.04-1.15,6.81-2.35,13.62-3.46,20.43-.88,5.44-1.69,10.89-2.48,16.34-.5,3.44-.93,6.89-1.39,10.33-.04.27-.09.55.06.87.6.27,1.23-.01,1.85-.04,4.23-.17,8.46-.36,12.7-.55.8-.04,1.59-.17,2.39-.16,1.53.01,2.11.67,1.95,2.17-.18,1.67-.39,3.33-.58,5-.16.28-.33.57.01.9.11-.31.2-.6.3-.89.9-2.6,1.8-5.21,2.72-7.81,2.74-7.76,5.52-15.51,8.23-23.29,2.67-7.66,5.28-15.34,7.92-23.02.48-1.41.82-1.7,2.34-1.76,1.4-.06,2.8-.03,4.2-.06,3.4-.07,6.8.03,10.19-.17,1.88-.11,2.4.44,2.56,2.33.53,6.21,1.08,12.42,1.6,18.63.36,4.34.67,8.68,1.04,13.02.44,5.21.91,10.42,1.36,15.64.21,2.47.41,4.94.61,7.4v1.28h.13v-1.29ZM389.63,3.38c-7.09,21-14.47,41.75-21.97,62.6,3.78.52,7.47,1.04,11.19,1.55,2.07-5.98,4.08-11.81,6.06-17.55h13.38c.4,5.43.8,10.79,1.21,16.27,3.87-.77,7.61-1.51,11.39-2.26-1.7-20.31-3.4-40.49-5.08-60.61h-16.19ZM335.46,66.95c10.44-.24,20.69-.48,30.95-.71.57-4.78,1.12-9.4,1.68-14.12-6.53.32-12.9.63-19.35.95,1.98-16.88,4.85-33.49,7.7-50.27-4.48.39-8.8.77-13.21,1.16-2.07,21.05-4.65,41.97-7.77,63ZM420.02,5.9c-2.06,19.9-4.57,39.6-7.32,59.44,3.78-.27,7.3-.6,10.91-.99,2.85-19.87,5.8-39.62,8.88-59.48-4.24.35-8.28.69-12.47,1.03Z"/>
    <path class="cls-9"
          d="M443.54,39.2c-.49,4.52-.98,9.05-1.48,13.57-.46,4.17-.94,8.33-1.42,12.5-.13,1.13-.57,1.61-1.65,1.69-3.59.26-7.17.52-10.76.72-1.66.09-2.22-.49-1.98-2.15.46-3.16,1.02-6.31,1.54-9.46,1.02-6.07,1.93-12.15,2.8-18.24.86-6.01,1.61-12.03,2.32-18.06.49-4.16.87-8.34,1.28-12.52.18-1.87.69-2.38,2.54-2.45,3.67-.16,7.35-.34,11.02-.48,1.61-.06,1.97.24,2.31,1.78,1.6,7.26,3.18,14.51,4.77,21.77.08.38.19.76.35,1.15.45-1.94.59-3.92.81-5.88.57-5,1.09-10,1.63-15.01.11-1.07.22-2.15.3-3.22.14-1.96.61-2.44,2.6-2.46,2.84-.04,5.68-.04,8.52-.06,1.12,0,2.24-.04,3.36-.01,1.56.03,2.07.69,1.74,2.24-1.37,6.32-2.64,12.67-3.82,19.03-1.36,7.3-2.62,14.62-3.77,21.96-.95,6.12-1.85,12.24-2.65,18.38-.17,1.32-.68,1.87-2.04,1.9-3.64.08-7.28.1-10.92.09-1.06,0-1.51-.5-1.78-1.73-1.25-5.7-2.48-11.4-3.72-17.1-.58-2.65-1.15-5.3-1.73-7.95-.06,0-.11,0-.17,0ZM435.72,6.3c-1.89,20.15-4.73,40.05-8.24,60.03,4-.26,7.81-.51,11.71-.77,1.31-11.76,2.6-23.43,3.9-35.09.05,0,.1-.01.15-.02,2.47,11.36,4.94,22.72,7.38,33.95h11.78c2.68-20.39,6.15-40.51,10.44-60.48h-13.37c-.6,5.71-1.16,11.28-1.78,16.83-.62,5.55-1.3,11.09-1.96,16.64-.08,0-.15,0-.23,0-2.31-10.54-4.63-21.09-6.96-31.71-4.3.2-8.49.4-12.82.6Z"/>
    <path class="cls-8"
          d="M284.49,14.72c-2.61-.24-4.13.82-4.73,3.27-1.01,4.11.15,7.57,3.19,10.44,1.52,1.44,3.27,2.57,5.12,3.53,5.4,2.83,8.52,7.25,9.23,13.3.47,4.05-.22,7.99-1.81,11.72-3.44,8.05-9.52,12.7-18.24,13.86-3.23.43-6.39.31-9.41-.99-4.06-1.74-6.78-4.69-7.9-9.03-.88-3.42-.87-6.87-.57-10.36.18-2.11.48-4.2.82-6.29.26-1.6.68-2.01,2.25-2.12,3.78-.27,7.57-.53,11.36-.74,1.97-.11,2.54.59,2.11,2.53-.52,2.34-.9,4.71-1.02,7.11-.06,1.15.02,2.32.42,3.43.42,1.17,1.04,1.56,2.28,1.52,2.9-.08,4.8-1.93,5.17-4.82.45-3.5-1.29-5.97-3.61-8.21-1.44-1.39-3.06-2.57-4.78-3.61-5.6-3.38-8.42-8.42-8.97-14.87-.35-4.22.24-8.3,1.66-12.25,1.64-4.57,4.71-7.85,9.29-9.58,4.62-1.75,9.38-2.26,14.23-1.12,4.32,1.02,6.99,3.8,8.24,8.02,1.15,3.89.93,7.82.36,11.76-.11.79-.25,1.58-.41,2.36-.22,1.13-.58,1.48-1.72,1.68-1.66.3-3.35.13-5.02.33-1.74.2-3.51.24-5.26.3-1.79.06-2.43-.68-2.1-2.43.4-2.12.78-4.24.69-6.42-.04-.85-.15-1.67-.87-2.33ZM297.19,23.86c.37-.91.41-1.67.52-2.42.52-3.41.76-6.83.1-10.26-.91-4.77-3.75-7.66-8.5-8.59-2.7-.53-5.42-.37-8.11.07-6.35,1.04-10.94,4.31-13.05,10.56-1.36,4.03-1.78,8.2-1.21,12.43.51,3.79,2.02,7.12,4.81,9.83,1.24,1.21,2.69,2.13,4.13,3.07,2.42,1.59,4.67,3.37,6.4,5.72,1.43,1.94,2.12,4.07,1.92,6.51-.32,3.82-2.48,6.1-6.28,6.49-2.03.21-3.41-.67-4.03-2.62-.17-.53-.28-1.08-.34-1.64-.23-2.17.01-4.31.36-6.44.2-1.25.6-2.46.67-3.89-4.33.29-8.58.57-12.86.86-.92,5.13-1.55,10.15-.81,15.24.82,5.63,4.7,9.6,10.26,10.58,3.21.57,6.38.21,9.49-.65,9.82-2.7,15.72-12.45,15.28-22.14-.27-5.87-2.96-10.26-8.11-13.12-.52-.29-1.05-.58-1.57-.88-1.73-1.01-3.37-2.16-4.77-3.6-3.17-3.25-4.16-7.1-3.09-11.48.63-2.6,2.43-4.12,4.97-4.3,1.73-.13,2.74.58,3.17,2.25.38,1.46.32,2.94.13,4.41-.2,1.49-.44,2.98-.69,4.63,3.81-.22,7.5-.42,11.19-.63Z"/>
    <path class="cls-4"
          d="M314.15,47.85c-.4,1.6-.51,3.16-.69,4.7-.53,4.32-.83,8.67-1.2,13-.13,1.53-.65,2.02-2.2,2.09-.04,0-.08,0-.12,0-3.8.06-7.6.05-11.39.21-2.18.09-2.74-.59-2.41-2.71,1.11-7.3,2.26-14.6,3.32-21.91.74-5.1,1.36-10.21,2.01-15.32.64-5.07,1.25-10.14,1.86-15.22.27-2.26.51-4.52.76-6.79.15-1.29.45-1.65,1.75-1.88,2.56-.45,5.15-.68,7.74-.85,3.75-.24,7.51-.33,11.25.19,1.82.25,3.62.65,5.35,1.3,4.13,1.54,6.54,4.55,7.52,8.79.77,3.33.67,6.67.19,10.01-.52,3.6-1.28,7.16-2.56,10.58-1.56,4.17-3.75,7.86-7.86,10.06-2.48,1.33-5.1,2.29-7.84,2.93-1.75.41-3.53.64-5.45.81ZM312.87,46.6c.64-.28,1.21-.23,1.76-.27,2.61-.16,5.13-.73,7.63-1.48,5.81-1.76,9.72-5.46,11.71-11.22,1.17-3.37,1.99-6.82,2.48-10.35.4-2.9.54-5.81.02-8.72-.81-4.49-3.27-7.54-7.71-8.9-2.04-.62-4.12-.95-6.24-1.1-3.92-.28-7.84-.1-11.74.28-1.73.17-3.48.28-5.26.69-2.22,20.36-4.86,40.59-8.2,60.87,4.54-.09,8.95-.18,13.45-.26.54-6.62.99-13.14,2.09-19.55Z"/>
    <path class="cls-10" d="M369.13,57.89c-.1.29-.19.57-.3.89-.35-.33-.17-.62-.01-.9.1,0,.21,0,.31.01Z"/>
    <path class="cls-2"
          d="M389.63,3.38h16.19c1.69,20.12,3.38,40.3,5.08,60.61-3.79.75-7.52,1.49-11.39,2.26-.41-5.48-.81-10.84-1.21-16.27h-13.38c-1.99,5.75-4,11.58-6.06,17.55-3.72-.52-7.41-1.03-11.19-1.55,7.5-20.85,14.88-41.6,21.97-62.6ZM395.46,15.91c-3.68,7.14-6.87,14.42-9.68,22.04,4.69.04,9.22-.11,13.87-.28-.79-7.44-2.3-14.63-4.19-21.76Z"/>
    <path class="cls-7"
          d="M335.46,66.95c3.13-21.03,5.71-41.95,7.77-63,4.41-.39,8.73-.77,13.21-1.16-2.85,16.78-5.72,33.4-7.7,50.27,6.44-.31,12.82-.63,19.35-.95-.56,4.71-1.11,9.33-1.68,14.12-10.26.24-20.51.47-30.95.71Z"/>
    <path class="cls-11"
          d="M420.02,5.9c4.19-.35,8.24-.68,12.47-1.03-3.08,19.86-6.04,39.61-8.88,59.48-3.61.39-7.13.72-10.91.99,2.74-19.84,5.25-39.53,7.32-59.44Z"/>
    <path class="cls-13"
          d="M435.72,6.3c4.33-.2,8.52-.4,12.82-.6,2.33,10.62,4.65,21.16,6.96,31.71.08,0,.15,0,.23,0,.66-5.55,1.34-11.09,1.96-16.64.62-5.56,1.18-11.12,1.78-16.83h13.37c-4.29,19.97-7.76,40.09-10.44,60.48h-11.78c-2.44-11.23-4.91-22.59-7.38-33.95-.05,0-.1.01-.15.02-1.3,11.66-2.59,23.32-3.9,35.09-3.9.26-7.71.51-11.71.77,3.51-19.98,6.35-39.88,8.24-60.03Z"/>
    <path class="cls-3"
          d="M297.19,23.86c-3.69.21-7.39.42-11.19.63.25-1.65.49-3.14.69-4.63.2-1.47.26-2.95-.13-4.41-.44-1.67-1.44-2.37-3.17-2.25-2.54.18-4.33,1.7-4.97,4.3-1.07,4.38-.08,8.23,3.09,11.48,1.41,1.44,3.04,2.59,4.77,3.6.52.3,1.04.59,1.57.88,5.15,2.86,7.85,7.25,8.11,13.12.44,9.69-5.46,19.44-15.28,22.14-3.11.86-6.28,1.22-9.49.65-5.57-.98-9.44-4.95-10.26-10.58-.74-5.09-.11-10.11.81-15.24,4.28-.29,8.53-.57,12.86-.86-.07,1.43-.47,2.65-.67,3.89-.35,2.14-.59,4.27-.36,6.44.06.56.17,1.11.34,1.64.61,1.94,1.99,2.83,4.03,2.62,3.79-.39,5.95-2.67,6.28-6.49.21-2.44-.49-4.58-1.92-6.51-1.74-2.35-3.98-4.14-6.4-5.72-1.44-.94-2.89-1.86-4.13-3.07-2.78-2.7-4.29-6.04-4.81-9.83-.57-4.22-.15-8.39,1.21-12.43,2.11-6.25,6.7-9.53,13.05-10.56,2.69-.44,5.41-.6,8.11-.07,4.75.93,7.59,3.81,8.5,8.59.66,3.43.42,6.85-.1,10.26-.11.75-.16,1.51-.52,2.42Z"/>
    <path class="cls-1"
          d="M312.87,46.6c-1.1,6.41-1.55,12.93-2.09,19.55-4.5.09-8.91.17-13.45.26,3.34-20.28,5.98-40.52,8.2-60.87,1.77-.41,3.52-.52,5.26-.69,3.9-.38,7.82-.56,11.74-.28,2.12.15,4.2.48,6.24,1.1,4.43,1.36,6.9,4.41,7.71,8.9.52,2.91.39,5.81-.02,8.72-.49,3.53-1.31,6.97-2.48,10.35-2,5.76-5.9,9.46-11.71,11.22-2.5.75-5.02,1.32-7.63,1.48-.55.03-1.12-.01-1.76.27ZM312.95,36.42c1.06.21,1.92-.03,2.77-.19,4.02-.75,6.82-2.86,7.97-6.97.86-3.09,1.17-6.19.77-9.35-.25-1.93-1.07-3.53-3.02-4.25-1.9-.7-3.82-.55-5.84-.08-.88,6.95-1.76,13.86-2.65,20.84Z"/>
    <path class="cls-10"
          d="M47.8,22.22c.39-1.07-.13-2.12.15-3.2,1.41-.12,2.79-.04,4.26-.04v13.82h-4.17c-.31-.26-.23-.65-.25-.99-.09-1.72-.69-3.26-1.55-4.73-1.47-2.52-4.21-3.38-6.81-3-1.67.24-2.69,1.34-3.11,2.95-.18.69-.28,1.41-.28,2.13,0,5.76,0,11.52,0,17.28,0,.77.09,1.52.32,2.25.71,2.25,2.93,3.38,5.39,2.8,1.54-.36,2.79-1.2,3.77-2.41,1.28-1.59,2.12-3.38,2.28-5.44.01-.16.04-.32.08-.47.02-.07.07-.14.17-.33,1.39-.17,2.85-.06,4.33-.06.34.75.22,1.46.11,2.16-.65,4.09-3.03,7-6.46,9.07-9.92,6-23.43,2.28-28.95-7.91-3.25-5.99-2.36-14.33,2.09-19.75,3.58-4.36,8.22-6.72,13.79-7.41,5.12-.64,9.85.4,14.23,3.09.1.06.21.12.32.17.07.03.15.02.31.04Z"/>
    <path class="cls-10"
          d="M107.42,51.95c.1,1.39.07,2.7.02,4.11h-24.1c-.18-1.32-.07-2.66-.07-3.91.3-.39.64-.29.95-.33,2.33-.34,3.61-1.69,3.85-4.05.05-.48.06-.96.06-1.44,0-5.84,0-11.67,0-17.51,0-.76-.01-1.51-.2-2.26-.49-1.92-1.7-3.02-3.68-3.25-.27-.03-.56.01-.94-.22-.12-1.26-.06-2.59-.03-4.03h24.14c.08,1.36.08,2.73,0,4.08-.22.07-.33.12-.45.13-2.9.21-4.16,1.44-4.46,4.87-.09.99-.02,2-.02,3,0,5.04,0,10.07,0,15.11,0,.85.09,1.68.31,2.49.44,1.59,1.38,2.68,3.09,2.96.47.08.94.16,1.53.26Z"/>
    <path class="cls-10"
          d="M231.58,28.69v15.86c-1.13.17-2.23.07-3.27.07-.38-.34-.3-.72-.31-1.07,0-.69-.17-1.35-.38-1.99-.59-1.77-1.86-2.54-3.89-2.3v11.42c.08.06.14.14.21.15,2.36.09,4.72.19,7.05-.23,3.54-.63,5.45-2.83,5.64-6.41.01-.27-.05-.56.24-.92,1.25-.09,2.58-.07,4,0v11.85h-38.22c-.1-1.39-.08-2.73-.02-4.11.96-.23,1.87-.36,2.6-.98,1.23-1.06,1.82-2.44,1.83-4.02.03-6.28.05-12.56,0-18.84-.02-2.73-1.49-4.34-4.4-4.97-.13-1.3-.06-2.64-.04-4.09h38.24v11.8c-1.34.15-2.67.07-3.92.05-.38-.32-.29-.66-.3-.97-.18-3.64-2.02-5.75-5.6-6.43-2.38-.45-4.78-.16-7.28-.25v11.62c1.72.37,3.06-.3,3.66-1.87.22-.56.33-1.15.5-1.73.15-.54-.03-1.12.23-1.63.97-.24,2.18-.26,3.44-.02Z"/>
    <path class="cls-10"
          d="M137.83,23.15v-4.09h18.09c4.56,6.8,9.17,13.67,13.93,20.77.03-.62.06-.96.06-1.3,0-3.48,0-6.96,0-10.44,0-.28,0-.56,0-.84-.04-2.79-.89-3.71-3.68-3.96-.39-.03-.8.08-1.27-.23-.08-1.27-.09-2.61.02-4.03h13.93c.15,1.36.08,2.7.04,4.1-.78.26-1.55.16-2.28.34-1.24.29-1.95.99-2.2,2.23-.14.67-.23,1.34-.23,2.02,0,6.52,0,13.04,0,19.56,0,.64.08,1.27.18,1.9.25,1.52,1.14,2.32,2.62,2.52.55.07,1.09.15,1.7.23.12,1.39.1,2.72.02,4.14h-15.9c-5.52-8.34-11.1-16.75-16.66-25.14-.32.12-.26.31-.26.45-.02,5.28-.03,10.56-.04,15.84,0,.48,0,.96.05,1.44.19,1.91.92,2.66,2.83,2.97.59.09,1.18.19,1.87.31.12,1.35.06,2.69.04,4.13h-12.81v-4.02c.06-.05.12-.13.18-.14,2.57-.48,3.44-1.52,3.52-4.29.04-1.64.01-3.28.01-4.92,0-4.76,0-9.52,0-14.28,0-.52-.01-1.04-.1-1.55-.44-2.55-1.04-3.16-3.65-3.71Z"/>
    <path class="cls-14"
          d="M395.46,15.91c1.9,7.14,3.4,14.33,4.19,21.76-4.65.17-9.18.32-13.87.28,2.81-7.62,6.01-14.9,9.68-22.04ZM395.02,20.08c-2.66,5.33-5.06,10.72-7.16,16.44,3.47-.09,6.73.06,10.15-.34-.57-5.5-1.65-10.81-2.99-16.1Z"/>
    <path class="cls-6"
          d="M312.95,36.42c.89-6.98,1.76-13.89,2.65-20.84,2.01-.48,3.94-.63,5.84.08,1.95.72,2.78,2.32,3.02,4.25.4,3.17.09,6.27-.77,9.35-1.15,4.11-3.95,6.22-7.97,6.97-.85.16-1.71.4-2.77.19ZM314.6,34.74c3.06.19,6.14-1.81,7.22-4.53,1.25-3.15,1.49-6.39,1.29-9.76-.2-3.34-3.41-4.61-6.27-3.44-.74,5.86-1.48,11.75-2.24,17.73Z"/>
</svg>