<?xml version="1.0" encoding="UTF-8"?>
<svg id="cinesplain_logo_wag_left_Image" data-name="cinesplain_logo_wag_left Image" xmlns="http://www.w3.org/2000/svg"
     width="240" height="240" viewBox="0 0 240 240">
    <defs>
        <style>
            .cls-1 {
            fill: #fefefecc;
            }
            .cls-2 {
            fill: #000000;
            }

            .cls-1, .cls-2 {
            stroke-width: 20px;
            }
        </style>
    </defs>
    <path class="cls-2"
          d="M174.47,57.85c.28,2.01.5,4.04.92,6.03.04.19.05.4.04.59-.03.84,0,1.63,1.12,1.7.46,2.86.9,5.61,1.34,8.37-.45.44-.54,1.09-1.13,1.36-.29.08-.67-.26-.88.18-.58-.14-1.06.33-1.63.25-.02-.15-.04-.29-.06-.47-1.23-.04-2.43-.13-3.54.47-.75.4-1.54.17-2.33.21-2.38-2.58-4.74-5.15-7.11-7.73.42-.32.87-.02,1.24-.39h-4.52c-2.75.63-5.58.87-8.48,1.53,1.87,1.56,3.07,3.57,4.86,4.98.8.63,1.1,1.85,2.33,1.94-.04.23-.29.12-.36.27.17.21.32.45.45.49,1.28-.23,2.54.71,3.59-.35.27.1.49.24.43.69-2.5-.15-4.8.76-7.15,1.44-.14.03-.27.07-.41.1-.33.11-.73-.28-1.02.13-.09,0-.18,0-.28,0-.32-.27-.63-.32-.93.01-.13.03-.27.06-.4.1-.92-.19-1.78.26-2.47.29-3.07-2.68-5.59-5.72-8.59-8.27-1.67-.12-3.31.38-5.09-.1.17.35.42.31.37.48-1.86.2-3.71.4-5.76.62,3.12,2.87,5.66,6.08,8.87,8.39,1.73-.49,3.27-.47,4.82-.36-.84-.13-1.46.52-2.2.6-1.73.19-3.44.55-5.2.46-.21-.01-.4.03-.52.22-1.54.26-3.1.33-4.63.64-.49.1-.97.32-1.49.3-.59-.76-1.36-1.32-2.07-1.95-1.26-1.11-2.5-2.24-3.7-3.42-1.27-1.24-2.6-2.4-3.94-3.5-1.34.89-3,.34-4.12,1.13.13,1.31.33,2.4.6,3.48.15.63.2,1.44.77,1.75.71.38,1.01,1.08,1.66,1.61h2.25c-.77.34-1.38.09-1.98.25.14.57.83.59,1.17,1.37-.13-.82.22-.7.51-.7.25.15.17.6.55.65.25-.1.33-.48.79-.36-.15.27.29.36.2.68l-.11-.03-.1.05c-.37.09-.76-.13-1.11.07-.02.13-.04.24-.05.36-.42.26-.83.52-1.25.78-.06.06-.12.12-.17.18-.09.02-.18.03-.27.05-.13,0-.19.08-.22.2-1.25.48-2.51.92-3.72,1.52-.17-.02-.34-.03-.38.19l.03-.02c-.07.07-.14.14-.21.21-.34.2-.61.48-.81.82-.19.14-.49.2-.41.55.11.16.26.06.4.08,2.35.34,4.69.77,7.04.99,1.62.15,3.25.33,4.87.47,2.77.25,5.55.52,8.32.71,2.5.17,4.95.71,7.46.83,3.39.16,6.75.7,10.15.95,2.43.18,4.87.55,7.3.85,1.25.15,2.53.32,3.81.29,1.2-.03,2.36.19,3.53.43.35.07.71.08,1.07.07,3.14-.05,6.25.34,9.36.7.78.09,1.57-.04,2.36.22.41.14.72.29,1.04.8-.18,3.4-.29,6.95-1.35,10.44-2.96,0-5.72-.63-8.53-.71-.52-.43-1.09,0-1.63-.09-1.12-.32-2.26-.4-3.42-.41.01-.19.03-.39.04-.53.27-.27.65.02.89-.27-.81-.3.47-.71-.11-1.01,1.01-.29,1.11-.49.99-1.5.78-1.77,1.99-2.96,2.12-4.73.72-.08.61-.73.79-1.11-.05-.22-.32-.08-.28-.32.09-.1.33-.03.29-.28-2.4-.26-4.81-.21-7.21-.29-.03-.27.3-.19.23-.42-1.32-.18-2.66.13-3.99-.17-.31-.07-.59.15-.78.53-.5.99-1.1,1.93-1.65,2.9-.86,1.51-1.7,3.03-2.58,4.53-.26.44-.28.85-.08,1.3-2.57-.52-5.22-.57-7.78-1.2-.49-.12-1.03-.05-1.55-.07-.07-.07-.14-.13-.21-.2,0,0,.04.02.04.02.14-.27.26-.55.43-.81,1.12-1.68,2.25-3.35,3.36-5.04.2-.3.23-.92.44-.97.64-.16.45-.72.99-1.16-1.23.33-2.11.08-3.01-.05.83-.15,1.66-.26,2.58-.13-.37-.49-.51-1.04-1.15-.99-2.62.2-5.24.09-7.9-.3-.74-.68-.45-.85-2.16-.31-.15.12-.02.32-.1.44-1.42,2.1-2.49,4.44-4.02,6.47-.39.52-.62,1.05-.79,1.64-1.88-.07-3.77-.17-5.64-.72-.09.44.37.68.36,1.08.08.32-.33.27-.32.23.62,2.05.27,3.93.29,5.77,0,.45.14.93-.02,1.38-.36-.23-.19-.77-.58-1-.51.02-.66.61-1.15.75-1.66.47-3.22,1.23-4.65,2.17-1.02.67-2.32,1.06-2.99,2.13-.38.6-.81.58-1.3.49-.2.74.23.86.66.78.64-.11,1.32-.05,1.93-.31l-.03-.03c.45.89,1.43,1.21,2.06,1.92.08-.15.15-.28.23-.42.41.27.77.56.48,1.12.23.03.38.05.58.08.02.77.5,1.48.11,2.27.11.24.47.35.34.69-.24,1.25-1.18,2.23-1.2,3.58-.02.87-.65,1.37-1.5,1.52-.31.06-.63.05-.95.05-.78,0-1.18.39-1.34,1.15-.16.73-.41,1.44-.61,2.12.27.63.91.11,1.33.53-.71,0-1.33.17-1.95.43.53,1.16,1.24,2.13,1.96,3.08.96,1.25,1.59,2.71,1.83,4.18.21,1.29.39,2.66.31,4.01-.09,1.64.04,3.27,0,4.9-.02.84.1,1.66.06,2.5-.09,1.95.2,3.91.16,5.87-.03,1.42-.11,2.85-.27,4.26-.12,1.06-.22,2.13-.14,3.17.08,1.05-.12,2.07-.19,3.08-.07,1.12-.42,2.29-.53,3.43-.25,2.61-.83,5.17-1.31,7.73-.64,3.39-1.42,6.78-2.48,10.08-.14.44.08.91-.14,1.28-.69,1.15-.79,2.45-.95,3.57-.2.49-.62.3-.83.53.17.21.51-.01.63.28-1.29,4.69-2.47,9.42-3.72,14.13-.03-2.01-.51-3.97-.35-5.96.02-.19-.02-.4-.05-.59-.4-2.46-.07-4.95-.37-7.43-.13-1.13.06-2.38-.14-3.47-.22-1.17.14-2.35-.31-3.5-.23-.59-.11-1.34-.08-2.01.07-1.46.07-2.92.02-4.39-.08-2.78-.08-5.56-.25-8.33-.11-1.8.13-3.6,0-5.41-.02-.34-.32-.59-.23-.89.4-1.36.23-2.74.21-4.12-.07-3.77.2-7.53.21-11.29,0-3.1.33-6.19.27-9.29-.02-1.19.04-2.44.33-3.52.42-1.55.32-3.1.59-4.64.36-1.98.46-4.01.69-6.13-.75-.65-1.57-1.38-2.37-2.13-.82-.78-.49-2.05-1.31-2.7-.43,0-.26.45-.52.4-1.35-.3-2.18-1.31-3.16-2.14-.58-.49-1.18-1.01-1.83-1.44-1.26-.84-2.55-1.67-3.65-2.7-2.17-2.03-4.78-3.54-6.78-5.77-.17-.19-.42-.2-.62-.05.45,2.16,1.27,4.2,1.96,6.25.7,2.07,1.34,4.16,2.08,6.22.26.72.45,1.4.43,2.15.16.2.4.37.43.57.24,1.82,1.15,3.43,1.53,5.21.17.8.21,1.65.5,2.38.72,1.84.95,3.81,1.58,5.68.38,1.14.4,2.4.58,3.6.33,2.21,1.27,4.26,1.48,6.56.24,2.61.82,5.23,1.41,7.8.63,2.76.82,5.6,1.65,8.3.3.96.09,1.92.41,2.88.61,1.89.64,3.9.98,5.85.25,1.45.42,2.92.74,4.39-.11.21-.24.43-.38.69-.74-2.04-.9-4.18-1.55-6.2-.39-1.2-.77-2.41-1.15-3.61-.41-1.27-.7-2.58-1.11-3.87-.41-1.28-.84-2.54-1.32-3.8-.45-1.18-.74-2.43-1.23-3.59-1.12-2.69-2.34-5.35-3.43-8.06-.77-1.91-1.34-3.89-2.51-5.66-1.63-2.46-2.76-5.23-3.95-7.93-1.25-2.83-2.97-5.37-4.35-8.1-.67-1.33-1.3-2.69-2.11-3.93-.51-.78-.87-1.63-1.35-2.41-1.3-2.13-2.85-4.12-3.66-6.54-.29-.87-.88-1.62-1.88-2.01.31.57.23,1.15.22,1.72-.01.8.11,1.53.64,2.19.26.32.43.74.55,1.14.37,1.25.81,2.45,1.54,3.57,1.25,1.94,2.03,4.13,3.03,6.21,1.37,2.88,2.6,5.83,4.28,8.56.33.54.6,1.13.83,1.75.44,1.18.74,2.46,1.44,3.51.95,1.44,1.32,3.11,2.04,4.64.24.5.45,1.04.67,1.57.59,1.37,1.5,2.63,1.61,4.18.26.34.53.62.7,1.05.42,1.04.82,2.07,1.09,3.16.39,1.57,1.3,2.95,1.77,4.5.34,1.13,1.07,2.11,1.42,3.26.66,2.2,1.25,4.43,2.11,6.58.67,1.66,1.1,3.45,1.44,5.21.28,1.42.91,2.71,1.25,4.1.4,1.67.6,3.39,1.14,5.04.33,1.01.65,2.05.81,3.13.22,1.58.4,3.19.8,4.71.67,2.5.73,5.07,1.26,7.58.34,1.62.67,3.25,1.04,4.87.4,1.78.87,3.58.9,5.39.04,2.19.39,4.35.31,6.54-.03.8.23,1.6.39,2.64,1.55-3.45,2.36-6.87,3.7-10.15-.07-.07-.13-.37-.02-.55.51-.85.48-1.87.85-2.74.54-1.26.6-2.62,1.02-3.9.46-1.38.64-2.89,1.14-4.23.92-2.5,1.42-5.1,2.2-7.63.61-1.97.92-4.03,1.74-5.95.72-1.67,1.03-3.46,1.65-5.16.15-.4-.09-.85.16-1.27.82-1.34,1.21-2.9,1.69-4.35.53-1.59,1.11-3.2,1.48-4.85.45-2,1.37-3.83,1.95-5.78.27-.92.55-1.84.83-2.76.34-1.1.78-2.16,1.19-3.22.53-1.37.73-2.84,1.26-4.18.92-2.32,1.63-4.71,2.49-7.05.45-1.22,1.01-2.4,1.43-3.63.75-2.19.97-4.52,1.63-6.74.47-1.58.5-3.24.51-4.88.02-1.79-.09-3.62-.73-5.3-.63-1.65-1.04-3.37-2.21-4.84-.84-1.05-1.95-1.98-2.38-3.34,1.6.3,2.82,1.35,4.19,2.11,1.53.86,3.02,1.81,4.54,2.69,1.71.98,3.54,1.74,5.21,2.82,1.28.83,2.73,1.42,3.83,2.52.88.89,2.13,1.34,2.8,2.52.88,1.54,1.71,3.11,2.44,4.72.47,1.05.66,2.25.8,3.4.1.79.3,1.54.48,2.35-.21.25-.44.52-.65.77.15.99.65,1.85.28,2.9-.23.66.6,1.3.41,2,.69,1.03,1.34,2,2.06,3.08,1.05.4,1.32,1.64,1.98,2.53.48.66.8,1.44.61,2.33-.13.63.34,1,.7,1.41.49-.36.89.05,1.36.1.21.46.64.78.74,1.32.2,1.05.76,1.73,1.84,2.09.49.16.96.47,1.48.66.84-.52,1.41-1.18,1.88-2.03.59-1.08,1.22-2.18,2.09-3.06.86-.87,1.27-1.97,1.8-3.01.09-.17.11-.39.28-.51.92-.65,1.22-1.68,1.34-2.67.16-1.35.87-2.43,1.53-3.49.79-1.28,1.49-2.63,2.36-3.87.44-.64.88-1.28,1.32-1.92.94-1.35,1.78-2.76,2.35-4.32.19-.52.39-1.04.75-1.46.3-.36.44-.74.48-1.18.11-1.08.34-2.13.87-3.1.12-.22.05-.5.33-.7.79-.57.48-1.57.81-2.33,0-.01-.17-.11-.25-.16.48-.39.42-1.27,1.23-1.28.15-.4.03-.8.34-1.15.68-.76.6-1.64.04-2.41-.29-.4-.3-.8-.33-1.22,0-.35-.24-.27-.44-.24-.65-1.25-1.18-2.54-1.46-3.92-.13-.64-.59-1.13-.83-1.75-.43-1.14-.36-2.41-1.04-3.5.26-.51.31-1.11.09-1.6-.89-1.94-.56-3.98-.59-5.99-.02-1.43.65-2.77.64-4.21,0-.55.3-1.01.84-1.2.81-.28,1.46-.95,2.4-.94.5,0,.81-.5,1.16-.78,1.09-.86,2.21-.48,3.34-.24.27.06.44.29.53.59.11.39.43.64.89.94.1-.93-.18-1.97.83-2.36.56-1.67.94-3.3,1.45-4.9.71-2.22,1.99-4.29,2.38-6.54.43-2.49,2.15-4.14,3.15-6.23.71-1.49,2.96-1.9,4.58-1.18.21.09.45.13.57.16,1.63,1.66.98,3.63.97,5.62-.83.98-.43,2.38-.86,3.6-.19.55-.29,1.15-.51,1.71-.07.18-.24.41-.19.56.45,1.26-.61,2.12-.81,3.22.27,1.19.7,2.42-.32,3.55,1.03.86,1.79,1.83,2.64,2.78.23,1.08.48,2.13,1.87,2.47.55.13.97.74,1.54,1.2-.6.49-.2,1.04-.12,1.59,2.08,1.27,3.09,3.84,5.62,4.55.32.37.63.74.99,1.16.18,1.51-.36,2.95-.81,4.41-.44,1.43-.85,2.89-1.07,4.36-.12.82-.77,1.51-.48,2.41-.78.5-.78,1.34-.97,2.07-.21.82-.53,1.56-.98,2.27-.8,1.24-1.25,2.65-1.69,4.05-.24.77-.66,1.39-1.28,1.83-.94.66-1.68,1.57-2.75,2.09.41,1.04,1.02,1.84,1.86,2.55.64.54.84,1.35.85,2.29.01.98-.27,1.96,0,2.96.23.9-.22,1.79-.68,2.53-.86,1.39-1.4,2.93-2.31,4.29-.53.79-1.11,1.54-1.67,2.4,1.91,1.64,3.33,3.69,4.6,5.84.37.63.6,1.35.83,2.05.35,1.03-.36,1.73-.93,2.37-.37.42-.83.8-1.14,1.27-1.02,1.54-2.62,2.5-3.77,3.93-1.29,1.6-2.61,3.18-3.91,4.78-1.69,2.08-3.14,4.35-4.83,6.44-.88,1.08-1.46,2.4-2.23,3.58-.23.36-.38.93-1.05.83.24.69-.06,1.03-.68,1.2-.41,1.7-1.65,2.92-2.63,4.29-.83,1.16-1.72,2.28-2.23,3.62-.17.45-.46.84-.73,1.14-.81.91-1.19,2.02-1.72,3.06-.31.61-.5,1.38-1.44,1.35-.69,2.5-2.81,3.89-4.32,5.75h-.63c0,.14.05.21.16.25-.22.28-.64.15-.88.61-.32.61-1.11.81-1.79,1.02-.49.15-.97.31-1.54.49-.79-.56-1.72.02-2.66-.2-2.2-.51-4.33-1.26-6.59-1.56-.48-.06-1.08-.4-1.43-.91-.24-.42-.62-.14-.94-.19-.67.07-1.04-.48-1.64-.79-.76.24-1.48-.22-2.14-.57-1.41-.76-2.86-1.41-4.35-1.98-.38-.15-.67-.4-1.01-.56-.15-.39-.45-.17-.7-.19-1.1-.3-1.86-1.14-2.78-1.72-1.22-.78-2.66-1.11-3.86-1.93-1.13-.77-2.63-.91-3.54-2.08-.15-.19-.63-.29-1.06-.07-.04.43.66,1.08-.03,1.22-.79,4.94-1.54,9.73-2.72,14.44-.27.26.21.19.13.52-.24.98-.4,1.99-.57,2.99-.24,1.42-.4,2.85-.72,4.25-.39,1.72-.38,3.5-1.06,5.18-.2.49-.03,1.17-.63,1.56.22.12.32.18.51.28-.38.36-.2.89-.32,1.26-.28.87-.23,1.77-.45,2.61-.57,2.15-1.06,4.31-1.45,6.49-.1.56-.24,1.18-.83,1.68-2.03-.17-4.13.24-6.25.29-1.42.03-2.87.23-4.32.19-2.06-.06-4.13-.22-6.19-.28-1.72-.04-3.38-.51-5.07-.59-1.16-.06-2.3-.25-3.45-.34-.15-.39-.45-.17-.7-.19-1.82-.07-3.59-.53-5.38-.81-1.93-.31-3.85-.72-5.76-1.14-2.22-.49-4.43-1.02-6.63-1.58-.17-.04-.75.09-.57-.36-6.48-1.36-12.46-4.03-18.26-7.17-.22-.29-.53-.27-.84-.22-2.36-1.12-4.76-2.09-6.87-3.74-1.27-.99-2.91-1.59-4.23-2.57-2.41-1.78-4.99-3.34-7.33-5.22-.51-.41-.58-.9-.49-1.48.18-1.18.38-2.35.55-3.53.37-2.61.79-5.21,1.45-7.77.55-2.13.98-4.28,1.52-6.42.26-1.05.44-2.14.71-3.2.14-.53.32-.95.8-1.18-.35-.66.18-1.1.23-1.63.16-1.79.79-3.48,1.26-5.2.42-1.54.54-3.14.88-4.69.29-1.3.45-2.63.78-3.93.33-1.31.36-2.69.64-4.02.64-3.03,1.16-6.08,1.86-9.1.24-1.03.24-2.1.79-3.05.08-.14,0-.4-.3-.5-1.46,3.28-2.74,6.6-3.61,10.12-.32,1.28-.71,2.62-1.18,3.9-.48,1.3-.86,2.7-1.16,4.1-.38,1.79-1.03,3.53-1.44,5.31-.63,2.68-1.7,5.22-2.41,7.87-.58,2.17-1.1,4.36-1.75,6.51-.81,2.7-1.57,5.45-1.87,8.29-.08.72-.15,1.48-.41,2.2-.35.97-.16,2.02-.26,3.03-.04.45-.14.84-.52,1.34-.8-1.22-2.05-1.79-2.96-2.86-.95-1.11-2.15-2.08-3.19-3.17-.9-.94-1.99-1.68-2.68-2.82-.12-.2-.38-.29-.56-.43-.87-.67-1.79-1.32-1.89-2.59-.03-.35-.45-.55-.47-.94-1.4-.39-2.2-1.51-3-2.55-.91-1.2-2.03-2.24-2.75-3.59-.81-1.52-2.02-2.77-2.92-4.25-.72-1.18-1.43-2.41-2.31-3.53-1.16-1.48-1.81-3.3-2.86-4.87-1.12-1.67-1.72-3.6-2.79-5.3-.54-.87-.8-1.96-1.42-2.86.44-.78-.04-1.76.7-2.5-.11-.3-.3-.66-.05-1.04.18-.26.5-.2.73-.25.12-.38-.38-.27-.32-.71.14-.26.12-.75.45-1.14.39-.46.41-1.06.47-1.63.03-.32-.08-.69.06-.94.82-1.47.7-3.22,1.46-4.71.34-.65.33-1.45.5-2.17.41-1.77,1.11-3.47,1.44-5.22.29-1.53,1.19-2.89,1.12-4.51-.03-.62.46-1.15.69-1.73.42-1.09.44-2.24.51-3.45.83-.61.56-1.68.93-2.53.62-1.44.67-3.07,1.46-4.47.31-.56-.05-1.34.48-1.88.37.01.75.12,1.13-.07-.27-.26-.61-.06-.9-.17-.02-.96.23-1.86.54-2.77.65-1.89,1.28-3.79,1.82-5.72.16-.56.39-1.02.7-1.46.28-4.51,4.39-8.77,8.38-8.73,1.16-.73,2.46-1.01,3.78-1.2,1.22-.18,2.47-.33,3.67-.37,1.92-.07,3.74-.87,5.69-.58.67.1,1.35-.44,1.98-.22.38-.05.29-.46.58-.48.86.2,2.72-.19,3.24-.58,2.07-.62,4.3.41,6.34-.83.6-.36,1.37-.74,2.26-.43.36.13.89-.24,1.35-.34,1.11-.25,2.27,0,3.38-.47,1.61-.68,3.19-1.35,4.43-2.66.83-.88,1.76-1.66,2.85-2.25,1.83-.98,3.59-2.1,5.38-3.15.24-.14.5-.24.8-.39.62.32,1.36.21,1.97.49.43-.07.71-.31,1-.57.05.15.08.26.12.38-.35.83-.37,1.69-.2,2.56.12.59.31,1.19.36,1.75.11,1.27.55,2.4.98,3.56.37.97.73,1.96.78,2.91,3.04,2.71,5.8,5.59,8.77,8.26.37.12.87.23,1.07.57.38.65.99.93,1.56,1.31.39.26.79.55,1.1.87,1.8,1.86,4.11,3.08,6.07,5.03.53-1.51.83-2.9,1.45-4.09.98-.74,2.06-.31,3.09-.48.3-.12.42-.54.63-.58,1.04.21,1.99.04,2.77.57.35-.74-.45-.65-.58-1.02-.51-1.48-1.82-2.33-2.91-3.23-.81-.66-1.61-1.34-2.39-2.04-.15-.13-.3-.25-.45-.38-1.13-.95-2.45-1.75-3.36-2.88-1.07-1.34-2.43-2.35-3.59-3.58-1-1.05-2.33-1.76-3.32-2.91-1.48-1.72-3.52-2.9-4.84-4.82-.77-1.11-1.52-2.22-2.16-3.41-.31-.59.14-1.25-.17-1.84-.81.11-.77,1.14-1.51,1.25.12-1.13.65-2.12,1.18-3.08.9-1.61,1.85-3.18,2.55-4.91.26-.65.06-1.31.3-1.93.41-.22.35-.45,0-.68-.09-.5.37-.74.63-.9,1.03-.64.92-1.58.69-2.48-.19-.72-.33-1.45-.43-2.18.03-.14-.08-.17-.17-.2-.01-.13-.02-.25-.03-.38.09-.05.19-.1.3-.17-.17-.11-.22-.15-.28-.2l.02.02c.03-.63-.6-1.22-.09-1.93.25,0,.54.06.8,0,1.89-.47,3.83-.66,5.75-.95,1.81-.27,3.61-.74,5.43-.87,1.3-.1,2.51-.54,3.82-.6,1.15-.05,2.35-.25,3.44-.58,1.35-.41,2.73-.56,4.09-.77,1.79-.28,3.53-.92,5.36-.9.72,0,.84-.79,1.44-.82.68-.03,1.36,0,2.04-.02.11,0,.22-.09.33-.11,1.34-.23,2.67-.7,4.04-.57,1.01.09,2-.03,2.99,0,2.19.08,4.36-.28,6.54-.27.16,0,.32-.02.47-.06,3.62-.96,7.26-1.77,11.05-1.71.08-.34-.29-.87.39-1.15.33.29.67.63,1.21.52.76-.15,1.54-.25,2.31-.35,1.43-.18,2.78-.81,4.27-.63.27.03.54-.03.82-.09,1.44-.32,2.87-.65,4.33-.84,2.42-.33,4.85-.69,7.22-1.26.47-.11.91-.18,1.38-.19ZM193.82,104.43c.37-.38.77-.33.99.09.2.37.63.47.78.84.73-.33.78.4,1.03.74.63-.35.38-1.43,1.4-1.42.82,1.09-.82,1.96-.23,2.88-.48.63-1.15.96-1.3,1.74.98.8,1.61,1.9,2.41,2.73.99.45,1.64-1.19,2.51-.35,1.92-1.08,2.99-2.9,4.19-4.59.44-.04.85.01,1.14-.22.45.65-.42.75-.32,1.37.06.16.63.25.37.77-.48.16-.96.24-1.16-.26-1.32,1.53-1.77,3.73-3.79,4.5-.6.06-.93-.32-1.37-.35-.25.25-.31.66-.69.78-.38-.04-.46-.5-.83-.63-.36.6-.91.35-1.11.38-1.51-1.29-1.77-3.45-3.9-3.9-.42-.84-.99-1.54-1.69-1.94-.24-.28.33-.32-.12-.61.01.53-.09.98-.59,1.29-.23-.41-.42-.74-.59-1.04.12-.36.48-.5.45-.81-.17-2.39-1.89-3.91-3.09-5.72.09-.17.16-.37.44-.38.35.19.72.4,1.09.6.76-1.02.39-2.66,2.07-3.16-.82-1.23-2.04-2.03-2.87-3.13-.98-.37-1.73.09-2.45.59-.64.44-1.17,1.04-1.92,1.33-.57.22-1.03.58-1.31,1.26,0,2.21.2,4.52.12,6.92.47.73.48.79.16,1.89.67,1.16.74,2.49.91,3.76.17,1.32.57,2.56.99,3.8.31.91,1,1.61,1.35,2.56.47,1.29,1.68,2.26,2.65,3.3.25.27.53.44.91.49,1.16.15,2.31.23,3.52-.02.22.2.47.42.68.61.03.31-.39.39-.21.68.96-.01,1.02,1.05,1.72,1.31-.12.51-.27.86-.7,1-1.54-.43-3.13-.59-4.38-1.1-.56.1-.44.47-.67.58-.71-.37-1.55-.5-2.15-1.12-.28.58-.49,1.12-.6,1.78,3.77,3.39,7.82,6.43,12.27,9.33.38-1.93,2.21-2.62,3.25-4.05.91-1.24,2.38-2.13,3.59-3.2.76-.67,1.35-1.44,1.8-2.41.45-.94.53-1.95.9-2.9.28-.71.9-1.19,1.03-2,.08-.54.07-1.16.39-1.67.78-1.24.79-2.69,1.05-4.07.25-1.32.47-2.67,1.42-3.85-.18-1.06.54-2.09.47-3.31-1-.05-1.64-.74-2.31-1.32-1.16-1.01-1.89-2.56-3.59-2.84-.36-.16.32-.59-.2-.68-.75.19-.02.89-.39,1.17-.3.18-.45-.18-.74-.12-.47.66-1,1.34-1.5,1.54-1.77,2.14-3.66,3.78-5.21,5.94-.18-1.06-.85-1.46-1.65-1.78-.29-.12-.32-.44,0-.73.64.3,1.41.39,1.8,1.11.58-.54.65-1.51,1.17-1.93.86-.69,1.57-1.52,2.45-2.17,1.04-.77,1.88-1.73,2.66-2.8.14-.05.36.09.52-.12.03-.29-.44-.49-.19-.84.24-.32.72,0,.98-.43-.27-.37-.5-.81-.65-1.27-2.61-.95-3.5-3.25-4.46-5.53-.45.58-.43,1.19-.55,1.84-1.06.17-1.42,1.59-2.75,1.54.07-.48.28-.84.18-1.28-.18-.26-.38-.55-.58-.83-.52-.43-.94.04-1.43.28-.17-.65.31-.88.51-1.38.25.53.65.1.84.2.38.67,1.09.76,1.32,1.34.51-.34.16-.83.35-1.08,1.39-1.05,1.22-2.64,1.72-3.74-.16-.62-.65-.66-.81-1.13-.18-.24.31-.45.29-.55-.14-.53-.53-.67-.46-1.13.24-.5.75-.76,1.28-.86.51-1.88.68-3.74.95-5.59.11-.72.27-1.41.58-2.11.61-1.37,1.07-2.84-.14-4.24-.37.06-.77.05-1.13.09-.91.1-1.8.21-2.58.89-.85.74-1.38,1.75-1.7,2.66-.68,1.97-1.61,3.85-2.12,5.89-.44,1.77-1.39,3.36-1.86,5.13-.45,1.69-.97,3.37-1.5,5.21.56-.34.99-.58,1.37-.15.29.21-.07.57.31.79.57-.79,1.35-1.2,2.45-1.14-.15.92-.21,1.76-.9,2.27-.46-.04-.21-.6-.7-.54-.52.76-1.11,1.52-1.82,2.19-.3.28-.7.4-.96.77-.88,1.27-1.31,2.62-1.12,4.19.57.13.64.92,1.34.96.3-.39.38-.92.62-1.13-.11-.91-1.07-1.3-1.01-2.32.65.19.95.56,1.25.74.28.32-.07.73.33.91.5-.18.47-.87,1.02-.95.23-.05.28.46.58.18.09-.31-.38-.39-.29-.75.78-.66,1.39-1.57,2.34-2.23.02.61-.83,2.44-1.22,2.78-.33.29-.88.42-1.08.67-.63.77-1.6,1.33-1.81,2.42-.31.23-.62.45-1.01.73.38.35.75.71.44,1.23.71.73,1.57,1.16,2.14,1.91q.93-.9,1.1-1.78c-.9-.3-1.65-.9-2.47-1.34-.15-.08-.04-.29-.03-.45ZM182.89,135.8c5.25,4.79,10.77,9.3,15.45,14.43.44.02.58-.04.69-.17,1.05-1.34,1.79-2.88,2.79-4.26.69-.96,1.23-2.04,1.86-3.05.73-1.17,1.4-2.37,2.05-3.59.56-1.06.56-2.24,1.08-3.28-.66-1.82-2.5-2.04-3.75-2.89h-1.23c-.76.21-.53,1.08-1.14,1.44-.35-.34-.83-.26-1.29-.25-.56.02-1.06-.1-1.59-.31-1.16-.46-2.3-.9-3.15-1.9-.2-.24-.52-.49-.81-.7-2.48-1.85-5.1-3.53-7.17-5.88-.06-.07-.21-.05-.23-.06-1.77,3.3-3,6.75-3.55,10.49ZM125.42,91.42c-.44.68-1.16.59-1.79.47-1.98-.35-3.97-.37-5.97-.48-1.65,2.01-2.95,4.17-4.11,6.47-.93-.05-.5,1.06-1.17,1.47-3.05-.07-6.18-.66-9.46-.95,1.25,1.71,3.19,2.57,4.35,4.27-.84.12-1.6-.01-2.36-.09,0,.09,0,.19,0,.28h2.94c1.16,1.17,2.24,2.24,3.29,3.33,1.32,1.37,2.78,2.57,4.26,3.74.47.37,1.08.9,1.67.66.88-.37,1.83-.5,2.7-.97,1.51-.81,2.9-1.9,4.73-2.27.7-2.07.34-4.3.83-6.38-.67-.76-1.63-.21-2.47-.6,1.8-2.77,3.57-5.51,5.34-8.23-.07-.23-.22-.34-.47-.49-.52.76-1.24-.37-1.81.2-.16-.12-.09-.35-.45-.44ZM98.08,94.19c-.43-2.05-.85-4.07-1.28-6.09-.12-.57.03-1.28-.59-1.61-.52-.27-.58-.72-.66-1.17-.12-.7-.33-1.38-.29-2.32-.79,1.98-.95,3.85-1.65,5.77v.9c1.27,1.86,2.71,3.31,4.46,4.52ZM75.61,97.78c-.31.82-.03,1.65-.02,2.46.03,1.96.49,3.9.49,5.87,0,.77.35,1.36.99,1.82.72.51,1.52.84,2.57,1.32-.91-4.14-2.34-7.83-4.03-11.47ZM102.07,83.6c-.28-.28-.3-.51-.12-.7-.12-.13-.39-.07-.43-.31-.02-.24.33-.36.2-.66-.48-.09-.69-.59-.87-.69-1.37-.44-1.92.51-2.74,1.05.57.4-.25.9.14,1.36.65-.46.81.39,1.29.42-.16.26-.44.03-.57.28.59.51,1.3.33,1.97.34.1-.3-.32-.15-.28-.38.44-.23.89-.45,1.42-.73ZM109.97,81.21c.21.41.78.37.65.84.49.09.94-.07,1.43.15-.49.24-.94-.01-1.37.24.62.73,1.42.6,2.16.59.59-.17.5-.81.86-1.11-.16-.17-.48.06-.59-.27.27-.03.54-.07.86-.11-.58-.37-.54-.8-.21-1.33-.7.1-.87-.82-1.33-.76-.71.24-1.22.41-1.73.59-.03.27-.06.54-.09.81-.29.01-.46.17-.62.37ZM101.77,92.15c1.14.12,2.25-.06,3.34-.36-.06-.63-.1-.6-.92-1.74-.28-.39-.79-.63-1-.69-.94-.24-1.52.55-2.08,1.01-.25.48.35.94-.49,1.39.71-.19.77.37,1.15.39ZM81.59,113.62c-.09-.66-.47-1.06-1.05-1.23-.32-1.33-1.41-1.83-2.32-2.5-.24.18-.46.3-.45.53.76,1.2,2.11,1.89,2.53,3.32.37-.14.6.33.99.21.1-.11.21-.23.31-.33ZM138.11,65.58c.84.14,1.63.27,2.42,0h-2.42ZM167.41,70.51c-.76-.15-1.47-.26-2.18,0h2.18ZM69.03,203.32s-.03.08-.04.12h1.89s0-.08,0-.12h-1.85ZM148.67,159.7c-.66-.06-1.3-.19-1.92.04.65.13,1.3.13,1.92-.04ZM140.03,158.52c-.65-.11-1.3-.18-2.18,0,.89.18,1.54.11,2.18,0ZM184.45,153.26c.66.06,1.3.19,1.92-.04-.65-.13-1.3-.13-1.92.04ZM28.48,140.2s-.04.08-.05.12h1.91s0-.08,0-.12h-1.85ZM77.68,220.6s-.04.08-.06.12h1.91s0-.08,0-.12h-1.85ZM88.95,220.36s-.03.08-.04.12h1.89s0-.08,0-.12h-1.85ZM146.83,168.83c-.93-.15-1.58-.17-2.23.04.65.08,1.3.15,2.23-.04ZM28.21,170.04c.65.11,1.3.18,2.18,0-.89-.18-1.54-.11-2.18,0ZM151.06,181.78c-.65-.06-1.29-.19-2.2.06.93.11,1.58.1,2.2-.06ZM41.9,184.22c.65.06,1.29.19,2.2-.06-.93-.11-1.58-.1-2.2.06ZM192.41,121.53c-.34.11-.76-.46-1.12.13.43,0,.78.12,1.12-.13ZM164.28,68.53c-.37-.15-.79-.2-1.32,0,.5.17.88.11,1.32,0ZM140.16,93.04c-.2-.22-.31-.52-.71-.3,0,.45.28.4.71.3ZM62.35,117.3c.46.04.8.16,1.14-.1-.34-.04-.68-.17-1.14.1ZM61.08,127.32c-.29-.08-.63-.23-1.05,0,.38.17.69.11,1.05,0ZM35.63,176.72c-.34-.01-.68-.19-1.02.05.36.16.69.14,1.02-.05ZM150.34,185.8c.55.26.89.23,1.22,0h-1.22ZM115.1,211.36c.57.08.9.17,1.26-.06-.39-.15-.73-.15-1.26.06ZM102.51,92.54c.39.11.72.22,1.11-.08-.4-.06-.74-.14-1.11.08ZM73.63,174.59c.49.18.82.18,1.28,0-.44-.12-.77-.14-1.28,0ZM61.26,102.14c.3.13.57.19.85-.04-.3-.13-.57-.19-.85.04ZM164.03,70.49c.27,0,.53.17.78-.04-.27-.21-.54-.16-.78.04ZM114.3,207.5c.3.13.57.19.85-.04-.3-.13-.57-.19-.85.04ZM134.11,71.88c-.21-.18-.41-.17-.63,0,.21.18.41.17.63,0ZM141.34,93c-.27-.13-.46-.21-.63.02.2.15.38.13.63-.02ZM72.13,174.55c-.16.06-.39-.24-.53.09.19.12.37.13.53-.09ZM73.39,174.6c-.21-.17-.42-.17-.63,0,.21.17.42.17.63,0ZM110.88,123.49c-.02-.54-.07-.73-.46-.51.1.11.2.22.46.51ZM60.94,117.21c-.24-.1-.44-.17-.68.05.24.1.44.17.68-.05ZM62.06,117.2c-.17.04-.38-.24-.54.07.19.14.37.12.54-.07ZM149.02,185.87c-.27-.11-.46-.2-.63.04.21.13.38.14.63-.04ZM34.27,176.76c-.21-.17-.42-.17-.63,0,.21.17.42.17.63,0ZM102.2,92.52c-.18-.18-.29-.1-.4,0,.12.1.23.18.4,0ZM114.76,94.44c.18.18.29.1.4,0-.12-.1-.23-.18-.4,0Z"/>
    <path class="cls-2"
          d="M92.68,58.82c-.3-1.79-.58-3.58-.91-5.36-.1-.52,0-1.03-.1-1.54,1.91-.06,3.79-.3,5.69-.66.09-.23-.38-.05-.27-.39,1.04.2,2.08-.03,3.16-.05-.18-.4-.66.04-.79-.47h3.19c-.17-.41-.66.04-.77-.44,4.21.23,8.21-1.19,12.52-1.48.24-.62.88-.43,1.47-.44.28,0,.58.05.84-.02,1.43-.42,2.93-.53,4.38-.64,1.77-.13,3.52-.39,5.26-.6,2.83-.35,5.62-1.08,8.42-1.67.12-.03.21-.19.35-.31-.14-.07-.24-.12-.34-.17-.07.14-.17-.21-.04-.11.51-.18.53-.21.5-.75-1.66-.3-3.2.38-4.89.51.46.33.96-.03,1.43.38-6.53-.14-12.76,1.45-19.1,2.2h5.92c-.33.29-.58.21-.81.22-2.81.11-5.63-.14-8.45.22-2,.26-3.96.76-5.96,1.06-1.91.29-3.77.88-5.69,1.18-.66.1-1.35.01-1.97.22-1.46.5-3.03.48-4.49.95-.52-1.74-.81-3.52-.98-5.32,3.85-.77,7.72-1.39,11.68-1.5-.27-.38-.76.03-1.06-.39,2.77-.2,5.42-.73,7.97-1.22,4.46-.22,8.64-1.61,12.96-2.05-.72-.21-1.46,0-2.16-.3,4.49.26,8.79-.77,13.17-1.93.11-.2.27-.51.47-.89-.38-.05-.18-.5-.63-.63-2.72.66-5.61.94-8.46,1.47.01.1.02.19.04.29h4.55v.2h-7.08c.22.19.32.28.41.37-.41.36-.71-.23-1.09-.14-1.15.26-2.32.36-3.47.56-1.82.32-3.67.41-5.48.83-1.2.28-2.44.56-3.7.57.03.25.32.18.25.45-1.06,0-2.17-.18-3.19.04-2.08.45-4.18.71-6.27,1-2,.27-3.99.56-5.98.85-1.12.16-2.2.56-3.34.54-.28-1.81-.54-3.63-.85-5.44-.08-.43-.11-.85-.13-1.28.28-.3.65-.21,1-.27,1.84-.3,3.66-.64,5.5-.94,1.56-.26,3.11-.6,4.68-.69,1.15-.07,2.27-.24,3.33-.58.57-.18,1-.57,1.61-.2.03.02.13-.1.19-.1,1.81-.02,3.52-.79,4.47-.69,6.42-1.27,12.1-1.85,17.65-3.11.27.01.15-.4.47-.42.87.14,1.68-.06,2.47-.4-.32-.06-.64-.03-.96-.07-.3-.04-.66.17-.94-.16,1.78-.34,3.62.5,5.47-.36-.25-.15-.38-.22-.54-.32.25-.15.64-.15.63-.59-.6-.32-1.23-.65-1.88-.45-1.04.32-2.13.41-3.18.63-2.48.51-4.91,1.28-7.41,1.67-1.73.27-3.45.65-5.19.76-1.88.11-3.67.67-5.53.89-1.5.18-2.96.71-4.45.78-2.46.13-4.78.95-7.23,1.02,0,.08.01.16.02.24h3.18c-1.4.16-2.79.36-4.16.06-.48.35.31.45.12.74-.29-.12-.55.29-.84.03.04-.28.46-.3.42-.64-.03-.06-.05-.15-.09-.16-.14-.04-.16.07-.18.17-1.09-.09-2.12.34-3.45.28.66.37,1.18.04,1.57.39-.17.42-.42.31-.69.24-.92-.25-1.88-.07-2.8-.07-1.17,0-2.37.26-3.56.4-.68-2.24-1.01-4.54-1.34-6.85-.08-.54-.33-1.07-.21-1.65.26-1.26.93-2.24,2.1-2.73,1.38-.58,2.79-1.14,4.32-1.23,1.59-.1,3.12-.55,4.69-.79,2.15-.33,4.28-.77,6.43-1.14,2.26-.38,4.53-.69,6.78-1.14,2.13-.42,4.29-.74,6.45-1.01,1.69-.21,3.36-.59,5.05-.81,2.83-.36,5.63-.91,8.45-1.38.47-.08.95-.13,1.41-.25,2.38-.61,4.9-.26,7.26-.95,1.64-.48,3.34-.67,5-1.1,2.1-.54,4.29-.72,6.45-1.06,2.98-.47,5.96-1,8.95-1.37,1.88-.23,3.78-.68,5.68-.07,1.23.39,2.06,1.08,2.33,2.43.48,2.37.81,4.76,1.13,7.15.09.71.34,1.4.25,2.12-1.22,0-2.44.14-3.62.43-1.3.32-2.58.6-3.92.57-.4,0-.83-.08-1.19.05-2.31.83-4.73.87-6.99,1.21-1.6.74-3.32.43-4.84,1.01.21.29.63-.05.9.34.08.07-.14.33.2.5,1.35-.12,2.8.38,4.25-.11-.1-.25-.51.01-.54-.37h2.97c-.04-.46.25-.49.59-.49.84.01,1.69-.06,2.52.02,1.25.11,2.47-.23,3.55-.62,2.07-.75,4.2-.98,6.33-1.3.32,2.06.4,4.15.9,6.18.2.8-.13,1.67.28,2.45-1.67-.18-3.27.37-4.89.59-1.84.24-3.69.57-5.54.79-1.82.22-3.55.93-5.44.85-.42-.02-1.12-.07-1.46.24-.86.75-1.84.62-2.82.65-.55.01-1.14-.1-1.56.4.19.52.72.2,1.04.41-.37.14-.47.48-.59.82.77.14,1.45-.04,2.05-.5,0-.24-.42-.05-.27-.5,5.17.55,10.17-1.18,15.3-1.37v-.42c.5-.17.89.38,1.37.19.92-.36,1.93-.24,2.85-.54.43,1.18.5,2.44.66,3.66.12.93.41,1.86.3,2.82-.45.12-.9.09-1.31.04-.09-.18.17-.35-.09-.38-3.07.01-5.96,1.29-8.97,1.16-.17.27.34.18.06.52-1.69-.45-3.28.49-4.99.45-.46-.01-1.21.21-1.34.53-.29.71-.93.6-1.26.54-.98-.18-1.78.14-2.5.55-.51.09-.95-.09-1.38.15.5.27,1.04,0,1.56.19-.12.22-.21.44.19.41.27-.02.37.08.18.33-.25.32-.7-.02-1.03.36.46-.04.88.23,1.22-.19.78-.14,1.58-.23,2.16-1.04,4.08.47,8.05-.63,12.07-1.42h-3.81c1.44-.32,2.91-.31,4.32-.31,1.77,0,3.46-.15,5.16-.59,0,0-.03-.02-.03-.02.08.08.15.15.23.23.03.28.07.57.1.85.11.26-.21.6.14.82.24,1.78.48,3.57.71,5.35.18,1.44.35,2.88.5,4.32.08.78.4,1.54.25,2.34-3.7.34-7.34,1.17-11.26,1.55-.21.08-.58.34-1.08.4-1.69.2-3.39.34-5.05.85-.76.23-1.55.52-2.36.57-1.48.08-2.9.64-4.37.66-1.12.01-2.14.46-3.22.53-1.41.08-2.76.46-4.15.67-1.9.28-3.78.66-5.48.81-2.15-1.13-3.98.18-6.07.12-.25-.21-.79-.22-1.28-.12-1.81.36-3.66.55-5.43,1.16-1.36.47-2.83.49-4.22.79-2.62.56-5.27.94-7.9,1.42-1.6.29-3.22.3-4.8.87-1.4.51-2.96.65-4.47.75-1.53.1-3,.47-4.51.68-1.42.2-2.83.46-4.27.45-.44-2.46-.88-4.91-1.31-7.37-.04-.23-.05-.47-.08-.7.93-.39,1.92-.62,2.91-.69,1.72-.11,3.41-.43,5.07-.82,2.26-.54,4.58-.7,6.85-1.27,1.09-.27,2.3-.44,3.42-.66,2.04-.39,4.05-.89,6.13-1.01-.02-.11-.19-.25.21-.41,1.88.56,3.75-.66,5.95-.41-.51-.33-.98-.28-1.24-.77,3.77.64,7.29-.62,10.92-.93-.04-.19-.06-.3-.06-.33,1.48-.58,3.21-.37,4.45-1.4,0-.47-.32-.36-.41-.52.12-.08.25-.17.42-.28-1.7-.56-3.18.74-4.8.35-.38.34-.75.53-1.28.55-1.79.06-3.59.43-5.3.83-2.72.64-5.48.8-8.21,1.27-1.72.3-3.45.59-5.17.9-1.67.31-3.33.7-4.99,1.04-1.97.4-3.94.83-5.93,1.17-1.56.27-3.11.57-4.66.95-1.49.37-3.04.54-4.51,1.03ZM159,52.14s.03.08.05.12h3.57s0-.08,0-.12h-3.61ZM150.35,27.42v.24c.57-.03,1.14-.07,1.71-.1v-.14h-1.71ZM143.42,31.34c.65.06,1.29.19,2.2-.06-.93-.11-1.58-.1-2.2.06ZM164.99,45.24c-.65-.11-1.3-.18-2.18,0,.89.18,1.54.11,2.18,0ZM163.63,16.98c.46.04.8.16,1.14-.1-.34-.04-.68-.17-1.14.1ZM142.31,31.8c-.4-.17-.74-.17-1.2.01.47.14.8.16,1.2-.01ZM144.58,31.83c-.54-.2-.88-.21-1.26-.05.36.22.69.13,1.26.05ZM149.65,44.5c-.6-.1-.94-.18-1.29.03.37.17.7.14,1.29-.03ZM113.52,21.7c-.37-.11-.63-.24-.85.07.26.1.51.11.85-.07ZM161.52,16.94c.37.11.63.24.85-.07-.26-.1-.51-.11-.85.07ZM108.61,39.67c-.16.06-.39-.24-.53.09.19.12.37.13.53-.09ZM121.39,19.08c-.21-.17-.42-.17-.63,0,.21.17.42.17.63,0ZM135.86,57.99c.24.09.44.17.68-.05-.24-.09-.44-.17-.68.05ZM171.72,40.57c-.11.07-.11.15,0,.22.11-.07.11-.15,0-.22Z"/>
    <path class="cls-1"
          d="M118.82,114.26c-.62.26-1.29.2-1.93.31-.43.07-.86-.05-.66-.78.49.09.92.11,1.3-.49.68-1.07,1.97-1.45,2.99-2.13,1.42-.94,2.99-1.7,4.65-2.17.5-.14.64-.72,1.15-.75.39.23.22.76.58,1v-.02c.06.51.1,1.03.03,1.5-.72.48-1.04,1.2-1.14,1.94-.18,1.28-.7,2.42-1,3.05-.55,2.95.66,5.2.49,7.5.51.61,1.16.99,1.19,1.78-.19.05-.26-.24-.44-.05v.34c-.06.27-.48-.11-.49.26.03.19.16.23.32.2.16-.14-.08-.37.14-.49.39.22.31.5.09.78-.14.19-.36.31-.33.6.13,1.08.16,2.19.32,3.25.22,1.48.15,2.97.35,4.45.23,1.7.1,3.46.25,5.19.09,1.01.22,2.06.05,3.1-.16,1-.23,2.11-.12,3.03.11.95-.03,1.9-.02,2.81,0,.93-.02,1.91-.12,3.03.27-.39.45-.6.49-.93.16-1.19.76-2.27,1.18-3.36.37-.95.78-1.92,1.21-2.87.28-.62.46-1.29.76-1.89,1.05-2.14,1.85-4.38,2.8-6.56.76-1.75,1.03-3.7,1.62-5.53.43-1.34.71-2.69.84-4.08.13-1.36-.09-2.69-.55-3.93-.48-1.3-.97-2.59-2.03-3.66-.95-.96-1.8-2.12-2.26-3.39.17-.43.4-.61.77-.55,0,.31.2.25.39.22.43,1.37,1.54,2.29,2.38,3.34,1.17,1.47,1.58,3.2,2.21,4.84.64,1.68.75,3.51.73,5.3-.02,1.63-.05,3.3-.51,4.88-.66,2.22-.88,4.55-1.63,6.74-.42,1.23-.98,2.41-1.43,3.63-.86,2.34-1.57,4.73-2.49,7.05-.53,1.34-.73,2.81-1.26,4.18-.41,1.06-.85,2.12-1.19,3.22-.28.92-.56,1.84-.83,2.76-.58,1.95-1.51,3.78-1.95,5.78-.37,1.65-.95,3.26-1.48,4.85-.48,1.46-.87,3.01-1.69,4.35-.26.42-.02.88-.16,1.27-.62,1.7-.94,3.49-1.65,5.16-.82,1.91-1.14,3.98-1.74,5.95-.78,2.53-1.28,5.13-2.2,7.63-.5,1.35-.68,2.85-1.14,4.23-.42,1.28-.49,2.64-1.02,3.9-.37.86-.34,1.88-.85,2.74-.1.17-.05.47.02.55-1.34,3.28-2.14,6.7-3.7,10.15-.16-1.04-.42-1.84-.39-2.64.08-2.19-.28-4.35-.31-6.54-.03-1.81-.49-3.61-.9-5.39-.37-1.62-.7-3.25-1.04-4.87-.53-2.51-.59-5.08-1.26-7.58-.4-1.52-.58-3.13-.8-4.71-.15-1.09-.48-2.12-.81-3.13-.54-1.65-.74-3.37-1.14-5.04-.33-1.39-.97-2.68-1.25-4.1-.35-1.77-.77-3.55-1.44-5.21-.87-2.15-1.45-4.37-2.11-6.58-.35-1.15-1.08-2.13-1.42-3.26-.47-1.55-1.38-2.92-1.77-4.5-.27-1.09-.67-2.12-1.09-3.16-.18-.44-.44-.72-.7-1.05-.11-1.55-1.03-2.81-1.61-4.18-.22-.52-.43-1.07-.67-1.57-.72-1.53-1.09-3.2-2.04-4.64-.7-1.06-1-2.33-1.44-3.51-.23-.62-.5-1.21-.83-1.75-1.68-2.73-2.91-5.68-4.28-8.56-.99-2.08-1.77-4.27-3.03-6.21-.73-1.12-1.17-2.32-1.54-3.57-.12-.4-.29-.82-.55-1.14-.54-.65-.66-1.39-.64-2.19,0-.57.1-1.15-.22-1.72,1,.38,1.58,1.13,1.88,2.01.81,2.42,2.36,4.41,3.66,6.54.48.79.84,1.63,1.35,2.41.81,1.24,1.44,2.6,2.11,3.93,1.38,2.74,3.1,5.28,4.35,8.1,1.19,2.69,2.32,5.47,3.95,7.93,1.18,1.77,1.74,3.75,2.51,5.66,1.09,2.71,2.31,5.36,3.43,8.06.49,1.17.77,2.41,1.23,3.59.48,1.25.91,2.52,1.32,3.8.41,1.28.7,2.6,1.11,3.87.39,1.2.77,2.41,1.15,3.61.65,2.02.81,4.17,1.55,6.2.14-.25.27-.48.38-.69-.32-1.48-.5-2.94-.74-4.39-.33-1.95-.37-3.97-.98-5.85-.31-.96-.11-1.92-.41-2.88-.83-2.7-1.02-5.54-1.65-8.3-.59-2.57-1.17-5.18-1.41-7.8-.21-2.3-1.15-4.35-1.48-6.56-.18-1.2-.2-2.47-.58-3.6-.63-1.87-.86-3.83-1.58-5.68-.28-.73-.33-1.58-.5-2.38-.38-1.78-1.29-3.39-1.53-5.21-.03-.2-.28-.37-.43-.57.03-.75-.17-1.42-.43-2.15-.74-2.06-1.38-4.15-2.08-6.22-.69-2.05-1.51-4.09-1.96-6.25.2-.15.45-.14.62.05,2,2.23,4.6,3.74,6.78,5.77,1.1,1.03,2.39,1.86,3.65,2.7.65.43,1.25.95,1.83,1.44.98.83,1.82,1.84,3.16,2.14.26.05.09-.41.52-.4.81.64.48,1.91,1.31,2.7.79.75,1.61,1.48,2.37,2.13-.22,2.11-.33,4.14-.69,6.13-.28,1.53-.18,3.09-.59,4.64-.29,1.08-.36,2.33-.33,3.52.06,3.1-.26,6.19-.27,9.29-.01,3.76-.28,7.52-.21,11.29.02,1.37.19,2.76-.21,4.12-.09.3.21.55.23.89.13,1.81-.11,3.61,0,5.41.18,2.78.17,5.56.25,8.33.04,1.47.05,2.93-.02,4.39-.03.67-.15,1.42.08,2.01.45,1.15.08,2.33.31,3.5.21,1.09.01,2.34.14,3.47.29,2.48-.04,4.97.37,7.43.03.19.07.4.05.59-.16,1.99.32,3.95.35,5.96,1.25-4.71,2.43-9.43,3.72-14.13-.13-.29-.46-.07-.63-.28.21-.23.63-.04.83-.53.16-1.12.26-2.42.95-3.57.22-.37,0-.85.14-1.28,1.07-3.3,1.84-6.69,2.48-10.08.48-2.56,1.06-5.11,1.31-7.73.11-1.14.46-2.31.53-3.43.06-1.01.27-2.03.19-3.08-.08-1.04.02-2.11.14-3.17.16-1.4.24-2.84.27-4.26.04-1.96-.24-3.92-.16-5.87.04-.85-.09-1.67-.06-2.5.05-1.63-.08-3.27,0-4.9.07-1.35-.1-2.71-.31-4.01-.24-1.47-.87-2.92-1.83-4.18-.72-.94-1.43-1.92-1.96-3.08.62-.26,1.24-.43,1.95-.43-.42-.42-1.06.1-1.33-.53.2-.68.45-1.39.61-2.12.16-.76.56-1.15,1.34-1.15.32,0,.64,0,.95-.05.85-.15,1.48-.65,1.5-1.52.03-1.35.97-2.33,1.2-3.58.13-.34-.23-.44-.34-.69.39-.78-.1-1.5-.11-2.27-.2-.03-.35-.05-.58-.08.29-.56-.07-.85-.48-1.12-.07.14-.15.27-.23.42-.63-.72-1.61-1.03-2.06-1.92.23,0,.46.08.67-.08-.17-.21-.39-.25-.64-.31v.42ZM118.14,127.52c.15.26.29.53.68.28-.1-.49-.39-.37-.68-.28ZM126.32,152.43c.15-.32.34-.49.28-.77-.5.09-.35.38-.28.77Z"/>
    <path class="cls-1"
          d="M90.3,89.09c.74-.11.7-1.14,1.51-1.25.31.59-.15,1.25.17,1.84.64,1.19,1.4,2.3,2.16,3.41,1.32,1.93,3.36,3.1,4.84,4.82.99,1.15,2.32,1.86,3.32,2.91,1.16,1.22,2.52,2.24,3.59,3.58.9,1.13,2.22,1.93,3.36,2.88.15.13.31.25.45.38.78.7,1.59,1.38,2.39,2.04,1.09.9,2.4,1.76,2.91,3.23.13.37.94.28.58,1.02-.78-.53-1.73-.36-2.77-.57-.2.04-.33.46-.63.58-1.03.17-2.11-.26-3.09.48-.62,1.19-.91,2.58-1.45,4.09-1.96-1.95-4.27-3.16-6.07-5.03-.31-.32-.71-.61-1.1-.87-.57-.38-1.18-.66-1.56-1.31-.2-.34-.7-.45-1.07-.57-2.97-2.67-5.73-5.55-8.77-8.26-.05-.95-.42-1.94-.78-2.91-.44-1.16-.87-2.3-.98-3.56-.05-.57-.25-1.17-.36-1.75-.17-.86-.15-1.73.2-2.56.55-.58,1.1-1.15,1.65-1.73.29,0,.6.08.88-.06.08-.22.15-.43.22-.64.19.05.31-.03.4-.19Z"/>
    <path class="cls-2"
          d="M126.02,125.28v-.34c.18-.19.26.09.44.05-.02-.79-.68-1.17-1.19-1.78.17-2.3-1.04-4.55-.49-7.5.3-.62.82-1.77,1-3.05.11-.74.42-1.46,1.14-1.94.07-.47.04-.99-.02-1.5.77-.06.8.67,1.17,1.02.72.66.96,1.61,1.69,2.24.27.24.36.69.53,1.05-.35.25-.21.57-.15.98h1.14s-.03-.03-.03-.03c0,.09,0,.18,0,.26h.03c-.38-.07-.6.11-.77.54.46,1.27,1.31,2.43,2.26,3.39,1.06,1.07,1.55,2.36,2.03,3.66.46,1.24.68,2.57.55,3.93-.13,1.4-.41,2.74-.84,4.08-.59,1.83-.86,3.79-1.62,5.53-.95,2.18-1.75,4.42-2.8,6.56-.3.61-.48,1.27-.76,1.89-.42.95-.84,1.93-1.21,2.87-.42,1.09-1.02,2.17-1.18,3.36-.04.33-.23.55-.49.93.1-1.11.13-2.09.12-3.03,0-.91.12-1.86.02-2.81-.1-.93-.04-2.03.12-3.03.17-1.04.04-2.09-.05-3.1-.16-1.73-.02-3.49-.25-5.19-.2-1.48-.13-2.97-.35-4.45-.16-1.05-.19-2.16-.32-3.25-.03-.29.18-.42.33-.6.21-.28.3-.56-.09-.78l.03.03ZM127.33,114.49c.15.44.41.67.73.92.26-.59.69.27,1.02-.1-.2-.37-.65-.34-.87-.68-.04-.84-.36-1.66-.4-2.55-.65,1.23-1.66,2.29-1.54,3.85.28-.02.44-.03.68-.04-.04-.49.06-.94.38-1.39ZM125.82,117.89c.45-.17.93-.23.31-.73-.2.15-.41.27-.31.73ZM126.68,116.1c-.53.14-.47.41-.35.73.23-.12.41-.25.35-.73Z"/>
    <path class="cls-1"
          d="M94.3,68.3c1.44.01,2.85-.25,4.27-.45,1.5-.21,2.98-.58,4.51-.68,1.51-.1,3.07-.25,4.47-.75,1.58-.57,3.21-.58,4.8-.87,2.63-.48,5.28-.86,7.9-1.42,1.39-.3,2.87-.33,4.22-.79,1.77-.61,3.62-.8,5.43-1.16.49-.1,1.03-.09,1.28.12,2.09.06,3.92-1.24,6.07-.12,1.7-.15,3.58-.52,5.48-.81,1.38-.21,2.74-.59,4.15-.67,1.08-.06,2.1-.51,3.22-.53,1.47-.02,2.89-.58,4.37-.66.81-.05,1.6-.34,2.36-.57,1.66-.5,3.35-.64,5.05-.85.5-.06.87-.32,1.08-.4,3.93-.38,7.56-1.21,11.26-1.55.02.19.05.39.06.51-.12.28-.56.08-.49.47-.57-.19-1.06.2-1.61.24-1.86.12-3.67.62-5.51.9-1.23.19-2.46.43-3.7.5-1.33.08-2.58.56-3.9.65-1.63.11-3.18.89-4.87.65-.11-.02-.69.04-.57.54.08.03.16.1.22.09,1.95-.31,3.89-.66,5.85-.94,1.73-.25,3.48-.47,5.19-.79,2.09-.39,4.23-.58,6.27-1.18.87-.26,1.93.22,2.61-.68.19.02.37.04.56.06.13.22.13.45.13.68-.47.02-.91.08-1.38.19-2.38.57-4.8.93-7.22,1.26-1.46.2-2.89.53-4.33.84-.28.06-.55.13-.82.09-1.48-.18-2.84.45-4.27.63-.77.1-1.55.2-2.31.35-.54.11-.88-.23-1.21-.52-.68.27-.3.81-.39,1.15-3.79-.06-7.43.75-11.05,1.71-.15.04-.31.06-.47.06-2.18-.01-4.35.35-6.54.27-.99-.04-1.98.09-2.99,0-1.37-.13-2.69.34-4.04.57-.11.02-.22.11-.33.11-.68.01-1.36-.01-2.04.02-.6.03-.72.82-1.44.82-1.83-.02-3.56.62-5.36.9-1.36.21-2.74.37-4.09.77-1.1.33-2.29.52-3.44.58-1.31.06-2.52.51-3.82.6-1.82.13-3.62.6-5.43.87-1.92.29-3.86.48-5.75.95-.26.06-.55,0-.8,0-.51.71.12,1.3.09,1.93-.44,0-.32-.4-.35-.6-.15-1.03-.54-2.04-.41-3.11ZM131.21,63.16c.32.21.74.27,1.15,0h-1.15ZM143.76,62.02c-.37-.11-.63-.24-.85.07.26.1.51.11.85-.07ZM144.69,61.54c-.34-.1-.6-.23-.91.2.34-.13.6.05.91-.2ZM136.9,63.17c.42.2.61.28.83,0h-.83Z"/>
    <path class="cls-1"
          d="M153.04,104.17c-.2-.45-.18-.86.08-1.3.87-1.5,1.72-3.02,2.58-4.53.55-.97,1.15-1.91,1.65-2.9.19-.38.46-.6.78-.53,1.33.3,2.67-.01,3.99.17.07.23-.26.14-.23.42,2.4.08,4.82.03,7.21.29.04.25-.2.18-.29.28-.04.24.24.1.28.32-.18.38-.07,1.04-.79,1.11-.13,1.76-1.34,2.96-2.12,4.73.12,1.01.02,1.21-.99,1.5.58.3-.71.71.11,1.01-.24.29-.62,0-.89.27-.01.15-.03.34-.04.53-.3-.12-.68.17-.95-.17.23,0,.47.1.69-.07-.08-.24-.21-.41-.53-.43-.07.17-.43.17-.28.5-.23.1-.32-.09-.43-.23-.18,0-.22.3-.45.21-.15-.42-.42-.22-.66-.13-.26.06-.2-.28-.41-.3-.03.11-.06.22-.09.35-2.01-.23-4.05-.46-6.08-.69-.02.14-.19-.13-.05-.1.08.01.11-.17.04-.37-.7.47-1.42.41-2.13.05ZM164.51,104.58s0-.08,0-.12h-3.61s0,.08,0,.12h3.62ZM168.67,96.6c-.21-.18-.41-.17-.63,0,.21.18.41.17.63,0Z"/>
    <path class="cls-1"
          d="M153.6,79.42c2.35-.68,4.65-1.59,7.15-1.44.06-.45-.16-.59-.43-.69-1.05,1.06-2.31.12-3.59.35-.14-.04-.28-.28-.45-.49.07-.15.32-.04.36-.27-1.23-.09-1.53-1.31-2.33-1.94-1.79-1.42-3-3.42-4.86-4.98,2.91-.66,5.74-.89,8.48-1.53h4.52c-.37.37-.82.07-1.24.39,2.37,2.58,4.73,5.15,7.11,7.73.78-.05,1.58.19,2.33-.21l-.03-.04c.16.4-.2.48-.42.64.15.22.36.15.54.17-3.46.6-6.94.97-10.42,1.39-1.34.16-2.64.56-3.99.73-.91.11-1.82.22-2.74.19ZM160.13,75.8c-.25-.32.12-.78-.28-1.2.03.5-.13.89.28,1.2ZM163.74,74.78c.3.13.57.19.85-.04-.3-.13-.57-.19-.85.04Z"/>
    <path class="cls-1"
          d="M132.22,101.51c.18-.59.4-1.12.79-1.64,1.53-2.03,2.59-4.36,4.02-6.47.08-.12-.05-.32.1-.44,1.72-.53,1.42-.36,2.16.31,2.66.39,5.27.5,7.9.3.63-.05.77.51,1.15.99-.93-.14-1.75-.02-2.58.13.89.13,1.78.37,3.01.05-.53.44-.35,1-.99,1.16-.21.05-.24.67-.44.97-1.11,1.69-2.24,3.36-3.36,5.04-.17.25-.29.54-.43.81-1.6.17-3.2-.06-4.74-.36-1-.19-2.01-.11-2.99-.37-.21-.46-.45-.31-.69-.03-.98-.02-1.93-.31-2.89-.46ZM135.25,98.74c.87.15,1.76.18,2.65.03-.87-.21-1.75-.1-2.65-.03ZM142.6,96.11c.14.19.23.38.48.37.18-.23.36-.46.71-.53-.43-.18-.82-.35-1.18.16ZM147.54,93.92s-.06-.05-.08-.04c-.03.01-.09.06-.08.07.04.1.1.12.16.05.01-.02,0-.05,0-.08Z"/>
    <path class="cls-1"
          d="M134.8,82.09c.12-.19.31-.23.52-.22,1.75.09,3.47-.27,5.2-.46.74-.08,1.36-.73,2.2-.6-1.56-.1-3.1-.13-4.82.36-3.21-2.31-5.75-5.52-8.87-8.39,2.05-.22,3.9-.42,5.76-.62.05-.17-.2-.14-.37-.48,1.78.48,3.43-.02,5.09.1,3,2.55,5.52,5.6,8.59,8.27.7-.03,1.55-.48,2.47-.29-2.52.62-5.12.76-7.64,1.3-2.38.5-4.79.65-7.18,1.02-.31.05-.63.13-.94.01ZM143.31,80.65c.52-.06.86.19.96-.46-.3.14-.5.24-.96.46Z"/>
    <path class="cls-1"
          d="M92.68,58.82c1.47-.49,3.02-.66,4.51-1.03,1.54-.38,3.09-.68,4.66-.95,1.98-.34,3.95-.76,5.93-1.17,1.67-.34,3.32-.74,4.99-1.04,1.72-.32,3.45-.6,5.17-.9,2.73-.48,5.49-.63,8.21-1.27,1.71-.4,3.51-.77,5.3-.83.53-.02.9-.21,1.28-.55,1.62.39,3.1-.92,4.8-.35-.17.12-.29.2-.42.28.1.16.41.05.41.52-1.24,1.03-2.97.82-4.45,1.4,0,.04.03.15.06.33-3.62.32-7.14,1.57-10.92.93.26.5.74.44,1.24.77-2.2-.26-4.07.97-5.95.41-.4.16-.23.31-.21.41-2.08.11-4.09.62-6.13,1.01-1.13.22-2.34.39-3.42.66-2.26.57-4.58.73-6.85,1.27-1.65.39-3.35.71-5.07.82-.99.07-1.98.29-2.91.69l-.24-1.41ZM121.79,54.36c-.97-.09-1.93-.19-2.9,0,.97.19,1.93.09,2.9,0ZM116.74,54.87c-.54-.2-.88-.21-1.26-.05.36.22.69.13,1.26.05ZM117.34,54.36c-.27-.13-.46-.21-.63.02.2.15.38.13.63-.02Z"/>
    <path class="cls-1"
          d="M88.5,34.81c1.19-.14,2.39-.39,3.56-.4.92,0,1.88-.18,2.8.07.27.07.52.19.69-.24-.39-.35-.92-.02-1.57-.39,1.33.07,2.36-.36,3.45-.28.09,0,.18,0,.27,0,.04.33-.38.36-.42.64.29.26.56-.15.84-.03.19-.29-.59-.39-.12-.74,1.37.3,2.77.1,4.16-.06h-3.18c0-.08-.01-.16-.02-.24,2.45-.07,4.77-.89,7.23-1.02,1.49-.08,2.96-.6,4.45-.78,1.86-.23,3.65-.78,5.53-.89,1.74-.11,3.46-.49,5.19-.76,2.51-.39,4.93-1.16,7.41-1.67,1.05-.21,2.14-.31,3.18-.63.65-.2,1.29.12,1.88.45,0,.43-.38.44-.63.59.16.1.29.17.54.32-1.85.86-3.69.03-5.47.36.28.33.64.13.94.16.31.04.63,0,.96.07-.79.34-1.6.54-2.47.4-.32.01-.2.43-.47.42-5.55,1.26-11.23,1.84-17.65,3.11-.95-.1-2.66.68-4.47.69-.07,0-.16.12-.19.1-.61-.37-1.04.02-1.61.2-1.05.34-2.18.51-3.33.58-1.57.09-3.12.43-4.68.69-1.83.3-3.66.64-5.5.94-.35.06-.72-.03-1,.27-.28-.61-.27-1.28-.32-1.93ZM93.25,35.57c.64-.15,1.19.21,1.54-.59-.5.24-.98.05-1.54.59ZM100.33,34.23q-.6-.37-.97-.04c.27.21.57.14.97.04ZM103.15,33.48c-.21-.18-.41-.17-.63,0,.21.18.41.17.63,0Z"/>
    <path class="cls-1"
          d="M121.37,84.01c.09-.31-.35-.4-.2-.68-.45-.11-.54.26-.79.36-.38-.05-.3-.5-.55-.65-.29,0-.64-.11-.51.7-.35-.78-1.03-.8-1.17-1.37.6-.17,1.21.09,1.98-.25h-2.25c-.65-.53-.95-1.23-1.66-1.61-.57-.31-.62-1.12-.77-1.75-.26-1.08-.47-2.17-.6-3.48,1.12-.79,2.78-.23,4.12-1.13,1.33,1.11,2.67,2.26,3.94,3.5,1.2,1.17,2.44,2.31,3.7,3.42.71.63,1.48,1.2,2.07,1.95-2.43.35-4.82,1.02-7.3.98ZM124.01,83.15c-.35.19-.72-.7-1.09.09.39.06.74.1,1.09-.09ZM120.3,79.65c.1.36.39.29.69.54-.09-.62-.45-.47-.69-.54ZM119.53,79.07c.01.11.02.18.03.26.17.17.34.13.51,0-.06-.23-.13-.45-.54-.25ZM120.26,82.23c.24.08.44.17.68-.06-.24-.08-.44-.17-.68.06Z"/>
    <path class="cls-1"
          d="M91.22,50.67c1.46-.47,3.02-.46,4.49-.95.62-.21,1.31-.12,1.97-.22,1.93-.3,3.79-.89,5.69-1.18,2-.3,3.95-.8,5.96-1.06,2.81-.37,5.63-.11,8.45-.22.23,0,.48.07.81-.22h-5.92c6.34-.75,12.57-2.35,19.1-2.2-.47-.4-.97-.05-1.43-.38,1.69-.13,3.23-.81,4.89-.51.03.54,0,.58-.5.75-.12-.1-.03.26.04.11.1.05.2.1.34.17-.14.12-.23.29-.35.31-2.8.58-5.59,1.32-8.42,1.67-1.74.21-3.5.47-5.26.6-1.45.11-2.95.22-4.38.64-.26.08-.56.02-.84.02-.59.01-1.23-.17-1.47.44-4.31.29-8.3,1.71-12.52,1.48.11.48.6.03.77.44h-3.19c.13.51.62.07.79.47-1.08.01-2.12.24-3.16.05-.1.33.36.16.27.39-1.89.36-3.78.6-5.69.66-.15-.42-.3-.84-.45-1.25ZM132.1,44.82c.52-.42,1.29.36,1.84-.54-.69.3-1.37-.2-1.84.54Z"/>
    <path class="cls-1"
          d="M89.8,43.46c1.15.02,2.23-.38,3.34-.54,1.99-.29,3.99-.58,5.98-.85,2.09-.28,4.2-.55,6.27-1,1.03-.22,2.14-.04,3.19-.04.08-.27-.22-.2-.25-.45,1.26,0,2.5-.29,3.7-.57,1.81-.42,3.66-.51,5.48-.83,1.15-.2,2.32-.3,3.47-.56.39-.09.68.5,1.09.14-.1-.09-.2-.18-.41-.37h7.08v-.2h-4.55c-.01-.1-.02-.19-.04-.29,2.85-.53,5.75-.82,8.46-1.47.45.13.25.58.63.63-.2.38-.36.69-.47.89-4.38,1.16-8.68,2.19-13.17,1.93.7.3,1.45.09,2.16.3-4.32.44-8.5,1.83-12.96,2.05-2.55.49-5.2,1.02-7.97,1.22.3.42.79,0,1.06.39-3.96.11-7.83.74-11.68,1.5-.15-.63-.29-1.26-.44-1.89ZM108.15,42.18s0-.07,0-.11h-3.38s0,.07,0,.11h3.38ZM102.78,42.92c-.55-.24-1.2-.25-1.85,0h1.85Z"/>
    <path class="cls-1"
          d="M152.22,45.45c.19-.24.1-.35-.18-.33-.4.03-.31-.2-.19-.41-.52-.19-1.06.08-1.56-.19.43-.24.87-.06,1.38-.15.71-.4,1.51-.73,2.5-.55.33.06.97.17,1.26-.54.13-.31.88-.54,1.34-.53,1.71.04,3.3-.9,4.99-.45.28-.34-.22-.25-.06-.52,3.01.13,5.9-1.15,8.97-1.16.26.03,0,.19.09.38.41.05.86.08,1.31-.04.44.36-.09.91.24,1.29-1.69.43-3.39.59-5.16.59-1.42,0-2.88,0-4.32.31h3.81c-4.02.79-7.99,1.89-12.07,1.42-.58.81-1.38.9-2.16,1.04-.06-.06-.13-.11-.19-.17ZM159.6,43.07c.36.18.62.18.91,0-.29-.16-.54-.14-.91,0ZM154.98,44.26c-.3-.13-.57-.19-.85.04.3.13.57.19.85-.04ZM160.86,43.58c.3.13.57.19.85-.04-.3-.13-.57-.19-.85.04ZM158.02,43.01c.17.07.39.36.57,0h-.57ZM162.14,43.15c-.17-.07-.39-.36-.57,0h.57Z"/>
    <path class="cls-1"
          d="M171.12,34.49c-.93.3-1.94.18-2.85.54-.48.19-.87-.36-1.37-.19v.42c-5.13.19-10.13,1.93-15.3,1.37-.15.45.28.26.27.5-.6.46-1.28.65-2.05.5.12-.35.22-.68.59-.82-.32-.22-.85.1-1.04-.41.42-.5,1.01-.39,1.56-.4.98-.02,1.97.11,2.82-.65.35-.3,1.04-.26,1.46-.24,1.88.08,3.62-.62,5.44-.85,1.84-.23,3.7-.55,5.54-.79,1.62-.21,3.22-.77,4.89-.59-.39.35.21.67.04,1.01-.33.13-.33.21,0,.51v.09Z"/>
    <path class="cls-1"
          d="M169.91,24.25c-2.13.33-4.26.56-6.33,1.3-1.09.39-2.31.73-3.55.62-.83-.07-1.68,0-2.52-.02-.34,0-.64.02-.59.49h-2.97c.03.38.44.12.54.37-1.45.49-2.9-.01-4.25.11-.34-.17-.12-.43-.2-.5-.27-.39-.68-.05-.9-.34,1.52-.58,3.24-.27,4.84-1.01,2.26-.34,4.69-.38,6.99-1.21.36-.13.79-.06,1.19-.05,1.34.03,2.62-.26,3.92-.57,1.18-.29,2.39-.43,3.62-.43.17.4.23.82.23,1.25ZM168.26,23.64c.27.13.46.21.63-.02-.2-.15-.38-.13-.63.02ZM153.86,26.28c.27.13.46.21.63-.02-.2-.15-.38-.13-.63.02ZM152.93,26.76c.21.18.41.17.63,0-.21-.18-.41-.17-.63,0Z"/>
    <path class="cls-1"
          d="M170.65,76.34c1.11-.6,2.3-.51,3.54-.47.02.18.04.32.06.47h0c-.3.11-.72-.26-.94.22-.6.33-1.29.3-1.93.45-.25-.23-.51-.46-.76-.69l.03.04Z"/>
    <path class="cls-1" d="M131.29,114.5h-1.14c-.06-.4-.2-.72.15-.98.29.37.85.46.99.98Z"/>
    <path class="cls-1" d="M167.79,105.96c.54.08,1.11-.34,1.63.09-.55.11-1.08-.25-1.63-.09Z"/>
    <path class="cls-1" d="M119.99,84.46c.02-.11.03-.23.05-.36.35-.2.75.01,1.11-.07-.39.14-.78.29-1.17.43Z"/>
    <path class="cls-2" d="M89.9,89.28c-.07.21-.14.42-.22.64-.28.15-.58.06-.88.06.37-.23.63-.63,1.09-.71Z"/>
    <path class="cls-2"
          d="M170.62,76.3c.25.23.51.46.76.69-.21.04-.43.08-.64.11-.18-.02-.39.05-.54-.17.22-.16.58-.24.42-.64Z"/>
    <path class="cls-2"
          d="M163.31,105.38c-.15-.33.21-.33.28-.5.32.02.45.19.53.43-.22.17-.46.07-.69.07l-.06-.04-.06.04Z"/>
    <path class="cls-1" d="M152.17,79.65c.29-.42.69-.02,1.02-.13-.34.04-.68.09-1.02.13Z"/>
    <path class="cls-1" d="M26.88,124.04c.28.12.62-.08.9.17-.37.19-.75.09-1.13.07,0-.15.11-.21.23-.25Z"/>
    <path class="cls-1" d="M112.99,89c-.14-.01-.29.08-.4-.08-.08-.35.22-.41.41-.55-.16.21-.09.42-.01.63Z"/>
    <path class="cls-1" d="M150.96,79.66c.31-.33.62-.28.93-.01-.31,0-.62,0-.93.01Z"/>
    <path class="cls-1" d="M172.76,44.14c-.34-.22-.02-.56-.14-.82.05.27.09.55.14.82Z"/>
    <path class="cls-2" d="M173.31,76.55c.22-.48.64-.11.94-.23-.25.33-.62.17-.94.23Z"/>
    <path class="cls-1" d="M160.81,197.07c.32.05.7-.24.94.19-.32-.05-.69.22-.94-.19Z"/>
    <path class="cls-1" d="M175.88,76.08c.21-.45.59-.1.88-.18-.28.13-.57.22-.88.18Z"/>
    <path class="cls-2" d="M135.11,101.97c.25-.27.48-.43.69.03-.23-.01-.46-.02-.69-.03Z"/>
    <path class="cls-2" d="M161.77,105.23c.25-.09.52-.3.66.13-.11.03-.23.06-.34.09h.05c-.13-.08-.25-.15-.38-.22Z"/>
    <path class="cls-1" d="M94.34,78.49c.34.23.4.46,0,.68v-.68Z"/>
    <path class="cls-1" d="M150.97,192.99c.25.02.55-.2.7.19-.24-.03-.55.18-.7-.19Z"/>
    <path class="cls-1" d="M176.64,197.8c-.11-.04-.17-.11-.16-.25h.63c-.05.28-.31.17-.47.25Z"/>
    <path class="cls-1" d="M68.18,217.47c.31-.05.62-.07.84.22-.27-.1-.65.19-.84-.22Z"/>
    <path class="cls-1" d="M105.61,228.75c.25.02.55-.2.7.19-.24-.03-.55.18-.7-.19Z"/>
    <path class="cls-1" d="M185.53,117.15c.21-.03.44-.11.44.24-.19,0-.38,0-.44-.24Z"/>
    <path class="cls-1" d="M113.98,87.37c.05-.23.21-.22.38-.19-.13.06-.26.13-.38.19Z"/>
    <path class="cls-2" d="M171.13,34.4c-.34-.3-.34-.38,0-.51,0,.17,0,.34,0,.51Z"/>
    <path class="cls-1" d="M95.05,72.72c.1.03.2.06.17.2-.06-.07-.11-.13-.17-.2Z"/>
    <path class="cls-1"
          d="M95.04,71.98c.06.04.12.08.28.2-.12.06-.21.11-.3.17-.03-.06-.06-.12-.09-.19.04-.06.08-.12.12-.17Z"/>
    <path class="cls-1" d="M118.08,85.66c.03-.11.09-.19.22-.2.01.16-.11.17-.22.2Z"/>
    <path class="cls-1" d="M162.15,105.45h-.05s.05,0,.05,0Z"/>
    <path class="cls-1" d="M172.53,42.47c-.08-.08-.15-.15-.23-.23.23-.08.2.11.23.23Z"/>
    <path class="cls-1" d="M131.27,114.73c0-.09,0-.18,0-.26.06.02.12.05.2.08-.07.07-.13.12-.19.18Z"/>
    <path class="cls-1" d="M118.57,85.42c.06-.06.12-.12.17-.18-.06.06-.12.12-.17.18Z"/>
    <path class="cls-1" d="M143.5,102.7c.07.07.14.13.21.2-.07-.07-.14-.13-.21-.2Z"/>
    <path class="cls-1" d="M113.81,87.56c.07-.07.14-.14.21-.21-.07.07-.14.14-.21.21Z"/>
    <path class="cls-1"
          d="M193.65,104.13c.21-1.09,1.17-1.65,1.81-2.42.2-.25.75-.38,1.08-.67.39-.34,1.24-2.17,1.22-2.78-.95.66-1.57,1.56-2.34,2.23-.09.37.38.44.29.75-.3.28-.35-.23-.58-.18-.55.08-.52.78-1.02.95-.4-.17-.05-.59-.33-.91-.29-.17-.6-.55-1.25-.74-.06,1.02.9,1.41,1.01,2.32-.24.21-.32.75-.62,1.13-.71-.05-.77-.83-1.34-.96-.19-1.57.23-2.92,1.12-4.19.26-.37.66-.49.96-.77.71-.67,1.31-1.43,1.82-2.19.49-.06.24.5.7.54.69-.51.75-1.35.9-2.27-1.1-.06-1.88.35-2.45,1.14-.38-.22-.02-.58-.31-.79-.39-.42-.81-.19-1.37.15.53-1.84,1.05-3.52,1.5-5.21.47-1.77,1.43-3.36,1.86-5.13.5-2.04,1.44-3.92,2.12-5.89.31-.92.84-1.92,1.7-2.66.78-.68,1.68-.79,2.58-.89.36-.04.76-.04,1.13-.09,1.2,1.4.75,2.87.14,4.24-.31.7-.48,1.39-.58,2.11-.27,1.84-.44,3.7-.95,5.59-.54.09-1.04.35-1.28.86-.07.46.32.61.46,1.13.02.1-.47.3-.29.55.17.48.65.51.81,1.13-.49,1.1-.32,2.69-1.72,3.74-.18.25.17.74-.35,1.08-.22-.58-.94-.67-1.32-1.34-.19-.11-.58.32-.84-.2-.2.5-.67.73-.51,1.38.48-.24.91-.71,1.43-.28.2.29.4.58.58.83.1.43-.11.8-.18,1.28,1.33.05,1.69-1.37,2.75-1.54.12-.64.1-1.26.55-1.84.95,2.28,1.85,4.58,4.46,5.53.15.46.38.9.65,1.27-.26.43-.75.11-.98.43-.25.35.21.55.19.84-.16.21-.38.08-.52.12-.78,1.07-1.62,2.03-2.66,2.8-.88.65-1.59,1.48-2.45,2.17-.52.42-.59,1.39-1.17,1.93-.4-.71-1.17-.81-1.8-1.11-.31.3-.28.62,0,.73.79.32,1.47.71,1.65,1.78,1.55-2.16,3.43-3.8,5.21-5.94.51-.2,1.03-.88,1.5-1.54.3-.06.44.3.74.12.37-.28-.36-.98.39-1.17.52.08-.15.51.2.68,1.7.27,2.43,1.83,3.59,2.84.67.58,1.31,1.27,2.31,1.32.07,1.22-.65,2.25-.47,3.31-.95,1.17-1.16,2.53-1.42,3.85-.27,1.38-.27,2.83-1.05,4.07-.32.51-.31,1.13-.39,1.67-.13.82-.75,1.3-1.03,2-.37.95-.46,1.96-.9,2.9-.46.97-1.04,1.74-1.8,2.41-1.21,1.06-2.69,1.96-3.59,3.2-1.05,1.43-2.87,2.12-3.25,4.05-4.45-2.9-8.5-5.95-12.27-9.33.11-.66.32-1.19.6-1.78.6.62,1.43.74,2.15,1.12.23-.11.11-.48.67-.58,1.25.52,2.84.67,4.38,1.1.43-.14.59-.49.7-1-.7-.26-.76-1.32-1.72-1.31-.18-.29.25-.37.21-.68-.21-.19-.46-.41-.68-.61-1.21.25-2.36.17-3.52.02-.38-.05-.66-.22-.91-.49-.97-1.05-2.18-2.01-2.65-3.3-.35-.96-1.04-1.65-1.35-2.56-.42-1.24-.82-2.47-.99-3.8-.16-1.27-.24-2.6-.91-3.76.32-1.1.31-1.17-.16-1.89.09-2.39-.11-4.7-.12-6.92.28-.68.74-1.04,1.31-1.26.75-.29,1.28-.89,1.92-1.33.72-.5,1.47-.96,2.45-.59.83,1.1,2.05,1.9,2.87,3.13-1.68.49-1.31,2.14-2.07,3.16-.37-.2-.74-.41-1.09-.6-.28.01-.35.21-.44.38,1.2,1.81,2.92,3.33,3.09,5.72.02.31-.33.45-.45.81.17.3.36.64.59,1.04.51-.3.6-.76.59-1.29.45.29-.12.33.12.61.71.4,1.28,1.1,1.69,1.95,2.13.45,2.39,2.61,3.9,3.9.2-.03.75.23,1.11-.38.36.13.45.59.83.63.39-.12.44-.54.69-.78.45.03.78.41,1.37.35,2.02-.77,2.46-2.97,3.79-4.5.2.5.68.41,1.16.26.26-.53-.31-.61-.37-.77-.1-.62.77-.72.32-1.37-.29.24-.7.18-1.14.22-1.21,1.69-2.27,3.51-4.19,4.59-.87-.84-1.52.8-2.51.35-.8-.83-1.43-1.93-2.41-2.73.15-.78.82-1.1,1.3-1.74-.59-.92,1.04-1.79.23-2.88-1.02,0-.77,1.07-1.4,1.42-.26-.34-.3-1.08-1.03-.74-.15-.37-.58-.47-.78-.84-.22-.42-.62-.47-.99-.09-.06-.1-.12-.2-.17-.3ZM201.68,100.51c-1.45,1.16-3.34,1.72-3.93,3.7.38.17.69.32.97.44.43-.22.31-.76.71-.92.15.05.29.09.36.11.36-.97.6-1.9,1.82-2.19.52-.12.79-.64.08-1.14Z"/>
    <path class="cls-1"
          d="M182.89,135.8c.55-3.75,1.79-7.19,3.55-10.49.01,0,.17-.01.23.06,2.07,2.35,4.69,4.03,7.17,5.88.29.22.61.47.81.7.85,1,1.99,1.45,3.15,1.9.53.21,1.03.33,1.59.31.46-.01.94-.09,1.29.25.61-.36.38-1.23,1.14-1.44h1.23c1.25.85,3.09,1.08,3.75,2.89-.52,1.04-.51,2.22-1.08,3.28-.65,1.22-1.32,2.43-2.05,3.59-.63,1.01-1.17,2.09-1.86,3.05-1,1.38-1.73,2.93-2.79,4.26-.11.14-.25.19-.69.17-4.68-5.13-10.2-9.64-15.45-14.43Z"/>
    <path class="cls-1"
          d="M125.42,91.42c.37.09.3.31.45.44.57-.58,1.29.55,1.81-.2.25.15.4.27.47.49-1.77,2.72-3.54,5.46-5.34,8.23.85.4,1.8-.16,2.47.6-.49,2.08-.13,4.31-.83,6.38-1.83.36-3.22,1.45-4.73,2.27-.87.46-1.81.6-2.7.97-.59.25-1.19-.28-1.67-.66-1.48-1.17-2.94-2.38-4.26-3.74-1.05-1.09-2.13-2.16-3.29-3.33h-2.94c0-.09,0-.19,0-.28.76.08,1.52.21,2.36.09-1.16-1.7-3.1-2.56-4.35-4.27,3.28.3,6.41.88,9.46.95.67-.42.24-1.53,1.17-1.47,1.16-2.3,2.47-4.47,4.11-6.47,2.01.11,4,.13,5.97.48.64.11,1.36.2,1.79-.47ZM120.57,93.37q0,.4.35.32c-.12-.11-.23-.21-.35-.32Z"/>
    <path class="cls-1"
          d="M98.08,94.19c-1.75-1.21-3.19-2.66-4.46-4.52v-.9c.7-1.92.86-3.79,1.65-5.77-.04.94.17,1.62.29,2.32.08.45.14.9.66,1.17.62.33.47,1.04.59,1.61.43,2.02.85,4.04,1.28,6.09Z"/>
    <path class="cls-1"
          d="M75.61,97.78c1.69,3.64,3.12,7.33,4.03,11.47-1.05-.49-1.85-.81-2.57-1.32-.64-.46-.99-1.05-.99-1.82,0-1.97-.46-3.91-.49-5.87-.01-.81-.29-1.63.02-2.46Z"/>
    <path class="cls-1"
          d="M102.07,83.6c-.53.27-.97.5-1.42.73-.04.23.39.08.28.38-.67,0-1.37.18-1.97-.34.13-.25.41-.01.57-.28-.48-.03-.64-.88-1.29-.42-.38-.46.43-.96-.14-1.36.82-.55,1.37-1.5,2.74-1.05.18.1.39.59.87.69.14.3-.22.42-.2.66.04.24.31.17.43.31-.19.19-.16.41.12.7Z"/>
    <path class="cls-1"
          d="M109.97,81.21c.16-.19.33-.36.62-.37.03-.27.06-.54.09-.81.52-.17,1.02-.34,1.73-.59.46-.05.63.86,1.33.76-.33.53-.36.96.21,1.33-.32.04-.58.07-.86.11.11.33.44.1.59.27-.36.3-.27.94-.86,1.11-.73.01-1.54.14-2.16-.59.43-.25.88,0,1.37-.24-.49-.22-.94-.06-1.43-.15.13-.48-.44-.43-.65-.84ZM112.05,81.7c-.39-.11-.72-.22-1.11.08.4.06.74.14,1.11-.08Z"/>
    <path class="cls-1"
          d="M101.77,92.15c-.38-.03-.44-.58-1.15-.39.84-.44.25-.91.49-1.39.55-.46,1.14-1.24,2.08-1.01.21.05.72.3,1,.69.82,1.14.86,1.11.92,1.74-1.09.3-2.2.48-3.34.36ZM104.84,91.3s-.05-.06-.08-.08c-.03.03-.06.05-.08.08.04.03.08.06.12.08.01-.03.03-.05.04-.08Z"/>
    <path class="cls-1"
          d="M193.82,104.43c-.01.15-.12.37.03.45.83.45,1.57,1.04,2.47,1.34q-.17.88-1.1,1.78c-.57-.75-1.43-1.18-2.14-1.91.32-.52-.06-.88-.44-1.23.38-.28.69-.51,1.01-.73.06.1.12.2.17.3Z"/>
    <path class="cls-1"
          d="M81.59,113.62c-.1.11-.21.22-.31.33-.39.12-.63-.36-.99-.21-.42-1.43-1.77-2.12-2.53-3.32,0-.24.21-.35.45-.53.91.67,2,1.18,2.32,2.5.58.17.96.57,1.05,1.23Z"/>
    <path class="cls-1" d="M138.11,65.58h2.42c-.79.27-1.58.14-2.42,0Z"/>
    <path class="cls-1" d="M167.41,70.51h-2.18c.71-.26,1.42-.15,2.18,0Z"/>
    <path class="cls-1" d="M69.03,203.32h1.85s0,.08,0,.12h-1.89s.03-.08.04-.12Z"/>
    <path class="cls-1" d="M148.67,159.7c-.62.17-1.27.17-1.92.04.63-.23,1.27-.11,1.92-.04Z"/>
    <path class="cls-1" d="M140.03,158.52c-.65.12-1.3.18-2.18,0,.88-.19,1.53-.11,2.18,0Z"/>
    <path class="cls-1" d="M184.45,153.26c.62-.17,1.27-.17,1.92-.04-.63.23-1.27.11-1.92.04Z"/>
    <path class="cls-1" d="M28.48,140.2h1.85s0,.08,0,.12h-1.91s.04-.08.05-.12Z"/>
    <path class="cls-1" d="M77.68,220.6h1.85s0,.08,0,.12h-1.91s.04-.08.06-.12Z"/>
    <path class="cls-1" d="M88.95,220.36h1.85s0,.08,0,.12h-1.89s.03-.08.04-.12Z"/>
    <path class="cls-1" d="M146.83,168.83c-.93.19-1.58.12-2.23.04.65-.21,1.3-.19,2.23-.04Z"/>
    <path class="cls-1" d="M28.21,170.04c.65-.12,1.3-.18,2.18,0-.88.19-1.53.11-2.18,0Z"/>
    <path class="cls-1" d="M151.06,181.78c-.62.16-1.27.17-2.2.06.91-.25,1.55-.12,2.2-.06Z"/>
    <path class="cls-1" d="M41.9,184.22c.62-.16,1.27-.17,2.2-.06-.91.25-1.55.12-2.2.06Z"/>
    <path class="cls-1" d="M192.41,121.53c-.34.25-.69.14-1.12.13.37-.58.79-.02,1.12-.13Z"/>
    <path class="cls-1" d="M164.28,68.53c-.44.11-.82.17-1.32,0,.53-.2.95-.14,1.32,0Z"/>
    <path class="cls-1" d="M140.16,93.04c-.42.1-.71.15-.71-.3.4-.22.5.07.71.3Z"/>
    <path class="cls-1" d="M62.35,117.3c.46-.27.8-.13,1.14-.1-.33.25-.67.13-1.14.1Z"/>
    <path class="cls-1" d="M61.08,127.32c-.36.12-.67.18-1.05,0,.41-.24.76-.09,1.05,0Z"/>
    <path class="cls-1" d="M35.63,176.72c-.33.19-.67.22-1.02.05.34-.25.68-.07,1.02-.05Z"/>
    <path class="cls-1" d="M150.34,185.8h1.22c-.34.23-.67.26-1.22,0Z"/>
    <path class="cls-1" d="M115.1,211.36c.53-.21.87-.21,1.26-.06-.36.22-.69.13-1.26.06Z"/>
    <path class="cls-1" d="M102.51,92.54c.37-.22.7-.14,1.11-.08-.38.3-.72.19-1.11.08Z"/>
    <path class="cls-1" d="M73.63,174.59c.52-.15.84-.13,1.28,0-.46.19-.8.19-1.28,0Z"/>
    <path class="cls-1" d="M61.26,102.14c.28-.22.55-.17.85-.04-.28.22-.55.17-.85.04Z"/>
    <path class="cls-1" d="M164.03,70.49c.24-.2.51-.25.78-.04-.25.22-.51.05-.78.04Z"/>
    <path class="cls-1" d="M114.3,207.5c.28-.22.55-.17.85-.04-.28.22-.55.17-.85.04Z"/>
    <path class="cls-1" d="M134.11,71.88c-.21.16-.42.17-.63,0,.21-.16.42-.17.63,0Z"/>
    <path class="cls-1" d="M141.34,93c-.26.15-.43.17-.63.02.18-.23.36-.15.63-.02Z"/>
    <path class="cls-1" d="M72.13,174.55c-.16.21-.34.21-.53.09.15-.33.37-.03.53-.09Z"/>
    <path class="cls-1" d="M73.39,174.6c-.21.17-.42.17-.63,0,.21-.17.42-.17.63,0Z"/>
    <path class="cls-1" d="M110.88,123.49c-.26-.29-.36-.39-.46-.51.39-.22.45-.03.46.51Z"/>
    <path class="cls-1" d="M60.94,117.21c-.24.22-.45.15-.68.05.24-.22.45-.15.68-.05Z"/>
    <path class="cls-1" d="M62.06,117.2c-.17.2-.35.21-.54.07.16-.31.37-.03.54-.07Z"/>
    <path class="cls-1" d="M149.02,185.87c-.25.17-.42.17-.63.04.17-.24.36-.15.63-.04Z"/>
    <path class="cls-1" d="M34.27,176.76c-.21.17-.42.17-.63,0,.21-.17.42-.17.63,0Z"/>
    <path class="cls-1" d="M102.2,92.52c-.17.19-.29.1-.4,0,.11-.11.23-.18.4,0Z"/>
    <path class="cls-1" d="M114.76,94.44c.17-.19.29-.1.4,0-.11.11-.23.18-.4,0Z"/>
    <path class="cls-1" d="M159,52.14h3.61s0,.08,0,.12h-3.57s-.03-.08-.05-.12Z"/>
    <path class="cls-1" d="M150.35,27.42h1.71v.14c-.57.03-1.14.07-1.72.1v-.24Z"/>
    <path class="cls-1" d="M143.42,31.34c.62-.16,1.27-.17,2.2-.06-.91.25-1.55.12-2.2.06Z"/>
    <path class="cls-1" d="M164.99,45.24c-.65.12-1.3.18-2.18,0,.88-.19,1.53-.11,2.18,0Z"/>
    <path class="cls-1" d="M152.42,45.62c-.34.42-.76.15-1.22.19.32-.38.77-.04,1.03-.36.06.06.13.11.19.17Z"/>
    <path class="cls-1" d="M163.63,16.98c.46-.27.8-.13,1.14-.1-.33.25-.67.13-1.14.1Z"/>
    <path class="cls-1" d="M142.31,31.8c-.4.18-.73.15-1.2.01.46-.18.8-.18,1.2-.01Z"/>
    <path class="cls-1" d="M144.58,31.83c-.57.09-.9.17-1.26-.05.38-.16.72-.15,1.26.05Z"/>
    <path class="cls-1" d="M149.65,44.5c-.59.17-.92.2-1.29.03.35-.21.69-.14,1.29-.03Z"/>
    <path class="cls-1" d="M113.52,21.7c-.34.18-.59.17-.85.07.22-.31.48-.18.85-.07Z"/>
    <path class="cls-1" d="M161.52,16.94c.34-.18.59-.17.85-.07-.22.31-.48.18-.85.07Z"/>
    <path class="cls-1" d="M108.61,39.67c-.16.21-.34.21-.53.09.15-.33.37-.03.53-.09Z"/>
    <path class="cls-1" d="M121.39,19.08c-.21.17-.42.17-.63,0,.21-.17.42-.17.63,0Z"/>
    <path class="cls-1" d="M135.86,57.99c.24-.22.45-.15.68-.05-.24.22-.44.15-.68.05Z"/>
    <path class="cls-1" d="M97.42,33.58c.02-.1.05-.21.18-.17.04.01.06.11.09.16-.09,0-.18,0-.27,0Z"/>
    <path class="cls-2" d="M118.14,127.52c.29-.09.59-.21.68.28-.4.24-.53-.02-.68-.28Z"/>
    <path class="cls-2" d="M125.99,125.25c-.22.12.02.35-.14.49-.16.03-.29,0-.32-.2,0-.37.42,0,.49-.26l-.03-.03Z"/>
    <path class="cls-2" d="M126.32,152.43c-.07-.39-.22-.67.28-.77.05.28-.13.45-.28.77Z"/>
    <path class="cls-2" d="M118.82,114.26v-.42c.25.06.47.11.64.31-.21.16-.45.07-.67.08l.03.03Z"/>
    <path class="cls-1"
          d="M127.33,114.49c-.32.45-.42.9-.38,1.39-.25.02-.4.03-.68.04-.12-1.55.89-2.62,1.54-3.85.04.89.36,1.72.4,2.55.22.34.67.31.87.68-.33.37-.76-.5-1.02.1-.32-.25-.58-.48-.73-.92Z"/>
    <path class="cls-1" d="M125.82,117.89c-.1-.47.11-.59.31-.73.62.51.14.56-.31.73Z"/>
    <path class="cls-1" d="M126.68,116.1c.06.48-.13.61-.35.73-.12-.32-.18-.59.35-.73Z"/>
    <path class="cls-2"
          d="M173.77,57.11c-.68.9-1.74.43-2.61.68-2.04.6-4.18.79-6.27,1.18-1.71.32-3.45.55-5.19.79-1.95.28-3.9.63-5.85.94-.07.01-.14-.05-.22-.09-.13-.51.46-.56.57-.54,1.69.24,3.23-.54,4.87-.65,1.32-.09,2.57-.57,3.9-.65,1.24-.07,2.47-.31,3.7-.5,1.84-.28,3.65-.78,5.51-.9.55-.04,1.03-.43,1.61-.24l-.02-.02Z"/>
    <path class="cls-2" d="M131.21,63.16h1.15c-.41.27-.83.21-1.15,0Z"/>
    <path class="cls-2" d="M143.76,62.02c-.34.18-.59.17-.85.07.22-.31.48-.18.85-.07Z"/>
    <path class="cls-2" d="M144.69,61.54c-.31.25-.56.07-.91.2.31-.43.57-.3.91-.2Z"/>
    <path class="cls-2" d="M136.9,63.17h.83c-.22.28-.41.2-.83,0Z"/>
    <path class="cls-2" d="M164.51,104.58h-3.62s0-.08,0-.12h3.61s0,.08,0,.12Z"/>
    <path class="cls-2" d="M168.67,96.6c-.21.16-.42.17-.63,0,.21-.16.42-.17.63,0Z"/>
    <path class="cls-2" d="M160.13,75.8c-.41-.3-.25-.7-.28-1.2.4.42.03.88.28,1.2Z"/>
    <path class="cls-2" d="M163.74,74.78c.28-.22.55-.17.85-.04-.28.22-.55.17-.85.04Z"/>
    <path class="cls-2" d="M135.25,98.74c.89-.07,1.77-.18,2.65.03-.89.14-1.78.12-2.65-.03Z"/>
    <path class="cls-2" d="M142.6,96.11c.37-.51.75-.34,1.18-.16-.34.07-.53.3-.71.53-.24,0-.33-.18-.48-.37Z"/>
    <path class="cls-2" d="M147.54,93.92s.01.06,0,.08c-.05.07-.11.05-.16-.05,0-.01.05-.06.08-.07.02,0,.05.02.08.04Z"/>
    <path class="cls-2" d="M143.31,80.65c.45-.22.66-.32.96-.46-.1.66-.44.41-.96.46Z"/>
    <path class="cls-2" d="M121.79,54.36c-.97.09-1.94.19-2.9,0,.97-.19,1.94-.09,2.9,0Z"/>
    <path class="cls-2" d="M116.74,54.87c-.57.09-.9.17-1.26-.05.38-.16.72-.15,1.26.05Z"/>
    <path class="cls-2" d="M117.34,54.36c-.26.15-.43.17-.63.02.18-.23.36-.15.63-.02Z"/>
    <path class="cls-2" d="M93.25,35.57c.57-.54,1.04-.35,1.54-.59-.35.8-.91.44-1.54.59Z"/>
    <path class="cls-2" d="M100.33,34.23c-.4.1-.69.17-.97-.04q.36-.33.97.04Z"/>
    <path class="cls-2" d="M103.15,33.48c-.21.16-.42.17-.63,0,.21-.16.42-.17.63,0Z"/>
    <path class="cls-2" d="M124.01,83.15c-.35.18-.7.14-1.09.09.37-.78.74.11,1.09-.09Z"/>
    <path class="cls-2" d="M120.3,79.65c.24.07.6-.08.69.54-.3-.24-.59-.17-.69-.54Z"/>
    <path class="cls-2" d="M119.53,79.07c.41-.2.48.02.54.25-.17.14-.34.17-.51,0,0-.07-.02-.15-.03-.26Z"/>
    <path class="cls-2" d="M120.26,82.23c.24-.23.44-.15.68-.06-.24.23-.44.15-.68.06Z"/>
    <path class="cls-2" d="M132.1,44.82c.46-.73,1.14-.24,1.84-.54-.55.9-1.31.12-1.84.54Z"/>
    <path class="cls-2" d="M108.15,42.18h-3.38s0-.07,0-.11h3.38s0,.07,0,.11Z"/>
    <path class="cls-2" d="M102.78,42.92h-1.85c.65-.25,1.3-.24,1.85,0Z"/>
    <path class="cls-2" d="M159.6,43.07c.37-.14.62-.16.91,0-.29.18-.55.17-.91,0Z"/>
    <path class="cls-2" d="M154.98,44.26c-.28.22-.55.17-.85.04.28-.22.55-.17.85-.04Z"/>
    <path class="cls-2" d="M160.86,43.58c.28-.22.55-.17.85-.04-.28.22-.55.17-.85.04Z"/>
    <path class="cls-2" d="M158.02,43.01h.57c-.18.36-.39.07-.57,0Z"/>
    <path class="cls-2" d="M162.14,43.15h-.57c.18-.36.39-.07.57,0Z"/>
    <path class="cls-2" d="M168.26,23.64c.26-.15.43-.17.63-.02-.18.23-.36.15-.63.02Z"/>
    <path class="cls-2" d="M153.86,26.28c.26-.15.43-.17.63-.02-.18.23-.36.15-.63.02Z"/>
    <path class="cls-2" d="M152.93,26.76c.21-.16.42-.17.63,0-.21.16-.42.17-.63,0Z"/>
    <path class="cls-2"
          d="M201.68,100.51c.71.5.44,1.02-.08,1.14-1.22.29-1.47,1.22-1.82,2.19-.07-.02-.21-.07-.36-.11-.39.16-.28.71-.71.92-.27-.13-.59-.27-.97-.44.59-1.98,2.48-2.54,3.93-3.7Z"/>
    <path class="cls-2" d="M120.57,93.37c.12.11.23.21.35.32q-.35.08-.35-.32Z"/>
    <path class="cls-2" d="M112.05,81.7c-.37.22-.7.14-1.11.08.38-.3.72-.19,1.11-.08Z"/>
    <path class="cls-2"
          d="M104.84,91.3s-.03.05-.04.08c-.04-.03-.08-.06-.12-.08.03-.03.06-.05.08-.08.03.03.05.06.08.08Z"/>
</svg>