<?xml version="1.0" encoding="UTF-8"?>
<svg id="cinesplain_text_logo_Image" data-name="cinesplain_text_logo Image" xmlns="http://www.w3.org/2000/svg"
     width="474.72" height="72.27" viewBox="0 0 474.72 72.27">
  <defs>
    <style>
      .cls-1 {
      fill: #b3179c;
      }

      .cls-1, .cls-2, .cls-3, .cls-4, .cls-5, .cls-6, .cls-7, .cls-8 {
      stroke-width: 0px;
      }

      .cls-2 {
      fill: #3e36c7;
      }

      .cls-3 {
      fill: #390ca0;
      }

      .cls-4 {
      fill: #060609;
      }

      .cls-5 {
      fill: #4793ed;
      }

      .cls-6 {
      fill: #000000ee;
      }

      .cls-7 {
      fill: #f52584;
      }

      .cls-8 {
      fill: #4bc7ee;
      }
    </style>
  </defs>
  <path class="cls-6"
        d="M.24,10.8c35.88-.02,71.76-.03,107.64-.06,6.4,0,12.8-.08,19.2-.05,42.88.24,85.75.04,128.63.08.87,0,1.13.17,1.13,1.1-.03,16.4-.04,32.8,0,49.2,0,1.2-.57,1.1-1.36,1.1-65.32,0-130.64,0-195.96,0-19.76,0-39.52,0-59.28,0V10.8ZM35.02,58.56h0c7.12,0,14.24.01,21.36,0,3.14,0,5.63-1.29,7.4-3.92.55-.82.81-1.67.8-2.68-.03-10.16-.06-20.32.02-30.47.01-1.71-.56-3.02-1.62-4.21-1.69-1.9-3.84-2.85-6.36-2.86-14.36-.02-28.72-.02-43.07,0-4.9,0-8.45,3.61-8.46,8.51-.01,9.04,0,18.08,0,27.12,0,.93.1,1.83.37,2.72,1.05,3.44,4.23,5.77,8.09,5.79,7.16.04,14.32.01,21.48.01ZM96.7,14.31s0,.06,0,.09c-6.2,0-12.4,0-18.59,0-2.33,0-4.4.68-6.12,2.3-1.43,1.34-2.19,2.88-2.17,4.95.08,10.04.06,20.07.01,30.11,0,1.38.43,2.49,1.24,3.51,1.64,2.05,3.79,3.24,6.41,3.25,12.72.04,25.43.05,38.15,0,3.05-.01,5.4-1.52,7.03-4.12.33-.52.48-1.06.48-1.69-.01-10.84-.01-21.67,0-32.51,0-.58-.13-1.09-.43-1.58-1.87-3.12-4.67-4.37-8.25-4.33-5.92.07-11.84.02-17.75.02ZM222.04,58.56h0c7.24,0,14.47.04,21.71-.02,4.77-.04,8.26-3.55,8.28-8.27.04-9.19.04-18.39,0-27.58-.02-4.62-3.6-8.25-8.2-8.26-14.51-.04-29.02-.04-43.53,0-2.96,0-5.27,1.4-6.95,3.83-.42.61-.62,1.25-.62,2.01.02,10.83.02,21.67,0,32.5,0,.76.18,1.4.61,2.01,1.77,2.5,4.18,3.77,7.23,3.78,7.16.02,14.31,0,21.47,0ZM157.93,14.41c-7.16,0-14.31,0-21.47,0-2.92,0-5.23,1.23-7.03,3.5-.59.75-.85,1.55-.85,2.53.03,10.44.08,20.87-.03,31.3-.02,2.1.8,3.49,2.24,4.74,1.5,1.3,3.26,2.05,5.25,2.05,14.55.02,29.11.03,43.66,0,2.77,0,4.98-1.27,6.65-3.48.6-.79.87-1.63.87-2.65-.03-10.4-.07-20.79.02-31.19.02-2.03-.76-3.43-2.15-4.68-1.65-1.48-3.62-2.14-5.82-2.14-7.12,0-14.23,0-21.35,0Z"/>
  <path class="cls-6"
        d="M.24.72c85.02,0,170.05,0,255.07.02.48,0,1.17-.38,1.47.31.34.79-.08,2.61-.61,2.98-.97.68-1,2.16-.07,2.88.55.43,1,2.19.68,2.72-.07.11-.25.19-.38.2-.28.03-.56.01-.84.01-84.86,0-169.73,0-254.59,0-.24,0-.48,0-.72,0v-2.64c1.06-.08,1.77-.61,1.79-1.7.02-1.13-.74-1.59-1.79-1.66V.72ZM75.01,7.19c1.11,0,1.75-.67,1.73-1.8-.01-1.12-.69-1.79-1.79-1.76-1.05.03-1.65.66-1.67,1.75-.02,1.15.61,1.81,1.72,1.81ZM104.71,7.19c1.12.03,1.77-.62,1.78-1.75.01-1.14-.63-1.81-1.73-1.81-1.06,0-1.67.61-1.71,1.71-.04,1.15.57,1.83,1.67,1.86ZM51,3.76c-1.11,0-1.72.58-1.74,1.67-.02,1.13.64,1.79,1.78,1.76,1.08-.02,1.69-.66,1.68-1.74,0-1.1-.6-1.68-1.72-1.69ZM60.57,3.76c-1.12,0-1.71.59-1.72,1.69,0,1.09.61,1.72,1.69,1.74,1.14.02,1.8-.63,1.78-1.77-.02-1.09-.62-1.66-1.75-1.66ZM81.65,5.37c-.02-1.17-.63-1.78-1.77-1.74-1.05.04-1.63.67-1.64,1.77,0,1.16.61,1.8,1.73,1.79,1.13,0,1.69-.62,1.68-1.82ZM86.72,5.42c0-1.15-.55-1.76-1.63-1.79-1.11-.03-1.79.64-1.79,1.78,0,1.15.65,1.81,1.78,1.78,1.08-.02,1.64-.62,1.64-1.77ZM88.52,5.41c0,1.2.57,1.8,1.72,1.78,1.08-.01,1.66-.6,1.68-1.71.03-1.17-.57-1.83-1.67-1.85-1.13-.02-1.73.59-1.73,1.78ZM98.33,5.44c0,1.18.6,1.78,1.75,1.75,1.06-.03,1.64-.64,1.66-1.75.01-1.15-.61-1.81-1.72-1.82-1.12,0-1.7.62-1.69,1.82ZM133.57,7.19c1.07,0,1.72-.64,1.73-1.7,0-1.01-.84-1.9-1.78-1.86-.91.03-1.66.87-1.67,1.85,0,1.06.64,1.71,1.71,1.71ZM12.42,5.5c.02-1.11-.56-1.71-1.66-1.74-1.18-.03-1.79.57-1.78,1.73.01,1.09.63,1.7,1.72,1.7,1.09,0,1.71-.61,1.73-1.69ZM111.4,5.44c0-1.2-.56-1.81-1.69-1.81-1.11,0-1.72.65-1.7,1.82.01,1.12.57,1.72,1.65,1.74,1.15.03,1.74-.56,1.74-1.75ZM155.66,5.52c.02-.98-.72-1.83-1.63-1.88-.94-.05-1.8.81-1.81,1.83-.01,1.06.63,1.71,1.7,1.73,1.08.01,1.73-.6,1.74-1.67ZM199.38,5.42c-.03-1.1-.62-1.67-1.74-1.66-1.15,0-1.76.65-1.7,1.81.05,1.08.69,1.65,1.79,1.62,1.07-.03,1.68-.68,1.65-1.77ZM249.28,5.49c.02-1.1-.56-1.7-1.67-1.73-1.13-.02-1.74.53-1.78,1.62-.05,1.13.6,1.81,1.73,1.81,1.09,0,1.7-.61,1.72-1.7ZM173.91,7.19c1.07-.02,1.7-.68,1.68-1.74-.02-.98-.8-1.81-1.7-1.82-.94,0-1.77.89-1.74,1.9.03,1.06.69,1.68,1.77,1.66ZM159.48,7.19c1.08-.02,1.67-.65,1.65-1.75-.02-1-.78-1.81-1.69-1.81-.94,0-1.75.89-1.73,1.91.03,1.06.69,1.67,1.77,1.65ZM70.13,7.19c1.02-.03,1.76-.85,1.71-1.88-.05-.9-.83-1.68-1.69-1.68-1.07,0-1.75.74-1.72,1.85.03,1.1.67,1.74,1.7,1.71ZM185.18,5.43c0-.89-.89-1.81-1.74-1.8-.88,0-1.68.86-1.7,1.82-.02,1.05.67,1.76,1.69,1.73.96-.02,1.75-.82,1.75-1.76ZM36.57,3.77c-1.13,0-1.72.55-1.75,1.65-.03,1.13.63,1.79,1.76,1.77,1.1-.02,1.67-.61,1.66-1.73,0-1.14-.54-1.69-1.68-1.69ZM225.21,5.43c-.01-1.13-.56-1.67-1.71-1.66-1.12,0-1.71.57-1.72,1.67-.01,1.13.65,1.78,1.79,1.75,1.09-.03,1.65-.63,1.64-1.76ZM170.62,5.49c0-1.03-.82-1.9-1.77-1.86-.9.03-1.62.86-1.62,1.86,0,1.11.59,1.7,1.68,1.7,1.07,0,1.71-.64,1.71-1.7ZM31.16,3.77c-1.14-.04-1.75.48-1.82,1.56-.07,1.13.56,1.83,1.67,1.86,1.1.02,1.71-.55,1.75-1.65.04-1.14-.49-1.73-1.59-1.77ZM20.68,3.77c-1.11.01-1.69.6-1.69,1.7,0,1.09.61,1.7,1.7,1.72,1.15.01,1.75-.61,1.72-1.79-.03-1.13-.58-1.65-1.73-1.63ZM93.59,5.44c0,1.14.6,1.76,1.65,1.75.97-.01,1.73-.77,1.74-1.75.01-1.01-.8-1.84-1.8-1.81-1.04.02-1.6.66-1.59,1.81ZM117.6,5.4c0,1.13.58,1.78,1.61,1.79,1.01,0,1.79-.8,1.77-1.82-.02-.96-.8-1.73-1.75-1.74-1.02,0-1.63.65-1.63,1.77ZM164.21,7.19c1.09-.02,1.67-.62,1.65-1.73-.01-1.01-.75-1.81-1.66-1.83-.95-.02-1.74.85-1.73,1.89.01,1.08.64,1.68,1.73,1.67ZM114.35,3.63c-1.04.02-1.59.65-1.58,1.81,0,1.15.59,1.76,1.64,1.75,1.01-.02,1.8-.86,1.75-1.87-.05-.95-.86-1.71-1.81-1.7ZM138.42,3.63c-.87.01-1.7.91-1.69,1.83,0,.97.77,1.73,1.75,1.73,1.02,0,1.69-.71,1.66-1.76-.03-.97-.83-1.81-1.72-1.8ZM209.36,5.53c.03-1.16-.49-1.72-1.6-1.76-1.18-.03-1.81.56-1.8,1.7,0,1.09.61,1.7,1.69,1.72,1.11.01,1.69-.55,1.72-1.66ZM47.82,5.5c.01-1.16-.5-1.71-1.62-1.73-1.17-.02-1.79.58-1.78,1.73.02,1.09.62,1.69,1.71,1.69,1.11,0,1.67-.56,1.68-1.69ZM233.11,3.77c-1.12,0-1.71.56-1.73,1.65-.02,1.13.63,1.79,1.76,1.77,1.1-.02,1.64-.6,1.64-1.73,0-1.15-.53-1.68-1.66-1.69ZM180.3,5.43c0-.92-.84-1.8-1.72-1.8-.9,0-1.67.83-1.69,1.82-.02,1.07.64,1.75,1.68,1.74.98-.02,1.73-.78,1.73-1.75ZM238.01,3.77c-1,0-1.8.77-1.78,1.71.01.94.83,1.71,1.81,1.7,1.04,0,1.67-.7,1.63-1.8-.03-1.06-.62-1.63-1.66-1.62ZM150.48,5.45c0-.9-.84-1.8-1.71-1.82-.9-.02-1.66.8-1.68,1.8-.02,1.12.58,1.77,1.63,1.75.96-.01,1.76-.8,1.76-1.74ZM218.08,7.19c1.01.01,1.62-.6,1.66-1.64.04-1.13-.54-1.77-1.62-1.78-1,0-1.81.73-1.82,1.68,0,.93.8,1.73,1.78,1.74ZM211.16,5.5c.01,1.13.58,1.69,1.69,1.69,1.14,0,1.75-.64,1.71-1.81-.04-1.09-.63-1.63-1.77-1.61-1.13.02-1.64.57-1.63,1.73ZM253.96,5.44c0-1.14-.55-1.67-1.68-1.67-1.12,0-1.7.57-1.71,1.67-.01,1.15.63,1.78,1.77,1.75,1.09-.03,1.63-.61,1.62-1.75ZM57.42,5.49c0-1.15-.52-1.7-1.64-1.72-1.13-.02-1.73.53-1.76,1.63-.04,1.15.59,1.8,1.73,1.8,1.11,0,1.67-.58,1.68-1.71ZM244.38,5.61c.06-1.18-.43-1.77-1.52-1.83-1.2-.07-1.85.49-1.88,1.62-.04,1.11.53,1.75,1.61,1.8,1.12.05,1.74-.49,1.8-1.58ZM24.2,5.5c.01,1.13.58,1.69,1.69,1.69,1.1,0,1.69-.59,1.7-1.69.01-1.16-.59-1.75-1.77-1.73-1.12.02-1.64.57-1.62,1.73ZM7.52,5.5c.02-.99-.71-1.72-1.74-1.73-1.05,0-1.63.55-1.67,1.61-.04,1.1.58,1.79,1.62,1.81,1,.02,1.78-.72,1.8-1.69ZM17.33,5.52c.02-1.17-.49-1.72-1.61-1.75-1.18-.03-1.8.55-1.79,1.71,0,1.11.59,1.7,1.69,1.71,1.12.01,1.69-.55,1.71-1.67ZM228.33,7.19c.97-.02,1.77-.82,1.75-1.76-.02-.95-.83-1.68-1.83-1.66-1.03.02-1.59.6-1.6,1.67,0,1.1.64,1.77,1.68,1.74ZM204.29,5.42c-.02-1.14-.56-1.66-1.71-1.65-1.12,0-1.69.58-1.69,1.69,0,1.15.64,1.77,1.79,1.73,1.1-.04,1.63-.62,1.61-1.77ZM145.2,5.52c.02-.99-.71-1.84-1.61-1.89-.87-.04-1.74.8-1.78,1.73-.04,1.01.76,1.83,1.77,1.82.99,0,1.6-.63,1.62-1.66ZM42.99,5.51c.01-1.15-.53-1.73-1.61-1.74-1.01,0-1.77.71-1.79,1.66-.02.95.74,1.72,1.72,1.76,1.07.04,1.67-.57,1.69-1.68ZM130.32,5.57c-.01-1.04-.79-1.96-1.55-1.92-.94.04-1.74.89-1.71,1.81.03.89,1.03,1.82,1.93,1.7.94-.13,1.31-.79,1.32-1.59ZM191.26,5.47c0,1,.66,1.72,1.58,1.72.87,0,1.64-.79,1.65-1.69.01-.89-.68-1.68-1.48-1.7-1-.03-1.75.69-1.75,1.68ZM66.38,5.4c0-.89-.62-1.59-1.53-1.54-.99.05-1.21.78-1.24,1.59-.03,1.01.61,1.79,1.42,1.7.98-.1,1.29-.81,1.34-1.75ZM189.02,5.44c-.02-.91-.69-1.7-1.43-1.56-.85.16-1.05.88-1.09,1.62-.04.93.64,1.75,1.34,1.62.91-.16,1.14-.87,1.17-1.68ZM124.81,5.45c.03-.97-.47-1.55-1.41-1.57-1.01-.02-1.03.81-1.05,1.54-.02.89.27,1.69,1.27,1.67.91-.02,1.19-.81,1.19-1.64Z"/>
  <path class="cls-6"
        d="M.24,63.36c35.88-.02,71.75-.03,107.63-.06,6.44,0,12.88-.09,19.32-.05,42.83.24,85.66.04,128.49.09.82,0,1.27.08,1.15,1.07-.1.87.15,1.72-.91,2.34-.75.44-.79,1.64-.1,2.1,1.25.83.96,1.93.99,3.03,0,.12,0,.24,0,.36-85.08,0-170.16,0-255.24.03-1.13,0-1.54-.22-1.33-1.35.08-.43.01-.88.01-1.32,1.12-.08,1.8-.7,1.8-1.8,0-1.1-.68-1.72-1.8-1.8v-2.64ZM104.71,69.67c1.15.02,1.75-.58,1.77-1.77.02-1.18-.59-1.87-1.68-1.89-1.11-.02-1.75.62-1.77,1.79-.03,1.2.56,1.85,1.68,1.87ZM76.74,67.8c-.03-1.16-.67-1.82-1.78-1.79-1.09.02-1.7.71-1.68,1.89.03,1.2.62,1.79,1.77,1.77,1.12-.02,1.71-.67,1.68-1.87ZM249.28,67.81c0-1.15-.64-1.81-1.75-1.8-1.06,0-1.67.62-1.71,1.72-.04,1.15.59,1.84,1.69,1.86,1.12.02,1.77-.63,1.77-1.78ZM86.73,67.9c.02-1.22-.54-1.87-1.65-1.89-1.11-.02-1.75.63-1.77,1.79-.02,1.2.56,1.84,1.68,1.87,1.16.02,1.73-.55,1.75-1.77ZM10.7,69.59c1.1,0,1.74-.67,1.72-1.82-.02-1.15-.67-1.79-1.79-1.76-1.06.03-1.65.65-1.66,1.76-.01,1.16.61,1.82,1.72,1.82ZM225.21,67.77c-.01-1.18-.62-1.79-1.76-1.76-1.06.03-1.65.64-1.67,1.76-.02,1.16.6,1.82,1.72,1.82,1.13,0,1.72-.63,1.71-1.82ZM209.37,67.74c-.02-1.17-.65-1.78-1.79-1.73-1.05.04-1.63.67-1.63,1.78,0,1.15.63,1.81,1.75,1.79,1.12-.01,1.7-.65,1.68-1.85ZM199.38,67.8c0-1.15-.65-1.8-1.76-1.79-1.07.01-1.66.62-1.69,1.73-.03,1.16.59,1.83,1.69,1.85,1.11.01,1.75-.65,1.75-1.79ZM60.55,69.59c1.12.02,1.77-.64,1.78-1.78,0-1.11-.59-1.75-1.64-1.8-1.13-.05-1.8.58-1.83,1.72-.04,1.15.59,1.84,1.7,1.86ZM52.72,67.82c.01-1.15-.63-1.82-1.74-1.81-1.07,0-1.68.61-1.72,1.71-.04,1.15.58,1.85,1.67,1.87,1.12.03,1.77-.62,1.78-1.77ZM38.25,67.84c.02-1.19-.57-1.83-1.69-1.83-1.12,0-1.74.65-1.74,1.81,0,1.11.59,1.74,1.65,1.77,1.14.04,1.76-.57,1.78-1.75ZM22.41,67.77c-.01-1.18-.62-1.79-1.76-1.76-1.06.03-1.65.65-1.66,1.76-.01,1.16.61,1.82,1.72,1.82,1.13,0,1.71-.63,1.7-1.82ZM98.33,67.88c0,1.23.56,1.8,1.72,1.79,1.13-.02,1.7-.64,1.68-1.85-.02-1.18-.64-1.82-1.75-1.81-1.12.02-1.66.63-1.66,1.87ZM108,67.87c0,1.21.58,1.81,1.73,1.8,1.15,0,1.68-.59,1.67-1.84,0-1.23-.57-1.83-1.71-1.82-1.11.01-1.69.65-1.69,1.86ZM91.92,67.85c0-1.2-.59-1.84-1.71-1.84-1.13,0-1.69.61-1.69,1.84,0,1.24.54,1.82,1.69,1.82,1.14,0,1.71-.6,1.71-1.82ZM81.65,67.9c.02-1.24-.53-1.86-1.64-1.89-1.12-.02-1.74.61-1.76,1.79-.02,1.22.54,1.85,1.66,1.87,1.16.02,1.72-.55,1.74-1.77ZM31.04,66.01c-1.09,0-1.73.69-1.71,1.83.02,1.14.67,1.78,1.79,1.75,1.06-.03,1.63-.64,1.64-1.77,0-1.17-.6-1.81-1.72-1.81ZM57.42,67.8c0-1.2-.59-1.8-1.73-1.79-1.07.02-1.66.62-1.68,1.73-.03,1.17.58,1.83,1.69,1.85,1.14.01,1.72-.59,1.72-1.79ZM204.29,67.85c.02-1.22-.54-1.83-1.67-1.84-1.12,0-1.73.63-1.73,1.8,0,1.12.57,1.74,1.64,1.78,1.15.04,1.75-.55,1.76-1.74ZM234.78,67.83c.01-1.2-.56-1.82-1.69-1.82-1.1,0-1.73.66-1.72,1.82.01,1.1.6,1.73,1.66,1.76,1.14.03,1.73-.57,1.75-1.76ZM244.38,67.75c-.02-1.18-.63-1.78-1.78-1.74-1.06.04-1.63.67-1.63,1.78,0,1.16.62,1.81,1.74,1.79,1.13-.01,1.69-.63,1.67-1.84ZM253.96,67.81c0-1.21-.57-1.81-1.71-1.8-1.11.01-1.71.67-1.68,1.84.02,1.11.61,1.72,1.67,1.74,1.14.02,1.71-.58,1.72-1.78ZM17.33,67.79c0-1.2-.58-1.8-1.73-1.78-1.07.02-1.65.62-1.67,1.74-.02,1.18.57,1.83,1.69,1.84,1.14.01,1.71-.59,1.71-1.8ZM47.82,67.76c-.01-1.19-.61-1.79-1.75-1.75-1.05.03-1.64.66-1.65,1.77-.01,1.16.61,1.82,1.72,1.81,1.13,0,1.69-.62,1.68-1.83ZM173.88,66.01c-1.09,0-1.76.69-1.74,1.81.02,1.04.81,1.87,1.77,1.85.92-.02,1.64-.8,1.67-1.82.04-1.13-.61-1.83-1.7-1.84ZM153.91,69.67c.96.02,1.73-.81,1.75-1.86.01-1.08-.6-1.75-1.63-1.79-1.1-.04-1.79.62-1.81,1.74-.02,1.03.75,1.9,1.7,1.92ZM135.3,67.81c.01-1.11-.66-1.81-1.76-1.8-1.05.01-1.67.65-1.69,1.73-.02,1.05.73,1.91,1.69,1.92.95.02,1.75-.82,1.76-1.86ZM239.68,67.83c.02-1.11-.6-1.8-1.62-1.82-1-.02-1.85.83-1.83,1.81.02.95.81,1.74,1.77,1.76,1.02.02,1.67-.65,1.69-1.76ZM230.07,67.74c-.04-1-.91-1.79-1.9-1.73-1,.07-1.57.79-1.51,1.9.06,1.09.74,1.74,1.75,1.67.94-.06,1.7-.9,1.67-1.85ZM5.71,69.59c.98.02,1.76-.71,1.81-1.69.05-1.03-.71-1.87-1.73-1.89-1.03-.02-1.67.63-1.69,1.75-.02,1.12.58,1.81,1.6,1.83ZM27.6,67.9c.04-1.2-.53-1.85-1.64-1.89-1.11-.03-1.7.52-1.75,1.63-.06,1.24.45,1.88,1.56,1.95,1.14.06,1.79-.54,1.83-1.69ZM211.16,67.78c0,1.21.56,1.81,1.7,1.81,1.12,0,1.72-.65,1.7-1.83-.02-1.13-.59-1.73-1.66-1.75-1.15-.02-1.73.57-1.74,1.77ZM219.74,67.84c.02-1.12-.59-1.81-1.61-1.83-1-.02-1.85.82-1.84,1.81.01.95.81,1.75,1.76,1.77,1.02.02,1.67-.65,1.68-1.75ZM185.18,67.87c.03-1-.78-1.85-1.76-1.86-1-.01-1.67.69-1.67,1.75,0,.99.71,1.84,1.59,1.9.94.06,1.81-.79,1.84-1.79ZM167.23,67.7c-.03,1.14.65,1.94,1.64,1.96.98.02,1.75-.81,1.75-1.89,0-1.09-.62-1.75-1.67-1.77-1.1-.02-1.69.57-1.72,1.69ZM165.86,67.74c-.01-1.13-.6-1.73-1.68-1.73-1.08,0-1.68.62-1.7,1.73-.02,1.1.71,1.92,1.7,1.92,1,0,1.7-.79,1.68-1.92ZM161.12,67.77c0-1.12-.57-1.73-1.64-1.76-1.1-.03-1.78.65-1.78,1.77,0,1.04.77,1.89,1.73,1.89.99,0,1.69-.79,1.69-1.9ZM71.84,67.9c.02-.94-.7-1.83-1.51-1.87-.88-.05-1.87.87-1.91,1.75-.04,1.13.61,1.85,1.7,1.89.94.03,1.7-.75,1.72-1.77ZM93.59,67.84c0,1.23.57,1.85,1.67,1.82.97-.02,1.69-.75,1.71-1.75.03-1.04-.72-1.87-1.71-1.9-1.07-.04-1.68.62-1.68,1.83ZM112.76,67.81c-.02,1.24.54,1.87,1.63,1.86,1.01-.01,1.78-.81,1.76-1.84-.01-1.02-.82-1.83-1.8-1.82-1.03.01-1.58.63-1.59,1.8ZM117.6,67.8c-.02,1.18.51,1.83,1.54,1.87,1.05.04,1.82-.69,1.84-1.76.02-1.06-.74-1.88-1.74-1.89-1.03,0-1.62.64-1.65,1.79ZM178.63,69.66c.94-.03,1.72-.93,1.67-1.95-.05-.97-.83-1.72-1.78-1.71-1.01,0-1.64.7-1.63,1.79.01,1.07.78,1.89,1.74,1.87ZM138.5,69.66c.94-.03,1.68-.92,1.64-1.96-.04-1.07-.73-1.73-1.73-1.68-.99.05-1.73.9-1.67,1.93.06.96.86,1.75,1.76,1.72ZM145.2,67.72c-.03-1.09-.68-1.74-1.7-1.71-.99.03-1.74.87-1.69,1.91.04.96.84,1.76,1.74,1.75.95-.02,1.68-.87,1.65-1.94ZM43,67.75c-.02-1.15-.62-1.77-1.67-1.74-.97.03-1.73.81-1.73,1.78,0,1.02.82,1.82,1.84,1.79,1.05-.03,1.59-.66,1.57-1.84ZM148.69,66.01c-1.03,0-1.62.65-1.62,1.77,0,1.11.72,1.9,1.7,1.88.88-.02,1.68-.87,1.7-1.81.02-1-.8-1.84-1.78-1.84ZM191.26,67.76c-.03,1.06.54,1.76,1.47,1.82.9.06,1.73-.76,1.76-1.73.02-.97-.76-1.84-1.66-1.84-.9,0-1.55.72-1.57,1.75ZM130.32,67.74c-.01-.99-.66-1.76-1.44-1.71-.99.05-1.86,1.01-1.82,1.98.04.91.79,1.63,1.71,1.64.83.01,1.57-.89,1.55-1.91ZM66.38,67.89c.02-1-.54-1.79-1.31-1.85-.8-.06-1.43.67-1.46,1.68-.03,1.07.59,1.91,1.42,1.83.97-.09,1.3-.79,1.34-1.67ZM186.49,67.8c.09.76.31,1.67,1.24,1.71.97.04,1.29-.82,1.29-1.69,0-.86-.26-1.71-1.26-1.71-.91,0-1.19.8-1.26,1.7ZM122.35,67.83c0,.85.18,1.75,1.18,1.73.91-.02,1.25-.87,1.28-1.73.02-.87-.26-1.71-1.23-1.71-.98,0-1.23.84-1.23,1.72Z"/>
  <path class="cls-4"
        d="M369.08,57.79c1.28-3.55,2.58-7.09,3.83-10.65,4.37-12.47,8.73-24.95,13.08-37.43.73-2.08,1.44-4.17,2.09-6.28.28-.91.86-1.3,1.74-1.32,4.63-.09,9.26-.17,13.88-.25.12,0,.24-.01.36-.01,2.88-.02,3.08.25,3.3,3.15.4,5.49.91,10.98,1.37,16.47.57,6.79,1.13,13.59,1.7,20.38.47,5.63.95,11.25,1.45,17.12.65-1.09.52-2.12.64-3.05,1.09-8.4,2.27-16.8,3.21-25.22.62-5.49,1.33-10.97,1.9-16.46.28-2.72.63-5.44.93-8.15.09-.86.5-1.45,1.37-1.53,4.02-.38,8.03-.83,12.06-.95,1.47-.04,1.98.58,1.76,2.05-.68,4.54-1.36,9.07-2.05,13.61-.77,5.08-1.57,10.15-2.33,15.23-1.44,9.76-2.86,19.52-4.29,29.29-.22,1.5-.64,1.93-2.1,2.07-3.14.31-6.28.6-9.42.87-.95.08-1.95.17-2.22-1.15-.1-.46-.39-.18-.64-.12-3.51.7-7.03,1.39-10.55,2.07-1.27.24-1.88-.11-2.03-1.39-.28-2.4-.44-4.81-.63-7.22-.18-2.3-.34-4.59-.47-6.89-.03-.49-.15-.69-.69-.69-3.28.02-6.56.02-9.84,0-.57,0-.69.29-.84.76-1.68,4.95-3.39,9.89-5.1,14.83-.66,1.92-1.11,2.18-3.07,1.89-2.67-.4-5.35-.72-8.01-1.16-2.78-.46-5.52.2-8.28.18-.94,0-1.9,0-2.85.03-5.75.13-11.5.2-17.24.38-1.67.05-3.34.1-5.01.12-1.47.02-2.16-.71-1.96-2.12.75-5.27,1.55-10.54,2.27-15.82.64-4.73,1.22-9.47,1.8-14.21.68-5.61,1.36-11.21,2-16.82.41-3.64.76-7.28,1.14-10.92.15-1.42.32-2.83.45-4.25.12-1.3.95-1.67,2.09-1.77,3.03-.25,6.05-.52,9.07-.78,1.03-.09,2.07-.22,3.11-.25,1.38-.03,1.95.69,1.73,2.02-1.25,7.35-2.51,14.69-3.71,22.04-1.35,8.25-2.55,16.52-3.6,24.82-.11.9-.12,1.34,1.06,1.26,5.3-.34,10.61-.57,15.92-.85,1.2-.06,2.08.7,1.98,1.92-.14,1.7-.38,3.39-.57,5.09.08.02.16.05.24.07ZM399.48,66.25c3.6-.71,7.15-1.45,10.71-2.1.9-.17.68-.73.63-1.23-.29-3.48-.61-6.97-.91-10.45-.43-5.08-.83-10.15-1.25-15.23-.6-7.14-1.22-14.27-1.83-21.4-.33-3.92-.66-7.85-.97-11.77-.04-.48-.15-.71-.69-.7-4.76.04-9.51.06-14.27.08-1.04,0-1.52.5-1.86,1.52-4.66,14.02-9.59,27.94-14.52,41.87-2.13,6.02-4.33,12.02-6.49,18.04-.2.57-.53,1.17.54,1.3,3.08.38,6.16.81,9.23,1.27.83.12,1.17-.12,1.44-.92,1.76-5.23,3.59-10.43,5.37-15.66.22-.65.45-.97,1.23-.96,3.84.05,7.68.04,11.52,0,.71,0,1.02.24,1.05.94.07,1.35.17,2.7.27,4.05.27,3.76.54,7.53.82,11.37ZM357.52,66.44c3.24-.02,5.58.15,7.93-.16.72-.1,1.05-.19,1.07-.99.02-.94.23-1.88.34-2.83.37-3.11.71-6.22,1.09-9.33.09-.77-.1-1.05-.95-.99-2.42.19-4.84.3-7.26.42-3.38.17-6.76.31-10.14.5-.67.04-.95-.14-.86-.83.4-3.1.75-6.21,1.2-9.31.92-6.18,1.86-12.37,2.86-18.54,1.11-6.84,2.25-13.68,3.46-20.5.17-.96-.06-1.08-.89-1-3.84.35-7.68.68-11.52.99-.54.04-.63.28-.68.74-.28,2.66-.6,5.32-.88,7.99-.35,3.33-.65,6.67-1.02,9.99-.36,3.29-.76,6.57-1.17,9.85-.36,2.89-.81,5.77-1.14,8.67-.29,2.54-.63,5.07-1.01,7.6-.42,2.76-.72,5.54-1.1,8.31-.41,3-.84,5.99-1.3,8.98-.12.75.1.98.86.93,2.34-.14,4.69-.04,7.04-.16,4.98-.24,9.97-.14,14.05-.35ZM413.61,65.28c3.32-.28,6.18-.55,9.04-.75.85-.06,1.04-.57,1.14-1.25.24-1.66.49-3.31.72-4.97,1.15-7.97,2.26-15.94,3.45-23.91,1.44-9.58,2.94-19.15,4.42-28.72.1-.62.03-.84-.71-.77-3.54.33-7.08.61-10.62.86-.72.05-1.04.24-1.12,1.02-.44,4.32-.9,8.65-1.41,12.96-.83,6.97-1.68,13.93-2.58,20.89-1,7.75-2.05,15.49-3.09,23.23-.19,1.39-.17,1.43.76,1.4Z"/>
  <path class="cls-4"
        d="M455.31,29.12c.39-3.41.8-6.82,1.16-10.23.51-4.81.98-9.62,1.49-14.43.16-1.49.63-1.95,2.17-1.98,4.12-.07,8.24-.11,12.35-.12,1.5,0,1.98.69,1.65,2.19-3.33,15.45-6.11,31.01-8.47,46.64-.63,4.19-1.18,8.38-1.75,12.58-.23,1.67-.6,2.05-2.31,2.08-3.36.07-6.72.1-10.07.13-1.64.02-2.09-.36-2.44-1.98-1.7-7.87-3.4-15.75-5.11-23.62-.08-.38-.19-.76-.44-1.13-.41,3.62-.81,7.25-1.22,10.87-.57,5.08-1.12,10.17-1.69,15.25-.11.96-.63,1.54-1.62,1.6-3.67.25-7.34.51-11.01.72-1.44.08-2.02-.62-1.79-2.11.82-5.12,1.69-10.24,2.51-15.36,1.35-8.4,2.53-16.82,3.54-25.27.71-5.95,1.4-11.9,1.95-17.87.16-1.7.63-2.18,2.18-2.26,3.79-.19,7.59-.36,11.38-.51,1.57-.06,1.93.25,2.27,1.81,1.69,7.67,3.38,15.34,5.07,23.01.06,0,.13-.01.19-.02ZM455.65,37.84c-.18-.68-.29-1.06-.38-1.44-2.17-9.9-4.34-19.8-6.49-29.71-.15-.68-.35-1-1.16-.95-3.71.22-7.43.37-11.14.51-.64.02-.8.29-.85.86-.52,5.89-1.21,11.76-1.91,17.64-1.06,8.92-2.34,17.82-3.75,26.69-.74,4.65-1.53,9.3-2.32,13.94-.11.64-.08.95.71.89,3.31-.25,6.62-.47,9.93-.64.73-.04.92-.33.99-1,.42-4.01.88-8.02,1.33-12.03.82-7.38,1.64-14.76,2.5-22.49.19.78.32,1.23.42,1.69,2.31,10.61,4.62,21.21,6.91,31.82.14.65.3.96,1.04.94,3.32-.07,6.64-.11,9.96-.1.79,0,.98-.28,1.08-1.02,1.18-8.71,2.45-17.4,3.91-26.06,1.85-10.94,3.91-21.85,6.25-32.69.14-.65.1-.94-.68-.93-3.92.07-7.84.1-11.75.11-.69,0-.84.29-.9.92-1.06,10.94-2.26,21.86-3.71,33.04Z"/>
  <path class="cls-4"
        d="M299.63,15.85c0,2.61-.4,5.18-.84,7.74-.18,1.05-.73,1.63-1.83,1.69-3.47.19-6.94.44-10.42.61-1.55.07-2.18-.73-1.89-2.27.42-2.2.81-4.4.71-6.66-.1-2.27-.94-2.81-3.24-2.03-1.38.47-2.02,1.64-2.35,2.97-1.02,4.14.11,7.64,3.2,10.54,1.41,1.32,2.98,2.42,4.69,3.29,7.9,4,10.73,11.16,9.45,19.39-1.11,7.11-4.5,12.88-10.74,16.65-4.92,2.97-10.34,4.07-16.01,2.84-6.28-1.36-10.08-5.72-10.91-12.1-.65-4.98,0-9.89.82-14.79.18-1.04.78-1.54,1.77-1.61,4.15-.29,8.3-.58,12.45-.81,1.26-.07,1.79.81,1.48,2.26-.47,2.19-.89,4.38-1.05,6.62-.08,1.17-.03,2.32.16,3.47.28,1.72,1.21,2.4,2.92,2.22,3.2-.32,5.03-2.74,4.83-6.39-.16-2.87-1.88-4.84-3.8-6.7-1.44-1.39-3.07-2.55-4.78-3.59-5.14-3.11-7.98-7.72-8.73-13.6-.62-4.88-.02-9.67,1.85-14.23,2.03-4.94,5.78-8.03,10.9-9.46,3.58-1,7.23-1.4,10.91-.75,5.84,1.03,9.03,4.3,10.09,10.16.27,1.5.33,3.02.35,4.53ZM298.21,15.96c-.05-1.04-.07-2.08-.15-3.11-.47-5.83-3.62-9.43-9.21-10.34-2.58-.42-5.19-.27-7.77.18-6.87,1.19-11.45,4.97-13.32,11.81-.7,2.56-1.06,5.18-1.05,7.82.02,4.29.98,8.32,3.75,11.76,1.38,1.7,3.09,2.99,4.92,4.16,2.98,1.91,5.77,4.04,7.62,7.16,1.75,2.95,1.61,6.97-.29,9.52-1.35,1.81-4.32,2.88-6.44,2.24-2.27-.68-2.55-2.62-2.74-4.58-.29-2.99.32-5.89.96-8.77.19-.84.02-1.14-.9-1.07-3.71.28-7.42.51-11.13.74-.51.03-.78.18-.87.74-.75,4.71-1.32,9.41-.73,14.19.68,5.5,4.51,9.9,9.82,10.88,4.82.89,9.52.2,13.84-2.11,6.36-3.4,9.94-8.9,11.11-15.92,1.39-8.38-1.47-14.65-8.84-18.37-1.86-.94-3.55-2.16-5.05-3.62-3.38-3.31-4.48-7.28-3.32-11.84.68-2.67,2.64-4.19,5.28-4.21,1.44-.01,2.38.62,2.77,1.99.19.65.28,1.33.31,2,.1,2.09-.26,4.14-.67,6.18-.12.6-.28,1.18.76,1.1,3.15-.23,6.3-.39,9.46-.55.72-.04,1.03-.33,1.15-1.05.37-2.29.68-4.58.72-6.91Z"/>
  <path class="cls-4"
        d="M304.02,67.84c-1.92,0-3.84-.01-5.76,0-1.87.01-2.46-.66-2.17-2.48,2.09-13.13,4.04-26.29,5.62-39.5.79-6.62,1.58-13.25,2.34-19.88.14-1.23.67-1.84,1.93-2,6.72-.85,13.44-1.5,20.18-.38,2.95.49,5.75,1.4,8.01,3.48,2.59,2.38,3.7,5.53,3.9,8.89.46,7.76-1.08,15.16-4.66,22.1-2.3,4.44-6.31,6.61-10.81,8.12-2.47.83-5.01,1.35-7.61,1.53-.79.05-.99.35-1.08,1.05-.75,5.51-1.22,11.04-1.64,16.58-.14,1.79-.58,2.24-2.38,2.26-1.96.03-3.92,0-5.88,0,0,.07,0,.15,0,.22ZM304,66.43c0-.08,0-.15,0-.23,1.92,0,3.84-.04,5.76.02.84.03,1.07-.28,1.12-1.08.43-5.9.93-11.78,1.8-17.64.13-.87.45-1.13,1.28-1.15,2.81-.08,5.54-.64,8.22-1.49,5.04-1.59,8.98-4.45,11.05-9.51,2.53-6.18,3.89-12.59,3.44-19.28-.38-5.66-3.3-9.13-8.76-10.64-1.81-.5-3.67-.76-5.55-.86-5.01-.29-9.98.03-14.95.67-2.19.28-1.81-.17-2.1,2.18-1.1,8.96-2.08,17.93-3.24,26.88-1.34,10.45-2.9,20.88-4.63,31.28-.13.77.12.87.78.86,1.92-.03,3.84-.01,5.75-.01Z"/>
  <path class="cls-7"
        d="M399.48,66.25c-.28-3.84-.55-7.61-.82-11.37-.1-1.35-.2-2.7-.27-4.05-.03-.71-.34-.95-1.05-.94-3.84.03-7.68.04-11.52,0-.78,0-1.01.32-1.23.96-1.78,5.22-3.61,10.43-5.37,15.66-.27.8-.61,1.05-1.44.92-3.07-.46-6.15-.88-9.23-1.27-1.07-.13-.74-.73-.54-1.3,2.16-6.01,4.36-12.01,6.49-18.04,4.93-13.93,9.87-27.85,14.52-41.87.34-1.01.83-1.51,1.86-1.52,4.76-.02,9.51-.04,14.27-.08.54,0,.66.22.69.7.31,3.93.64,7.85.97,11.77.61,7.13,1.23,14.27,1.83,21.4.43,5.08.83,10.15,1.25,15.23.29,3.48.61,6.97.91,10.45.04.51.27,1.07-.63,1.23-3.56.65-7.12,1.39-10.71,2.1ZM395.61,15.88c-3.75,6.97-6.82,14.07-9.57,21.31-.34.89.11.81.7.79,3.92-.09,7.83-.21,11.75-.23.97,0,1.21-.26,1.08-1.22-.56-4.28-1.27-8.53-2.16-12.75-.56-2.64-1.2-5.27-1.8-7.9Z"/>
  <path class="cls-8"
        d="M357.52,66.44c-4.09.21-9.08.11-14.05.35-2.35.11-4.69.02-7.04.16-.76.04-.98-.18-.86-.93.46-2.99.89-5.99,1.3-8.98.38-2.77.68-5.55,1.1-8.31.38-2.53.72-5.06,1.01-7.6.33-2.9.77-5.78,1.14-8.67.41-3.28.81-6.56,1.17-9.85.37-3.33.67-6.66,1.02-9.99.28-2.66.61-5.32.88-7.99.05-.46.14-.7.68-.74,3.84-.31,7.68-.64,11.52-.99.84-.08,1.06.04.89,1-1.2,6.82-2.35,13.66-3.46,20.5-1,6.17-1.94,12.35-2.86,18.54-.46,3.09-.8,6.2-1.2,9.31-.09.69.19.87.86.83,3.38-.19,6.76-.33,10.14-.5,2.42-.12,4.84-.23,7.26-.42.84-.06,1.04.22.95.99-.38,3.11-.73,6.22-1.09,9.33-.11.94-.31,1.88-.34,2.83-.02.8-.35.9-1.07.99-2.35.31-4.69.14-7.93.16Z"/>
  <path class="cls-3"
        d="M413.61,65.28c-.93.03-.94,0-.76-1.4,1.04-7.74,2.09-15.49,3.09-23.23.9-6.96,1.75-13.92,2.58-20.89.52-4.32.98-8.64,1.41-12.96.08-.78.4-.97,1.12-1.02,3.54-.25,7.08-.52,10.62-.86.74-.07.81.14.71.77-1.49,9.57-2.99,19.14-4.42,28.72-1.19,7.96-2.3,15.94-3.45,23.91-.24,1.66-.49,3.31-.72,4.97-.1.68-.29,1.19-1.14,1.25-2.86.21-5.73.47-9.04.75Z"/>
  <path class="cls-5"
        d="M455.65,37.84c1.45-11.19,2.64-22.11,3.71-33.04.06-.63.21-.92.9-.92,3.92-.01,7.84-.05,11.75-.11.78-.01.82.28.68.93-2.34,10.85-4.41,21.75-6.25,32.69-1.46,8.66-2.74,17.36-3.91,26.06-.1.74-.3,1.02-1.08,1.02-3.32,0-6.64.02-9.96.1-.75.02-.9-.29-1.04-.94-2.28-10.61-4.6-21.22-6.91-31.82-.1-.45-.22-.9-.42-1.69-.86,7.73-1.68,15.11-2.5,22.49-.45,4.01-.91,8.02-1.33,12.03-.07.67-.27.96-.99,1-3.31.18-6.62.39-9.93.64-.8.06-.82-.25-.71-.89.79-4.64,1.57-9.29,2.32-13.94,1.41-8.87,2.69-17.77,3.75-26.69.7-5.87,1.39-11.74,1.91-17.64.05-.57.21-.84.85-.86,3.72-.14,7.43-.29,11.14-.51.81-.05,1.01.27,1.16.95,2.15,9.91,4.32,19.81,6.49,29.71.08.39.2.76.38,1.44Z"/>
  <path class="cls-2"
        d="M298.21,15.96c-.04,2.33-.35,4.62-.72,6.91-.11.72-.43,1.01-1.15,1.05-3.15.16-6.31.32-9.46.55-1.04.08-.88-.5-.76-1.1.41-2.04.78-4.09.67-6.18-.03-.67-.13-1.36-.31-2-.39-1.37-1.33-2.01-2.77-1.99-2.64.03-4.6,1.54-5.28,4.21-1.16,4.57-.06,8.54,3.32,11.84,1.5,1.47,3.19,2.68,5.05,3.62,7.37,3.73,10.23,9.99,8.84,18.37-1.16,7.02-4.74,12.52-11.11,15.92-4.33,2.31-9.02,3-13.84,2.11-5.31-.98-9.14-5.38-9.82-10.88-.59-4.78-.02-9.49.73-14.19.09-.56.36-.71.87-.74,3.71-.23,7.42-.46,11.13-.74.92-.07,1.09.23.9,1.07-.65,2.89-1.26,5.78-.96,8.77.19,1.96.47,3.9,2.74,4.58,2.12.64,5.1-.43,6.44-2.24,1.9-2.55,2.04-6.57.29-9.52-1.85-3.12-4.64-5.25-7.62-7.16-1.83-1.17-3.55-2.46-4.92-4.16-2.78-3.43-3.73-7.47-3.75-11.76-.01-2.64.34-5.26,1.05-7.82,1.87-6.84,6.45-10.63,13.32-11.81,2.57-.44,5.19-.6,7.77-.18,5.59.91,8.74,4.51,9.21,10.34.08,1.04.1,2.08.15,3.11Z"/>
  <path class="cls-1"
        d="M304,66.43c-1.92,0-3.84-.02-5.75.01-.66.01-.91-.1-.78-.86,1.73-10.4,3.28-20.82,4.63-31.28,1.15-8.95,2.13-17.92,3.24-26.88.29-2.35-.09-1.89,2.1-2.18,4.96-.64,9.94-.96,14.95-.67,1.88.11,3.74.36,5.55.86,5.45,1.51,8.38,4.98,8.76,10.64.45,6.7-.91,13.1-3.44,19.28-2.07,5.06-6.01,7.91-11.05,9.51-2.68.85-5.41,1.41-8.22,1.49-.83.02-1.15.28-1.28,1.15-.87,5.85-1.37,11.74-1.8,17.64-.06.8-.29,1.1-1.12,1.08-1.92-.06-3.84-.02-5.76-.02,0,.08,0,.15,0,.23ZM324.67,22.56c-.05-.59-.11-1.43-.18-2.26-.25-3.02-1.76-4.63-4.77-5.05-.84-.12-1.68.04-2.5.01-1.46-.05-1.73.74-1.88,1.96-.65,5.55-1.37,11.09-2.1,16.62-.39,2.96-.42,2.98,2.55,2.38,3.44-.7,6.19-2.3,7.47-5.8.9-2.46,1.35-5,1.4-7.86Z"/>
  <path class="cls-6"
        d="M47.83,22.38c0-1.03.04-1.83-.01-2.63-.04-.64.2-.83.82-.81.96.04,1.92.05,2.88,0,.65-.04.8.21.79.82-.02,4.12-.02,8.24,0,12.36,0,.63-.18.85-.81.82-.92-.04-1.84-.06-2.76,0-.76.05-.95-.25-.97-.95-.05-1.88-.69-3.6-1.71-5.16-1.4-2.15-4.18-3.27-6.7-2.73-1.76.38-2.92,1.61-3.12,3.48-.12,1.11-.11,2.23-.11,3.35,0,5.16.01,10.32-.01,15.48,0,2,.4,3.8,2.37,4.73,2,.95,3.93.48,5.63-.79,2.2-1.65,3.35-3.93,3.64-6.63.08-.75.26-1.06,1.06-1,.95.07,1.92.07,2.88,0,.76-.05.94.22.91.95-.15,3.93-2.04,6.92-5.03,9.27-6.23,4.89-15.59,5.26-22.92.98-6.75-3.94-10.46-11.07-9.44-18.15,1.17-8.17,6.65-14.29,14.68-16.32,6-1.51,11.73-.81,17.08,2.41.23.14.46.28.86.51Z"/>
  <path class="cls-6"
        d="M95.27,56.17c-3.68,0-7.36-.03-11.03.02-.85.01-1.16-.24-1.03-1.07.03-.16,0-.32,0-.48,0-.84-.23-1.79.09-2.49.33-.7,1.42-.36,2.14-.63,1.79-.67,2.38-2.14,2.62-3.83.1-.67.07-1.36.07-2.04,0-5.4,0-10.79,0-16.19,0-.64,0-1.28-.06-1.92-.24-2.62-1.44-3.91-4.04-4.22-.67-.08-.89-.27-.84-.93.09-1.11-.44-2.53.2-3.24.6-.67,2.04-.2,3.11-.2,6.6-.02,13.19,0,19.79-.03.9,0,1.36.17,1.19,1.16-.05.27,0,.56,0,.84-.01.72.19,1.55-.11,2.12-.3.55-1.23.28-1.87.46-1.58.44-2.36,1.56-2.73,3.04-.2.81-.28,1.65-.27,2.5.01,5.68,0,11.35.01,17.03,0,.67.07,1.36.18,2.02.43,2.39,1.48,3.45,3.87,3.67.84.08.97.39.93,1.09-.05.8-.06,1.6,0,2.4.07.77-.24.93-.95.92-3.76-.03-7.52-.01-11.27-.01Z"/>
  <path class="cls-6"
        d="M221.64,55.21c-6,0-12-.02-18,.02-.82,0-1.18-.18-1.06-1.05.06-.43.05-.88,0-1.32-.15-1.26,0-2.05,1.6-2.33,1.55-.27,2.32-1.73,2.69-3.24.13-.54.16-1.11.16-1.67.01-6.04,0-12.08,0-18.12,0-1.63-.42-3.09-1.68-4.2-.35-.31-.8-.68-1.22-.7-1.55-.07-1.6-1-1.56-2.21.08-2.4.02-2.4,2.46-2.4,11.6,0,23.2.01,34.8-.02.96,0,1.18.26,1.16,1.18-.06,3.28-.04,6.56,0,9.84,0,.75-.15,1.07-.97,1.01-.99-.08-2.14.28-2.96-.11-.95-.44-.38-1.77-.63-2.68-.55-2.01-1.74-3.4-3.65-4.14-2.81-1.1-5.76-.67-8.67-.75-.39-.01-.46.21-.46.54,0,3.56,0,7.12,0,10.68,0,.49.2.58.65.58,1.44,0,2.66-.76,3.15-2.14.26-.75.38-1.55.55-2.32.03-.15-.02-.33.03-.48.55-1.53,1.82-.39,2.71-.69.5-.17.99-.08.98.74-.03,4.88-.02,9.76,0,14.64,0,.53-.1.81-.72.78-.88-.05-1.86.23-2.61-.09-.84-.36-.34-1.48-.54-2.25-.56-2.11-1.39-2.97-3.37-3.15-.49-.05-.83-.05-.83.63.02,3.48.02,6.96,0,10.44,0,.42.06.67.58.66,2.39-.07,4.8.14,7.17-.43,3.37-.8,5.06-2.76,5.22-6.22.04-.83.24-1.13,1.08-1.04.75.08,1.53.08,2.28,0,.89-.09,1.03.29,1.02,1.08-.04,3.28-.05,6.56,0,9.84.02.89-.21,1.13-1.11,1.12-6.08-.04-12.16-.02-18.24-.02Z"/>
  <path class="cls-6"
        d="M145.9,30.65c0,4,0,7.66,0,11.32,0,2.04-.03,4.08.03,6.12.07,2.47.79,3.31,3.26,3.54,1.26.12,1.62.52,1.56,1.79-.12,2.74-.04,2.74-2.84,2.74-3.08,0-6.16-.03-9.24.02-.76.01-1.01-.21-.91-.94.05-.39.04-.8,0-1.2-.13-1.33-.13-2.46,1.73-2.52.77-.02,1.27-.78,1.56-1.52.35-.9.51-1.85.51-2.81,0-6.36,0-12.72,0-19.08,0-.84-.14-1.67-.38-2.48-.4-1.32-1.25-2.15-2.62-2.29-.69-.07-.86-.32-.8-.95.09-1.11-.44-2.53.21-3.24.61-.66,2.04-.19,3.11-.19,4.52-.02,9.04.02,13.56-.04.97-.01,1.49.32,2,1.1,4.1,6.19,8.25,12.36,12.38,18.54.22.32.45.63.88,1.24,0-1.55,0-2.76,0-3.97,0-2.8.02-5.6-.01-8.4-.04-3.05-.86-3.95-3.88-4.09-.86-.04-1.22-.2-1.12-1.13.11-1.02-.33-2.41.2-3.01.61-.7,2.02-.21,3.09-.23,3.24-.03,6.48.03,9.72-.04.93-.02,1.24.27,1.09,1.14-.03.16,0,.32,0,.48-.01.84.24,1.83-.12,2.47-.36.63-1.46.29-2.22.47-1.19.28-1.89.94-2.14,2.13-.2.94-.27,1.89-.27,2.86,0,6,0,12,0,18,0,.64,0,1.28.08,1.92.35,2.55,1.04,3.22,3.61,3.4.73.05.98.22.92.96-.07.87-.06,1.76,0,2.64.04.65-.22.79-.82.79-4.8-.02-9.6-.04-14.4.01-.78,0-1.03-.45-1.35-.94-5.16-7.79-10.32-15.59-15.48-23.39-.21-.32-.45-.62-.89-1.21Z"/>
  <path class="cls-4"
        d="M395.61,15.88c.6,2.63,1.24,5.26,1.8,7.9.89,4.22,1.6,8.47,2.16,12.75.13.96-.11,1.21-1.08,1.22-3.92.03-7.83.14-11.75.23-.59.01-1.04.09-.7-.79,2.75-7.24,5.82-14.34,9.57-21.31ZM387.89,36.35c3.21,0,6.32-.01,9.44,0,.69,0,.74-.27.67-.87-.47-3.76-1.12-7.49-1.92-11.2-.31-1.44-.5-2.91-1.07-4.49-2.65,5.57-5.01,11-7.11,16.54Z"/>
  <path class="cls-4"
        d="M324.67,22.56c-.05,2.86-.5,5.4-1.4,7.86-1.29,3.5-4.03,5.11-7.47,5.8-2.97.6-2.94.58-2.55-2.38.73-5.54,1.44-11.08,2.1-16.62.14-1.23.42-2.01,1.88-1.96.83.03,1.67-.13,2.5-.01,3.01.42,4.53,2.03,4.77,5.05.07.84.13,1.67.18,2.26ZM314.58,34.98c3.27-.47,5.94-1.6,7.24-4.75,1.22-2.97,1.51-6.07,1.33-9.28-.22-3.88-2.48-4.5-5.36-4.32-.62.04-.95.18-1.04.95-.39,3.53-.9,7.06-1.34,10.58-.29,2.25-.55,4.5-.83,6.82Z"/>
</svg>