<?xml version="1.0" encoding="UTF-8"?>
<svg id="cinesplain_logo_down_Image" data-name="cinesplain_logo_down Image" xmlns="http://www.w3.org/2000/svg"
     width="40px" height="40px" viewBox="0 0 240 240.24">
    <defs>
        <style>
            .cls-1 {
            fill: #fefefe;
            }

            .cls-1, .cls-2 {
            stroke-width: 0px;
            }
        </style>
    </defs>
    <path class="cls-2"
          d="M175.88,76.08c-.58-.14-1.06.33-1.63.25-.02-.15-.04-.29-.06-.47-1.23-.04-2.43-.13-3.54.47-.75.4-1.54.17-2.33.21-2.38-2.58-4.74-5.15-7.11-7.73.42-.32.87-.02,1.24-.39h-4.52c-2.76.59-5.57.89-8.47,1.52,1.85,1.58,3.07,3.57,4.85,4.99.8.63,1.1,1.85,2.33,1.94-.04.23-.29.12-.36.27.17.21.32.45.45.49,1.28-.23,2.54.71,3.59-.35.27.1.49.24.43.69-2.5-.15-4.8.76-7.15,1.44-.14.03-.27.07-.41.1-.33.11-.73-.28-1.02.13h-.28c-.32-.27-.63-.32-.93,0-.13.03-.27.06-.4.1-.92-.19-1.78.26-2.47.29-3.07-2.68-5.59-5.72-8.59-8.27-1.67-.12-3.31.38-4.99.02.09.21.3.2.26.36-1.86.2-3.7.4-5.72.61,1.54,1.54,2.94,2.99,4.4,4.38,1.48,1.4,2.68,3.13,4.57,3.97,1.6-.46,3.13-.43,4.69-.34-.81-.04-1.46.52-2.2.61-1.73.21-3.44.56-5.2.46-.21-.01-.4.03-.52.22-1.54.26-3.1.33-4.63.64-.49.1-.97.32-1.49.3-.59-.76-1.36-1.32-2.07-1.95-1.26-1.11-2.5-2.24-3.7-3.42-1.27-1.24-2.6-2.4-3.94-3.5-1.34.89-3,.34-4.12,1.13.13,1.31.33,2.4.6,3.48.15.63.2,1.44.77,1.75.71.38,1.01,1.08,1.66,1.61h2.25c-.77.34-1.38.09-1.96.25.11.58.79.61,1.13,1.27-.11-.71.24-.59.53-.59.25.15.17.6.48.64.33-.07.39-.48.76-.38.12.22.3.42.29.7l-.11-.03-.1.05c-.37.09-.76-.13-1.11.07-.02.13-.04.24-.05.36-.42.26-.83.52-1.25.78-.06.06-.12.12-.17.18-.09.02-.18.03-.27.05-.13,0-.19.08-.22.2l-4.02,1.55c2.46.1,4.87.2,7.29-.02,1.94-.17,3.92.03,5.87-.15,3.73-.34,7.48-.05,11.22-.27,1.65-.09,3.35-.15,5.04-.04,1.41.09,2.92-.04,4.39-.2,1.72-.19,3.46-.11,5.2-.14,1.55-.03,3.09.12,4.64-.17.84-.16,1.74-.06,2.61-.05,2.11.02,4.21-.12,6.32-.22,2.38-.12,4.75-.42,7.15-.26.74.05,1.46-.2,2.22-.04.48.1.81.26,1.04.65.23,1.7.29,3.39.31,5.09.02,1.71.14,3.43-.34,5.19-1.41.64-2.97.26-4.49.35-1.35.08-2.7-.08-4.05.06-.51.03-1.02.06-1.53.09-1.12.16-2.28-.25-3.38.22-.2-.26-.15-.5,0-.72.21-.17.53.01.64-.3-.66-.17.27-.69-.21-.9,1.02-.46,1.11-.71.81-1.72.61-1.76,1.59-3.11,1.54-4.83.74-.5.67-1.18.5-1.91-2.32.11-4.59.37-6.85.63.06-.15.18-.3-.02-.44-.15.06-.45-.13-.4.25l.03-.03c-.22-.27-.43-.22-.64,0h.04c-.96-.14-1.89.25-2.81.18-.61-.05-.8.14-.99.61-.42,1.04-.88,2.06-1.3,3.1-.65,1.58-1.31,3.16-1.93,4.75-.13.34-.42.73.03,1.08-1.33.3-2.68.05-4.02.13-1.66.09-3.3-.34-4.96-.18-.2.02-.38-.09-.53-.23,1.32-2.7,2.64-5.39,4.01-8.19-1.64.38-2.66.36-3.03-.02.89.1,1.71-.24,2.7-.28-.47-.4-.61-.94-1.2-.91-.28-.01-.14.36-.46.41-.87-.25-1.79.17-2.73.22-.94.05-1.9.32-2.81-.17-.11-.44-.35-.26-.58-.13.19.18.41.1.63.08.07.25.06.43-.29.39-.33-.05-.67-.07-1.01-.1.04-.07.04-.13-.02-.19.17-.31-.12-.32-.27-.34-.22-.04-.37.06-.34.32-.08-.03-.16-.02-.23.04-.34-.05-.63-.35-1.13-.21-.24.13-.58.31-.77.4-.74,1.67-1.53,3.17-2.08,4.75-.52,1.5-1.68,2.72-1.88,4.35-1.29.13-2.62-.23-4.11.4v11.65c-.36-.23-.19-.77-.58-1-.51.02-.66.61-1.15.75-1.66.47-3.22,1.23-4.65,2.17-1.02.67-2.32,1.06-2.99,2.13-.38.6-.81.58-1.3.49-.2.74.23.86.66.78.64-.11,1.32-.05,1.93-.31l-.03-.03c.45.89,1.43,1.21,2.06,1.92.08-.15.15-.28.22-.42q.59.56.56,1.13c.15.02.3.04.5.07.02.77.5,1.49.11,2.27.11.24.47.35.34.69-.24,1.25-1.18,2.23-1.2,3.58-.02.87-.65,1.37-1.5,1.52-.31.06-.63.05-.95.05-.78,0-1.18.39-1.34,1.15-.16.73-.41,1.44-.62,2.15.29.57.91.09,1.35.5-.73,0-1.34.17-1.96.43.53,1.16,1.24,2.13,1.96,3.08.96,1.25,1.59,2.71,1.83,4.18.21,1.29.39,2.66.31,4.01-.09,1.64.04,3.27,0,4.9-.02.84.1,1.66.06,2.5-.09,1.95.2,3.91.16,5.87-.03,1.42-.11,2.85-.27,4.26-.12,1.06-.22,2.13-.14,3.17.08,1.05-.12,2.07-.19,3.08-.07,1.12-.42,2.29-.53,3.43-.25,2.61-.83,5.17-1.31,7.73-.64,3.39-1.42,6.78-2.48,10.08-.14.44.08.91-.14,1.28-.69,1.15-.79,2.45-1.02,3.67-.07.53-.6.12-.76.44.17.2.5-.02.63.26-1.29,4.69-2.47,9.42-3.72,14.13-.03-2.01-.52-3.97-.35-5.96.02-.19-.02-.4-.05-.59-.4-2.46-.07-4.95-.37-7.43-.13-1.13.06-2.38-.14-3.47-.22-1.17.14-2.35-.31-3.5-.23-.59-.11-1.34-.08-2.01.07-1.46.07-2.92.02-4.39-.08-2.78-.08-5.56-.25-8.33-.11-1.8.13-3.6,0-5.41-.02-.34-.32-.59-.23-.89.4-1.36.23-2.74.21-4.12-.07-3.77.2-7.53.21-11.29,0-3.1.33-6.19.27-9.29-.02-1.19.04-2.44.33-3.52.42-1.55.32-3.1.59-4.64.36-1.98.46-4.01.69-6.13-.75-.65-1.57-1.38-2.37-2.13-.82-.78-.5-2.05-1.25-2.65-.51-.08-.29.42-.58.36-1.35-.3-2.18-1.31-3.16-2.14-.58-.49-1.18-1.01-1.83-1.44-1.26-.84-2.55-1.67-3.65-2.7-2.17-2.03-4.78-3.54-6.78-5.77-.17-.19-.42-.2-.62-.05.45,2.16,1.27,4.2,1.96,6.25.7,2.07,1.34,4.16,2.08,6.22.26.72.45,1.4.43,2.15.16.2.4.37.43.57.24,1.82,1.15,3.43,1.53,5.21.17.8.21,1.65.5,2.38.72,1.84.95,3.81,1.58,5.68.38,1.14.4,2.4.58,3.6.33,2.21,1.27,4.26,1.48,6.56.24,2.61.82,5.23,1.41,7.8.63,2.76.82,5.6,1.65,8.3.3.96.09,1.92.41,2.88.61,1.89.64,3.9.98,5.85.25,1.45.42,2.92.74,4.39-.11.21-.24.43-.38.69-.74-2.04-.9-4.18-1.55-6.2-.38-1.2-.77-2.41-1.15-3.61-.41-1.27-.7-2.59-1.11-3.87-.41-1.28-.84-2.54-1.32-3.8-.45-1.18-.74-2.43-1.23-3.59-1.12-2.69-2.34-5.35-3.43-8.06-.77-1.9-1.34-3.89-2.51-5.66-1.63-2.46-2.76-5.23-3.95-7.93-1.25-2.83-2.97-5.37-4.35-8.1-.67-1.33-1.3-2.69-2.11-3.93-.51-.78-.87-1.63-1.35-2.41-1.3-2.13-2.85-4.12-3.66-6.54-.29-.87-.88-1.62-2.02-2.17.43.73.37,1.31.36,1.89-.02.8.11,1.53.64,2.19.26.32.43.74.55,1.14.37,1.25.81,2.45,1.54,3.57,1.25,1.94,2.03,4.13,3.03,6.21,1.37,2.88,2.6,5.83,4.28,8.56.33.54.6,1.13.83,1.75.44,1.18.74,2.46,1.44,3.51.95,1.44,1.32,3.11,2.04,4.64.24.5.45,1.04.67,1.57.59,1.37,1.5,2.63,1.61,4.18.26.34.53.62.7,1.05.42,1.04.82,2.07,1.09,3.16.39,1.57,1.3,2.95,1.77,4.5.34,1.13,1.07,2.11,1.42,3.26.66,2.2,1.25,4.43,2.11,6.58.67,1.66,1.1,3.45,1.44,5.21.28,1.42.91,2.71,1.25,4.1.4,1.67.6,3.39,1.14,5.04.33,1.01.65,2.05.81,3.13.22,1.58.4,3.19.8,4.71.67,2.5.73,5.07,1.26,7.58.34,1.62.67,3.25,1.04,4.87.4,1.78.87,3.58.9,5.39.04,2.19.39,4.35.31,6.54-.03.8.23,1.6.39,2.64,1.56-3.45,2.36-6.87,3.7-10.15-.07-.07-.13-.37-.02-.55.51-.85.48-1.87.85-2.74.54-1.26.6-2.62,1.02-3.9.45-1.38.64-2.89,1.14-4.23.92-2.5,1.42-5.1,2.2-7.63.61-1.97.92-4.03,1.74-5.95.72-1.67,1.03-3.46,1.65-5.16.15-.4-.09-.85.16-1.27.82-1.34,1.21-2.9,1.69-4.35.53-1.59,1.11-3.2,1.48-4.85.45-2,1.37-3.83,1.95-5.78.27-.92.55-1.84.83-2.76.34-1.1.78-2.16,1.19-3.22.53-1.37.73-2.84,1.26-4.18.92-2.32,1.63-4.71,2.49-7.05.45-1.22,1.01-2.4,1.43-3.63.75-2.19.97-4.52,1.63-6.74.47-1.58.5-3.24.51-4.88.02-1.79-.09-3.62-.73-5.3-.63-1.65-1.04-3.37-2.21-4.84-.84-1.05-1.95-1.98-2.38-3.34,1.6.3,2.83,1.35,4.19,2.11,1.54.86,3.02,1.82,4.55,2.69,1.72.97,3.54,1.75,5.21,2.83,1.28.83,2.74,1.42,3.82,2.53.88.9,2.13,1.33,2.81,2.52.88,1.55,1.68,3.13,2.44,4.73.48,1.01.54,2.19.77,3.29.16.8.33,1.61.49,2.46-.19.22-.4.46-.66.77.75,1.56,0,3.38.83,4.96.51,1.03,1.35,1.88,1.87,2.99,1.16.44,1.4,1.69,2.07,2.58.48.64.77,1.41.59,2.22-.11.48.1.79.34,1.07,1.85,2.15,3.08,4.69,4.46,7.12,2.05,3.62,3.56,7.5,5.35,11.24,1.22,2.55,1.83,5.35,2.69,8.05,1.2,3.8,2.73,7.49,3.73,11.36.33,1.27,1.01,2.42,1.68,3.57.51.89.76,1.94,1.04,2.95.12.44.39.7.62,1.03.36.53.87.97.94,1.75.05.56.41,1.2.96,1.59,1.24.88,1.97,2.18,2.61,3.47.91,1.82,1.98,3.56,2.75,5.44.64,1.57,1.29,3.15,2.32,4.49.77,1.01,1.11,2.3,2.08,3.13.84.72,1.64,1.44,2.22,2.39.09.15.38.21.38.43,0,.96.75,1.33,1.39,1.78,0,.33.21.16.36.14.05.57.71.9.6,1.53-.08.13-.03.24.07.34.45.25.63.71.82,1.14.42.97,1.12,1.75,1.65,2.65.31.52.86.88,1.56.93.68.05,1.29.3,1.78.82.48.53,1.33.49,1.75,1.13.02.14,0,.31.23.35.07-.05.15-.12.23-.19.79.76,2.02.86,2.71,1.78.77,1.03,2.18,1.24,2.96,2.21.59.72,1.23,1.3,2.08,1.76.19.77.63,1.36,1.37,1.79.48.28.94.71.93,1.38h-1.92c-.31-.41-.46-.91-.6-1.24-.45-.43-.93-.57-1.25-.94-.75-.86-1.49-1.74-2.31-2.53-.9-.87-1.79-1.82-2.99-2.26-.57-.21-1.12-.38-1.48-.88-.16-.21-.38-.21-.58-.3-1.39-.67-2.93-.84-4.37-1.4-.43.34-.97.42-1.5.52-.27-.1-.1-.47-.4-.58-.3.27-.79.25-1.01.53-.19.57.5.4.44.86-.63.11-.87,1.19-1.91.68.19-.22.1-.41-.09-.57-.97.27-1.52.13-2.32-.64.64-.9,1.78-.82,2.6-1.32.81-.49,1.74-.32,2.63-.17-1.15-1.93-2.5-3.49-3.69-5.27-4.98,1.49-9.72,3.28-14.42,5.56.75,1.24,1.21,2.51,1.15,3.67.97,2.14.94,4.27,1.39,6.28h-1.2c-.19-.97-.31-1.96-.29-3.03-.74-.08-1.44-.25-2.12,0-1.04.39-2.08.44-2.82.17-1.11-.74-1.9-1.45-2.83-1.84-1.44-.61-2.01-1.79-2.58-3.06-1.48-1.7-2.23-3.82-3.15-5.86-2.32.71-4.7.9-7.11.86-.74-.01-1.48-.2-2.22-.32-.98-.16-1.34-.91-1.61-1.72-.25-.74-.47-1.48-.69-2.23-.74-2.49-1.27-5.03-2.11-7.5-.74-2.16-1.58-4.29-2.34-6.44-.55-1.56-1.19-3.14-1.88-4.65-.67-1.46-1.48-2.87-2.22-4.4-.04-.16.36-.27.22-.56-.46-.24-1.04-.42-.56-1.16-1.39-1.16-1.66-2.93-2.37-4.46-.82-1.76-1.35-3.68-2.42-5.3-.54-.82-1.32-1.66-2.57-1.7q.17.88-.03,1.14c-.81,5.11-1.56,9.94-2.77,14.69-.15.21.25.17.15.53-.29,1.01-.37,2.07-.6,3.1-.4,1.75-.59,3.54-.91,5.3-.24,1.31-.26,2.65-.83,3.91-.22.48.14,1.2-.56,1.52,0,.27.32.19.32.19-.71,4.22-1.57,8.22-2.63,12.25-2.32-.19-4.41.22-6.53.27-1.47.04-2.96.22-4.44.19-2.03-.05-4.05-.22-6.08-.27-1.72-.04-3.39-.51-5.08-.6-1.16-.06-2.3-.25-3.45-.34-.15-.39-.45-.17-.7-.19-1.82-.07-3.59-.53-5.38-.81-1.93-.31-3.85-.72-5.76-1.14-2.22-.49-4.43-1.02-6.63-1.58-.16-.04-.79.13-.56-.36-6.49-1.36-12.47-4.03-18.27-7.17-.22-.29-.53-.27-.84-.22-2.36-1.12-4.76-2.09-6.87-3.74-1.27-.99-2.91-1.59-4.23-2.57-2.41-1.78-4.99-3.34-7.33-5.22-.51-.41-.58-.9-.49-1.48.18-1.18.38-2.35.55-3.53.37-2.61.79-5.21,1.45-7.77.55-2.13.98-4.28,1.52-6.42.26-1.05.47-2.13.7-3.2.12-.57.42-.9.79-1.22-.32-.62.21-1.05.26-1.59.16-1.79.79-3.48,1.26-5.2.42-1.54.54-3.14.88-4.69.29-1.3.45-2.63.78-3.93.33-1.31.36-2.69.64-4.02.64-3.03,1.16-6.08,1.86-9.1.24-1.03.24-2.1.79-3.05.08-.14,0-.4-.3-.5-1.46,3.28-2.74,6.61-3.61,10.12-.32,1.28-.71,2.62-1.18,3.9-.48,1.3-.86,2.7-1.16,4.1-.38,1.79-1.03,3.53-1.44,5.31-.63,2.68-1.7,5.22-2.41,7.87-.58,2.17-1.1,4.36-1.75,6.51-.81,2.7-1.57,5.45-1.87,8.29-.08.72-.15,1.48-.41,2.2-.35.97-.16,2.02-.26,3.03-.04.45-.14.84-.52,1.34-.8-1.22-2.05-1.79-2.96-2.86-.95-1.11-2.15-2.08-3.19-3.17-.9-.94-2-1.68-2.68-2.82-.12-.2-.38-.29-.56-.43-.87-.67-1.79-1.32-1.89-2.59-.03-.35-.45-.55-.47-.94-1.4-.39-2.2-1.51-3-2.55-.91-1.2-2.03-2.24-2.75-3.59-.81-1.52-2.02-2.77-2.92-4.25-.72-1.18-1.43-2.41-2.31-3.53-1.16-1.48-1.81-3.3-2.86-4.87-1.12-1.67-1.72-3.6-2.79-5.3-.54-.87-.8-1.96-1.42-2.86.44-.78-.04-1.76.7-2.5-.11-.3-.3-.66-.02-1.07.14-.26.49-.11.72-.26.13-.35-.44-.18-.36-.52.16-.4.14-.9.47-1.28.39-.46.41-1.06.47-1.63.03-.32-.08-.69.06-.94.82-1.47.7-3.22,1.46-4.71.34-.65.33-1.45.5-2.17.41-1.77,1.11-3.47,1.44-5.22.29-1.53,1.19-2.89,1.12-4.51-.03-.62.46-1.15.69-1.73.42-1.09.44-2.24.51-3.45.83-.61.56-1.68.93-2.53.62-1.44.67-3.07,1.46-4.47.31-.56-.05-1.34.48-1.88.37.01.75.12,1.13-.07-.27-.26-.61-.06-.9-.17-.02-.96.23-1.86.54-2.77.65-1.89,1.28-3.79,1.82-5.72.16-.56.39-1.02.7-1.46.28-4.51,4.39-8.77,8.38-8.73,1.16-.73,2.46-1.01,3.78-1.2,1.22-.18,2.47-.33,3.67-.37,1.92-.07,3.74-.87,5.69-.58.67.1,1.35-.44,1.98-.22.38-.05.29-.46.58-.48,1.2.36,2.18-.31,3.24-.5,2.06-.7,4.3.33,6.34-.91.6-.36,1.37-.74,2.26-.43.36.13.89-.24,1.35-.34,1.11-.25,2.27,0,3.38-.47,1.61-.68,3.19-1.35,4.43-2.66.83-.88,1.76-1.66,2.85-2.25,1.83-.98,3.59-2.1,5.38-3.15.24-.14.5-.24.8-.39.62.32,1.36.21,1.97.49.43-.07.71-.31,1-.57.05.15.08.26.12.38-.25.55-.33,1.13-.28,1.73.11,1.3.42,2.57.67,3.84.36,1.85,1.46,3.48,1.54,5.18,3.05,2.87,5.95,5.6,8.93,8.4.32,0,.8.18.97.53.3.64.88.83,1.39,1.16.43.28.86.6,1.19.93,1.81,1.85,4.1,3.09,6.08,5.02.52-1.48.84-2.86,1.44-4.06.99-.79,2.12-.29,3.14-.5.25-.2.41-.5.54-.54,1.06.16,2.02.01,2.83.54.36-.75-.5-.68-.64-1.09-.51-1.47-1.85-2.3-2.92-3.22-.69-.59-1.42-1.19-2.13-1.79-.15-.13-.26-.31-.43-.42-2.4-1.48-3.98-3.88-6.23-5.52-.94-1.82-2.99-2.4-4.26-3.95-1.51-1.85-3.68-3.14-5.08-5.16-.7-1.01-1.41-2.01-1.94-3.13-.28-.6.15-1.25-.16-1.84-.81.11-.77,1.14-1.51,1.25.12-1.13.65-2.12,1.18-3.08.9-1.61,1.85-3.18,2.55-4.91.26-.65.06-1.31.3-1.93.41-.22.35-.45,0-.68-.09-.5.37-.74.63-.9,1.03-.64.92-1.58.69-2.48-.19-.72-.33-1.45-.43-2.18.03-.14-.08-.17-.17-.2-.01-.13-.02-.25-.03-.38.09-.05.19-.1.3-.17-.17-.11-.22-.15-.28-.2l.02.02c.03-.63-.6-1.22-.09-1.93.25,0,.54.06.8,0,1.89-.47,3.83-.66,5.75-.95,1.81-.27,3.61-.74,5.43-.87,1.3-.1,2.51-.54,3.82-.6,1.15-.05,2.35-.25,3.44-.58,1.35-.41,2.73-.56,4.09-.77,1.79-.28,3.53-.92,5.36-.9.72,0,.84-.79,1.44-.82.68-.03,1.36,0,2.04-.02.11,0,.22-.09.33-.11,1.34-.23,2.67-.7,4.04-.57,1.01.09,2-.03,2.99,0,2.19.08,4.36-.28,6.54-.27.16,0,.32-.02.47-.06,3.62-.96,7.26-1.77,11.05-1.71.08-.34-.29-.87.39-1.15.33.29.67.63,1.21.52.76-.15,1.54-.25,2.31-.35,1.43-.18,2.78-.81,4.27-.63.27.03.54-.03.82-.09,1.44-.32,2.87-.65,4.33-.84,2.42-.33,4.85-.69,7.22-1.26.47-.11.91-.18,1.38-.19.28,2.01.5,4.04.92,6.03.04.19.06.4.04.59-.07.86.12,1.56,1.14,1.78.45,2.79.89,5.53,1.33,8.29-.45.44-.54,1.09-1.13,1.36-.29.08-.67-.26-.88.18ZM113.28,92.67c-.28,0,.15-.63-.38-.41-.05.32.41.12.4.39,0,1.2-1.31,1.96-1.06,3.27-.95.06-.71.95-1,1.53-2.86.28-5.71.26-8.85.24,1.25,2.23,3.6,3.08,4.86,5-.83.12-1.59-.01-2.35-.09,0,.09,0,.18,0,.28h2.93c1.22,1.23,2.35,2.36,3.46,3.5,1.27,1.31,2.68,2.45,4.09,3.58.47.38,1.09.9,1.67.65.88-.39,1.83-.51,2.7-.97,1.51-.81,2.9-1.91,4.59-2.23.42-.5.51-1.03.46-1.6-.06-.75.04-1.55.12-2.25.21-1.96-.08-3.89.1-5.78-1.14-.48-2.21-.62-3.51-.36,1.53-3.17,2.94-6.07,4.37-9.04-.72-.45-1.38.04-2.03-.05-.4-.06-.98-.45-1.32.05-.33.5-.81.44-1.22.41-1.99-.13-3.94.15-5.88.26-.3.35-.54.65-.72,1.01-.45.89-.95,1.76-1.43,2.63ZM194.2,223.18c-2.17-3.42-4.12-5.96-7.05-8.49-2.36.41-4.62,1.35-6.94,2.01-2.3.65-4.64,1.18-6.88,1.98-2.25.8-4.68.83-6.99,1.75.51,1.88,1.63,3.34,2.25,5.02.42,1.12,1.14,2.14,1.64,3.26.56,1.24,1.35,2.36,1.97,3.58.55,1.1,1.66,1.68,2.24,2.68.95.15,1.75-.03,2.53-.55.44-.3.91-.58,1.37-.86,1.36-.84,1.51-1.44.6-2.73-.04-.06-.02-.15-.04-.3.46-.16.65-.61.93-1,.94-1.27,2.15-2.22,3.68-2.66.66-.19,1.34-.37,1.98-.62,2.4-.95,4.73-2.1,7.28-2.63.46-.1.93-.15,1.44-.42ZM93.56,89.59c1.26,1.95,2.77,3.34,4.53,4.6-.44-2.11-.87-4.12-1.29-6.14-.11-.53.03-1.19-.53-1.52-.57-.33-.65-.84-.74-1.39-.11-.65-.23-1.31-.37-2.09-.58,2.33-1.29,4.49-1.6,6.53ZM79.62,109.23c-.87-4.09-2.29-7.81-4.04-11.44-.18.81,0,1.6,0,2.39,0,1.46.21,2.92.39,4.36.13,1.03-.37,2.27.74,3.11.8.58,1.71,1.09,2.92,1.57ZM101.73,81.96c-.47-.11-.7-.58-1.09-.81-1.39,0-1.74.16-1.83.87-.19.14-.49-.04-.66.23.34.44-.2.93.09,1.46.7-.65.77.48,1.29.45-.18.05-.36.09-.56.15.68.4,1.87.57,1.97.28-.1-.08-.21-.16-.33-.24.47-.25.94-.49,1.35-.7.14-.42-.34-.27-.34-.52.11-.06.2-.12.3-.18-.03-.23-.37-.08-.38-.3-.06-.28.31-.39.2-.68ZM114.08,81.54c-.83-.35-.56-.83-.4-1.3-.62,0-.8-.79-1.27-.79-.64.21-1.15.37-1.74.57.18.59-.25.91-.71,1.17.15.39.69.42.63.87.48.09.97-.09,1.43.13-.4.29-.9,0-1.34.24.65.79,1.46.61,2.06.61.73-.18.54-.86.93-1.13-.13-.17-.47.11-.55-.26.25-.02.48-.05.96-.09ZM105.11,91.82c-.03-.25.13-.57-.08-.77-.6-.56-.99-1.44-1.76-1.69-.99-.32-1.58.58-2.2,1.03-.13.5.27.92-.35,1.35.61-.15.68.41,1.32.44.86.12,1.93-.12,3.07-.35ZM80.53,112.43c-.34-1.4-1.42-1.9-2.35-2.55-.22.21-.47.31-.43.48.78,1.29,2.14,1.97,2.59,3.45.37-.37.57.4,1.03.06.05-.06.15-.18.23-.28-.16-.58-.4-1.05-1.06-1.16ZM171.47,206.95c-.04-.15-.12-.21-.17-.14-.37.49-.8.96-.78,1.67.32-.52.65-1.04.95-1.53ZM138.13,65.58c.82.13,1.62.28,2.42,0h-2.42ZM165.26,70.44c.73.11,1.46.19,2.44,0-.99-.19-1.72-.1-2.44,0ZM79.55,220.66c-.66-.06-1.3-.19-1.92.04.65.13,1.3.13,1.92-.04ZM88.6,220.45c.93.15,1.58.17,2.23-.04-.65-.08-1.3-.15-2.23.04ZM70.95,203.36h-1.94c.65.12,1.3.25,1.94,0ZM43.78,184.18c-.65-.06-1.29-.19-2.2.06.93.11,1.58.1,2.2-.06ZM30.08,170.12s.04-.08.06-.12h-1.91s0,.08,0,.12h1.85ZM146.44,159.73c.93.15,1.58.17,2.23-.04-.65-.08-1.3-.15-2.23.04ZM140.01,158.6l.04-.12h-1.9s0,.08,0,.12h1.85ZM146.46,168.92c-.55-.24-1.2-.25-1.85,0h1.85ZM151.02,181.88c-.55-.24-1.2-.25-1.85,0h1.85ZM28.45,140.31c.66.04,1.29.18,1.92-.05-.65-.13-1.3-.13-1.92.05ZM162.81,68.63c.65-.01,1.07.09,1.48-.15-.41-.01-.83-.19-1.48.15ZM62.32,117.19c.5.23.84.21,1.28.05-.41-.18-.71-.12-1.28-.05ZM103.67,92.52c-.4-.17-.74-.17-1.2.01.47.14.8.16,1.2-.01ZM59.9,127.36c.57.08.9.17,1.26-.06-.39-.15-.73-.15-1.26.06ZM73.59,174.63c.56.1.89.17,1.33-.09-.45-.05-.79-.13-1.33.09ZM34.59,176.78c.39.11.72.22,1.11-.08-.4-.06-.74-.14-1.11.08ZM151.76,185.93c-.5-.23-.84-.21-1.28-.05.41.18.71.12,1.28.05ZM115.15,211.36c.51.09.85.16,1.32-.11-.48-.02-.82-.13-1.32.11ZM115.15,207.48c-.29-.19-.57-.18-.87,0,.29.19.57.17.87,0ZM163.92,70.43c.36.18.62.18.91,0-.29-.16-.54-.14-.91,0ZM112.34,87.2c-.18.02-.4-.21-.58.07.2.09.39.09.58-.07ZM62.13,102.1c-.34-.1-.6-.23-.91.2.34-.13.6.05.91-.2ZM60.26,117.25c.27.11.46.2.63-.04-.2-.13-.38-.14-.63.04ZM62.05,117.19c-.16.06-.39-.24-.55.12.21.04.39.11.55-.12ZM133.46,71.89c.27.11.46.2.63-.04-.21-.13-.38-.14-.63.04ZM110.89,123.5c-.03-.54-.07-.74-.47-.51.1.11.2.22.47.51ZM71.54,174.6c.27.13.46.21.63-.02-.2-.15-.38-.13-.63.02ZM73.39,174.6c-.21-.17-.42-.17-.63,0,.21.17.42.17.63,0ZM33.62,176.77c.27.11.46.2.63-.04-.21-.13-.38-.14-.63.04Z"/>
    <path class="cls-1"
          d="M182.64,240.24c-.45-2.02-.41-4.14-1.39-6.28.06-1.17-.4-2.44-1.15-3.67,4.69-2.28,9.44-4.07,14.42-5.56,1.19,1.78,2.53,3.34,3.69,5.27-.89-.15-1.82-.32-2.63.17-.82.5-1.97.42-2.6,1.32.8.77,1.35.91,2.32.64.19.16.28.36.09.57,1.04.51,1.28-.57,1.91-.68.07-.46-.63-.3-.44-.86.22-.27.71-.26,1.01-.53.3.11.13.48.4.58.53-.1,1.07-.18,1.5-.52,1.44.56,2.98.73,4.37,1.4.19.09.42.09.58.3.37.5.91.67,1.48.88,1.2.44,2.09,1.39,2.99,2.26.82.79,1.56,1.67,2.31,2.53.33.37.81.51,1.25.94.15.34.3.83.6,1.24h-30.72ZM197.45,231.78c.35.02.59,0,.3-.42-.26.03-.28.21-.3.42Z"/>
    <path class="cls-2"
          d="M94.3,68.3c-.44-2.46-.88-4.91-1.31-7.37-.04-.23-.05-.47-.08-.7.93-.39,1.92-.62,2.91-.69,1.72-.11,3.41-.43,5.07-.82,2.26-.54,4.58-.7,6.85-1.27,1.09-.27,2.3-.44,3.42-.66,2.04-.39,4.05-.89,6.13-1.01-.02-.11-.19-.25.17-.4,1.91.51,3.79-.65,5.82-.44-.12-.34-.43-.13-.52-.28-.12-.2-.49-.06-.49-.46,3.71.63,7.23-.63,10.85-.95-.04-.19-.06-.3-.06-.33,1.48-.58,3.21-.37,4.45-1.4,0-.47-.32-.36-.41-.52.12-.08.25-.17.42-.29-1.7-.55-3.19.74-4.81.36-.38.33-.75.53-1.28.55-1.79.06-3.59.43-5.3.83-2.72.64-5.48.8-8.21,1.27-1.72.3-3.45.59-5.17.9-1.67.31-3.33.7-4.99,1.04-1.97.4-3.94.83-5.93,1.17-1.56.27-3.11.57-4.66.95-1.49.37-3.04.54-4.51,1.03-.3-1.79-.58-3.58-.91-5.36-.1-.52,0-1.03-.1-1.54,1.91-.06,3.79-.3,5.69-.66.09-.23-.38-.05-.27-.39,1.04.22,2.07-.06,3.16-.03-.18-.41-.67.03-.8-.48h3.33c-.36-.31-.76-.05-.95-.45,4.25.23,8.25-1.19,12.49-1.47.33-.51.94-.47,1.53-.45.28,0,.58.06.84-.02,1.43-.42,2.93-.53,4.38-.64,1.77-.13,3.52-.39,5.26-.6,2.83-.35,5.62-1.08,8.42-1.67.12-.03.21-.19.35-.31-.14-.07-.24-.12-.34-.17-.07.14-.17-.21-.04-.11.51-.18.53-.21.5-.75-1.66-.3-3.2.38-4.89.51.46.33.96-.03,1.49.43-3.4-.22-6.58.22-9.75.71-3.13.49-6.29.77-9.41,1.44h5.92c-.33.29-.58.21-.81.22-2.81.11-5.63-.14-8.45.22-2,.26-3.96.76-5.96,1.06-1.91.29-3.77.88-5.69,1.18-.66.1-1.35.01-1.97.22-1.46.5-3.03.48-4.49.95-.52-1.74-.81-3.52-.98-5.32,3.85-.77,7.72-1.39,11.68-1.5-.27-.38-.76.03-1.05-.38,2.76-.22,5.42-.73,7.83-1.2,4.59-.28,8.78-1.62,13.1-2.08-.72-.2-1.46,0-2.16-.29,4.49.26,8.79-.77,13.16-1.93.17-.17.26-.51.41-.83-.22-.18-.15-.54-.54-.7-2.75.66-5.64.95-8.49,1.48.01.1.02.19.03.29h4.56c0,.07,0,.13,0,.2h-7.08c.22.19.32.28.41.36-.41.39-.7-.23-1.09-.13-1.15.27-2.32.36-3.47.56-1.82.32-3.67.41-5.48.83-1.2.28-2.44.56-3.7.57.03.25.32.18.25.45-1.06,0-2.17-.18-3.19.04-2.08.45-4.18.71-6.27,1-2,.27-3.99.56-5.98.85-1.12.16-2.2.56-3.34.54-.28-1.81-.54-3.63-.85-5.44-.08-.43-.11-.85-.13-1.29.28-.3.65-.21,1-.27,1.84-.3,3.66-.64,5.5-.94,1.56-.26,3.11-.6,4.68-.69,1.15-.07,2.27-.24,3.33-.58.57-.18,1-.57,1.61-.2.03.02.13-.1.19-.1,1.81-.02,3.52-.79,4.47-.69,6.42-1.27,12.1-1.85,17.65-3.11.27.01.15-.4.47-.42.87.14,1.68-.06,2.47-.4-.32-.06-.64-.03-.96-.07-.3-.04-.66.17-.94-.16,1.78-.34,3.62.5,5.47-.36-.25-.15-.38-.22-.5-.3.18-.21.63-.15.58-.62-.58-.31-1.21-.63-1.87-.44-1.04.32-2.13.41-3.18.63-2.48.51-4.91,1.28-7.41,1.67-1.73.27-3.45.65-5.19.76-1.88.11-3.67.67-5.53.89-1.5.18-2.96.71-4.45.78-2.46.13-4.78.95-7.22,1.11,1.07.22,2.14.02,3.19.29-1.39.02-2.79.22-4.16-.08-.47.35.31.45.06.82-.24-.41-.5.28-.75,0-.04-.35.44-.34.39-.68-.03-.06-.05-.15-.09-.16-.14-.04-.16.07-.18.17-1.09-.09-2.12.34-3.45.28.66.37,1.18.04,1.57.39-.17.42-.42.31-.69.24-.92-.25-1.88-.07-2.8-.07-1.17,0-2.37.26-3.56.4-.68-2.24-1.01-4.54-1.34-6.85-.08-.54-.33-1.07-.21-1.65.26-1.26.93-2.24,2.1-2.73,1.38-.58,2.79-1.14,4.32-1.23,1.63-.1,3.19-.59,4.8-.83,2.11-.32,4.21-.74,6.32-1.1,2.26-.38,4.53-.69,6.78-1.14,2.13-.42,4.29-.74,6.45-1.01,1.69-.21,3.36-.59,5.05-.81,2.83-.36,5.63-.91,8.45-1.38.47-.08.95-.13,1.41-.25,2.38-.61,4.87-.35,7.27-.93,4.98-1.21,10.03-2,15.1-2.7,2.4-.33,4.79-.78,7.19-1.08,1.33-.17,2.7-.28,4.02.23,1.06.41,1.82,1.05,2.07,2.25.51,2.4.83,4.83,1.16,7.27.09.71.34,1.4.25,2.12-1.22,0-2.44.14-3.62.43-1.3.32-2.58.6-3.92.57-.4,0-.83-.08-1.19.05-2.31.83-4.73.87-7.17,1.24-1.41.78-3.15.38-4.66.98.21.29.62-.05.88.32.08.1-.12.35.22.52,1.35-.12,2.8.38,4.25-.11-.1-.25-.51.01-.54-.37h2.85c.21-.24.29-.53.72-.5.84.06,1.69-.04,2.52.03,1.25.11,2.47-.23,3.55-.62,2.07-.75,4.2-.98,6.33-1.3.32,2.06.4,4.15.9,6.18.2.8-.13,1.67.28,2.45-1.67-.18-3.27.37-4.89.59-1.84.24-3.69.57-5.54.79-1.82.22-3.55.93-5.44.85-.42-.02-1.12-.07-1.46.24-.86.75-1.84.62-2.82.65-.55.01-1.14-.1-1.55.38.17.56.71.19,1.02.43-.37.14-.47.48-.59.82.77.14,1.45-.04,2-.46.09-.32-.37-.09-.22-.53,5.17.52,10.17-1.18,15.26-1.39.2-.14-.07-.27.06-.42.48-.19.86.38,1.34.19.92-.37,1.93-.24,2.85-.54.43,1.18.5,2.44.66,3.66.12.93.41,1.86.3,2.82-.45.12-.9.09-1.1.07-.36-.2-.01-.38-.3-.4-3.07.01-5.96,1.29-8.99,1.16-.17.28.38.17.06.52-1.68-.45-3.27.49-4.98.45-.46-.01-1.21.21-1.34.53-.29.71-.93.6-1.26.54-.98-.18-1.78.14-2.59.57-.41.11-.86-.13-1.29.13.5.26,1.03,0,1.52.17-.03.2-.19.46.23.43.27-.02.37.08.18.33-.25.32-.7-.02-1.03.36.46-.04.88.23,1.22-.19.78-.14,1.58-.23,2.16-1.04,4.08.47,8.05-.63,12.07-1.42h-3.81c1.44-.32,2.91-.31,4.32-.31,1.77,0,3.46-.15,5.16-.59,0,0-.03-.02-.03-.02.08.08.15.15.23.23.03.28.07.57.1.85.11.26-.21.6.14.82.24,1.78.48,3.57.71,5.35.18,1.44.35,2.88.5,4.32.08.78.4,1.54.25,2.34-3.7.34-7.34,1.17-11.24,1.54-.22.11-.6.34-1.1.4-1.69.2-3.39.35-5.05.85-.76.23-1.55.52-2.36.57-1.48.08-2.9.64-4.37.66-1.12.01-2.14.46-3.22.53-1.41.08-2.76.46-4.15.67-1.9.28-3.78.66-5.48.81-2.15-1.13-3.98.18-6.07.12-.25-.21-.79-.22-1.28-.12-1.81.36-3.66.55-5.43,1.16-1.36.47-2.83.49-4.22.79-2.62.56-5.27.94-7.9,1.42-1.6.29-3.22.3-4.8.87-1.4.51-2.96.65-4.47.75-1.53.1-3,.47-4.51.68-1.42.2-2.83.46-4.27.45ZM158.97,52.14s0,.07,0,.11h3.62v-.11h-3.62ZM150.35,27.4v.23c.58.06,1.14-.03,1.7-.23h-1.7ZM143.44,31.24s-.04.08-.06.12h1.91s0-.08,0-.12h-1.85ZM162.76,45.25c.93.15,1.58.17,2.23-.04-.65-.08-1.3-.15-2.23.04ZM164.98,16.88c-.57-.08-.9-.17-1.26.06.39.15.73.15,1.26-.06ZM141.25,31.84c.34.01.68.19,1.08-.1-.42-.05-.75-.13-1.08.1ZM144.36,31.79c-.32-.07-.66-.19-1.02,0,.34.21.68.13,1.02,0ZM148.44,44.52c.29.08.64.23,1.05,0-.38-.17-.69-.11-1.05,0ZM113.52,21.7c-.37-.11-.63-.24-.85.07.26.1.51.11.85-.07ZM162.48,16.93c-.36-.18-.62-.18-.91,0,.29.16.54.14.91,0ZM120.83,19.13c.16-.06.39.24.53-.09-.19-.12-.37-.13-.53.09ZM135.86,57.96c.27.13.46.2.63-.02-.2-.15-.38-.13-.63.02ZM108.05,39.72c.21.17.42.17.63,0-.21-.17-.42-.17-.63,0ZM171.72,40.57c-.11.07-.11.15,0,.22.11-.07.11-.15,0-.22Z"/>
    <path class="cls-1"
          d="M118.82,114.26c-.62.26-1.29.2-1.93.31-.43.07-.86-.05-.66-.78.49.09.92.11,1.3-.49.68-1.07,1.97-1.45,2.99-2.13,1.42-.94,2.99-1.7,4.65-2.17.5-.14.64-.72,1.15-.75.39.23.22.76.58,1v-.02c.06.51.1,1.03.03,1.5-.72.48-1.04,1.2-1.14,1.94-.18,1.28-.7,2.42-1,3.05-.55,2.95.66,5.2.49,7.51.52.59,1.16.98,1.19,1.77-.19.05-.26-.24-.44-.05v.34c-.06.27-.48-.11-.49.26.03.19.16.23.29.21.21-.14-.06-.38.17-.5.39.22.31.5.09.78-.14.19-.36.31-.33.6.13,1.08.16,2.19.32,3.25.22,1.48.15,2.97.35,4.45.23,1.7.1,3.46.25,5.19.09,1.01.22,2.06.05,3.1-.16,1-.23,2.11-.12,3.03.11.95-.03,1.9-.02,2.81,0,.93-.02,1.91-.02,2.9.04-.32.36-.45.4-.8.14-1.2.75-2.27,1.17-3.36.37-.95.78-1.92,1.21-2.87.28-.62.46-1.29.76-1.89,1.05-2.14,1.85-4.38,2.8-6.56.76-1.75,1.03-3.7,1.62-5.53.43-1.34.71-2.69.84-4.08.13-1.36-.09-2.69-.55-3.93-.48-1.3-.97-2.59-2.03-3.66-.95-.96-1.8-2.12-2.26-3.39.17-.43.4-.61.77-.55,0,.31.2.25.39.22.43,1.37,1.54,2.29,2.38,3.34,1.17,1.47,1.58,3.2,2.21,4.84.64,1.68.75,3.51.73,5.3-.02,1.63-.05,3.3-.51,4.88-.66,2.22-.88,4.55-1.63,6.74-.42,1.23-.98,2.41-1.43,3.63-.86,2.34-1.57,4.73-2.49,7.05-.53,1.34-.73,2.81-1.26,4.18-.41,1.06-.85,2.12-1.19,3.22-.28.92-.56,1.84-.83,2.76-.58,1.95-1.51,3.78-1.95,5.78-.37,1.65-.95,3.26-1.48,4.85-.48,1.46-.87,3.01-1.69,4.35-.26.42-.02.88-.16,1.27-.62,1.7-.94,3.49-1.65,5.16-.82,1.91-1.14,3.98-1.74,5.95-.78,2.53-1.28,5.13-2.2,7.63-.5,1.35-.68,2.85-1.14,4.23-.42,1.28-.49,2.64-1.02,3.9-.37.86-.34,1.88-.85,2.74-.1.17-.05.47.02.55-1.34,3.28-2.14,6.7-3.7,10.15-.16-1.04-.42-1.84-.39-2.64.08-2.19-.28-4.35-.31-6.54-.03-1.81-.49-3.61-.9-5.39-.37-1.62-.69-3.25-1.04-4.87-.53-2.51-.59-5.08-1.26-7.58-.4-1.52-.58-3.13-.8-4.71-.15-1.09-.48-2.12-.81-3.13-.54-1.65-.74-3.37-1.14-5.04-.33-1.39-.97-2.68-1.25-4.1-.35-1.77-.77-3.55-1.44-5.21-.87-2.15-1.45-4.37-2.11-6.58-.35-1.15-1.08-2.13-1.42-3.26-.47-1.55-1.38-2.92-1.77-4.5-.27-1.09-.67-2.12-1.09-3.16-.18-.44-.44-.72-.7-1.05-.11-1.55-1.03-2.81-1.61-4.18-.22-.52-.43-1.07-.67-1.57-.72-1.53-1.09-3.2-2.04-4.64-.7-1.06-1-2.33-1.44-3.51-.23-.62-.5-1.21-.83-1.75-1.68-2.73-2.91-5.68-4.28-8.56-.99-2.08-1.77-4.27-3.03-6.21-.73-1.12-1.17-2.32-1.54-3.57-.12-.4-.29-.82-.55-1.14-.54-.65-.66-1.39-.64-2.19.01-.57.07-1.15-.36-1.89,1.14.55,1.73,1.3,2.02,2.17.81,2.42,2.36,4.41,3.66,6.54.48.79.84,1.63,1.35,2.41.81,1.24,1.44,2.6,2.11,3.93,1.38,2.74,3.1,5.28,4.35,8.1,1.19,2.69,2.32,5.47,3.95,7.93,1.18,1.77,1.74,3.75,2.51,5.66,1.09,2.71,2.31,5.36,3.43,8.06.49,1.17.77,2.41,1.23,3.59.48,1.25.91,2.52,1.32,3.8.41,1.28.7,2.6,1.11,3.87.38,1.2.77,2.41,1.15,3.61.65,2.02.81,4.17,1.55,6.2.14-.25.27-.48.38-.69-.32-1.48-.5-2.94-.74-4.39-.33-1.95-.37-3.97-.98-5.85-.31-.96-.11-1.92-.41-2.88-.83-2.7-1.02-5.54-1.65-8.3-.59-2.57-1.17-5.18-1.41-7.8-.21-2.3-1.15-4.35-1.48-6.56-.18-1.2-.2-2.47-.58-3.6-.63-1.87-.86-3.83-1.58-5.68-.28-.73-.33-1.58-.5-2.38-.38-1.78-1.29-3.39-1.53-5.21-.03-.2-.28-.37-.43-.57.03-.75-.17-1.42-.43-2.15-.74-2.06-1.38-4.15-2.08-6.22-.69-2.05-1.51-4.09-1.96-6.25.2-.15.45-.14.62.05,2,2.23,4.6,3.74,6.78,5.77,1.1,1.03,2.39,1.86,3.65,2.7.65.43,1.25.95,1.83,1.44.98.83,1.82,1.84,3.16,2.14.28.06.07-.44.58-.36.75.6.43,1.87,1.25,2.65.79.75,1.61,1.48,2.37,2.13-.23,2.11-.33,4.14-.69,6.13-.28,1.53-.18,3.09-.59,4.64-.29,1.08-.36,2.33-.33,3.52.06,3.1-.26,6.19-.27,9.29-.01,3.76-.28,7.52-.21,11.29.02,1.37.19,2.76-.21,4.12-.09.3.21.55.23.89.13,1.81-.11,3.61,0,5.41.18,2.78.17,5.56.25,8.33.04,1.47.05,2.93-.02,4.39-.03.67-.15,1.42.08,2.01.44,1.15.08,2.33.31,3.5.21,1.09.01,2.34.14,3.47.29,2.48-.04,4.97.37,7.43.03.19.07.4.05.59-.16,1.99.32,3.95.35,5.96,1.25-4.71,2.43-9.44,3.72-14.13-.13-.28-.46-.06-.63-.26.16-.32.69.08.76-.44.23-1.22.32-2.52,1.02-3.67.22-.37,0-.85.14-1.28,1.07-3.3,1.84-6.69,2.48-10.08.48-2.56,1.06-5.11,1.31-7.73.11-1.14.46-2.31.53-3.43.06-1.01.27-2.03.19-3.08-.08-1.04.02-2.11.14-3.17.16-1.4.24-2.84.27-4.26.04-1.96-.24-3.92-.16-5.87.04-.85-.09-1.67-.06-2.5.05-1.63-.08-3.27,0-4.9.07-1.35-.1-2.71-.31-4.01-.24-1.47-.87-2.92-1.83-4.18-.72-.94-1.43-1.92-1.96-3.08.62-.26,1.24-.43,1.96-.43-.44-.41-1.07.07-1.35-.5.21-.71.46-1.42.62-2.15.16-.76.56-1.15,1.34-1.15.32,0,.64,0,.95-.05.85-.15,1.48-.65,1.5-1.52.03-1.35.97-2.33,1.2-3.58.13-.34-.23-.44-.34-.69.39-.78-.1-1.5-.11-2.27-.2-.03-.35-.05-.5-.07q.03-.57-.56-1.13c-.07.13-.14.27-.22.42-.63-.72-1.61-1.03-2.06-1.92.23,0,.46.08.67-.08-.17-.2-.39-.25-.64-.31v.42ZM118.8,127.82c-.02-.14-.03-.21-.05-.28-.21-.17-.42-.11-.63,0,.15.21.25.49.68.29ZM126.6,151.61c-.47.2-.42.43-.15.73-.12-.28.2-.35.15-.73Z"/>
    <path class="cls-1"
          d="M90.3,89.09c.74-.11.7-1.14,1.51-1.25.31.59-.12,1.24.16,1.84.53,1.12,1.24,2.13,1.94,3.13,1.4,2.01,3.57,3.3,5.08,5.16,1.26,1.55,3.32,2.14,4.26,3.95,2.25,1.64,3.84,4.04,6.23,5.52.17.1.28.29.43.42.71.6,1.44,1.2,2.13,1.79,1.08.92,2.41,1.75,2.92,3.22.14.41,1,.34.64,1.09-.81-.53-1.77-.38-2.83-.54-.13.05-.28.35-.54.54-1.02.2-2.15-.3-3.14.5-.6,1.21-.92,2.58-1.44,4.06-1.98-1.93-4.27-3.18-6.08-5.02-.33-.34-.76-.66-1.19-.93-.51-.33-1.09-.52-1.39-1.16-.16-.35-.65-.53-.97-.53-2.98-2.8-5.89-5.54-8.93-8.4-.08-1.7-1.18-3.33-1.54-5.18-.25-1.28-.56-2.54-.67-3.84-.05-.6.03-1.18.28-1.73.55-.58,1.1-1.15,1.65-1.73.29,0,.6.08.88-.06.08-.22.15-.43.22-.64.19.05.31-.03.4-.19Z"/>
    <path class="cls-2"
          d="M126.02,125.28v-.34c.18-.19.26.09.44.05-.03-.79-.67-1.17-1.19-1.77.17-2.31-1.04-4.56-.49-7.51.3-.62.82-1.77,1-3.05.11-.74.42-1.46,1.14-1.94.07-.47.04-.99-.02-1.5.77-.06.8.67,1.17,1.02.72.66.96,1.61,1.69,2.24.27.24.36.69.53,1.05-.35.25-.21.57-.15.98h1.14s-.03-.03-.03-.03c0,.09,0,.18,0,.26h.03c-.38-.07-.6.11-.77.54.46,1.27,1.31,2.43,2.26,3.39,1.06,1.07,1.55,2.36,2.03,3.66.46,1.24.68,2.57.55,3.93-.13,1.4-.41,2.74-.84,4.08-.59,1.83-.86,3.79-1.62,5.53-.95,2.18-1.75,4.42-2.8,6.56-.3.61-.48,1.27-.76,1.89-.42.95-.84,1.93-1.21,2.87-.42,1.09-1.03,2.17-1.17,3.36-.04.36-.36.48-.4.8,0-.99.03-1.97.02-2.9,0-.91.12-1.86.02-2.81-.1-.93-.04-2.03.12-3.03.17-1.04.04-2.09-.05-3.1-.16-1.73-.02-3.49-.25-5.19-.2-1.48-.13-2.97-.35-4.45-.16-1.05-.19-2.16-.32-3.25-.03-.29.18-.42.33-.6.21-.28.3-.56-.09-.78l.03.03ZM127.84,112.1c-.7,1.18-1.68,2.26-1.55,3.8h.59c.14-.45.02-.99.45-1.33.17.31.37.59.73.84.27-.61.68.27,1.02-.09-.18-.4-.74-.32-.92-.83.12-.75-.45-1.5-.32-2.39ZM126.11,117.08c-.13.27-.5.32-.27.7.34.15.44-.11.61-.36-.1-.1-.19-.19-.34-.35ZM126.64,116.15c-.55.07-.4.38-.33.67.25-.11.48-.23.33-.67Z"/>
    <path class="cls-1"
          d="M94.3,68.3c1.44.01,2.85-.25,4.27-.45,1.5-.21,2.98-.58,4.51-.68,1.51-.1,3.07-.25,4.47-.75,1.58-.57,3.21-.58,4.8-.87,2.63-.48,5.28-.86,7.9-1.42,1.39-.3,2.87-.33,4.22-.79,1.77-.61,3.62-.8,5.43-1.16.49-.1,1.03-.09,1.28.12,2.09.06,3.92-1.24,6.07-.12,1.7-.15,3.58-.52,5.48-.81,1.38-.21,2.74-.59,4.15-.67,1.08-.06,2.1-.51,3.22-.53,1.47-.02,2.89-.58,4.37-.66.81-.05,1.6-.34,2.36-.57,1.66-.5,3.35-.64,5.05-.85.5-.06.88-.29,1.1-.4,3.91-.38,7.54-1.2,11.24-1.54.02.19.05.39.06.51-.12.28-.56.08-.49.47-.57-.19-1.06.2-1.61.24-1.86.12-3.67.62-5.51.9-1.23.19-2.46.43-3.7.5-1.33.08-2.58.56-3.9.65-1.63.11-3.18.89-4.87.65-.11-.02-.69.04-.57.54.08.03.16.1.22.09,1.95-.31,3.89-.66,5.85-.94,1.73-.25,3.48-.47,5.19-.79,2.09-.39,4.23-.58,6.27-1.18.87-.26,1.93.22,2.61-.68.19.02.37.04.56.06.13.22.13.45.13.68-.47.02-.91.08-1.38.19-2.38.57-4.8.93-7.22,1.26-1.46.2-2.89.53-4.33.84-.28.06-.55.13-.82.09-1.48-.18-2.84.45-4.27.63-.77.1-1.55.2-2.31.35-.54.11-.88-.23-1.21-.52-.68.27-.3.81-.39,1.15-3.79-.06-7.43.75-11.05,1.71-.15.04-.31.06-.47.06-2.18-.01-4.35.35-6.54.27-.99-.04-1.98.09-2.99,0-1.37-.13-2.69.34-4.04.57-.11.02-.22.11-.33.11-.68.01-1.36-.01-2.04.02-.6.03-.72.82-1.44.82-1.83-.02-3.57.62-5.36.9-1.36.21-2.74.37-4.09.77-1.1.33-2.29.52-3.44.58-1.31.06-2.52.51-3.82.6-1.82.13-3.62.6-5.43.87-1.92.29-3.86.48-5.75.95-.26.06-.55,0-.8,0-.51.71.12,1.3.09,1.93-.44,0-.32-.4-.35-.6-.15-1.03-.54-2.04-.41-3.11ZM132.35,63.23c-.42-.11-.83-.18-1.33.02.51.16.93.14,1.33-.02ZM144.72,61.54c-.37-.11-.63-.24-.85.07.26.1.51.11.85-.07ZM142.81,62.08c.33.08.61.19.94-.07-.33-.08-.61-.19-.94.07ZM137.74,63.21c-.24-.09-.44-.17-.69.06.24.09.44.17.69-.06Z"/>
    <path class="cls-1"
          d="M151.99,97.05c-.44-.34-.16-.74-.03-1.08.62-1.59,1.28-3.17,1.93-4.75.43-1.04.88-2.06,1.3-3.1.19-.47.38-.66.99-.61.92.07,1.86-.32,2.81-.18-.07.1-.14.2.03.28.05-.11.04-.21-.07-.28.21-.22.43-.27.64,0-.02.33.17.29.38.23,2.26-.26,4.52-.52,6.85-.63.18.72.24,1.41-.5,1.91.04,1.72-.93,3.08-1.54,4.83.3,1.02.21,1.27-.81,1.72.48.21-.46.73.21.9-.11.31-.44.12-.64.3-.16.21-.21.46,0,.72-.33-.29-.73.16-1.06-.1.21-.02.46.17.64-.1q-.43-.43-.78.1c-.6.03-1.19,0-1.81.1-1.34.21-2.73.16-4.09.06-.35-.03-.62.02-.94.05-.48.05-1.11.29-1.39-.43-.78.57-1.35.59-2.12.06ZM163.03,96.39c.25.08.36-.06.43-.27-.19-.1-.36-.16-.45.12-1.06-.09-2.08.16-3.09.39,1.06.19,2.08-.22,3.12-.24ZM165.91,88c.31.06.56.16.59-.21-.26-.21-.4-.02-.59.21ZM160.32,97.08c.08.11.15.11.23,0-.08-.11-.15-.11-.23,0ZM158.29,87.78s.07-.04.07-.07c0-.02-.04-.05-.06-.07-.02.04-.05.07-.07.11.02.01.04.03.06.04Z"/>
    <path class="cls-1"
          d="M153.6,79.42c2.35-.68,4.65-1.59,7.15-1.44.06-.45-.16-.59-.43-.69-1.05,1.06-2.31.12-3.59.35-.13-.04-.28-.28-.45-.49.07-.15.32-.04.36-.27-1.23-.09-1.53-1.31-2.33-1.94-1.79-1.42-3.01-3.41-4.85-4.99,2.9-.63,5.72-.93,8.47-1.52h4.52c-.37.37-.82.07-1.24.39,2.37,2.58,4.73,5.15,7.11,7.73.78-.05,1.58.19,2.33-.21l-.03-.04c.16.4-.2.48-.42.64.15.22.36.15.54.17-3.46.6-6.94.97-10.42,1.39-1.34.16-2.64.56-3.99.73-.91.11-1.82.22-2.74.19ZM160.1,75.81c-.11-.34.06-.75-.21-1.34-.03.63-.13,1.01.21,1.34ZM163.66,74.78c.41.13.66.16.92,0-.28-.22-.55-.16-.92,0Z"/>
    <path class="cls-1"
          d="M131.01,97.2c.2-1.63,1.36-2.85,1.88-4.35.55-1.58,1.34-3.08,2.08-4.75.18-.1.53-.28.77-.4.5-.14.78.16,1.13.21.17.58.48.51.84.18.34.03.67.05,1.01.1.35.05.36-.13.29-.39l-.04.04c.91.49,1.87.22,2.81.17.94-.05,1.86-.47,2.73-.22.32-.05.19-.43.46-.41.58-.02.73.52,1.2.91-.99.04-1.82.38-2.7.28.38.38,1.39.4,3.03.02-1.37,2.79-2.69,5.49-4.01,8.19-.17.07-.22.29-.45.33-1.62.25-3.25.11-4.87.17-.22,0-.32-.2-.5-.3-.76.41-1.52.43-2.3.02-1.08.63-2.22.22-3.35.21ZM134.37,94.08c.43-.02.87-.04,1.3-.06.3.04.58.05.7-.33-.3-.11-.54-.09-.73.15-.43.02-.87.04-1.3.06-.31-.06-.57-.01-.74.32.33.11.58.1.77-.14ZM141.84,90.33c-.31-.38-.67-.56-1.16-.45.54.19-.38.94.51,1.02.05-.28.34-.41.64-.57ZM137.55,93.64c-.23-.1-.41.1-.62.1.19-.14.46.2.62-.1ZM136.02,94.77c-.23-.2-.32-.05-.39.16.2.14.34.12.39-.16ZM141.26,91.26l-.05.07h.08s-.03-.07-.03-.07ZM145.08,90.17s.07-.04.07-.07c0-.02-.04-.05-.06-.07-.02.04-.05.07-.07.11.02.01.04.03.06.04Z"/>
    <path class="cls-1"
          d="M134.8,82.09c.12-.19.31-.23.52-.22,1.75.09,3.47-.26,5.2-.46.74-.09,1.38-.66,2.2-.61-1.55-.09-3.09-.11-4.69.34-1.88-.84-3.09-2.57-4.57-3.97-1.46-1.39-2.86-2.84-4.4-4.38,2.01-.22,3.86-.41,5.72-.61.04-.16-.18-.15-.26-.36,1.68.35,3.32-.14,4.99-.02,3,2.55,5.52,5.6,8.59,8.27.7-.03,1.55-.48,2.47-.29-2.52.62-5.12.76-7.64,1.3-2.38.5-4.79.65-7.18,1.02-.31.05-.63.13-.94.01ZM143.45,80.55c.47.13.8.26.75-.33-.24.1-.43.19-.75.33Z"/>
    <path class="cls-1"
          d="M92.68,58.82c1.47-.49,3.02-.66,4.51-1.03,1.54-.38,3.09-.68,4.66-.95,1.98-.34,3.95-.76,5.93-1.17,1.67-.34,3.32-.74,4.99-1.04,1.72-.32,3.45-.6,5.17-.9,2.73-.48,5.49-.63,8.21-1.27,1.71-.4,3.51-.77,5.3-.83.53-.02.9-.21,1.28-.55,1.62.38,3.1-.91,4.81-.36-.18.12-.3.2-.42.29.1.16.41.05.41.52-1.24,1.03-2.97.82-4.45,1.4,0,.04.03.15.06.33-3.62.32-7.14,1.57-10.85.95,0,.41.36.27.49.46.1.15.4-.06.52.28-2.03-.21-3.9.95-5.82.44-.37.15-.19.29-.17.4-2.08.11-4.09.62-6.13,1.01-1.13.22-2.34.39-3.42.66-2.26.57-4.58.73-6.85,1.27-1.65.39-3.35.71-5.07.82-.99.07-1.98.29-2.91.69-.08-.47-.16-.94-.24-1.41ZM118.89,54.4h2.9c-.97-.13-1.94-.24-2.9,0ZM115.31,54.86c.6.1.94.18,1.29-.03-.37-.17-.7-.14-1.29.03ZM116.69,54.36c.21.17.42.17.63,0-.21-.17-.42-.17-.63,0Z"/>
    <path class="cls-1"
          d="M97.69,33.57c.05.34-.42.33-.39.68.25.29.51-.41.75,0,.24-.37-.54-.47-.06-.82,1.37.3,2.77.1,4.16.08-1.05-.27-2.13-.07-3.19-.29,2.44-.16,4.76-.98,7.22-1.11,1.49-.08,2.96-.6,4.45-.78,1.86-.23,3.65-.78,5.53-.89,1.74-.11,3.46-.49,5.19-.76,2.51-.39,4.93-1.16,7.41-1.67,1.05-.21,2.14-.31,3.18-.63.65-.2,1.29.12,1.87.44.06.47-.4.41-.58.62.12.07.25.15.5.3-1.85.86-3.69.03-5.47.36.28.33.64.13.94.16.31.04.63,0,.96.07-.79.34-1.6.54-2.47.4-.32.01-.2.43-.47.42-5.55,1.26-11.23,1.84-17.65,3.11-.95-.1-2.66.68-4.47.69-.07,0-.16.12-.19.1-.61-.37-1.04.02-1.61.2-1.05.34-2.18.51-3.33.58-1.57.09-3.12.43-4.68.69-1.83.3-3.66.64-5.5.94-.35.06-.72-.03-1,.27-.28-.61-.27-1.28-.32-1.93,1.19-.14,2.39-.39,3.56-.4.92,0,1.88-.18,2.8.07.27.07.52.19.69-.24-.39-.35-.92-.02-1.57-.39,1.33.07,2.36-.36,3.45-.28.09,0,.18,0,.27,0ZM94.82,35.11c-.54-.02-.99-.04-1.46.38.56,0,1.04.2,1.46-.38ZM99.2,34.1c.46.28.74.26,1.08.14-.3-.46-.59-.48-1.08-.14ZM103.15,33.48c-.21-.18-.41-.17-.63,0,.21.18.41.17.63,0Z"/>
    <path class="cls-1"
          d="M121.37,84.01c.02-.28-.16-.48-.29-.7-.37-.11-.44.31-.76.38-.31-.04-.23-.49-.48-.64-.29,0-.64-.11-.53.59-.34-.66-1.02-.69-1.13-1.27.58-.16,1.18.09,1.96-.25h-2.25c-.65-.53-.95-1.23-1.66-1.61-.57-.31-.62-1.12-.77-1.75-.26-1.08-.47-2.17-.6-3.48,1.12-.79,2.78-.23,4.12-1.13,1.33,1.11,2.67,2.26,3.94,3.5,1.2,1.17,2.44,2.31,3.7,3.42.71.63,1.48,1.2,2.07,1.95-2.43.35-4.82,1.02-7.3.98ZM124.01,83.14c-.35.19-.72-.7-1.09.09.39.05.74.1,1.09-.09ZM121.1,80.19c-.28-.64-.58-.46-.84-.4.21.1.41.19.84.4ZM119.48,79.22c.23.27.4.29.6.02-.16-.23-.29-.49-.6-.02ZM120.29,82.2c.21.17.42.17.63,0-.21-.17-.42-.17-.63,0Z"/>
    <path class="cls-1"
          d="M91.22,50.67c1.46-.47,3.02-.46,4.49-.95.62-.21,1.31-.12,1.97-.22,1.93-.3,3.79-.89,5.69-1.18,2-.3,3.95-.8,5.96-1.06,2.81-.37,5.63-.11,8.45-.22.23,0,.48.07.81-.22h-5.92c3.12-.67,6.28-.96,9.41-1.44,3.17-.49,6.36-.94,9.75-.71-.53-.45-1.02-.1-1.49-.43,1.69-.12,3.23-.81,4.89-.51.03.54,0,.57-.5.75-.12-.1-.03.26.04.11.1.05.2.1.34.17-.14.12-.23.29-.35.31-2.8.58-5.59,1.32-8.42,1.67-1.74.21-3.5.47-5.26.6-1.45.11-2.95.22-4.38.64-.26.08-.56.03-.84.02-.6-.02-1.2-.06-1.53.45-4.24.29-8.24,1.7-12.49,1.47.18.39.59.13.95.45h-3.33c.13.51.62.07.8.48-1.09-.03-2.12.25-3.16.03-.11.34.36.17.27.39-1.89.36-3.78.6-5.69.66-.15-.42-.3-.84-.45-1.25ZM133.86,44.41c-.63.07-1.29-.27-1.77.39.53-.42,1.27.42,1.77-.39Z"/>
    <path class="cls-1"
          d="M89.8,43.46c1.15.02,2.23-.38,3.34-.54,1.99-.29,3.99-.58,5.98-.85,2.09-.28,4.2-.55,6.27-1,1.03-.22,2.14-.04,3.19-.04.08-.27-.22-.2-.25-.45,1.26,0,2.5-.29,3.7-.57,1.81-.42,3.66-.51,5.48-.83,1.15-.2,2.32-.3,3.47-.56.39-.09.68.53,1.09.13-.09-.08-.19-.17-.41-.36h7.08c0-.07,0-.13,0-.2h-4.56c-.01-.1-.02-.19-.03-.29,2.85-.53,5.75-.82,8.49-1.48.39.16.32.52.54.7-.15.31-.23.66-.41.83-4.38,1.16-8.67,2.18-13.16,1.93.7.3,1.45.09,2.16.29-4.32.46-8.5,1.8-13.1,2.08-2.41.47-5.07.98-7.83,1.2.29.41.78,0,1.05.38-3.96.11-7.83.74-11.68,1.5-.15-.63-.29-1.26-.44-1.89ZM104.77,42.06s0,.08.01.12h3.37s0-.08,0-.12h-3.38ZM100.94,42.86c.65.06,1.29.19,2.2-.06-.93-.11-1.58-.1-2.2.06Z"/>
    <path class="cls-1"
          d="M172.32,42.26c-1.69.43-3.39.59-5.16.59-1.42,0-2.88,0-4.32.31h3.81c-4.02.79-7.99,1.89-12.07,1.42-.58.81-1.38.9-2.16,1.04-.06-.06-.13-.11-.19-.17.19-.24.1-.35-.18-.33-.42.03-.26-.22-.23-.43-.48-.17-1.02.09-1.52-.17.43-.27.87-.02,1.29-.13.81-.42,1.61-.75,2.59-.57.33.06.97.17,1.26-.54.13-.31.88-.54,1.34-.53,1.71.04,3.3-.9,4.98-.45.32-.35-.24-.23-.06-.52,3.03.13,5.92-1.15,8.99-1.16.29.02-.06.2.3.4.2.02.65.05,1.1-.07.44.36-.09.91.24,1.29ZM160.91,43.6c.25.04.51.19.87-.13-.37,0-.61-.09-.87.13ZM160.5,43.06c-.3-.13-.57-.19-.85.04.3.13.57.19.85-.04ZM154.98,44.26c-.3-.13-.57-.19-.85.04.3.13.57.19.85-.04ZM158.61,43.07c-.26-.11-.45-.19-.65.08.23.04.41.11.65-.08ZM162.19,43.08c-.21-.18-.41-.17-.63,0,.21.18.41.17.63,0Z"/>
    <path class="cls-1"
          d="M171.12,34.49c-.93.3-1.94.17-2.85.54-.48.19-.87-.38-1.34-.19-.13.15.14.28-.06.42-5.09.21-10.09,1.91-15.26,1.39-.15.44.31.21.22.53-.54.42-1.22.6-2,.46.12-.35.22-.68.59-.82-.31-.24-.85.14-1.02-.43.41-.49,1-.37,1.55-.38.98-.02,1.97.11,2.82-.65.35-.3,1.04-.26,1.46-.24,1.88.08,3.62-.62,5.44-.85,1.84-.23,3.7-.55,5.54-.79,1.62-.21,3.22-.77,4.89-.59-.39.35.21.67.04,1.01-.53.17-.16.34,0,.51v.09Z"/>
    <path class="cls-1"
          d="M169.91,24.25c-2.13.33-4.26.56-6.33,1.3-1.09.39-2.31.73-3.55.62-.83-.07-1.69.03-2.52-.03-.42-.03-.5.26-.72.5h-2.85c.03.38.44.12.54.37-1.45.49-2.9-.01-4.25.11-.34-.17-.14-.43-.22-.52-.25-.37-.67-.03-.88-.32,1.51-.61,3.25-.21,4.66-.98,2.43-.36,4.86-.4,7.17-1.24.36-.13.79-.06,1.19-.05,1.34.03,2.62-.26,3.92-.57,1.18-.29,2.39-.43,3.62-.43.17.4.23.82.23,1.25ZM153.89,26.28c.21.17.42.17.63,0-.21-.17-.42-.17-.63,0ZM152.93,26.76c.21.18.41.17.63,0-.21-.18-.41-.17-.63,0ZM168.29,23.64c.21.18.41.17.63,0-.21-.18-.41-.17-.63,0Z"/>
    <path class="cls-1"
          d="M170.65,76.34c1.11-.6,2.3-.51,3.54-.47.02.18.04.32.06.47,0,0,0,0,0,0-.3.12-.72-.25-.94.23-.6.33-1.29.3-1.93.45-.25-.23-.51-.46-.76-.69l.03.04Z"/>
    <path class="cls-1" d="M131.29,114.5h-1.14c-.06-.4-.2-.72.15-.98.29.37.85.46.99.98Z"/>
    <path class="cls-1" d="M166.92,97.09c.51-.03,1.02-.06,1.53-.09-.48.48-1.04-.24-1.53.09Z"/>
    <path class="cls-2" d="M89.9,89.28c-.07.21-.14.42-.22.64-.28.15-.58.06-.88.06.37-.23.63-.63,1.09-.71Z"/>
    <path class="cls-2" d="M162.34,97.22q.35-.53.78-.1c-.18.27-.43.08-.64.1l-.07-.04-.07.04Z"/>
    <path class="cls-2" d="M170.62,76.3l.76.69c-.21.04-.43.08-.64.11-.18-.02-.39.05-.54-.17.22-.16.58-.24.42-.64Z"/>
    <path class="cls-1" d="M119.99,84.46c.02-.11.03-.23.05-.36.35-.2.75.01,1.11-.07l-1.17.43Z"/>
    <path class="cls-1" d="M26.88,124.04c.28.12.62-.08.9.17-.37.19-.75.09-1.13.07,0-.15.11-.21.23-.25Z"/>
    <path class="cls-1" d="M152.17,79.65c.29-.42.69-.02,1.02-.13l-1.02.13Z"/>
    <path class="cls-2" d="M173.31,76.55c.22-.48.64-.11.94-.23-.25.33-.62.17-.94.23Z"/>
    <path class="cls-1" d="M175.88,76.08c.21-.45.59-.1.88-.18-.28.13-.57.22-.88.18Z"/>
    <path class="cls-1" d="M172.76,44.14c-.34-.22-.02-.56-.14-.82.05.27.09.55.14.82Z"/>
    <path class="cls-1" d="M150.96,79.66c.31-.33.62-.28.93-.01h-.93Z"/>
    <path class="cls-1" d="M205.22,231.33c-.08.07-.16.14-.23.19-.24-.04-.21-.21-.23-.35.17,0,.37-.09.46.15Z"/>
    <path class="cls-1" d="M94.34,78.49c.34.23.4.46,0,.68v-.68Z"/>
    <path class="cls-1" d="M68.18,217.47c.31-.05.62-.07.84.22-.27-.1-.65.19-.84-.22Z"/>
    <path class="cls-1" d="M197.21,224.52c-.1-.1-.14-.21-.07-.34.09.04.17.09.26.13-.08.06-.2.07-.19.21Z"/>
    <path class="cls-1" d="M105.61,228.75c.25.02.55-.2.7.19-.24-.03-.55.18-.7-.19Z"/>
    <path class="cls-2" d="M171.13,34.4c-.16-.17-.53-.33,0-.51,0,.17,0,.34,0,.51Z"/>
    <path class="cls-1" d="M196.55,222.65c-.15.02-.35.19-.36-.14.12.04.29-.04.36.14Z"/>
    <path class="cls-1" d="M95.05,72.72c.1.03.2.06.17.2-.06-.07-.11-.13-.17-.2Z"/>
    <path class="cls-1" d="M131.27,114.73c0-.09,0-.18,0-.26.06.02.12.05.2.08-.07.07-.13.12-.19.18Z"/>
    <path class="cls-1" d="M118.57,85.42c.06-.06.12-.12.17-.18-.06.06-.12.12-.17.18Z"/>
    <path class="cls-1" d="M95.04,71.98c.06.04.12.08.28.2-.12.06-.21.11-.3.17-.1-.13-.1-.25.02-.36Z"/>
    <path class="cls-1" d="M172.53,42.47c-.08-.08-.15-.15-.23-.23.23-.08.2.11.23.23Z"/>
    <path class="cls-1" d="M118.08,85.66c.03-.11.09-.19.22-.2.01.16-.11.17-.22.2Z"/>
    <path class="cls-1"
          d="M194.2,223.18c-.51.27-.98.33-1.44.42-2.55.54-4.88,1.68-7.28,2.63-.64.25-1.31.43-1.98.62-1.52.44-2.74,1.38-3.68,2.66-.28.38-.47.84-.93,1,.02.15,0,.24.04.3.91,1.29.76,1.88-.6,2.73-.46.28-.93.56-1.37.86-.77.53-1.57.71-2.53.55-.58-.99-1.69-1.58-2.24-2.68-.61-1.21-1.41-2.34-1.97-3.58-.5-1.12-1.23-2.13-1.64-3.26-.62-1.68-1.74-3.14-2.25-5.02,2.31-.91,4.75-.95,6.99-1.75,2.25-.8,4.59-1.33,6.88-1.98,2.33-.66,4.58-1.59,6.94-2.01,2.92,2.53,4.88,5.07,7.05,8.49Z"/>
    <path class="cls-1"
          d="M113.28,92.67c.48-.88.97-1.74,1.43-2.63.18-.36.42-.66.72-1.01,1.94-.11,3.89-.39,5.88-.26.41.03.88.08,1.22-.41.34-.5.92-.11,1.32-.05.65.09,1.31-.4,2.03.05-1.44,2.97-2.84,5.87-4.37,9.04,1.3-.26,2.37-.12,3.51.36-.18,1.89.12,3.82-.1,5.78-.08.7-.18,1.5-.12,2.25.05.57-.05,1.1-.46,1.6-1.69.32-3.08,1.42-4.59,2.23-.87.47-1.82.58-2.7.97-.58.26-1.2-.27-1.67-.65-1.42-1.13-2.83-2.27-4.09-3.58-1.11-1.15-2.24-2.27-3.46-3.5h-2.93c0-.09,0-.18,0-.28.76.08,1.52.21,2.35.09-1.26-1.92-3.61-2.77-4.86-5,3.13.02,5.99.04,8.85-.24.29-.58.04-1.47,1-1.53-.25-1.31,1.07-2.07,1.06-3.27l-.02.02ZM119.2,95.38c-.15-.08-.27-.11-.34-.01-.07.09,0,.22.1.23.1.01.21-.05.24-.22ZM118.31,90.75c.16.29.27.45.48.13-.07-.2-.2-.27-.48-.13ZM120.35,90.61c.24-.02.34-.1.33-.28-.2-.1-.34-.08-.33.28ZM118.45,95.81c-.14-.07-.25-.12-.32.1.14.09.24.08.32-.1Z"/>
    <path class="cls-1"
          d="M93.56,89.59c.31-2.04,1.02-4.2,1.6-6.53.14.79.26,1.44.37,2.09.09.54.17,1.05.74,1.39.55.32.42.98.53,1.52.42,2.02.85,4.04,1.29,6.14-1.76-1.26-3.26-2.65-4.53-4.6Z"/>
    <path class="cls-1"
          d="M79.62,109.23c-1.21-.48-2.11-.99-2.92-1.57-1.1-.84-.61-2.08-.74-3.11-.18-1.44-.4-2.9-.39-4.36,0-.79-.18-1.58,0-2.39,1.75,3.63,3.17,7.34,4.04,11.44Z"/>
    <path class="cls-1"
          d="M101.73,81.96c.11.29-.26.41-.2.68.01.22.36.07.38.3-.1.06-.19.12-.3.18,0,.25.48.11.34.52-.41.21-.88.46-1.35.7.12.09.22.16.33.24-.1.29-1.28.11-1.97-.28.2-.05.38-.1.56-.15-.52.02-.59-1.11-1.29-.45-.29-.53.25-1.02-.09-1.46.17-.27.47-.09.66-.23.09-.71.43-.87,1.83-.87.39.24.62.7,1.09.81Z"/>
    <path class="cls-1"
          d="M114.08,81.54c-.47.05-.7.07-.96.09.07.37.41.09.55.26-.39.27-.2.95-.94,1.13-.6,0-1.41.18-2.06-.61.44-.23.94.06,1.34-.24-.47-.22-.95-.03-1.43-.13.06-.45-.48-.49-.63-.87.46-.26.89-.57.71-1.17.6-.19,1.11-.36,1.74-.57.47,0,.65.79,1.27.79-.16.46-.42.95.4,1.3ZM110.79,81.88c.5-.14.85.13,1.15-.23-.32.06-.67-.19-1.15.23Z"/>
    <path class="cls-1"
          d="M105.11,91.82c-1.14.23-2.21.47-3.07.35-.64-.03-.7-.59-1.32-.44.63-.42.22-.85.35-1.35.62-.45,1.21-1.35,2.2-1.03.77.25,1.16,1.13,1.76,1.69.21.19.05.52.08.77ZM104.82,91.28s-.06-.05-.08-.04c-.03.01-.09.06-.08.07.04.1.1.12.16.05.01-.02,0-.05,0-.08Z"/>
    <path class="cls-1"
          d="M80.53,112.43c.67.11.91.58,1.06,1.16-.09.1-.19.22-.23.28-.45.34-.66-.43-1.03-.06-.44-1.48-1.8-2.16-2.59-3.45-.04-.17.21-.27.43-.48.93.65,2.01,1.14,2.35,2.55Z"/>
    <path class="cls-1" d="M171.47,206.95c-.3.49-.63,1.01-.95,1.53-.02-.7.4-1.17.78-1.67.05-.07.14-.02.17.14Z"/>
    <path class="cls-1" d="M138.13,65.58h2.42c-.8.28-1.61.13-2.42,0Z"/>
    <path class="cls-1" d="M165.26,70.44c.73-.09,1.46-.18,2.44,0-.99.19-1.72.1-2.44,0Z"/>
    <path class="cls-1" d="M79.55,220.66c-.62.17-1.27.17-1.92.04.63-.23,1.27-.1,1.92-.04Z"/>
    <path class="cls-1" d="M88.6,220.45c.93-.19,1.58-.12,2.23-.04-.65.21-1.3.19-2.23.04Z"/>
    <path class="cls-1" d="M70.95,203.36c-.64.25-1.29.12-1.94,0h1.94Z"/>
    <path class="cls-1" d="M43.78,184.18c-.62.16-1.27.17-2.2.06.91-.25,1.55-.12,2.2-.06Z"/>
    <path class="cls-1" d="M30.08,170.12h-1.85s0-.08,0-.12h1.91s-.04.08-.06.12Z"/>
    <path class="cls-1" d="M146.44,159.73c.93-.19,1.58-.12,2.23-.04-.65.21-1.3.19-2.23.04Z"/>
    <path class="cls-1" d="M140.01,158.6h-1.85s0-.08,0-.12h1.9l-.04.12Z"/>
    <path class="cls-1" d="M146.46,168.92h-1.85c.65-.25,1.3-.24,1.85,0Z"/>
    <path class="cls-1" d="M151.02,181.88h-1.85c.65-.25,1.3-.24,1.85,0Z"/>
    <path class="cls-1" d="M28.45,140.31c.62-.18,1.27-.17,1.92-.05-.63.22-1.26.08-1.92.05Z"/>
    <path class="cls-1" d="M162.81,68.63c.64-.35,1.06-.17,1.48-.15-.41.25-.82.14-1.48.15Z"/>
    <path class="cls-1" d="M137.69,87.89c-.2,0-.4-.01-.6-.02-.03-.26.12-.37.34-.32.14.03.43.04.27.34Z"/>
    <path class="cls-1" d="M62.32,117.19c.56-.07.87-.13,1.28.05-.44.16-.78.18-1.28-.05Z"/>
    <path class="cls-1" d="M103.67,92.52c-.4.18-.73.15-1.2.01.46-.18.8-.18,1.2-.01Z"/>
    <path class="cls-1" d="M59.9,127.36c.53-.21.87-.21,1.26-.06-.36.22-.69.13-1.26.06Z"/>
    <path class="cls-1" d="M73.59,174.63c.54-.22.88-.14,1.33-.09-.44.26-.78.19-1.33.09Z"/>
    <path class="cls-1" d="M34.59,176.78c.37-.22.7-.14,1.11-.08-.38.3-.72.19-1.11.08Z"/>
    <path class="cls-1" d="M151.76,185.93c-.56.07-.87.13-1.28-.05.44-.16.78-.18,1.28.05Z"/>
    <path class="cls-1" d="M115.15,211.36c.5-.24.84-.13,1.32-.11-.47.27-.81.2-1.32.11Z"/>
    <path class="cls-1" d="M113.3,92.64c0-.27-.45-.06-.4-.39.53-.22.1.42.38.41l.02-.02Z"/>
    <path class="cls-1" d="M115.15,207.48c-.3.17-.58.18-.87,0,.3-.17.58-.18.87,0Z"/>
    <path class="cls-1" d="M163.92,70.43c.37-.14.62-.16.91,0-.29.18-.55.17-.91,0Z"/>
    <path class="cls-1" d="M62.13,102.1c-.31.25-.56.07-.91.2.31-.43.56-.3.91-.2Z"/>
    <path class="cls-1" d="M60.26,117.25c.25-.17.42-.17.63-.04-.17.24-.36.15-.63.04Z"/>
    <path class="cls-1" d="M62.05,117.19c-.16.23-.34.16-.55.12.16-.36.39-.06.55-.12Z"/>
    <path class="cls-1" d="M133.46,71.89c.25-.17.42-.17.63-.04-.17.24-.36.15-.63.04Z"/>
    <path class="cls-1" d="M110.89,123.5c-.27-.29-.37-.4-.47-.51.39-.23.44-.03.47.51Z"/>
    <path class="cls-1" d="M139,87.8c-.21.02-.44.1-.63-.08.24-.14.48-.31.58.13l.04-.04Z"/>
    <path class="cls-1" d="M71.54,174.6c.26-.15.43-.17.63-.02-.18.23-.36.15-.63.02Z"/>
    <path class="cls-1" d="M73.39,174.6c-.21.17-.42.17-.63,0,.21-.17.42-.17.63,0Z"/>
    <path class="cls-1" d="M33.62,176.77c.25-.17.42-.17.63-.04-.17.24-.36.15-.63.04Z"/>
    <path class="cls-1" d="M159.97,87.12c-.04.22-.24.2-.4.25-.05-.38.25-.19.4-.25Z"/>
    <path class="cls-2" d="M197.45,231.78c.02-.22.05-.4.3-.42.28.42.05.45-.3.42Z"/>
    <path class="cls-1" d="M158.97,52.14h3.62v.11h-3.62s0-.07,0-.11Z"/>
    <path class="cls-1" d="M150.35,27.4h1.7c-.56.21-1.12.29-1.69.23v-.23Z"/>
    <path class="cls-1" d="M143.44,31.24h1.85s0,.08,0,.12h-1.91s.04-.08.06-.12Z"/>
    <path class="cls-1" d="M162.76,45.25c.93-.19,1.58-.12,2.23-.04-.65.21-1.3.19-2.23.04Z"/>
    <path class="cls-1" d="M164.98,16.88c-.53.21-.87.21-1.26.06.36-.22.69-.13,1.26-.06Z"/>
    <path class="cls-1" d="M141.25,31.84c.33-.23.66-.15,1.08-.1-.4.29-.74.11-1.08.1Z"/>
    <path class="cls-1" d="M144.36,31.79c-.35.14-.68.22-1.02,0,.36-.2.7-.08,1.02,0Z"/>
    <path class="cls-1" d="M148.44,44.52c.36-.12.67-.18,1.05,0-.41.23-.76.09-1.05,0Z"/>
    <path class="cls-1" d="M152.42,45.62c-.34.42-.76.15-1.22.19.32-.38.77-.04,1.03-.36.06.06.13.11.19.17Z"/>
    <path class="cls-1" d="M113.52,21.7c-.34.18-.59.17-.85.07.22-.31.48-.18.85-.07Z"/>
    <path class="cls-1" d="M162.48,16.93c-.37.14-.62.16-.91,0,.29-.18.55-.17.91,0Z"/>
    <path class="cls-1" d="M120.83,19.13c.16-.21.34-.21.53-.09-.15.33-.37.03-.53.09Z"/>
    <path class="cls-1" d="M135.86,57.96c.26-.15.43-.17.63-.02-.18.23-.36.15-.63.02Z"/>
    <path class="cls-1" d="M108.05,39.72c.21-.17.42-.17.63,0-.21.17-.42.17-.63,0Z"/>
    <path class="cls-1" d="M97.42,33.58c.02-.1.05-.21.18-.17.04.01.06.11.09.16-.09,0-.18,0-.27,0Z"/>
    <path class="cls-2" d="M118.8,127.82c-.43.2-.53-.09-.68-.29.22-.1.43-.16.63,0,.01.08.02.15.05.28Z"/>
    <path class="cls-2" d="M118.82,114.26v-.42c.25.06.47.11.64.31-.21.16-.45.07-.67.08l.03.03Z"/>
    <path class="cls-2" d="M126.6,151.61c.05.38-.27.46-.15.73-.27-.3-.32-.53.15-.73Z"/>
    <path class="cls-2" d="M125.99,125.25c-.23.11.04.36-.17.5-.13.02-.26-.01-.29-.21,0-.37.42,0,.49-.26l-.03-.03Z"/>
    <path class="cls-1"
          d="M127.84,112.1c-.13.89.45,1.65.32,2.39.18.51.74.43.92.83-.35.35-.76-.53-1.02.09-.36-.25-.56-.53-.73-.84-.43.33-.31.88-.45,1.33h-.59c-.13-1.54.86-2.61,1.55-3.8Z"/>
    <path class="cls-1" d="M126.11,117.08c.16.16.24.24.34.35-.17.24-.27.51-.61.36-.23-.38.14-.43.27-.7Z"/>
    <path class="cls-1" d="M126.64,116.15c.15.44-.08.55-.33.67-.07-.29-.22-.6.33-.67Z"/>
    <path class="cls-2"
          d="M173.77,57.11c-.68.9-1.74.43-2.61.68-2.04.6-4.18.79-6.27,1.18-1.71.32-3.45.55-5.19.79-1.95.28-3.9.63-5.85.94-.07.01-.14-.05-.22-.09-.13-.51.46-.56.57-.54,1.69.24,3.23-.54,4.87-.65,1.32-.09,2.57-.57,3.9-.65,1.24-.07,2.47-.31,3.7-.5,1.84-.28,3.65-.78,5.51-.9.55-.04,1.03-.43,1.61-.24l-.02-.02Z"/>
    <path class="cls-2" d="M132.35,63.23c-.4.16-.81.18-1.33.02.5-.21.91-.13,1.33-.02Z"/>
    <path class="cls-2" d="M144.72,61.54c-.34.18-.59.17-.85.07.22-.31.48-.18.85-.07Z"/>
    <path class="cls-2" d="M142.81,62.08c.33-.26.61-.15.94-.07-.33.26-.61.15-.94.07Z"/>
    <path class="cls-2" d="M137.74,63.21c-.24.23-.45.15-.69.06.24-.23.45-.14.69-.06Z"/>
    <path class="cls-2" d="M163.03,96.39c-1.04.02-2.06.43-3.12.24,1.02-.23,2.04-.48,3.09-.39l-.05.09.07.07Z"/>
    <path class="cls-2"
          d="M158.29,87.78s-.04-.02-.06-.04c.02-.04.05-.07.07-.11.02.02.06.05.06.07,0,.02-.04.04-.07.07Z"/>
    <path class="cls-2" d="M160.1,75.81c-.34-.33-.24-.71-.21-1.34.27.59.1,1,.21,1.34Z"/>
    <path class="cls-2" d="M163.66,74.78c.38-.17.64-.22.92,0-.26.16-.51.13-.92,0Z"/>
    <path class="cls-2" d="M141.84,90.33c-.31.17-.59.29-.64.57-.89-.08.03-.83-.51-1.02.49-.12.84.07,1.16.45Z"/>
    <path class="cls-2"
          d="M134.37,94.08c.03-.07.02-.13-.03-.18.43-.02.87-.04,1.3-.06-.03.07-.02.13.03.18-.43.02-.87.04-1.3.06Z"/>
    <polygon class="cls-2" points="141.26 91.26 141.29 91.34 141.21 91.33 141.26 91.26"/>
    <path class="cls-2" d="M143.45,80.55c.33-.14.52-.23.75-.33.05.6-.28.46-.75.33Z"/>
    <path class="cls-2" d="M118.89,54.4c.96-.24,1.93-.13,2.9,0h-2.9Z"/>
    <path class="cls-2" d="M115.31,54.86c.59-.17.92-.2,1.29-.03-.35.21-.69.14-1.29.03Z"/>
    <path class="cls-2" d="M116.69,54.36c.21-.17.42-.17.63,0-.21.17-.42.17-.63,0Z"/>
    <path class="cls-2" d="M94.82,35.11c-.42.58-.9.38-1.46.38.47-.42.92-.4,1.46-.38Z"/>
    <path class="cls-2" d="M99.2,34.1c.49-.34.78-.32,1.08.14-.34.13-.62.14-1.08-.14Z"/>
    <path class="cls-2" d="M103.15,33.48c-.21.16-.42.17-.63,0,.21-.16.42-.17.63,0Z"/>
    <path class="cls-2" d="M124.01,83.14c-.35.19-.7.14-1.09.09.37-.79.74.1,1.09-.09Z"/>
    <path class="cls-2" d="M121.1,80.19c-.43-.2-.63-.3-.84-.4.26-.06.55-.25.84.4Z"/>
    <path class="cls-2" d="M119.48,79.22c.31-.47.44-.21.6.02-.2.27-.37.25-.6-.02Z"/>
    <path class="cls-2" d="M120.29,82.2c.21-.17.42-.17.63,0-.21.17-.42.17-.63,0Z"/>
    <path class="cls-2" d="M133.86,44.41c-.5.81-1.25-.03-1.77.39.48-.66,1.14-.32,1.77-.39Z"/>
    <path class="cls-2" d="M104.77,42.06h3.38s0,.08,0,.12h-3.37s0-.08-.01-.12Z"/>
    <path class="cls-2" d="M100.94,42.86c.62-.16,1.27-.17,2.2-.06-.91.25-1.55.12-2.2.06Z"/>
    <path class="cls-2" d="M160.91,43.6c.26-.22.5-.13.87-.13-.36.32-.63.17-.87.13Z"/>
    <path class="cls-2" d="M160.5,43.06c-.28.22-.55.17-.85.04.28-.22.55-.17.85-.04Z"/>
    <path class="cls-2" d="M154.98,44.26c-.28.22-.55.17-.85.04.28-.22.55-.17.85-.04Z"/>
    <path class="cls-2" d="M158.61,43.07c-.24.2-.42.12-.65.08.2-.28.39-.19.65-.08Z"/>
    <path class="cls-2" d="M162.19,43.08c-.21.16-.42.17-.63,0,.21-.16.42-.17.63,0Z"/>
    <path class="cls-2" d="M153.89,26.28c.21-.17.42-.17.63,0-.21.17-.42.17-.63,0Z"/>
    <path class="cls-2" d="M152.93,26.76c.21-.16.42-.17.63,0-.21.16-.42.17-.63,0Z"/>
    <path class="cls-2" d="M168.29,23.64c.21-.16.42-.17.63,0-.21.16-.42.17-.63,0Z"/>
    <path class="cls-2" d="M118.45,95.81c-.08.18-.18.19-.32.1.07-.22.19-.18.32-.1Z"/>
    <path class="cls-2" d="M110.79,81.88c.48-.43.83-.18,1.15-.23-.3.36-.65.09-1.15.23Z"/>
    <path class="cls-2" d="M104.82,91.28s.01.06,0,.08c-.05.07-.11.06-.16-.05,0-.01.05-.06.08-.07.02,0,.05.02.08.04Z"/>
</svg>