<?xml version="1.0" encoding="UTF-8"?>
<svg id="cinesplain_popcorn_Image" xmlns="http://www.w3.org/2000/svg" viewBox="0 0 768 768">
    <defs>
        <style>
            .cls1{fill:#fac676;}.cls1,.cls2,.cls3,.cls4,.cls5,.cls6,.cls7,.cls8,.cls9,.cls10{stroke-width:0px;}.cls2{fill:#231806;}.cls3{fill:#fdfbfb;}.cls4{fill:#d7352b;}.cls5{fill:#f7574f;}.cls6{fill:#baa4a3;}.cls7{fill:#f8b359;}.cls8{fill:#fcfac2;}.cls9{fill:#b8240f;}.cls10{fill:#f73e35;}
        </style>
    </defs>
    <path class="cls2"
          d="M106.48,515.12c-1.76-13.93-3.57-27.86-5.27-41.8-3.15-25.82-6.26-51.65-9.35-77.48-2.91-24.35-5.72-48.7-8.69-73.04-2.97-24.33-6.17-48.64-9.13-72.97-2.58-21.14-5.07-42.29-7.4-63.46-.65-5.92,2.87-10.01,7.63-12.8,18.33-10.74,36.93-20.98,57.46-27.03,2.13-.63,3.03-1.59,3.61-3.61,4.35-15.17,12.42-27.69,25.99-36.28,1.83-1.16,3.04-2.33,2.49-5.12-4.74-24.12,14.91-47.43,39.83-48.41,15.03-.59,28.43,2.85,40.26,12.09,3.43,2.68,5.66,2.15,8.2-1.41,12.87-18.06,30.81-24.88,52.45-22.86,2.86.27,3.89-1.51,4.91-3.21,15.66-26.19,60.19-31.18,76.18-4.48,1.39,2.32,3,.56,4.52-.08,29.99-12.71,59.63-16.16,88.27,3.6,2.44,1.68,5.18,3.68,6.41,6.2,3.88,7.96,10.14,8.51,18.01,8.2,19.79-.78,34.06,8.83,42.38,26.38,4.08,8.61,12.18,5.79,18.25,8.29,9.84,4.04,19.49,8.25,26.44,16.34,4.45,5.18,9.57,6.72,15.81,7.28,20.65,1.85,36.98,15.15,43.11,34.93.97,3.13,3.54,2.28,5.52,2.44,18.82,1.51,36,7.7,51.71,18.05,10.36,6.83,7.56,17.05,6.18,26.51-4.25,29.04-8.92,58.01-13.34,87.02-4.95,32.46-9.91,64.93-14.68,97.42-5.45,37.18-10.62,74.41-16.06,111.59-5.79,39.54-11.77,79.06-17.64,118.59-.36,2.45-.48,4.94-.7,7.41-1.59,9.53-3.17,19.06-4.76,28.59,0,0-.08.13-.08.13-.4.69-.8,1.39-1.21,2.08-16.93,14.67-38.56,19.89-58.39,28.54-60.8,26.52-122.02,52.09-182.88,78.48-10.15,4.4-18.66,1.22-27.7-1.99,4.26-6.07,8.77-11.92,12.5-18.41,4.22-7.34,8.15-15.02,14.36-21.06-.1,4.9-.2,9.8-.31,14.7.02,2.45.05,4.89.07,7.34,2.18-.72,4.43-1.3,6.54-2.19,7.34-3.08,14.74-6.04,21.92-9.46,9.6-4.57,20.15-7.05,28.94-13.35l16.86-6.2c16.33-6.99,32.66-13.98,48.99-20.98,5.49-2.34,10.99-4.69,16.48-7.03,8.48-3.6,17.02-7.09,25.43-10.85,7.11-3.18,14.09-6.67,21.12-10.02,6.27-.71,11.4-4.3,16.99-6.73,6.26-2.74,12.54-5.44,18.78-8.26,1.98-.89,4.32-1.46,4.75-4.25,2.05-13.42,4.25-26.83,6.22-40.26,5.18-35.25,10.23-70.51,15.39-105.76,5.44-37.14,10.9-74.28,16.43-111.41,5.15-34.63,10.44-69.25,15.6-103.88,4.15-27.88,8.2-55.78,12.3-83.67.27-1.84.47-3.54-2.29-2.55-14.55,5.22-29.1,10.46-43.65,15.69-5.62.68-10.5,3.3-15.4,5.86-8.71,1.2-16.56,5.09-24.69,8.05-11.66,4.25-23.16,8.94-34.73,13.44-5.36.54-10.28,2.37-14.89,5.12-18.33,6.42-36.67,12.84-55,19.26-5.06,1.8-10.12,3.6-15.17,5.4-9.37,2.16-18.31,5.56-27.14,9.29-14.2,5.11-28.4,10.21-42.59,15.33-2.29.83-2.1,2.92-2.16,4.74-1.28,34.19-2.54,68.38-3.76,102.58-1.25,34.94-2.47,69.88-3.7,104.83-.31.95-.63,1.9-.94,2.85-9,12.43-11.13,26.88-11.82,41.62-.3,6.58,1.63,13.46.35,19.75-1.34,6.6-7.28,11.74-8.48,18.8.28-8.73.54-17.46.85-26.19,1.58-44.88,3.17-89.76,4.76-134.64,1.53-43.03,3.08-86.07,4.6-129.1.05-1.51.71-3.41-1.59-4.04-17.31-4.72-34.63-9.43-51.94-14.14-1.19-.31-2.38-.62-3.57-.93-1.08-1.8-2.73-1.96-4.57-1.58-.7-.08-1.39-.15-2.09-.23-1.48-.53-2.96-1.06-4.45-1.59-.27-.01-.54-.03-.81-.04-1.67-.49-3.33-1-5.01-1.47-22.45-6.19-44.9-12.38-67.36-18.57-4.51-2.31-9.35-3.51-14.35-4.17-23.47-6.88-46.95-13.75-70.42-20.63-5.01-1.41-10.02-2.82-15.03-4.23-1.82-.72-3.6-1.58-5.47-2.14-18.29-5.46-36.63-10.77-54.89-16.34-11.8-3.6-12.04-3.73-10.66,8.19,3.77,32.59,7.75,65.16,11.76,97.72,4.07,33.06,8.39,66.08,12.39,99.15,4.19,34.56,8.13,69.14,12.18,103.72-.13.23-.27.45-.4.68-4.32,4.37-9.48,7.13-15.57,8.12ZM446.27,170.38c-.48.06-.97.12-1.45.18-3.35-.24-6.07,1.27-8.67,3.11-1.16.48-2.32.97-3.48,1.45-5.78-1.17-8.76-7.04-5.52-11.24,2.48-3.21,6.32-4.54,9.89-6.15.97-.21,1.93-.42,2.9-.63,2.01-.35,4.03-.7,6.04-1.05.49-.11.99-.22,1.48-.34,2.41-.16,4.83-.31,7.23-.47,1.72.08,3.43.15,5.15.23.99.13,1.98.25,2.97.38,1.01.15,2.01.3,3.02.45,16.09,2.5,29.11,9.91,38.04,23.85,7.54,17.26,9.9,34.44-.76,51.44-.86,1.36-.28,1.93,1.17,1.39,17.41-6.39,34.81-12.81,52.21-19.23,8.63-3.02,17.25-6.03,25.88-9.05,1.05-.48,2.09-.97,3.14-1.45.63-.17,1.27-.34,1.9-.52.48-.2.96-.41,1.44-.61.32-.12.64-.23.96-.35,1.82-.69,3.65-1.38,5.47-2.06l.28.02.25-.12s.19-.08.19-.08c.68-.24,1.36-.49,2.04-.73l.06.14s.02-.15.02-.15c24.89-8.74,49.79-17.47,74.65-26.29.93-.33,4.28-.94,1.91-2.37-6.76-4.07-14.57-4.98-22.38-4.88-4.28.05-3.38,5.06-5.92,6.88l-.15.02s.11.1.11.1c-1.5,1.36-3,2.73-4.49,4.09-1.01.47-2.03.94-3.04,1.41-.79.18-1.58.36-2.37.54-.78.04-1.56.08-2.34.12-8.99-2.99-7.06-9.71-5.54-16.28.63-1.03,1.45-1.98,1.86-3.09,4.14-11.29-3.21-23.87-17.45-29.98-2.2-1.68-4.97-3.28-7.36-2.11-1.91.93.58,3.07.85,4.72.35,2.35.7,4.7,1.05,7.04.05.52.1,1.04.15,1.56-.31,3.98-.62,7.96-.93,11.94-1.93,6.97-4.35,13.72-8.86,19.51-1.8,1.6-3.6,3.2-5.39,4.8-.22.15-.44.31-.66.46-1.26.44-2.52.87-3.78,1.31-1.03-.06-2.06-.12-3.09-.18-.58-.18-1.16-.36-1.75-.55-.36-.27-.73-.53-1.09-.8-.24-.2-.47-.41-.71-.61-.56-.68-1.13-1.35-1.69-2.03-.14-.3-.28-.6-.43-.9-.14-.47-.28-.93-.43-1.4.02-1.55.05-3.09.07-4.64,1.6-3.86,4.56-7.15,4.87-11.56l.12-.13c.51-1.33,1.02-2.66,1.53-3.99,3.56-15.41-.8-28.35-12.23-39.07-9.38-7.97-20.17-12.49-32.49-13.26-.49-.07-.99-.14-1.48-.21-4.02-.06-8.04-.12-12.05-.19-14.61-.64-28.26,2.34-40.54,10.62-12.35,6.84-18.74,19.39-16.74,33.28.57,3.97.42,7.44-3.45,9.72-1.21.54-2.41,1.08-3.62,1.62-.82.02-1.63.03-2.45.05-1.15-.32-2.3-.64-3.45-.97-.48-.39-.96-.78-1.44-1.16l-.71-.73c-2.25-2.56-2.93-5.65-3.12-8.95-.62-10.73,1.98-20.68,7.04-30.08l-.03-.04c.84-1.17,1.68-2.34,2.52-3.5,6.42-8.01,13.95-14.7,23.11-19.44,12.65-5.49,25.75-8.93,39.65-8.84,2.3.02,2.23-1.27,1.06-2.59-5.62-6.3-12.09-10.73-21.14-9.13-2.19-.03-4.37-.06-6.56-.09-.57-.33-1.15-.66-1.72-.99-1.76-4.65-3.69-7.59-8.3-2.1-1.93,2.3-5.28,1.85-8.17,1.65-.05-.25-.21-.37-.47-.35l.09-.15s-.13.11-.13.11c-2.63-3.87-5.26-7.73-7.89-11.6-.6-.69-1.2-1.39-1.79-2.08-.77-.75-1.53-1.49-2.3-2.23-6.92-6.2-15.3-9.1-24.24-10.74-.98-.07-1.96-.13-2.93-.2-1.99,0-3.99,0-5.98,0-1.26.09-2.53.19-3.79.28-1.48.09-2.97.17-4.45.26-1.99.32-3.99.63-5.98.95-.47.08-.94.16-1.4.24-.78.17-1.56.35-2.35.52-.99.25-1.98.51-2.98.76-4.55,1.57-9.1,3.14-13.64,4.71-3.72,1.45-7.38,3.07-11.18,4.31-6.47,2.1-11.98,1.79-15.06-5.76-4.35-10.67-14.53-15.58-26.1-13.02-.53.04-1.06.09-1.59.13-7.39.57-13.41,3.9-18.59,9.06-2.1,2.09-2.19,3.41.59,5.01,13.04,7.48,21.59,18.47,25.37,33.08,1.01,1.99,2.63.85,4.04.79,1.72.19,3.44.37,5.16.56.52.07,1.05.13,1.57.2,19.7,3.28,35.25,12.64,44.97,30.58,1.06,2.64,2.39,5.2,3.14,7.92,1.51,5.49.58,10.52-5.2,12.79-5.8,2.28-9.4-1.09-11.86-6.1-1.14-2.32-2.46-4.56-3.7-6.83-4.77-9.59-12.79-15.24-22.64-18.68-.65-.2-1.3-.4-1.95-.6l-1.43-.39c-.76-.15-1.53-.3-2.29-.46-.98-.13-1.96-.25-2.94-.38-.49-.05-.98-.11-1.46-.16-3.25,0-6.51,0-9.76.01-.49.05-.97.11-1.46.16-.75.1-1.5.19-2.25.29-.73.16-1.46.31-2.2.47-.76.12-1.51.25-2.27.37-.5.15-1.01.3-1.51.45-3.04,1.14-6.08,2.28-9.11,3.42-.22.05-.44.11-.66.16-4.01.78-7.28-.38-9.69-3.74-.86-7.56,2.81-12.19,9.52-14.98,2-.83,4.48-1.57,3.59-4.68-2.73-9.55-8.03-16.93-17.57-20.71-5.76-2.5-11.68-4.04-18.03-2.94-2.06.19-4.12.38-6.17.57-.45.04-.9.08-1.35.13-1.28.39-2.56.78-3.84,1.17-1.38.5-2.76,1-4.14,1.5-9.4,3.35-16.22,9.7-21.24,18.16-5.86,5.8-12.92,6.29-20.46,4.65-9.82-9.59-20.81-15.74-35.34-14.24-13.82,1.43-25.48,12.5-23.88,23.76.22,1.56.21,3.08,2.53,2.64,15.81-2.98,30.39.38,44.02,8.59,1.51,1.15,3.02,2.31,4.54,3.46,3.33,3.8,7.29,7.22,9.85,11.48,3.79,6.29,5.04,12.91-3.04,17.5-4.49,1.34-7.53-.34-9.95-4.24-4.43-7.13-10.61-12.34-18.34-15.67l-.04-.17c-3.18-1.67-6.46-2.95-10.15-2.69-1.21-.12-2.42-.24-3.64-.36-1.48,0-2.96-.02-4.44-.03-1.46.14-2.92.29-4.38.43-1.55.33-3.09.66-4.64.99-.47.06-.95.12-1.42.18-.52.21-1.05.42-1.57.63-1.25.5-2.49,1-3.74,1.49-.63.3-1.26.61-1.88.91-.37.21-.73.42-1.1.63-.6.37-1.2.74-1.8,1.1-.78.62-1.56,1.24-2.34,1.86-11.65,8.09-15.95,20.57-19.81,33.28-1.32,4.34-3.46,8.39-8.31,8.42-13.7.09-24.58,6.66-35.17,14.16-.77.55-1.38,1.32-2.07,1.98.84.42,1.64.99,2.53,1.25,28.57,8.27,57.15,16.5,85.72,24.74.74.27,1.48.53,2.22.8l46.24,13.6c29.49,8.32,58.99,16.64,88.48,24.96.34.1.68.19,1.02.29,1,.27,2.01.54,3.01.81,4.02,1.2,8,2.53,12.06,3.58,16.96,4.4,33.94,8.71,50.91,13.05,4.66,1.48,9.23,4.64,14.28,2.8,18.39-6.71,36.91-13.17,54.93-20.78,18.83-7.95,30.76-32.31,25.04-48.8-2.04-6.96-5.09-13.29-11.08-17.78-5.03-4.83-11.26-7.07-17.95-8.29-1.26-.22-2.52-.45-3.78-.67-.74.01-1.48.03-2.22.04-1.44.02-2.89.03-4.33.05-1.28.18-2.57.37-3.85.55Z"/>
    <path class="cls4"
          d="M388.11,577.55c1.2-7.06,7.14-12.2,8.48-18.8,1.28-6.29-.65-13.17-.35-19.75.68-14.74,2.81-29.19,11.82-41.62.28,1.52.55,3.04.83,4.56-.56,18.68-1.12,37.37-1.68,56.05-2.52,2.03.08,4.58-.69,6.8.01,5.97.03,11.95.04,17.92-.93,1.38-1.61,2.8-.91,4.51-.14,10.98-.27,21.97-.41,32.95-.33,1.39-.92,2.77-.96,4.17-.18,6.23-.15,12.47-.31,18.7-.55,21.03-1.14,42.05-1.72,63.08-.09.83-.18,1.66-.27,2.49-.05.34-.11.68-.16,1.02l-.18.09c-6.21,6.04-10.14,13.72-14.36,21.06-3.73,6.49-8.24,12.34-12.5,18.41-17.08-6.94-34.16-13.85-51.23-20.82-30.71-12.54-61.46-24.96-92.08-37.7-33.37-13.89-66.48-28.38-99.95-42-14.03-5.71-12.35-17.86-13.75-28.86-4.09-32.32-7.94-64.68-11.78-97.03-.3-2.5.29-5.11.46-7.66,6.08-.99,11.24-3.75,15.57-8.12.33,1.26.66,2.52.98,3.79,1.01,7.71,2.02,15.42,3.02,23.13.21,2.52.43,5.05.64,7.57.56,3.44,1.11,6.88,1.67,10.32,1.26,22.99,4.64,45.74,7.87,68.5.53,3.75-1.59,8.97,2.72,11.03,10.44,4.99,21.26,9.17,31.92,13.67,2.05.81,4.09,1.62,6.14,2.42,5.18,2.18,10.37,4.37,15.55,6.55,4.05,1.7,8.09,3.4,12.14,5.1,8.76,3.56,17.52,7.12,26.28,10.67,4.69,2.19,9.37,4.39,14.06,6.58,5.83,2.29,11.66,4.58,17.49,6.87,17.74,7.28,35.48,14.55,53.22,21.83,5,1.99,9.99,3.98,14.99,5.97.43.44.77,1.08,1.29,1.3,16.14,6.88,32.29,13.74,48.47,20.52,2.66,1.12,2.6-1.26,2.65-2.71,1.28-42.18,2.51-84.36,3.74-126.54.02-2.98.04-5.96.06-8.95,1.02-1.15,1-2.33.13-3.54-.3-3.3,2-6.67-.25-9.93.14-.72.29-1.43.43-2.15.13-.27.25-.53.38-.8.16-.22.31-.45.47-.67Z"/>
    <path class="cls4"
          d="M645.04,641.96c1.59-9.53,3.17-19.06,4.76-28.59,2.87,1.97.58,4.52.3,6.46-1.1,7.48-.28,15.47-5.05,22.12Z"/>
    <path class="cls4" d="M643.76,644.17c.4-.7.8-1.39,1.21-2.08-.4.7-.8,1.39-1.21,2.08Z"/>
    <path class="cls6"
          d="M458.83,706.77c-8.79,6.3-19.35,8.78-28.94,13.35-7.18,3.42-14.58,6.38-21.92,9.46-2.11.89-4.36,1.47-6.54,2.19-.02-2.45-.05-4.89-.07-7.34,9.36-12.93,14.52-27.77,19.4-42.73,0,0-.04.08-.04.08.26-.47.52-.94.78-1.41,4.24-5.32,8.17-10.92,12.76-15.92,17.07-18.59,17.69-13.96,5.98-31.62-1.02-1.53-2.52-2.75-3.85-4.07-1.33-1.32-1.68-2.38-.25-4.1,2.05-2.48,3.84-5.23,5.39-8.06,4.49-8.16,7.2-16.56,2.28-25.59.51-3.25,1.01-6.5,1.52-9.74,7.83-8.45,15.87-16.71,23.36-25.44,2.72-3.17,8.11-7.09,4.02-11.74-7.05-8-5.17-18.57-9.33-27.33-1.77-3.73-3.22-9.01-1.93-12.53,3.53-9.62,11.56-16.58,17.3-24.94,3.04-4.43,6.94-9.25,2.92-14.82-2.85-3.95-7.62-4.23-11.43-1.75-4.72,3.07-10.12,5.5-13.32,10.58,1.64-29.77,4.16-59.53,4.69-89.33.69-38.95-.19-77.93-.39-116.9,8.83-3.73,17.77-7.13,27.14-9.29-.28,1.72-.71,3.43-.81,5.15-2.07,34.23-4.07,68.47-6.2,102.7-.33,5.27,1.56,9.54,6.7,9.92,5.28.4,8.8-3.47,9.11-8.88,2.22-38.1,4.27-76.2,6.38-114.31,18.33-6.42,36.67-12.84,55.01-19.26-2.11,34.83-4.27,69.65-6.27,104.48-.29,5.1,1.73,9.54,7.54,9.59,5.88.05,7.83-4.3,8.14-9.6,1.53-25.88,3.19-51.75,4.59-77.64.57-10.64.6-21.3.88-31.96,11.57-4.5,23.07-9.19,34.73-13.44,8.13-2.96,15.98-6.85,24.69-8.05-2.23,19.31-4.62,38.6-6.67,57.93-4.39,41.51-8.66,83.04-11.07,124.73-.25,4.34.04,8.21,4.31,10.6,2.16,1.74,4.34,2.36,6.55.09,4.12-1.3,4.62-5.02,4.91-8.32,1.4-15.66,2.31-31.37,3.77-47.03,2.53-27.08,5.41-54.14,8-81.22,1.99-20.87,3.74-41.76,5.6-62.64,14.55-5.23,29.1-10.47,43.65-15.69,2.76-.99,2.56.72,2.29,2.55-4.11,27.89-8.15,55.79-12.3,83.67-5.16,34.63-10.44,69.25-15.6,103.88-5.53,37.13-10.99,74.27-16.43,111.41-5.16,35.25-10.22,70.51-15.39,105.76-1.97,13.44-4.17,26.84-6.22,40.26-.43,2.78-2.77,3.35-4.75,4.25-6.23,2.82-12.51,5.51-18.78,8.26.55-7.33.98-14.67,1.69-21.98,3.59-37.24,7.28-74.47,10.87-111.71.41-4.28-.02-8.73-5.1-9.95-5.7-1.37-8.32,2.85-10.28,7.18-.79,1.75-.85,3.88-1.04,5.85-2.97,29.79-6.08,59.56-8.79,89.38-1.45,15.99-4.45,31.84-4.33,47.96-7.03,3.35-14.01,6.84-21.12,10.02-8.41,3.76-16.95,7.24-25.44,10.85.85-12,1.7-24.01,2.55-36.01.03-.91.06-1.82.1-2.73.34-4.74.69-9.49,1.03-14.23,1.58-1.63.91-3.53.63-5.38.79-13.59,1.61-27.17,2.37-40.76.28-5.03-2.2-8.22-7.09-8.9-5.17-.71-7.15,2.98-7.71,7.22-1.02,7.66-1.78,15.36-2.34,23.06-2.07,28.25-4.02,56.5-6.01,84.76-16.33,6.99-32.66,13.98-49,20.98.05-3.61-.05-7.23.19-10.83,2.65-40.58,5.36-81.16,8.02-121.74.35-5.41-1.77-9.9-7.47-10.13-5.33-.21-7.45,4.01-7.83,9.07-2.62,34.44-5.38,68.88-7.9,103.33-.89,12.14-1.25,24.32-1.86,36.49Z"/>
    <path class="cls3"
          d="M388.11,577.55c-.16.22-.31.45-.47.67-.13.27-.25.53-.38.8-.14.72-.29,1.43-.43,2.15-1.01,2.99-1.5,6.29-3.1,8.92-11.96,19.61-21.07,40.85-33.95,59.94-1.35,2-2.46,4.55-5.17,3.9-2.75-.66-5.82-1.44-6.8-4.96-.75-2.7-1.85-5.27-5.47-4.87,0-9.38.02-18.75.03-28.13.1-4.26.19-8.53.29-12.79.07-.57.13-1.14.2-1.71.08-9.91,1.68-19.83-.14-29.73-.47-.94-.95-1.88-1.42-2.81-1.11-.78-2.23-1.56-3.34-2.34l-.2-.15-.21.14c-1.13-.97-2.22-.87-3.27.14-.34.11-.68.21-1.02.32-1.44-.07-2.08.82-2.46,2.03l.15.2-.13-.21c-2.56,2.34-3.08,5.24-2.35,8.49-.2,6.22-.39,12.44-.59,18.66-.17.33-.26.85-.51.95-1.45.55-.52-.65-.64-1-2.28-6.45-4.59-13.15-9.93-17.56-13.13-10.85-29.14-17.09-43.45-26.09-.87-.54-2.03-.61-3.06-.9.52,1.02.86,2.21,1.6,3.03,10.11,11.2,12.05,24.44,9.9,38.78-1.72,11.48-5.82,22.27-9.36,33.23-.19.05-.39.08-.58.1-.05-.65-.09-1.31-.14-1.96.27-7.25.53-14.5.8-21.76,2.87-10.74,9.44-21.46,4.95-32.64-4.53-11.28-11.35-21.64-17.24-32.36-.28-.52-1.35-1.61-1.93-.14-1.35,3.47-2.42,7.06-3.81,10.51-3.45,8.53-2.23,16.75,1.39,24.86.18,23.27.61,46.54.44,69.81-.08,11.1,2.47,22.34-1.28,33.3-4.69-2.19-9.37-4.39-14.06-6.58,2.46-16.42,1.89-32.93,1.46-49.44-.23-8.57-.13-16.99-3.8-25.21-1.29-2.9-10.22-5.18-2.29-10.32.01,0-.14-.28-.22-.42-2.63-4.5-2.27-7.72,3.68-8.48,2.79-.36,3.98-2,5.01-4.6,3.18-8.1,4.14-15.44-4.67-20.73.28-.44,2.05.11.97-1.07-1.01-1.1-2.54-2.36-3.8-.01-1.68,0-3.36.02-5.03.03.14-.33.19-.81.44-.98,6.55-4.45,12.86-9.25,20.56-11.84,1.76-.59,5.07-.88,4.94-4.42-.16-4.36.31-8.77-.26-13.06-.35-2.67.29-2.23,2.27-2.21,3.75.03,8.04,3.28,11.14-.21,3.07-3.44,4.82-8.02,7.57-11.79,1.95-2.67,2.15-6.82,6.22-7.8-.23.43-.46.87-.68,1.3.23,0,.45.02.68.02,0-.45,0-.89,0-1.34,6.96,2.13,14.18,1.87,21.33,2.19,1.17.05,2.79-.83,2.87.87.08,1.77-1.7.24-2.57.72-.77.42-1.73.49-2.61.71.85.11,1.7.22,2.55.34,1.1.16,2.19.34,3.29.5,0,0-.06-.08-.06-.08-3.3,5.42-6.63,10.84-9.89,16.28-.51.84-2.47,2.29-.13,2.73,6.95,1.29,13.98,2.14,20.98,3.11.23.03.61-.5.79-.84,2.9-5.55,5.92-11.05,8.62-16.71,1.69-3.54,3.88-5.1,8-4.6,6.53.79,13.14.99,19.71,1.48,1.8.13,3.59.98,2.64,2.97-2.96,6.2-6.27,12.24-9.44,18.34-.51,0-1.02.02-1.53.03-2.71.18-5.54-1.11-8.11.7,2.16,3.09,5.32,1.64,8.13,1.81,9.51,1.04,19.05,1.96,28.54,3.19,3.65.48,5.42-.8,5.77-4.3.64-6.32,1.2-12.66,1.85-18.98.29-2.87-1.14-4.17-3.78-4.41-27.67-2.53-55.35-4.93-83-7.62-24.45-2.37-48.88-5.05-73.31-7.62-.84-.09-1.65-.47-2.48-.71.48-.68.82-1.63,1.48-2,5.87-3.32,11.79-6.54,17.71-9.78.55-.3,1.17-.49,1.76-.73-.71-.17-1.45-.26-2.11-.54-1.55-.65-3.07-1.39-4.6-2.09,1.12-.29,2.25-.58,3.37-.87.68,0,1.35.01,2.03.02-.02-.21-.06-.61-.07-.6-.68.02-1.35.08-2.03.13-3.46.05-6.35-1.14-8.62-3.83-3.02-3.59-3.3-8.14-3.14-12.29.12-3.02,3.99-1.21,6.08-1.98,6.82-2.51,8.84,4.27,12.8,7.12,5.47,3.93,9.34,12.19,15.56,12.38,10.76.34,21.62-2.7,33.27-4.44-5.3-1.75-10.26,2.38-14.27-1.25-5.9-5.33-11.46-11.02-17.09-16.63-.37-.37-2.26-1.58-.37-1.96,4.85-.98,9.88-1.15,14.71-2.2,10.38-2.25,14.84,5.65,20.87,11.33,3.28,3.09,5.71,8.66,10.67,8.28,7.93-.62,15.75-2.82,23.61-4.35,1.96-.14,5.58.81,5.42-.86-.2-2.08-3.29.34-5.1-.23-.1-.03-.23.07-.35.1-7.42-1.32-10.46-7.92-15.1-12.57-1.99-1.99-3.78-4.17-5.67-6.27,2.88-.6,5.82-1.91,8.63-1.66,7.81.7,16.75-7.79,23.44,3.27,2.78,4.59,7.26,8.12,10.85,12.24,2.06,2.37,4.31,3.16,7.21,1.8.33.51.61,1.06,1.02,1.49.1.11.62-.18.95-.29-.36-.46-.72-.91-1.08-1.37,3.01-.9,5.74-1.08,9.11-.47,3.52.64,9.49.15,7.94-6.85-2.42-10.96-5.42-21.81-7.16-32.87-.82-5.19-2.41-5-6.59-4.14-10.48,2.16-21.08,3.67-31.64,5.44-.06-.39-.13-.78-.19-1.16l36.9-6.35c-16.28,1.68-32.39,4.21-48.5,6.78-.49.08-.91.62-1.36.94.54.09,1.1.33,1.63.26,3.29-.4,6.57-.87,9.86-1.32-6.19,1.92-12.72,2.2-18.8,4.01-22.13,6.58-45.39,3.56-67.79,8.96-21.78,5.25-44.26,7.64-66.45,11.2-2.25.36-2.81.97-2.33,3.36.91,4.46,2.86,9.57,1.54,13.44-3.25,9.54-8.11,18.52-12.3,27.75-.21.46-.15,1.03-.22,1.55,6.76-4.13,3.7,3.24,4.7,4.68,8.37,12.06,19.78,20.84,30.77,30.12,0,0-.05-.05-.05-.05,1.21,1.49,2.34,3.05,3.65,4.45,6.65,7.06,15.74,11.53,21.18,19.88.38.58.8,1.12,1.2,1.69-.7-.08-1.39-.24-2.09-.23-4.91.03-12.56-.73-13.64,3.07-3.14,10.95-7.01,6.45-11.84,2.1-1.34-1.21-2.92-2.16-4.39-3.23-2.2-2.62-4.16-5.52-7.9-6.16-2.31-2.14-4.56-4.35-6.93-6.42-10.36-9.05-21.09-17.61-22.31-33.09-.38-4.81.97-14.38-9.47-9.44-6.75,3.2-12.84,7.79-19.22,11.75-4.05-34.57-7.99-69.16-12.18-103.72-4-33.06-8.32-66.09-12.39-99.15-4.01-32.56-7.99-65.13-11.76-97.72-1.38-11.92-1.14-11.79,10.66-8.19,18.26,5.57,36.6,10.88,54.89,16.34,1.87.56,3.65,1.42,5.48,2.14.24,3.97.49,7.95.73,11.92,1.64,26.52,3.24,53.04,4.95,79.56.32,5.02,2.21,9.42,8.11,9.2,6.69-.25,7.33-5.37,6.99-10.57-1.88-28.63-3.83-57.26-5.75-85.89,23.47,6.88,46.95,13.75,70.42,20.63.02.52.04,1.05.05,1.58-.07,11.91-.13,23.82-.2,35.73,0,1.04,0,2.08,0,3.12,0,5.71-.02,11.43-.03,17.14,0,4.27,0,8.55,0,12.82-.05.24-.1.49-.15.73-.19.06-.26.18-.21.38-26.75,4.38-53.53,8.56-80.22,13.28-5.57.98-12.09,2.85-11.21,10.94.61,5.55,1.95,11.02,2.85,16.54.36,2.17,1.41,2.41,3.4,2.09,7.21-1.17,14.45-2.15,21.69-3.2,2.8,2.31,5.64.06,8.47-.03l-4.95-.85c.57-.22,1.13-.56,1.72-.65,21.81-3.36,43.75-5.96,65.26-11.07,1.47-.39,2.94-.78,4.41-1.16,3.69-.17,9.88-2.88,10.48.16.94,4.82-4.92,2.02-7.72,2.99-16.22,5.61-33.42,6.37-50.04,10.12-15.31,3.45-31.28,3.39-46.51,7.62-1.47.41-4.31-.74-4.24,1.04.21,5.18.54,10.61,2.35,15.37.95,2.49,4.82-.17,7.32-.52,14.65-2.07,29.26-4.46,43.91-6.57,8.86-1.27,17.76-2.23,26.64-3.33.18-.37.37-.73.55-1.1,1.83.05,3.67.1,5.5.15.12.04.23.13.35.13,3.43-.19,6.95,1.11,10.27-.7-3.35-.18-6.69-.35-10.04-.53,5.97-1.1,11.97-2.1,17.9-3.37,1.49-.32,2.58-.45,2.82,1.15.21,1.38-.72,2.15-2.2,2.42-10.19,1.89-20.33,4.09-30.56,5.75-14.97,2.42-29.71,6.76-45.12,5.66.69.36,1.37.72,2.05,1.08-.64.26-1.25.67-1.91.77-8.15,1.26-16.64,1.5-24.37,4.03-5.7,1.87-.54,7.21-.61,10.98-.05,3.03,1.98,2.08,3.91,1.82,16.38-2.17,32.24-7.49,48.88-8.1,1.59.08,3.2.3,4.78.22,3.92-.2,7.82-.54,11.74-.82-3.64-.22-7.27-.42-10.9-.68-.45-.03-.87-.4-1.3-.61,15.76-.95,31.18-5.54,47.16-4.17-1.24-.48-2.43-.4-3.62-.34-1.01.06-1.64-.74-.55-1,2.37-.58,4.9-.53,7.37-.65.13,0,.53.84.4,1.08-1,1.93-2.83,2.39-4.82,2.71-33.05,5.22-66.09,10.5-99.15,15.65-1.79.28-2.47.7-2.18,2.45.73,4.43,1.48,8.85,2.13,13.29.22,1.49.81,1.25,1.99,1,18.18-3.75,36.38-7.41,54.58-11.09-.1.76-.19,1.53-.29,2.29.57.03,1.15.07,1.72.1-.08-.85-.16-1.7-.24-2.55,16.05-2.74,32.11-5.48,48.17-8.21,1.32-.22,2.89-.68,3.33,1.27.46,2.07-1.29,1.86-2.51,2.3-11.01,4.02-22.7,4.55-34.07,6.67-20.3,3.79-40.59,7.8-61.06,10.4-10.03,1.27-11.87,5.3-9.11,13.8.69,2.11.92,4.36,1.4,6.54.3,1.39.61,2.57,2.62,2.25,7.2-1.15,14.47-1.94,21.64-3.24,20.56-3.72,41.03-7.95,61.64-11.36,13-2.15,26.31-.7,39.42-3.28,21.91-4.31,44.03-7.59,66.04-11.36,1.93-.33,4.76.32,4.17-3.52-1.46-9.46-2.67-18.95-4.01-28.43-.15-1.09.34-2.56-1.88-2.25-4.27.59-8.58.89-12.88,1.31-.89,0-1.79.02-2.68.03h-5.99c0,.23,0,.46,0,.69h5.91c.02.2.05.41.08.61-8.25,1.49-16.44,3.5-24.94,2.66-.49-.55-.98-1.1-1.47-1.66,13.09-5.02,26.73-6.84,40.65-6.9,2.12,0,2.22-1.12,2-2.61-.62-4.3-1.27-8.59-1.98-12.87-.05-.31.64-1.3-.96-1.01-8.18,1.49-16.54,2.15-24.59,4.09-8.05,1.94-16.67-.22-24.34,3.87-2.82,1.51-1-2.87-3.01-2.54.48-.37.92-.99,1.44-1.07,14.09-2.25,28.17-4.58,42.3-6.59,5.92-.84,9.35-1.73,7.88-9.69-1.54-8.37-1.79-15.47-13.14-11.33.25-1.02.49-2.05.74-3.07,1.08-.21,2.16-.6,3.24-.62,4.84-.07,6.95-1.27,6.04-7.2-1.41-9.18-3.22-18-8.24-25.92.12-2.51.23-5.01.35-7.52.22-5.67.45-11.34.67-17,17.31,4.71,34.63,9.42,51.94,14.14,2.3.63,1.64,2.53,1.59,4.04-1.51,43.03-3.07,86.07-4.6,129.1-1.6,44.88-3.18,89.76-4.76,134.64-.31,8.73-.57,17.46-.85,26.19ZM232.14,465.48c.4.04.8.08,1.19.11-.24-.24-.48-.48-.72-.71-.79-.69-1.59-1.39-2.38-2.08-.18.22-.36.45-.54.67.81.67,1.63,1.34,2.44,2.01ZM329.99,375.22c-.6.11-1.2.23-1.8.34.17.31.33.62.5.92.44-.3.87-.61,1.31-.91.83.51,1.65,1.03,2.48,1.54.12-.31.23-.61.35-.92-.94-.32-1.89-.65-2.83-.97ZM275.15,511c-2.17.02-4.34.03-6.51.09,0,0,0,.82,0,.82,2.17.05,4.34.07,6.51.08.85-.17,1.71-.33,2.56-.5-.85-.16-1.71-.33-2.56-.5ZM133.18,470.08c3.52-.51,5.63-2.33,5.51-5.66-.11-3.23-1.47-5.77-5.44-5.54-3.86.22-5.09,2.73-5.04,6.01.04,3.25,2.24,4.7,4.97,5.2ZM125.48,406.55c3.39-.44,5.61-2.26,5.66-5.52.05-3.13-2.25-5.21-5.22-5.36-3.12-.16-5.09,1.84-5.16,5.14-.07,3.24,1.83,4.96,4.71,5.75ZM126.74,369.57c-.18-2.43-1.75-3.58-3.99-3.46-2.27.12-3.68,1.56-3.56,3.98.12,2.31,1.5,3.96,3.74,3.85,2.33-.11,3.76-1.78,3.81-4.37ZM289.67,504.32c-.88-.29-1.63-.4-2.22-.76-1.64-.99-.84.74-.8.83.31.72.75,1.4,1.15,2.08.52-.6,1.04-1.2,1.87-2.15ZM228.64,402.82l-.02.39h6.26c0-.13,0-.26,0-.39h-6.23ZM239.92,474.28c.38-.43.63-.72.89-1.01-.39-.23-.76-.6-1.16-.63-.34-.03-.71.33-1.07.52.39.33.78.65,1.34,1.13ZM339.29,451.92c-.55.41-.88.66-1.22.91.34.24.66.6,1.04.68.26.06.6-.27.91-.42-.21-.32-.41-.65-.73-1.16ZM260.27,425.32c.25-.18.57-.42.89-.66-.45-.12-.91-.35-1.34-.31-.38.04-.73.39-1.09.6.45.11.9.22,1.54.37ZM329.72,455.04c-.27-.86-.44-1.43-.62-2-.25.26-.71.53-.71.78.01.56.26,1.12.42,1.68.32-.16.64-.32.91-.46ZM254.38,424.17c-.36-.1-.61-.27-.78-.21-.41.14-.78.39-1.16.6.21.2.51.6.6.56.41-.19.76-.51,1.35-.95ZM270.02,515.41c.24.4.41.68.58.95.24-.19.64-.36.68-.58.04-.26-.24-.58-.37-.87-.26.15-.53.3-.88.5ZM156.05,490.68c.65-.68,1.04-1.05,1.34-1.47.07-.1-.14-.41-.22-.63-.45.35-.93.68-1.34,1.07-.08.08.08.41.22,1.03ZM269.12,519.77c.21-.36.35-.62.5-.88-.28-.15-.58-.45-.83-.42-.22.03-.39.44-.58.68.26.18.52.36.9.62ZM290.45,466.97c-.1-.31-.2-.72-.24-.72-.34.04-.66.16-.99.25.08.25.16.71.22.71.33-.01.66-.15,1.01-.24ZM296.15,421.08c.2-.09.48-.14.56-.3.07-.12-.11-.38-.18-.57-.26.12-.51.24-.77.36.12.17.25.34.39.51ZM254.38,341.41c-.92-.15-1.38-.29-1.83-.27-.29.01-.57.27-.85.42.45.12.9.3,1.35.33.29.02.59-.2,1.34-.49ZM228.28,582.3c-.41-.38-.62-.66-.9-.79-.14-.06-.4.16-.61.25.14.29.21.7.44.83.18.1.56-.14,1.07-.29ZM288.56,461.1c-.11-.16-.21-.43-.35-.46-.19-.04-.42.11-.63.17.16.23.33.46.49.69.16-.13.32-.25.49-.4ZM207.16,349.71c-.18.1-.46.17-.51.31-.05.16.13.38.21.57.23-.14.45-.28.68-.43-.12-.15-.24-.3-.38-.46ZM245.34,343.14c-.23-.08-.45-.23-.68-.23-.22,0-.44.13-.65.21.21.09.42.24.63.24.23,0,.47-.13.7-.21Z"/>
    <path class="cls8"
          d="M209.54,117.36c7.74,3.33,13.92,8.54,18.34,15.67,2.42,3.9,5.46,5.58,9.95,4.24,1.39,1.52,3.09,2.85,4.11,4.59,3.31,5.59,7.96,5.46,12.76,2.85,5.14-2.8,7.11-7.12,4.34-12.85-4.11-8.51-11.66-13.67-18.84-19.09-2.66-2-4.72-5.97-9.2-4.47-1.51-1.15-3.02-2.31-4.54-3.46-1.01-3.77-4.46-5.33-7.11-7.47-2.95-2.39-4.92-5.13-5.48-8.82-.06-.41,1.01-1.29,1.7-1.48,4.09-1.14,8.57.57,10.35,3.11,2.98,4.23,6.45,3.14,9.48,2.32,3.82-1.03,4.14-4.84,3.74-8.4,7.55,1.64,14.6,1.15,20.46-4.65,3.23,4.96,14.42,4.16,17.74-1.27,3.39-5.53,18.84-10.91,24.47-7.94,6.34,3.35,10.06,3.28,9.69-5.19,7.88,5.19,8.04,19.84.13,25.55-5.04,3.64-10.32,6.96-15.54,10.34-3.58,2.31-5.05,5.69-4.19,9.63.54,2.49,1.56,5.32,4.68,6.12,4.01,1.03,6.83-.33,9.17-3.85,3.3-4.96,6.91-9.79,13.08-11.62,2.42,3.36,5.68,4.52,9.69,3.74.22-.05.44-.11.66-.16,3.04-1.14,6.08-2.28,9.11-3.42.5-.15,1.01-.3,1.51-.45.76-.12,1.51-.25,2.27-.37.93.76,1.68.7,2.2-.47.75-.1,1.5-.19,2.25-.29.49-.05.97-.11,1.46-.16,3.25,0,6.51,0,9.76-.01.49.05.98.11,1.46.16.98.13,1.96.25,2.94.38.58,1.07,1.35,1.19,2.29.46.48.13.95.26,1.43.39.65.2,1.3.4,1.95.6,9.85,3.43,17.86,9.09,22.64,18.68-1.84,3.21-3.35,6.66-5.57,9.59-12.4,16.42-30.56,23.16-49.21,29.19-3.49,1.13-8.21.17-10.18,4.74-8.31-4.25-17.08-7.05-26.3-8.45,5.48-3.75,4.62-9.31,2.91-14.1-2.09-5.86-7.4-8.83-13.32-6.43-18.3,7.42-33.59,18.91-45.14,35.2-7.15,10.08-13.27,20.91-24.37,27.85-7.95,4.98-16.93,5.35-25.32,8.17-.89.05-1.79.09-2.68.14-28.58-8.24-57.15-16.47-85.72-24.74-.89-.26-1.69-.83-2.53-1.25.69-.67,1.3-1.44,2.07-1.98,10.6-7.5,21.48-14.06,35.17-14.16,4.85-.03,6.99-4.08,8.31-8.42,3.85-12.72,8.16-25.19,19.81-33.28,3.51,3.99-1.81,4.35-2.82,6.38-2.86,5.72-6.41,11-8.64,17.16-1.15,3.18-.55,4.99.95,7.16,1.74,2.52,3.63,1.52,5.31-.12,4.22-4.11,8.26-8.41,12.65-12.33,1.5-1.34,3.56-2.99,5.87-2.02.7.3,1.19,2.2,1.02,3.25-.41,2.63-1.52,5.68,2.12,6.42,2.42.49,6.01,1.77,7.47-1.25,1.43-2.96.37-5.96-2.69-8.11-1.04-.73-3.91-.71-2.8-3.03,1.09-2.28,3.29-2.86,5.97-2.76,4.4.16,9.32.86,13.12-.76,6.9-2.95,1.71-10.05,3.59-14.96ZM349.69,120.68c3.2.62,5.7-.59,7.01-3.52.82-1.84.25-3.75-1.65-4.84-2.9-1.67-7.35-6.33-8.7-3.81-3.99,7.43-8.08,2.73-12.41,1.79-2.43-.53-5.01-1.41-7.23,1.13-2.34,2.68-.32,4.84.29,7.24.43,1.69,1.54,1.99,3.04,2.12,4.06.33,7.7-.06,9.84-4.24.59-1.16,1.21-2.61,2.97-2.4,1.57.19,2.08,1.5,2.03,2.72-.12,3.53,1.81,4.28,4.81,3.82ZM368.4,125.35c3.36-.68,6.21-2.47,6.14-5.92-.06-3.11-2.38-5.42-5.94-5.43-3.91-.02-5.27,3.14-5.32,5.94-.05,2.57,1.87,5,5.12,5.41ZM209.86,142c.32-4.9-1.95-4.66-4.13-4.8-2.92-.19-4.64,1.04-4.65,3.93-.01,2.84,1.97,4.33,4.56,4.27,2.97-.08,4.1-2.32,4.22-3.4Z"/>
    <path class="cls3"
          d="M461.23,267.06c.2,38.97,1.08,77.95.39,116.9-.53,29.79-3.05,59.55-4.69,89.33-6.33,6.71-12.6,13.49-19.05,20.08-1.65,1.68-5.46,4.16-5.67,3.92-6.27-6.98-16.68-8.38-23.19-2.76,1.23-34.94,2.45-69.88,3.7-104.83,1.23-34.19,2.49-68.39,3.76-102.58.07-1.82-.13-3.91,2.16-4.74,14.19-5.12,28.39-10.22,42.59-15.33ZM434.55,313.66c4.05-.28,6.03-3.23,6.12-6.64.09-3.6-2.37-6.42-6.25-6.6-4.19-.2-6.48,2.39-6.49,6.49-.01,4.13,2.52,6.22,6.62,6.76Z"/>
    <path class="cls8"
          d="M454.45,169.78c.74-.01,1.48-.03,2.22-.04,1.03,1.56,2.37,1.3,3.78.67,6.7,1.23,12.92,3.46,17.95,8.29-1.58,6.03.61,12.38-1.74,18.39-6.57,16.81-20.49,26.5-34.93,35.23-22.19,13.4-46.9,16.98-72.4,16.12-12.37-.42-24.72-1.19-37.08-1.81-1-.27-2.01-.54-3.01-.81-.34-.1-.68-.19-1.02-.29-29.49-8.32-58.99-16.64-88.48-24.95.09-1.38,1.19-1.8,2.06-2.65,3.28-3.2,9.45-3.91,9.26-10.23,5.22-6.97,6.09-16.42,12.85-22.51.27,1.83.53,3.65.8,5.48.6,4.06-.58,9.65,6.44,8.68,3.67-.51,7.22-1.87,10.82-2.84,0,.74-.16,1.54.04,2.22.73,2.43,1.63,4.82,4.88,4.53,2.9-.26,4.43-2.89,4.28-4.81-.24-3.07-3.47-1.66-5.47-1.95-1.21-.18-2.47-.01-3.71,0,.62-2.31,2.19-3.2,4.48-3.82,6.25-1.68,12.39.17,18.57.22,3.77.03,7.34-.03,7.59-4.74.23-4.33-2.5-7.11-6.53-8.22-2.47-.68-3.97-1.36-2.36-4.13,10.03.85,20.52,9.79,23.27,19.85-5.75,3.72-12.92,21.78-10.86,28.18,1.03,3.2,2.11,6.74,6.95,6.45,4.63-.28,4.76-3.52,5.34-6.74.22-1.22.56-2.44,1.05-3.58,3.36-7.83,11.51-9.31,16.82-3.4,2.91,3.25,6.25,6.75,11.38,3.46.54-.11,1.07-.22,1.61-.33,1.2.9,1.22.03,1.25-.83,3.39-2.9,4.3-7.23,6.22-10.96,6.81-13.28,18.74-12.48,30.81-11.4,1.81,3.26,3.42,6.76,7.77,7.26,1.91.22,2.97-1.14,3.75-2.57,3.45-6.29-1.56-15.14-8.83-15.67-2.7-1.58-5.39-3.15-8.09-4.73.53-9.42,8.77-16.91,20.21-18.37,6.42-.17,10.92,2.1,11.35,9.22.14,2.37.49,4.63,2.82,5.66,2.53,1.11,4.41-.47,6.09-2.19,1.16-.48,2.32-.97,3.48-1.45,2.12-.16,4.23-.32,6.35-.48-1.15,1.04-2.19,2.23-3.46,3.09-3.79,2.56-6.82,6.15-5.18,10.5,1.57,4.17,6.46,4.48,10.33,3.51,4.25-1.07,8.26-3.16,12.32-4.93,2.98-1.3,5.05-1.37,7.76,1.44,2.07,2.15,5.98,2.9,9.21,3.4,1.64.26,1.93-2.33,1.98-3.89.13-3.64-1.94-5.72-5.27-6.76-1.97-.61-4-1.09-5.88-1.92-3.95-1.75-9.51-1.57-9.86-7.85ZM380.48,201.33c-2.59,2.53-9.52,2.41-8.92,10.11.23,2.95,2.32,2.7,3.62,2.24,4.77-1.69,8.99-4.58,10.79-9.42.8-2.15-1.35-3.8-5.48-2.93Z"/>
    <path class="cls1"
          d="M432.67,175.13c-1.68,1.72-3.56,3.3-6.09,2.19-2.33-1.02-2.67-3.29-2.82-5.66-.43-7.12-4.93-9.39-11.35-9.22-.6-3.48,1.86-7.44-1.8-10.44-5.66-4.63-30.82-1.54-36.43,3.93-5.55,5.42-11.7,10.25-17.82,15.05-1.11.87-3.43.84-4.96.41-6.26-1.74-9.96,1.82-8.61,8.48.1.48-.58,1.12-.89,1.69-4.27-7.02-9.78-12.9-16.38-17.76,1.97-4.57,6.69-3.61,10.18-4.74,18.65-6.02,36.81-12.77,49.21-29.19,2.21-2.93,3.73-6.38,5.57-9.59,1.24,2.27,2.56,4.51,3.7,6.83,2.47,5.01,6.07,8.38,11.86,6.1,5.77-2.27,6.71-7.3,5.2-12.79-.75-2.72-2.07-5.29-3.14-7.92,3.05-2.01,4.19.67,5.98,2.25,2.72,2.4,3.76,7.56,9.65,4.67,14.97-7.33,25.39-19.04,32.64-33.55,6.12-12.25,3.34-26.12-5.47-32.78-.04-.19-.09-.38-.15-.57-.46-.54-.93-1.08-1.39-1.62,0,0,0-.01,0-.01-.19-1.76-1.37-2.26-2.92-2.29l-.02-.03-.15-2.59c.83-1.66,2.38-.89,3.64-1.07,6.61-.95,10.61,5.49,16.75,5.89.77.75,1.53,1.49,2.3,2.23-.13,1.32.08,2.35,1.79,2.08,2.63,3.87,5.26,7.73,7.89,11.6,0,0,.03.04.03.04.26-.02.41.1.47.35,2.18,3.08,5.06,4.35,8.71,3.11,2.59-.88,4.16-4.7,7.76-2.66.57.33,1.15.66,1.72.99,2.19.03,4.37.06,6.56.1,9.05-1.6,15.52,2.82,21.14,9.13,1.18,1.32,1.24,2.6-1.06,2.59-13.9-.09-27,3.35-39.65,8.84.09-.36.07-.85.3-1.07,3.97-3.75,3.91-8.48.68-11.84-3.09-3.22-14.72.57-17.03,3.86-5.6,7.95-7.97,17.84-14.92,24.9-9.32,9.46-20.21,16.97-31.15,24.39-1.23.83-2.32,1.77-1.93,3.29.5,1.94,2.03,1.44,3.36.95,9.07-3.35,17.77-7.38,25.3-13.59,3.24-2.67,6.53-5.27,9.8-7.9-5.06,9.39-7.66,19.35-7.04,30.08.19,3.3.87,6.39,3.12,8.95.24.24.47.49.71.74.48.39.96.78,1.44,1.16-.75.72-1.51,1.43-2.26,2.15-2.41.16-4.83.31-7.24.47-.49.11-.99.22-1.48.34-2.01.35-4.03.7-6.04,1.05-.97.21-1.93.42-2.9.63-3.58,1.61-7.41,2.94-9.89,6.15-3.24,4.2-.26,10.07,5.52,11.24Z"/>
    <path class="cls8"
          d="M450.9,53.09c8.8,6.66,11.59,20.52,5.47,32.78-7.25,14.51-17.67,26.22-32.64,33.55-5.89,2.89-6.94-2.27-9.65-4.67-1.79-1.58-2.93-4.26-5.98-2.25-9.72-17.94-25.28-27.31-44.97-30.58-.52-.07-1.05-.13-1.57-.2-1.72-.19-3.44-.37-5.16-.56-1.35-.26-2.69-.52-4.04-.79-3.78-14.61-12.33-25.6-25.37-33.08-2.78-1.59-2.69-2.92-.59-5.01,5.18-5.16,11.2-8.49,18.59-9.06-2.48,2.21-4.33,4.8-8.32,5.44-2.29.37-3.06,4.6-2.88,7.62.19,3.02,2.67,2.78,4.49,2.45,7.01-1.25,13.48-4.88,20.98-4.31,2.04.15,1.22-2.6.26-3.48-2.62-2.4-5.32-4.89-9.25-5-.79-.02-1.57-.38-2.36-.59.71-.44,1.43-.88,2.13-1.31-1.16-.31-2.31-.63-3.47-.95,11.57-2.56,21.76,2.35,26.1,13.02,3.07,7.55,8.59,7.86,15.06,5.76,3.79-1.23,7.45-2.86,11.18-4.31.44.24.89.48,1.33.73-.41.84-.94,1.64-1.2,2.53-1,3.4-5.17,7.42-2,10.07,3.63,3.04,8.21,8.28,14.29,3.23.99-.82,2.14-2.69,3.33-1.44.99,1.04,1.68,3.49,1.13,4.69-2.04,4.44.26,7.96,3.14,9.78,5.47,3.45,9.84-1.89,14.54-3.66,2.81-1.05,3.41-4.35,2.66-7.47-.47-1.95-1.19-4.29,1.56-4.95,3.07-.74,2.32,2.09,2.83,3.67,1.63,5.07,4.9,9.01,10.31,6.88,4.51-1.78,4.47-6.53,2.66-10.92-1.02-2.47-1.73-5.07-2.57-7.61ZM375.82,72.33c2.36-2.33,8.58-.38,8.73-6.24.12-5-3.49-8.16-8.51-8.25-4.09-.07-9,1.77-9.34,5.77-.36,4.28,3.19,7.83,9.12,8.72Z"/>
    <path class="cls8"
          d="M503.86,180.15c-8.92-13.94-21.94-21.35-38.04-23.85-.85-1.2-1.87-1.24-3.02-.45-.99-.13-1.98-.25-2.97-.38.19-.47.37-.94.56-1.41.82-.02,1.63-.03,2.45-.05,1.62.39,2.91.02,3.62-1.62,3.87-2.28,4.02-5.75,3.45-9.72-2-13.89,4.39-26.44,16.74-33.28.24.67.84,1.79.66,1.93-7.89,6.25-12.9,13.96-12.6,24.41.04,1.28-.56,2.94,1.17,3.6,1.83.69,2.54-.89,3.61-1.93,2.94-2.84,5.64-6.32,9.16-8.08,6.48-3.25,13.4-5.7,20.31-7.97,2.42-.8,6.14-1.14,7.81.16,2.44,1.9-.88,3.21-2.18,4.66-.59.65-.71,1.83-.82,2.79-.55,4.73.06,9.87,4.45,11.83,4.23,1.89,8.73,1.53,13.59-2.07,4.14-3.07,7.94-6.59,8.14-10.62.23-4.79-5.89-6.16-9.79-7.88-9.45-4.16-11.13-14.98-2.98-21.45,4.02.06,8.04.12,12.05.19.49.07.99.14,1.48.21,12.32.78,23.11,5.29,32.49,13.26-10.88-3.26-21.77-6.51-32.64-9.8-6.06-1.84-12.23-4.15-16.2,3.44-2.76,5.27,1.15,9.76,4.3,11.27,7.14,3.43,13.54,7.45,18.99,13.11l.85,2.95c4.74,6.47,4.32,14.55,6.76,21.73,0,2.56,0,5.12,0,7.68-.09.47-.19.95-.28,1.42-.49,1.02-.98,2.05-1.47,3.07-1.04.65-2.19,1.16-3.09,1.96-12.28,10.82-25.8,16.45-42.28,10.55-1.23-.44-2.85.2-4.29.33ZM497.25,136.23c-.44,3.81.97,5.68,5.01,5.58,3.66-.09,6.2-1.36,6.18-5.23-.02-3.88-1.92-6.57-6.19-6.85-4.94-.31-4.69,3.34-5,6.5Z"/>
    <path class="cls5"
          d="M409.01,494.53c6.51-5.61,16.92-4.22,23.19,2.76.21.23,4.02-2.24,5.67-3.92,6.46-6.59,12.72-13.37,19.05-20.08,3.19-5.07,8.59-7.51,13.32-10.58,3.81-2.48,8.58-2.2,11.43,1.75,4.02,5.58.12,10.39-2.92,14.82-5.74,8.37-13.76,15.32-17.3,24.94-1.29,3.52.16,8.8,1.93,12.53,4.16,8.76,2.28,19.33,9.33,27.33,4.09,4.64-1.3,8.57-4.02,11.74-7.5,8.73-15.54,17-23.36,25.44-4.16,2.68-8.97,5.25-1.52,9.74,4.92,9.03,2.21,17.43-2.28,25.59-1.55,2.83-3.34,5.58-5.39,8.06-1.43,1.72-1.09,2.78.25,4.1,1.33,1.32,2.83,2.54,3.85,4.07,11.71,17.65,11.09,13.03-5.98,31.62-4.59,5-8.53,10.6-12.76,15.92-.26.47-.52.94-.78,1.41,0,0,.04-.08.04-.08-.73.78-1.46,1.56-2.18,2.36-6.2,6.79-9.42,15.79-16.29,22.08.58-21.03,1.17-42.05,1.72-63.08.16-6.23.13-12.47.31-18.7.04-1.4.62-2.78.96-4.17,5.35,5.24,10.76,10.44,16.03,15.76,1.78,1.8,2.88,1.38,4.04-.52,4.74-7.79,9.76-15.42,14.19-23.38,4.67-8.4,2.63-13.5-4.93-16.66-4.09-1.71-4.57,2.84-7.72,2.95-9.37.32-13.93-7.87-21.2-11.1-.7-1.71-.02-3.13.91-4.51,5.77,4.04,11.51,8.11,17.34,12.06.71.48,1.6,2.33,2.69.76,5.47-7.9,13.59-13.2,19.81-20.34,3.36-.72,4.49-4,6.77-5.97,14.75-12.75,17.1-19.79,11.19-33.49-.93-2.16-1.49-5.02-4.64-5.46.77-2.31,5.09-3.48,2.31-6.92-2.3-2.84-3.14-6.1-3.14-9.67,0-3.98-.13-7.81-5.07-2.77-1.79-.66-3.75,2.31-5.2,0-.47-.75.58-2.46.93-3.72,2.32,2.89,3.5.14,5.01-1.02.96-.68,1.89-1.42,2.9-2.04,4.15-2.57,2.09-9.03,5.2-10.77,8.43-4.72,10.44-14.27,16.99-20.33,2.82-2.61,2.1-6.37-3.03-7.33-10.81-2.03-14.31,7.42-20.44,12.74-5.6,5.76-11.22,11.49-16.76,17.3-1.26,1.32-2.21,2.92-3.31,4.39,2.42.35,3.15,4.32,6.45,2.98.45-.18,1.3.64,1.96.99-.92.95-2.19,2.87-2.71,2.69-5.17-1.81-8.87,1.73-12.72,3.69-2.53,1.29-5.46,3.72-4.61,7.66.34,1.56.59,3.33,2.92,3.02l.53.56c-1.69.56-3.24.71-3.52,3.35-.34,3.16,1.09,5.9,2.85,7.16,2.16,1.55,4.04-2.02,6.33-2.76.86-.28,1.67-.76,2.5-1.15.09.46.43,1.13.24,1.35-1.5,1.73-2.82,4.27-4.73,4.89-6.16,1.99-1.3,5.61-1.47,8.33-.15,2.38,1.58,3.01,4.21,3.72,7.15,1.94,11.68-2.95,17.25-5.12,1.97,1.94-.29,3.17-.79,4.69-3.52-2.93-5.51.9-7.35,2.28-5.42,4.07-9.87.45-14.62-.96-3.1-.92-1.91-3.81-2.51-5.92-.62-2.2-1.86-4.23-2.5-6.42-.94-3.21-2.32-6.07-4.98-8.18,4.05-4.44,2.25-9.35,1.22-14.23-.22-1.02-.04-2.13-.05-3.19.62.53,1.21,1.46,1.86,1.51,3.49.28,4.02-5.01,7.87-4.37.06,0,.66-1.37.43-1.81-1.72-3.35-.86-9.41-5.5-9.56-5.72-.17-13.17-1.72-15.76,6.64-.28-1.52-.55-3.04-.83-4.56.31-.95.63-1.9.94-2.85Z"/>
    <path class="cls7"
          d="M548.51,133.42c-.28-.98-.57-1.97-.85-2.95,7-3.16,7.27,3.68,10.01,6.78,7.44,8.44,7.99,19.67,9.8,29.66,1.97,10.91-3.23,21.44-11.3,29.85-2.04,2.13-.92,4.84.54,6.86,1.57,2.17,3.41-.02,4.51-.75,2.17-1.44,3.54-4.2,5.79-5.4,11.03-5.87,22.76-9.11,35.4-8.57,1.76.08,4.02,1.07,5.25-1.53,1.24-2.63.04-4.42-1.48-6.42-2.52-3.31-7.74-4.18-8.29-9.22,4.52-5.79,6.93-12.54,8.86-19.51,1.21-3.91,4.78-7.64.93-11.94-.05-.52-.1-1.04-.15-1.56,3.3-5.18,4.4,3.69,7.28,1.14,1.04,2.83,2.19,4.98,4.87,7.3,4.16,3.61,6.04,9.85,8.89,14.97-1.52,6.57-3.45,13.28,5.54,16.28.78-.04,1.56-.08,2.35-.12.79-.18,1.58-.36,2.37-.54,1.01-.47,2.03-.94,3.04-1.41,1.5-1.36,3-2.73,4.49-4.09,0,0,.04-.12.04-.12,2.54-1.83,1.65-6.83,5.92-6.88,7.81-.1,15.62.81,22.38,4.88,2.37,1.43-.98,2.04-1.91,2.37-24.86,8.82-49.76,17.55-74.65,26.29,0,0-.09.01-.09.01-.68.24-1.36.49-2.04.73,0,0-.16-.22-.16-.22l-.03.3-.25.12s-.28-.02-.28-.02c-1.92.42-4.16.03-5.48,2.06-.32.12-.64.23-.96.35-.48.2-.96.41-1.44.61-.63.17-1.27.34-1.9.51-1.49-.48-2.63-.19-3.14,1.45-8.63,3.02-17.25,6.03-25.88,9.05-6.91.83-13.88,1.38-20.02,5.26-1.68,1.06-3.88,1.74-5.29-.39-8.38-12.64-2.71-18.79,5.54-26.08,7.88-6.97,14.19-14.83,16.82-25.23.49-1.02.98-2.05,1.47-3.07.09-.47.19-.95.28-1.42,0-2.56,0-5.12,0-7.67-.47-7.8.27-15.97-6.76-21.73Z"/>
    <path class="cls3"
          d="M256.95,245.05c22.45,6.19,44.91,12.37,67.36,18.57,1.68.46,3.34.98,5.01,1.47-.11,5.64-.21,11.29-.32,16.93-.14,3.25-.28,6.51-.42,9.76-.07.75-.14,1.51-.21,2.26-.21,1.49-.42,2.98-.62,4.47-23.22,3.67-46.43,7.34-69.65,11.02-.38-21.49-.77-42.98-1.15-64.47Z"/>
    <path class="cls5"
          d="M122.45,506.32c6.38-3.97,12.47-8.56,19.22-11.75,10.43-4.94,9.09,4.63,9.47,9.44,1.22,15.48,11.95,24.05,22.31,33.09,2.37,2.07,4.63,4.27,6.93,6.42-2.25-.22-3.7,1.2-5.22,2.5-4.04-3.6-8.08-7.2-12.13-10.79-.61-.54-1.31-.98-1.96-1.47.04.92-.11,1.9.16,2.74,3.94,12.16,7.95,24.31,11.93,36.45,2.17,2.58-.13,5.2,0,7.84.89,16.96,1.5,33.93,2.2,50.9-.69-1.07-1.63-2.06-2.02-3.23-2.16-6.49-5.04-12.6-9.16-18.09-.86-2.14-1.72-4.29-2.58-6.43-7.75-16.96-17.22-32.99-26.7-49.01-2.08-3.51-4.79-6.76-4.46-11.22,1.01.81,2.4,1.43,2.95,2.49.86,1.63,1.57,2.77,3.57,1.8-1.52-2.23-2.89-4.58-4.62-6.63-.86-1.01-3.35-2.2-3.47-2.04-1.65,2.13,2.31,2.42,1.62,4.43l-3.81-2.28c-.21-2.52-.43-5.05-.64-7.57,2.07.08,5.8,3.3,5.52,1.43-1.32-8.57-3.92-16.99-8.54-24.55-.33-1.26-.66-2.52-.98-3.79.13-.23.27-.45.4-.68ZM144.73,541.65c-.19-1.87-1.34-3.72-3.8-3.73-2.59-.01-4.18,1.97-4.23,4.36-.05,2.21,1.68,3.65,3.94,3.63,2.32-.02,4.16-.94,4.09-4.27Z"/>
    <path class="cls9"
          d="M619.42,399.75c-4.27-2.39-4.56-6.26-4.31-10.6,2.42-41.69,6.68-83.22,11.07-124.73,2.04-19.33,4.43-38.62,6.67-57.93,4.9-2.55,9.78-5.18,15.4-5.86-1.86,20.88-3.61,41.77-5.6,62.64-2.58,27.08-5.47,54.13-8,81.22-1.46,15.66-2.37,31.37-3.77,47.03-.3,3.3-.8,7.02-4.91,8.32-2.18-.03-4.37-.06-6.55-.09Z"/>
    <path class="cls1"
          d="M597.87,171.74c.56,5.04,5.77,5.91,8.29,9.22,1.52,1.99,2.71,3.79,1.48,6.42-1.22,2.6-3.48,1.61-5.25,1.53-12.64-.54-24.37,2.7-35.4,8.57-2.24,1.19-3.62,3.95-5.79,5.4-1.1.73-2.94,2.92-4.51.75-1.46-2.02-2.58-4.73-.54-6.86,8.07-8.4,13.28-18.94,11.3-29.85-1.81-9.99-2.36-21.22-9.8-29.66-2.73-3.1-3.01-9.95-10.01-6.78-5.45-5.65-11.85-9.68-18.99-13.11-3.15-1.51-7.06-6.01-4.3-11.27,3.98-7.6,10.14-5.28,16.2-3.44,10.87,3.3,21.76,6.54,32.64,9.8,11.43,10.72,15.79,23.65,12.23,39.07-.38-.58-1.05-1.14-1.07-1.73-.06-1.43,1.41-3.78-1.21-3.68-2.21.09-.67,2.64-1.15,4-.6,1.71,1.23,3.79-2.28,5.18-2.88,1.14-1.44,7.06-6.04,8.84-.82.32,3.57,1.7,5.24,3.08-.02,1.55-.05,3.09-.07,4.64.14.47.28.93.43,1.4.14.3.28.6.43.9.02,1.13.3,2.04,1.69,2.03.24.2.47.41.71.61.36.27.73.53,1.09.8.58.18,1.16.36,1.75.55.95,1.52,1.98,1.46,3.09.18,1.26-.44,2.52-.87,3.78-1.31.22-.15.44-.31.66-.46,1.8-1.6,3.6-3.2,5.39-4.8Z"/>
    <path class="cls9"
          d="M587.72,651.7c-.12-16.13,2.88-31.98,4.33-47.96,2.71-29.81,5.82-59.59,8.79-89.38.2-1.97.25-4.1,1.04-5.85,1.96-4.34,4.58-8.55,10.28-7.18,5.08,1.22,5.52,5.67,5.1,9.95-3.58,37.24-7.27,74.47-10.87,111.71-.71,7.31-1.13,14.65-1.69,21.98-5.59,2.43-10.72,6.01-16.99,6.73Z"/>
    <path class="cls9"
          d="M458.83,706.77c.6-12.16.97-24.34,1.86-36.49,2.52-34.45,5.28-68.89,7.9-103.33.39-5.06,2.5-9.29,7.83-9.07,5.7.23,7.83,4.72,7.47,10.13-2.65,40.58-5.37,81.16-8.02,121.74-.23,3.6-.13,7.22-.19,10.83-5.62,2.07-11.24,4.13-16.86,6.2Z"/>
    <path class="cls1"
          d="M251.08,207.7c.19,6.32-5.98,7.02-9.26,10.22-.87.84-1.96,1.26-2.06,2.65-15.42-4.53-30.83-9.07-46.25-13.6.15-.31.31-.62.46-.94,8.39-2.83,17.36-3.2,25.32-8.17,11.1-6.94,17.22-17.77,24.37-27.85,11.55-16.3,26.84-27.79,45.14-35.2,5.92-2.4,11.22.56,13.32,6.43,1.71,4.79,2.57,10.35-2.91,14.1-32.28-1.61-53.21,17.18-60.5,40.43-.11.47-.23.93-.34,1.4,0,1.55-.02,3.09-.02,4.64.12.49.25.97.37,1.46,2.86,5.01,6.89,6.75,12.37,4.43Z"/>
    <path class="cls9"
          d="M503.54,252.37c-2.11,38.1-4.16,76.21-6.38,114.31-.31,5.41-3.83,9.28-9.11,8.88-5.14-.39-7.03-4.66-6.7-9.92,2.13-34.23,4.13-68.47,6.2-102.7.1-1.73.54-3.44.81-5.15,5.06-1.8,10.12-3.6,15.17-5.4Z"/>
    <path class="cls9"
          d="M573.43,227.98c-.28,10.65-.31,21.32-.88,31.96-1.4,25.89-3.06,51.76-4.59,77.64-.31,5.3-2.26,9.65-8.14,9.6-5.81-.04-7.83-4.49-7.54-9.59,2-34.83,4.16-69.66,6.27-104.48,4.6-2.75,9.52-4.58,14.89-5.12Z"/>
    <path class="cls9"
          d="M543.72,636.56c-.85,12-1.7,24.01-2.55,36.01-5.49,2.34-10.99,4.69-16.48,7.03,2-28.25,3.94-56.51,6.01-84.76.57-7.7,1.32-15.4,2.34-23.06.56-4.23,2.55-7.93,7.71-7.22,4.89.68,7.37,3.87,7.09,8.9-.77,13.59-1.58,27.17-2.37,40.76-.21,1.79-.42,3.58-.63,5.38-.34,4.74-.69,9.49-1.03,14.23-.03.91-.06,1.82-.1,2.73Z"/>
    <path class="cls1"
          d="M332.27,246.62c12.36.61,24.71,1.39,37.08,1.81,25.5.86,50.21-2.72,72.4-16.12,14.44-8.72,28.37-18.42,34.93-35.23,2.35-6.01.15-12.36,1.74-18.39,5.99,4.5,9.04,10.82,11.08,17.78-.52-.31-1.22-.49-1.54-.94-2.08-3.01-3.13-9.03-6.64-8.12-4.04,1.05.37,4.86.87,7.5.02.12,0,.26-.05.37-4.07,8.84-7.5,18.05-12.34,26.44-11.33,19.63-32.58,24.23-51.33,32.46-7.61,3.34-16.39,3.69-23.22,9.07-16.97-4.34-33.95-8.65-50.91-13.05-4.06-1.05-8.04-2.38-12.06-3.58Z"/>
    <path class="cls10"
          d="M172.18,220.25c1.93,28.63,3.88,57.26,5.75,85.89.34,5.2-.3,10.32-6.99,10.57-5.91.22-7.79-4.18-8.11-9.2-1.7-26.52-3.31-53.04-4.95-79.56-.25-3.97-.49-7.95-.73-11.92,5.01,1.41,10.02,2.82,15.03,4.23Z"/>
    <path class="cls3"
          d="M527.19,98.79c-8.15,6.47-6.47,17.29,2.98,21.45,3.9,1.72,10.03,3.09,9.79,7.88-.2,4.03-4,7.55-8.14,10.62-4.86,3.6-9.36,3.96-13.59,2.07-4.39-1.96-4.99-7.1-4.45-11.83.11-.96.23-2.14.82-2.79,1.3-1.44,4.62-2.76,2.18-4.66-1.68-1.31-5.4-.96-7.81-.16-6.9,2.27-13.83,4.72-20.31,7.97-3.52,1.77-6.22,5.25-9.16,8.08-1.07,1.04-1.79,2.62-3.61,1.93-1.73-.65-1.14-2.32-1.17-3.6-.3-10.45,4.71-18.16,12.6-24.41.18-.14-.42-1.27-.66-1.93,12.27-8.28,25.93-11.26,40.53-10.62Z"/>
    <path class="cls10"
          d="M256.95,245.05c.38,21.49.77,42.98,1.15,64.47-1.7,9.55,3.71,20.24-4.6,28.73-1.47.39-2.94.78-4.41,1.16-5.17-3.57-7.82-8.14-6.96-14.75.53-4.03,0-8.19-.06-12.3-.06-.19.01-.32.21-.38.1-.06.28-.11.28-.16-.01-.19-.08-.38-.13-.57,0-4.27,0-8.55,0-12.82,1.05-5.71.96-11.43.03-17.14,0-1.04,0-2.08,0-3.12.07-11.91.13-23.82.2-35.73-.02-.53-.04-1.05-.05-1.58,5,.66,9.83,1.86,14.35,4.17Z"/>
    <path class="cls7"
          d="M395.24,263.26c6.82-5.37,15.61-5.72,23.22-9.07,18.75-8.24,40-12.83,51.33-32.46,4.84-8.39,8.27-17.6,12.34-26.44.05-.11.07-.25.05-.37-.49-2.64-4.91-6.44-.87-7.5,3.52-.92,4.56,5.11,6.64,8.12.31.45,1.01.63,1.54.94,5.72,16.49-6.21,40.85-25.04,48.8-18.02,7.61-36.54,14.07-54.93,20.78-5.05,1.84-9.62-1.32-14.28-2.8Z"/>
    <path class="cls3"
          d="M450.9,53.09c.85,2.54,1.55,5.14,2.57,7.61,1.82,4.39,1.85,9.14-2.66,10.92-5.41,2.13-8.68-1.81-10.31-6.88-.51-1.58.24-4.41-2.83-3.67-2.75.67-2.03,3.01-1.56,4.95.75,3.11.15,6.41-2.66,7.47-4.69,1.76-9.07,7.1-14.54,3.66-2.88-1.82-5.18-5.34-3.14-9.78.55-1.19-.14-3.64-1.13-4.69-1.19-1.25-2.34.62-3.33,1.44-6.08,5.05-10.66-.19-14.29-3.23-3.17-2.65,1-6.68,2-10.07.26-.88.79-1.69,1.2-2.52,4.1-1.81,8.2-3.62,12.31-5.44.99-.25,1.98-.51,2.98-.76.98.7,1.73.41,2.35-.52.47-.08.94-.16,1.4-.24,2.22,1.12,4.08-.05,5.98-.95,1.48-.09,2.97-.17,4.45-.26,3.24,7.42,11.51,4.88,16.71,8.43,0,0,.02.03.02.03-.43,2.56,1.17,2.51,2.92,2.29,0,0,0,.01,0,.01.46.54.93,1.08,1.39,1.62.06.19.11.38.15.57Z"/>
    <path class="cls1"
          d="M553.53,167.32c-2.63,10.4-8.93,18.26-16.82,25.23-8.24,7.29-13.92,13.44-5.54,26.08,1.41,2.12,3.62,1.44,5.29.39,6.14-3.88,13.11-4.42,20.02-5.26-17.4,6.41-34.8,12.83-52.21,19.23-1.45.53-2.03-.03-1.17-1.39,10.67-17,8.3-34.18.76-51.44,1.44-.14,3.06-.77,4.29-.33,16.48,5.9,30.01.28,42.28-10.55.9-.8,2.06-1.31,3.09-1.96Z"/>
    <path class="cls3"
          d="M239.15,84.08c.41,3.57.08,7.37-3.74,8.4-3.03.82-6.5,1.91-9.48-2.32-1.78-2.53-6.26-4.25-10.35-3.11-.68.19-1.76,1.07-1.7,1.48.56,3.68,2.53,6.43,5.48,8.82,2.65,2.14,6.1,3.71,7.11,7.47-13.63-8.21-28.21-11.58-44.02-8.59-2.31.44-2.31-1.09-2.53-2.64-1.6-11.26,10.07-22.33,23.88-23.76,14.53-1.5,25.52,4.65,35.34,14.24Z"/>
    <path class="cls3"
          d="M209.54,117.36c-1.88,4.91,3.31,12.01-3.59,14.96-3.8,1.62-8.72.92-13.12.76-2.68-.1-4.89.48-5.97,2.76-1.11,2.33,1.76,2.3,2.8,3.03,3.07,2.15,4.12,5.15,2.69,8.11-1.46,3.02-5.05,1.74-7.47,1.25-3.63-.74-2.53-3.78-2.12-6.42.16-1.05-.32-2.96-1.02-3.25-2.31-.97-4.37.68-5.87,2.02-4.38,3.92-8.42,8.23-12.65,12.33-1.68,1.63-3.57,2.64-5.31.12-1.5-2.17-2.1-3.98-.95-7.16,2.23-6.15,5.78-11.44,8.64-17.16,1.02-2.03,6.33-2.39,2.82-6.38.78-.62,1.56-1.24,2.34-1.86.6-.37,1.2-.74,1.8-1.1.37-.21.73-.42,1.1-.63.63-.3,1.26-.61,1.88-.91,1.25-.5,2.49-1,3.74-1.49.52-.21,1.05-.42,1.57-.63.47-.06.95-.12,1.42-.18,1.55-.33,3.09-.66,4.64-.99,1.46-.14,2.92-.29,4.38-.43,1.47.8,2.95.88,4.44.03,1.21.12,2.42.24,3.64.36,3.38.9,6.77,1.79,10.15,2.69l.04.17Z"/>
    <path class="cls7"
          d="M458.72,112.18c-3.27,2.63-6.56,5.23-9.8,7.9-7.53,6.22-16.24,10.24-25.3,13.59-1.33.49-2.86.99-3.36-.95-.39-1.52.7-2.46,1.93-3.29,10.94-7.41,21.83-14.93,31.15-24.39,6.96-7.06,9.32-16.95,14.92-24.9,2.32-3.29,13.94-7.08,17.03-3.86,3.23,3.36,3.29,8.09-.68,11.84-.23.22-.2.71-.3,1.07-9.16,4.75-16.69,11.44-23.11,19.45-2.96-.35-2.67,1.62-2.52,3.5l.03.04Z"/>
    <path class="cls1"
          d="M318.84,101.2c-6.17,1.83-9.78,6.66-13.08,11.62-2.34,3.52-5.16,4.88-9.17,3.85-3.12-.8-4.14-3.63-4.68-6.12-.86-3.93.61-7.31,4.19-9.63,5.23-3.38,10.5-6.7,15.54-10.34,7.92-5.71,7.76-20.36-.13-25.55-.11-.42-.22-.85-.34-1.27-.21-2.37,2.09-2.01,3.21-2.94,9.53,3.79,14.84,11.17,17.56,20.71.89,3.11-1.59,3.85-3.59,4.68-6.71,2.79-10.38,7.42-9.52,14.98Z"/>
    <path class="cls3"
          d="M311.18,63.76c.11.42.22.85.34,1.27.37,8.48-3.35,8.54-9.69,5.19-5.63-2.97-21.08,2.4-24.47,7.94-3.32,5.42-14.51,6.22-17.74,1.27,5.02-8.47,11.85-14.82,21.24-18.16,1.38-.5,2.76-1,4.14-1.5,1.28-.39,2.56-.78,3.84-1.17.45-.04.9-.08,1.35-.13,2.06-.19,4.12-.38,6.17-.57,5.84-.31,9.26,5.49,14.82,5.87Z"/>
    <path class="cls3"
          d="M454.45,169.78c.36,6.28,5.92,6.1,9.86,7.85,1.88.83,3.91,1.31,5.88,1.92,3.33,1.03,5.39,3.12,5.27,6.76-.05,1.56-.34,4.15-1.98,3.89-3.23-.5-7.13-1.25-9.21-3.4-2.71-2.8-4.77-2.74-7.76-1.44-4.06,1.77-8.07,3.86-12.32,4.93-3.87.98-8.75.66-10.33-3.51-1.64-4.35,1.39-7.94,5.18-10.5,1.27-.86,2.31-2.05,3.46-3.09.39-.05.77-.1,1.16-.16,1.53.35,2.6.04,2.6-1.8,1.28-.47,2.57-.94,3.85-1.4,1.44-.02,2.89-.03,4.33-.05Z"/>
    <path class="cls1"
          d="M231.02,108.29c4.48-1.5,6.54,2.47,9.2,4.47,7.18,5.41,14.73,10.58,18.84,19.09,2.77,5.74.8,10.05-4.34,12.85-4.81,2.62-9.45,2.74-12.76-2.85-1.03-1.73-2.72-3.07-4.11-4.59,8.08-4.59,6.82-11.2,3.04-17.5-2.56-4.26-6.52-7.68-9.85-11.48Z"/>
    <path class="cls1"
          d="M628.56,162.13c-2.85-5.12-4.73-11.36-8.89-14.97-2.68-2.32-3.83-4.47-4.87-7.3-2.89,2.55-3.99-6.32-7.28-1.14-.35-2.35-.7-4.7-1.05-7.05.79-4.31,4.42-1.54,6.51-2.61,14.24,6.11,21.58,18.68,17.45,29.98-.41,1.11-1.23,2.06-1.86,3.09Z"/>
    <path class="cls3"
          d="M346.57,33.09c1.15.32,2.31.64,3.47.95-.71.43-1.42.87-2.13,1.31.79.2,1.57.56,2.36.59,3.94.11,6.63,2.6,9.25,5,.96.88,1.78,3.63-.26,3.48-7.51-.56-13.97,3.06-20.98,4.31-1.82.33-4.3.57-4.49-2.45-.19-3.02.58-7.25,2.88-7.62,3.99-.64,5.84-3.23,8.32-5.44.53-.04,1.06-.09,1.59-.13Z"/>
    <path class="cls3"
          d="M402.27,706.13c6.88-6.29,10.1-15.28,16.29-22.08.72-.79,1.46-1.57,2.18-2.36-4.88,14.97-10.03,29.8-19.4,42.73.1-4.9.2-9.8.31-14.7,0,0,.18-.09.18-.09.05-.34.11-.68.16-1.02.09-.83.18-1.66.27-2.49Z"/>
    <path class="cls7"
          d="M578.92,167.21c-1.66-1.38-6.05-2.77-5.24-3.08,4.6-1.78,3.16-7.7,6.04-8.84,3.51-1.39,1.67-3.46,2.28-5.18.48-1.36-1.05-3.91,1.15-4,2.62-.11,1.15,2.25,1.21,3.68.02.59.7,1.16,1.07,1.73-.51,1.33-1.02,2.66-1.53,3.99-.16-.11-.32-.21-.48-.31.12.15.24.3.36.45-.31,4.41-3.27,7.7-4.87,11.56Z"/>
    <path class="cls8"
          d="M446.41,48.56c-5.2-3.55-13.46-1.01-16.71-8.43,1.26-.09,2.53-.19,3.79-.28,1.99.89,3.99.97,5.98,0,.98.07,1.96.13,2.93.2,1.15,2.06-.37,5.85,3.85,5.91l.15,2.59Z"/>
    <path class="cls6"
          d="M446.26,45.97c-4.22-.06-2.69-3.86-3.85-5.91,8.94,1.63,17.32,4.53,24.24,10.74-6.14-.4-10.14-6.84-16.75-5.89-1.26.18-2.81-.59-3.64,1.07Z"/>
    <path class="cls7"
          d="M495.61,67.54c-3.6-2.04-5.17,1.78-7.76,2.66-3.65,1.25-6.54-.03-8.71-3.11,2.89.2,6.24.65,8.17-1.65,4.61-5.5,6.54-2.56,8.3,2.1Z"/>
    <path class="cls8"
          d="M311.18,63.76c-5.57-.38-8.99-6.18-14.82-5.87,6.35-1.1,12.27.44,18.03,2.94-1.12.92-3.41.56-3.21,2.94Z"/>
    <path class="cls5"
          d="M344.8,269.44c-.22,5.67-.45,11.34-.67,17-.21-1.43-.43-2.86-.64-4.29-.7-4.81,2.54-10.92-4.51-13.62l.02-.04,2.22.02c1.19.31,2.38.62,3.57.93Z"/>
    <path class="cls6"
          d="M412.55,42.86c-4.1,1.81-8.2,3.63-12.31,5.44-.45-.25-.89-.49-1.34-.73,4.55-1.57,9.1-3.14,13.64-4.71Z"/>
    <path class="cls6"
          d="M612.98,129.07c-2.09,1.07-5.72-1.7-6.51,2.61-.27-1.65-2.76-3.79-.85-4.72,2.39-1.17,5.15.43,7.36,2.11Z"/>
    <path class="cls5"
          d="M329,282.02c.1-5.64.21-11.29.32-16.93.27.01.54.03.81.04.27.6.54,1.2.81,1.81-.65,5.03-1.29,10.06-1.94,15.08Z"/>
    <path class="cls1" d="M607.67,140.29c3.84,4.31.28,8.03-.93,11.94.31-3.98.62-7.96.93-11.94Z"/>
    <path class="cls6"
          d="M443.66,173.04c-.39.05-.77.11-1.16.16-2.12.16-4.23.32-6.35.48,2.6-1.84,5.32-3.35,8.67-3.11-.39.83-.77,1.65-1.16,2.48Z"/>
    <path class="cls6"
          d="M460.4,154.07c-.19.47-.37.94-.56,1.41-1.72-.08-3.44-.15-5.15-.23.75-.72,1.51-1.43,2.26-2.15,1.15.32,2.3.65,3.45.97Z"/>
    <path class="cls6" d="M209.5,117.19c-3.38-.9-6.77-1.79-10.15-2.69,3.69-.26,6.97,1.03,10.15,2.69Z"/>
    <path class="cls6" d="M439.48,39.86c-2,.96-3.99.88-5.98,0,1.99,0,3.99,0,5.98,0Z"/>
    <path class="cls6" d="M425.25,40.39c-1.9.9-3.76,2.06-5.98.95,1.99-.32,3.99-.63,5.98-.95Z"/>
    <path class="cls5" d="M589.81,201.78c1.32-2.03,3.56-1.64,5.48-2.06-1.83.69-3.65,1.38-5.48,2.06Z"/>
    <path class="cls4"
          d="M330.94,266.93c-.27-.6-.55-1.2-.82-1.8,1.48.53,2.97,1.06,4.45,1.59.03.15.02.29-.05.42-.75-.05-1.49-.09-2.24-.14-.29,0-.57-.01-.86-.02-.16-.02-.32-.03-.49-.04Z"/>
    <path class="cls5"
          d="M334.53,267.13c.06-.14.08-.28.05-.42.7.08,1.39.15,2.09.23.78.52,1.56,1.04,2.34,1.56,0,0-.02.04-.02.04-1.51-.39-3.55.91-4.45-1.4Z"/>
    <path class="cls4" d="M339,268.49c-.78-.52-1.56-1.04-2.34-1.56,1.83-.38,3.48-.23,4.57,1.58l-2.22-.02Z"/>
    <path class="cls6" d="M195.72,114.14c-1.48.86-2.96.78-4.44-.03,1.48,0,2.96.02,4.44.03Z"/>
    <path class="cls1" d="M458.69,112.13c-.15-1.88-.44-3.86,2.52-3.5-.84,1.17-1.68,2.34-2.52,3.5Z"/>
    <path class="cls6" d="M186.9,114.55c-1.55.33-3.09.66-4.64.99,1.55-.33,3.09-.66,4.64-.99Z"/>
    <path class="cls8"
          d="M443.66,173.04c.39-.83.77-1.65,1.16-2.48.48-.06.96-.12,1.45-.18,0,.29,0,.57,0,.86,0,1.84-1.07,2.16-2.6,1.8Z"/>
    <path class="cls5" d="M582.37,204.71c.51-1.64,1.65-1.94,3.14-1.45-1.05.49-2.1.97-3.14,1.45Z"/>
    <path class="cls6" d="M446.27,171.23c0-.29,0-.57,0-.86,1.28-.18,2.57-.37,3.85-.55-1.29.47-2.57.94-3.85,1.4Z"/>
    <path class="cls6" d="M352.35,80.37c1.35.26,2.7.52,4.04.79-1.41.07-3.03,1.21-4.04-.79Z"/>
    <path class="cls6" d="M460.46,170.4c-1.41.63-2.76.89-3.78-.67,1.26.22,2.52.45,3.78.67Z"/>
    <path class="cls7" d="M503.89,68.63c-2.19-.03-4.37-.06-6.56-.1,2.19.03,4.37.06,6.56.1Z"/>
    <path class="cls6" d="M466.47,152.4c-.72,1.64-2,2.01-3.62,1.62,1.21-.54,2.41-1.08,3.62-1.62Z"/>
    <path class="cls8" d="M285,59.77c-1.38.5-2.76,1-4.14,1.5,1.38-.5,2.76-1,4.14-1.5Z"/>
    <path class="cls7" d="M588.04,178.31c-1.11,1.28-2.15,1.34-3.09-.18,1.03.06,2.06.12,3.09.18Z"/>
    <path class="cls6" d="M462.81,155.85c1.15-.79,2.17-.75,3.02.45-1.01-.15-2.01-.3-3.02-.45Z"/>
    <path class="cls5" d="M641.86,176.34c-1.02.47-2.03.94-3.04,1.41,1.02-.47,2.03-.94,3.04-1.41Z"/>
    <path class="cls6" d="M193.98,206.04c-.15.31-.31.62-.46.94-.74-.27-1.48-.53-2.22-.8.89-.05,1.79-.09,2.68-.14Z"/>
    <path class="cls6" d="M417.87,41.57c-.61.94-1.37,1.22-2.35.52.78-.17,1.56-.35,2.35-.52Z"/>
    <path class="cls6" d="M470.75,55.11c-1.72.27-1.93-.76-1.79-2.08.6.69,1.2,1.39,1.79,2.08Z"/>
    <path class="cls6" d="M364.45,100.61c-.94.73-1.71.61-2.29-.46.77.15,1.53.3,2.29.46Z"/>
    <path class="cls6" d="M437.04,157.74c.97-.21,1.93-.42,2.9-.63-.97.21-1.93.42-2.9.63Z"/>
    <path class="cls5" d="M636.45,178.29c-.78.04-1.57.08-2.35.12.78-.04,1.57-.08,2.35-.12Z"/>
    <path class="cls6" d="M344.28,100.08c-.52,1.17-1.27,1.23-2.2.47.73-.16,1.46-.31,2.2-.47Z"/>
    <path class="cls7" d="M581.39,176.17c-1.39,0-1.67-.9-1.69-2.03.56.68,1.13,1.35,1.69,2.03Z"/>
    <path class="cls6" d="M445.98,156.05c.49-.11.99-.22,1.48-.34-.5.11-.99.22-1.48.34Z"/>
    <path class="cls6" d="M180.84,115.72c-.52.21-1.05.42-1.57.63.52-.21,1.05-.42,1.57-.63Z"/>
    <path class="cls8" d="M290.19,58.47c-.45.04-.9.08-1.35.13.45-.04.9-.08,1.35-.13Z"/>
    <path class="cls6" d="M361.55,81.71c.52.07,1.05.13,1.57.2-.52-.07-1.05-.13-1.57-.2Z"/>
    <path class="cls6" d="M540.73,99.19c-.49-.07-.99-.14-1.48-.21.49.07.99.14,1.48.21Z"/>
    <path class="cls7" d="M579.28,173.24c-.14-.47-.28-.93-.43-1.4.14.47.28.93.43,1.4Z"/>
    <path class="cls6" d="M347.99,99.62c-.49.05-.97.11-1.46.16.49-.05.97-.11,1.46-.16Z"/>
    <path class="cls6" d="M359.22,99.77c-.49-.05-.98-.11-1.46-.16.49.05.98.11,1.46.16Z"/>
    <path class="cls6" d="M172.55,119.38c-.6.37-1.2.74-1.8,1.1.6-.37,1.2-.74,1.8-1.1Z"/>
    <path class="cls6" d="M339.82,100.92c-.5.15-1.01.3-1.51.45.5-.15,1.01-.3,1.51-.45Z"/>
    <path class="cls6" d="M175.53,117.84c-.63.3-1.26.61-1.88.91.63-.3,1.26-.61,1.88-.91Z"/>
    <path class="cls6" d="M367.83,101.6c-.65-.2-1.3-.4-1.95-.6.65.2,1.3.4,1.95.6Z"/>
    <path class="cls5" d="M587.4,202.74c.48-.2.96-.41,1.44-.61-.48.2-.96.41-1.44.61Z"/>
    <path class="cls7" d="M583.2,177.59c-.36-.27-.73-.53-1.09-.8.37.27.73.53,1.09.8Z"/>
    <polygon class="cls5" points="646.39 172.13 646.35 172.25 646.24 172.15 646.39 172.13"/>
    <polygon class="cls7" points="478.67 66.75 478.64 66.71 478.77 66.6 478.67 66.75"/>
    <path class="cls7" d="M592.48,176.54c-.22.15-.44.31-.66.46.22-.15.44-.31.66-.46Z"/>
    <path class="cls1" d="M328.24,245.53c.34.1.68.19,1.02.29-.34-.1-.68-.19-1.02-.29Z"/>
    <polygon class="cls5" points="595.82 199.61 595.85 199.31 596.01 199.54 595.82 199.61"/>
    <path class="cls6" d="M329.19,104.79c-.22.05-.44.11-.66.16.22-.05.44-.11.66-.16Z"/>
    <path class="cls6" d="M455.52,151.94c-.24-.25-.47-.49-.71-.74.24.25.47.49.71.74Z"/>
    <polygon class="cls5" points="598.05 198.81 598.14 198.79 598.11 198.94 598.05 198.81"/>
    <path class="cls5"
          d="M354.24,456.86c-2.9,1.36-5.15.57-7.21-1.8-3.58-4.12-8.07-7.65-10.85-12.24-6.69-11.06-15.63-2.57-23.44-3.27-2.8-.25-5.75,1.06-8.63,1.66,1.88,2.1,3.68,4.28,5.67,6.27,4.64,4.65,7.68,11.25,15.1,12.57,0,.33.01.66.02.99-7.86,1.53-15.68,3.73-23.61,4.35-4.96.39-7.39-5.18-10.67-8.28-6.02-5.68-10.48-13.58-20.87-11.33-4.83,1.05-9.86,1.21-14.71,2.2-1.9.38,0,1.59.37,1.96,5.63,5.61,11.2,11.3,17.09,16.63,4.01,3.62,8.97-.51,14.27,1.25-11.65,1.74-22.51,4.78-33.27,4.44-6.22-.2-10.1-8.46-15.56-12.38-3.96-2.84-5.98-9.63-12.8-7.12-2.09.77-5.96-1.04-6.08,1.98-.17,4.15.11,8.7,3.14,12.29,2.26,2.69,5.16,3.87,8.62,3.82-.11.17-.08.33.08.46-1.12.29-2.25.58-3.37.87,1.53.7,3.04,1.44,4.6,2.09.66.28,1.41.36,2.11.54-.59.24-1.2.43-1.76.73-5.92,3.23-11.84,6.46-17.71,9.78-.66.37-.99,1.32-1.48,2,.83.24,1.64.62,2.48.71,24.43,2.57,48.86,5.25,73.31,7.62,27.65,2.68,55.33,5.08,83,7.62,2.65.24,4.08,1.54,3.78,4.41-.65,6.32-1.21,12.66-1.85,18.98-.35,3.5-2.12,4.77-5.77,4.3-9.49-1.24-19.02-2.15-28.53-3.19-.46-1.42,2.72-.68,1.51-2.54,3.17-6.1,6.48-12.14,9.44-18.34.95-1.99-.83-2.84-2.64-2.97-6.57-.49-13.17-.69-19.71-1.48-4.12-.5-6.31,1.05-8,4.6-2.69,5.66-5.71,11.15-8.62,16.71-.18.34-.57.87-.79.84-7.01-.97-14.03-1.82-20.98-3.11-2.34-.43-.38-1.88.13-2.73,3.26-5.45,6.59-10.86,9.89-16.28.19-.03.39-.05.58-.08-.04-.12-.07-.24-.11-.35-.14.17-.28.34-.41.51-1.1-.17-2.19-.34-3.29-.5-.85-.12-1.7-.23-2.55-.34.88-.22,1.84-.29,2.61-.71.87-.48,2.65,1.05,2.57-.72-.08-1.69-1.69-.81-2.87-.87-7.14-.32-14.37-.06-21.33-2.19h0c-4.07.99-4.27,5.14-6.22,7.81-2.75,3.77-4.5,8.35-7.57,11.79-3.1,3.48-7.39.24-11.14.21-1.98-.02-2.62-.45-2.27,2.21.57,4.29.1,8.71.26,13.06.13,3.54-3.17,3.82-4.94,4.42-7.7,2.59-14.01,7.38-20.56,11.84-.25.17-.3.65-.44.98,1.68,0,3.36-.02,5.03-.03.5.07,1,.13,1.5.2.47.29.94.59,1.42.88h-.08c8.81,5.29,7.85,12.64,4.67,20.74-1.02,2.61-2.22,4.25-5.01,4.6-5.95.76-6.31,3.98-3.68,8.48.08.14.23.42.22.42-7.93,5.14,1,7.42,2.29,10.32,3.67,8.22,3.57,16.64,3.8,25.21.44,16.51,1,33.02-1.46,49.44-8.76-3.56-17.52-7.12-26.28-10.67.15-27.16.84-54.3,4.59-81.25.98-7.07-8.12-8.65-8.19-15.13-6.3,1.04-8.38-5.12-12.71-7.45-.04-1.86-.07-3.72-.11-5.57,1.47,1.07,3.05,2.02,4.39,3.23,4.83,4.35,8.7,8.86,11.84-2.1,1.09-3.79,8.73-3.04,13.64-3.07.7,0,1.39.15,2.09.23-.4-.56-.82-1.11-1.2-1.69-5.45-8.35-14.54-12.82-21.18-19.88-1.31-1.39-2.44-2.96-3.65-4.45,1.78-.12,3.56-.25,5.34-.37,5.58,1.53,8.87,6.21,11.91,10.26,9.56,12.75,19.2,6.91,28.85.91,5.44-3.38,1.83-9.42,3.25-14.04.39-1.26.24-2.62-1.14-2.59-7.28.14-2.5-3.38-1.47-5.2,2.19-3.87,4.8-7.5,7.2-11.25.96-1.5,1.81-3.08,2.71-4.62-2.25-.31-4.68-1.27-6.72-.74-2.07.54-3.74.39-5.71.02-8.7-1.6-15.91-.94-19.87,9.21-1.63,4.17-3.35,11.03-11.25,9.38-4.98-1.04-10.12-1.3-15.19-1.87-.63-.07-1.29.11-1.94.18.37.46.77.89,1.11,1.37,2.36,3.38,7.35,4.35,8.3,9.03-1.75.4-3.7-1.9-5.31.38-10.99-9.28-22.4-18.06-30.77-30.12-1-1.44,2.07-8.81-4.7-4.68.07-.52.01-1.1.22-1.55,4.19-9.22,9.05-18.21,12.3-27.75,1.32-3.87-.64-8.98-1.54-13.44-.49-2.39.08-3,2.33-3.36,22.19-3.56,44.66-5.95,66.45-11.2,22.4-5.4,45.66-2.38,67.79-8.96,6.08-1.81,12.62-2.09,18.8-4.01-3.29.45-6.57.92-9.86,1.32-.52.06-1.08-.17-1.63-.26.45-.33.87-.87,1.36-.94,16.11-2.57,32.22-5.1,48.5-6.78l-36.9,6.35c.06.39.13.78.19,1.16,10.56-1.77,21.16-3.28,31.64-5.44,4.18-.86,5.77-1.04,6.59,4.14,1.75,11.06,4.75,21.92,7.16,32.87,1.54,7-4.42,7.49-7.94,6.85-3.36-.61-6.1-.42-9.11.47-.3.06-.6.11-.9.17ZM177.02,499.47c.03.09.04.2.09.27.03.04.13.02.2.03-.12-.08-.23-.16-.35-.24-.16-8.63-4.12-16.31-6.14-24.48-.04-.16-.14-.31-.22-.47-.34.5-.79.96-1,1.52-4.64,12.03-3.48,15.65,7.42,23.36ZM211.11,473.24c3.88-.22,4.47-2.16,4.4-4.39-.07-2.22-.91-4.24-3.51-4.23-2.58.01-4.77,2.31-4.62,4.09.15,1.82,1.48,4.85,3.73,4.52ZM182.11,477.12c4.34-.54,4.65-2.89,4.04-5.69-.48-2.15-2-3.19-4.09-2.76-2.4.49-4.57,2.23-3.98,4.56.43,1.69,2.89,2.86,4.04,3.89ZM189.61,495.11c1.44-.67,4.83,1.04,4.88-1.59.03-2.16-2.56-4.78-5.12-4.95-1.89-.13-4.41,1.09-4.36,4.01.06,3.05,2.3,2.58,4.6,2.53ZM278.27,431.46c.77-.31,1.56-.64,2.36-.97-.76-.2-1.54-.58-2.29-.54-.84.04-1.66.47-2.48.73.75.24,1.5.48,2.41.78ZM346.32,442.29l-.05-.26h-3.5v.26h3.55ZM337.82,437.26c-.38.17-.67.29-.97.42.34.07.69.2,1.03.2.34,0,.69-.13,1.03-.2-.37-.14-.74-.29-1.1-.42Z"/>
    <path class="cls5"
          d="M262.43,626.63c3.53-10.96,7.64-21.75,9.36-33.23,2.15-14.34.2-27.58-9.9-38.78-.74-.82-1.07-2.01-1.6-3.03,1.03.29,2.19.36,3.06.9,14.31,9,30.32,15.24,43.45,26.09,5.34,4.41,7.65,11.11,9.93,17.56.12.35-.81,1.55.64,1,.25-.1.35-.62.51-.95,2.42,4.6-.4,9.14-.42,13.73-.14,31.71-1.04,63.41-1.71,95.12-17.74-7.28-35.48-14.55-53.22-21.83-.03-18.86-.07-37.73-.1-56.59ZM276.21,657.22c0,.08,0,.17,0,.25h3.28v-.25h-3.27ZM300.62,660.52l-.06-.26h-3.51v.26h3.57ZM291.92,682.73c.02.09.03.18.05.26h3.51c0-.09,0-.18,0-.26h-3.56Z"/>
    <path class="cls5"
          d="M332.34,644.09c3.62-.4,4.72,2.18,5.47,4.87.98,3.52,4.05,4.31,6.8,4.96,2.71.65,3.82-1.9,5.17-3.9,12.88-19.1,21.98-40.33,33.95-59.94,1.6-2.63,2.09-5.93,3.1-8.92,2.25,3.25-.05,6.62.25,9.93-.19,1.17-.38,2.35-.57,3.52.52,2.97-4.11,6.16.38,8.97-1.23,42.18-2.46,84.36-3.74,126.54-.04,1.44.01,3.82-2.65,2.71-16.18-6.78-32.33-13.65-48.47-20.52-.52-.22-.86-.86-1.29-1.3.53-22.31,1.06-44.61,1.6-66.92ZM358.48,714.43c.2,1.95,1.31,3.78,3.95,3.99,3.07.24,3.66-2.18,3.85-4.43.23-2.71-1.71-3.6-4.02-3.7-2.41-.11-3.66,1.18-3.78,4.14Z"/>
    <path class="cls3"
          d="M408.89,501.95c2.59-8.36,10.04-6.81,15.76-6.64,4.64.14,3.78,6.2,5.5,9.56.23.44-.37,1.82-.43,1.81-3.85-.64-4.38,4.65-7.87,4.37-.66-.05-1.24-.98-1.86-1.51,0,1.07-.17,2.17.05,3.19,1.04,4.88,2.84,9.79-1.22,14.23,2.66,2.12,4.04,4.98,4.98,8.18.65,2.2,1.88,4.22,2.5,6.42.6,2.11-.59,5.01,2.51,5.92,4.75,1.4,9.2,5.03,14.62.96,1.83-1.38,3.83-5.21,7.35-2.28-1.46,9.67-2.92,19.34-4.38,29.01-6.23,7.15-14.34,12.44-19.81,20.34-1.09,1.58-1.98-.28-2.69-.76-5.83-3.95-11.57-8.02-17.34-12.06-.01-5.97-.03-11.95-.04-17.92,1.87,1.06,3.73,2.12,5.6,3.18.21-.6.73-1.31.56-1.77-1.15-3.16-.61-7.52-5.48-8.2.56-18.68,1.12-37.37,1.68-56.05Z"/>
    <path class="cls10"
          d="M332.34,644.09c-.53,22.31-1.06,44.61-1.6,66.92-5-1.99-9.99-3.98-14.99-5.97.66-31.71,1.57-63.41,1.71-95.12.02-4.59,2.84-9.13.42-13.73.2-6.22.39-12.44.59-18.66.78-2.83,1.57-5.66,2.35-8.49l.13.21s-.15-.2-.15-.2c1.54.2,2.3-.56,2.46-2.03.34-.11.68-.21,1.02-.32,1.09-.05,2.18-.1,3.27-.15l.21-.14s.2.15.2.15c-.13,2.55,1.34,2.82,3.34,2.34.47.94.95,1.88,1.42,2.81-.61,9.91-1.01,19.83.14,29.73-.07.57-.13,1.14-.2,1.71-.1,4.26-.19,8.53-.29,12.79,0,9.38-.02,18.75-.03,28.13Z"/>
    <path class="cls10"
          d="M262.43,626.63c.03,18.86.07,37.73.1,56.59-5.83-2.29-11.66-4.58-17.49-6.87,3.75-10.96,1.2-22.21,1.28-33.3.16-23.27-.26-46.54-.44-69.81,1.18-4.51,3.44-8.05,8.73-6.81,4.97,1.17,6.42,4.96,6.51,9.94.15,8.88.9,17.76,1.4,26.64-.27,7.25-.53,14.5-.8,21.76-.11,1.2-.23,2.41-.34,3.61.16-.55.32-1.1.48-1.65.2-.02.39-.05.58-.1Z"/>
    <path class="cls10"
          d="M188.28,549.68c.04,1.86.07,3.72.11,5.57,1.39,32.91,2.78,65.82,4.18,98.74-5.18-2.18-10.37-4.37-15.55-6.55-.55-5.25-1.1-10.5-1.65-15.74-.7-16.97-1.32-33.94-2.2-50.9-.14-2.64,2.17-5.26,0-7.84-.04-1.87-.32-3.76-.08-5.59.95-7.09-2.95-14.66,2.08-21.35,1.52-1.3,2.97-2.73,5.22-2.5,3.74.64,5.7,3.55,7.9,6.16Z"/>
    <path class="cls3"
          d="M192.57,653.99c-1.39-32.91-2.78-65.82-4.18-98.74,4.32,2.34,6.41,8.49,12.71,7.45.07,6.48,9.18,8.07,8.19,15.13-3.74,26.96-4.43,54.09-4.59,81.25-4.05-1.7-8.09-3.4-12.14-5.1Z"/>
    <path class="cls5"
          d="M170.88,645.02c-10.67-4.51-21.49-8.69-31.92-13.67-4.31-2.06-2.19-7.29-2.72-11.03-3.24-22.76-6.61-45.51-7.87-68.5,8.15,16.55,16.29,33.1,24.44,49.65-.22,0-.43.03-.63.1-1.39.78-3,1.34-4.14,2.39-4.96,4.55-5.07,9.95-.64,14.44,3.39,3.44,8.09,5.91,12.64.84.22.07.44.12.66.16,3.4,8.54,6.79,17.08,10.19,25.62Z"/>
    <path class="cls3"
          d="M405.66,587.22c7.28,3.24,11.83,11.42,21.2,11.1,3.15-.11,3.63-4.66,7.72-2.95,7.56,3.16,9.59,8.26,4.93,16.66-4.43,7.96-9.44,15.59-14.19,23.38-1.15,1.9-2.26,2.31-4.04.52-5.27-5.32-10.68-10.52-16.03-15.76.14-10.98.27-21.97.41-32.95Z"/>
    <path class="cls3"
          d="M152.8,601.46c-8.15-16.55-16.29-33.1-24.44-49.65-.56-3.44-1.11-6.88-1.67-10.32,1.27.76,2.54,1.52,3.81,2.28l-.05-.06c-.34,4.46,2.38,7.71,4.46,11.22,9.48,16.02,18.95,32.05,26.69,49.01-2.94-.83-5.87-1.65-8.81-2.48Z"/>
    <path class="cls3"
          d="M170.88,645.02c-3.4-8.54-6.79-17.08-10.19-25.62,2.69-2.41,3.47-5.57,3.5-9.02,4.12,5.49,7,11.6,9.16,18.09.39,1.17,1.33,2.16,2.02,3.23.55,5.25,1.1,10.5,1.65,15.74-2.05-.81-4.09-1.62-6.14-2.42Z"/>
    <path class="cls3"
          d="M123.03,510.78c4.62,7.57,7.22,15.99,8.54,24.55.29,1.87-3.45-1.34-5.52-1.43-1.01-7.71-2.02-15.42-3.02-23.13Z"/>
    <path class="cls5"
          d="M407.22,558c4.86.69,4.32,5.04,5.48,8.2.17.46-.36,1.18-.56,1.77-1.87-1.06-3.73-2.12-5.6-3.18.77-2.21-1.83-4.76.69-6.8Z"/>
    <path class="cls8"
          d="M386.89,603.59c-4.49-2.81.14-6-.38-8.97,0,0,.22.09.22.09l.22-.07c-.02,2.98-.04,5.96-.06,8.95Z"/>
    <path class="cls7" d="M386.95,594.64l-.22.07s-.22-.09-.22-.09c.19-1.18.38-2.35.57-3.52.88,1.21.9,2.4-.13,3.54Z"/>
    <path class="cls5" d="M387.26,579.02c.13-.27.26-.53.38-.8-.13.27-.25.53-.38.8Z"/>
    <path class="cls6" d="M402,708.62c-.05.34-.11.68-.16,1.02.05-.34.11-.68.16-1.02Z"/>
    <path class="cls3" d="M443.81,591.01c-7.44-4.49-2.64-7.07,1.52-9.74-.51,3.25-1.02,6.5-1.52,9.74Z"/>
    <path class="cls5" d="M544.84,619.6c.21-1.79.42-3.59.63-5.38.28,1.85.95,3.74-.63,5.38Z"/>
    <path class="cls5" d="M543.72,636.56c.03-.91.06-1.82.1-2.73-.03.91-.06,1.82-.1,2.73Z"/>
    <path class="cls3" d="M420.71,681.78c.26-.47.52-.94.78-1.41-.26.47-.52.94-.78,1.41Z"/>
    <path class="cls5"
          d="M253.5,338.26c8.32-8.49,2.9-19.18,4.6-28.73,23.22-3.67,46.43-7.34,69.65-11.02-.5,12.73-.98,25.46-1.53,38.18-.22,5.14.25,9.95,6.03,11.86,4.18,1.38,7.3-1.49,8.33-4.56,1.37-4.1,1.02-8.78,1.42-13.21,11.35-4.14,11.59,2.96,13.14,11.33,1.47,7.97-1.96,8.85-7.88,9.69-14.13,2.01-28.21,4.34-42.3,6.59-.53.08-.97.7-1.44,1.07,2.01-.33.19,4.05,3.01,2.54,7.66-4.1,16.29-1.93,24.34-3.87,8.06-1.95,16.41-2.61,24.59-4.09,1.6-.29.9.69.96,1.01.71,4.28,1.36,8.58,1.98,12.87.22,1.49.12,2.6-2,2.61-13.92.06-27.56,1.88-40.64,6.9-3.53-1.21-6.38,1.18-9.87,1.75,1.85.4,4.02-.1,3.91,2.61-.45.05-.89.11-1.34.16.06.12.17.34.18.33.38-.16.75-.35,1.12-.53,2.49-.89,4.98-1.78,7.47-2.67,8.5.84,16.69-1.18,24.94-2.66.86-.52,3.01,1.58,2.68-1.33,4.3-.42,8.61-.71,12.88-1.31,2.22-.31,1.73,1.16,1.88,2.25,1.33,9.48,2.55,18.97,4.01,28.43.59,3.83-2.23,3.19-4.17,3.52-22.02,3.78-44.13,7.05-66.04,11.36-13.11,2.58-26.42,1.13-39.42,3.28-20.61,3.41-41.08,7.63-61.64,11.36-7.17,1.3-14.44,2.09-21.64,3.24-2.02.32-2.32-.86-2.62-2.25-.47-2.18-.71-4.43-1.4-6.54-2.77-8.5-.92-12.53,9.11-13.8,20.46-2.6,40.76-6.61,61.06-10.4,11.37-2.12,23.06-2.65,34.07-6.67,1.22-.45,2.97-.24,2.51-2.3-.43-1.95-2.01-1.49-3.33-1.27-16.06,2.72-32.11,5.47-48.16,8.21-.4.05-.79.1-1.19.16-18.2,3.68-36.4,7.34-54.58,11.09-1.18.24-1.77.48-1.99-1-.65-4.44-1.41-8.86-2.13-13.29-.29-1.75.39-2.17,2.18-2.45,33.06-5.15,66.1-10.43,99.15-15.65,1.99-.31,3.82-.78,4.82-2.71.13-.24-.28-1.09-.4-1.08-2.47.13-5,.08-7.37.65-1.09.26-.46,1.06.55,1,1.19-.07,2.39-.14,3.62.34-15.99-1.37-31.4,3.23-47.16,4.17-1.17,1.25-3.62-.45-4.31,1.89-16.64.61-32.49,5.93-48.88,8.1-1.93.26-3.96,1.21-3.91-1.82.07-3.77-5.09-9.11.61-10.98,7.73-2.53,16.22-2.77,24.37-4.03.66-.1,1.27-.51,1.91-.77-.68-.36-1.37-.73-2.05-1.08,15.41,1.09,30.15-3.24,45.12-5.66,10.23-1.66,20.37-3.85,30.56-5.75,1.48-.27,2.41-1.04,2.2-2.42-.24-1.6-1.33-1.47-2.82-1.15-5.93,1.28-11.93,2.27-17.9,3.37-.19.37-.38.73-.57,1.1-1.83-.05-3.67-.1-5.5-.15-.18.37-.37.73-.56,1.1-8.88,1.1-17.78,2.05-26.64,3.33-14.65,2.11-29.26,4.5-43.91,6.57-2.5.35-6.37,3.01-7.32.52-1.81-4.76-2.14-10.19-2.35-15.37-.07-1.79,2.77-.63,4.24-1.04,15.24-4.23,31.21-4.17,46.51-7.62,16.61-3.75,33.81-4.51,50.04-10.12,2.8-.97,8.66,1.83,7.72-2.99-.6-3.04-6.79-.33-10.48-.16ZM315.66,335.14c2.29,0,4.5.36,6.78-.96,1.19-.69,4.06.6,3.55-2.09-.5-2.61-2.94-1.15-4.57-.89-5.07.78-10.13,1.63-15.19,2.51-.8.14-1.56.52-2.35.79,1.25.79.6,3.84,3.53,2.76,1.45-.54,3.15-.41,4.73-.59,1.34-.12,3.12.8,3.51-1.52ZM292.58,347.18c-.05-.26-.1-.53-.15-.79-1.28.18-2.56.37-3.84.55.06.33.12.66.18.99,1.27-.25,2.54-.5,3.81-.75ZM327.2,397.7c.01.09.03.17.04.26h7.01c0-.09,0-.17,0-.26h-7.05ZM340.26,380.79c.06-.09.11-.18.17-.27h-3.46c0,.09,0,.18,0,.27h3.29ZM285.06,347.53c-.4-.09-.72-.21-1.04-.21-.2,0-.4.19-.59.29.38.13.75.3,1.13.37.11.02.27-.24.5-.45ZM270.93,412.24c.07-.19.26-.42.2-.54-.07-.14-.39-.28-.52-.22-.14.05-.18.34-.26.53.19.08.38.16.59.24Z"/>
    <path class="cls5"
          d="M242.07,312.38c.06,4.1.59,8.27.06,12.3-.87,6.61,1.78,11.18,6.96,14.75-21.51,5.12-43.45,7.72-65.26,11.07-.59.09-1.15.43-1.72.65-1.17.29-2.35.59-3.52.88-7.23,1.05-14.47,2.02-21.69,3.2-1.98.32-3.04.08-3.4-2.09-.91-5.52-2.24-10.99-2.85-16.54-.89-8.09,5.64-9.95,11.21-10.94,26.69-4.72,53.47-8.91,80.22-13.28ZM215.16,323.46c-.44-.36-.65-.62-.92-.72-.17-.06-.42.13-.64.2.1.27.16.71.32.76.28.08.62-.11,1.23-.24Z"/>
    <path class="cls10"
          d="M342,330.77c-.39,4.43-.05,9.11-1.42,13.21-1.03,3.08-4.15,5.94-8.33,4.56-5.78-1.91-6.25-6.72-6.03-11.86.55-12.73,1.02-25.45,1.53-38.18.21-1.49.42-2.98.62-4.47,1.02-.67,1.09-1.42.21-2.26.14-3.25.28-6.51.42-9.76.64-5.03,1.29-10.06,1.94-15.08.16.01.33.03.49.04.29,0,.57.01.86.02.75.05,1.49.09,2.24.14.9,2.32,2.95,1.01,4.45,1.4,7.05,2.7,3.81,8.81,4.51,13.62.21,1.43.42,2.86.64,4.29-.12,2.51-.23,5.01-.35,7.52-.33.61-1.04,1.29-.95,1.82,1.93,10.65-1.08,21.28-.1,31.91-.25,1.02-.49,2.05-.74,3.07Z"/>
    <path class="cls5"
          d="M262.51,603c-.5-8.88-1.25-17.75-1.4-26.64-.09-4.98-1.53-8.77-6.51-9.94-5.29-1.24-7.55,2.3-8.73,6.81-3.62-8.11-4.84-16.32-1.39-24.86,1.4-3.45,2.46-7.04,3.81-10.51.57-1.48,1.64-.38,1.93.14,5.89,10.72,12.71,21.08,17.24,32.36,4.49,11.18-2.08,21.9-4.95,32.64ZM247.08,553.93c1.04-2.91,7.61-1.95,3.53-6.87-.5-.6-.38-1.72-.55-2.6-1.12,2.28-2.3,4.53-3.31,6.85-.22.51.13,1.27.32,2.61ZM247.39,554.87c-.11-.17-.22-.48-.34-.48-.2,0-.4.18-.61.29.17.23.34.46.51.7.14-.16.29-.32.43-.5ZM246.84,557.11c-.49-.14-.76-.3-1.02-.27-.15.02-.41.4-.36.49.11.22.41.55.56.51.25-.06.43-.37.82-.73Z"/>
    <path class="cls5"
          d="M342.74,327.7c-.98-10.64,2.03-21.26.1-31.91-.1-.53.61-1.21.95-1.82,5.02,7.93,6.83,16.74,8.24,25.92.91,5.93-1.19,7.12-6.04,7.2-1.08.02-2.16.4-3.24.62Z"/>
    <path class="cls6"
          d="M133.18,470.08c-2.73-.5-4.93-1.94-4.97-5.2-.04-3.28,1.18-5.79,5.04-6.01,3.97-.22,5.33,2.31,5.44,5.54.12,3.33-1.99,5.15-5.51,5.66Z"/>
    <path class="cls6"
          d="M125.48,406.55c-2.89-.79-4.79-2.5-4.71-5.75.07-3.3,2.04-5.3,5.16-5.14,2.97.16,5.26,2.24,5.22,5.36-.05,3.26-2.27,5.08-5.66,5.52Z"/>
    <path class="cls6"
          d="M126.74,369.57c-.05,2.59-1.47,4.25-3.81,4.37-2.23.11-3.62-1.54-3.74-3.85-.12-2.41,1.28-3.86,3.56-3.98,2.23-.12,3.81,1.03,3.99,3.46Z"/>
    <path class="cls8"
          d="M309.78,381.77c.11-2.7-2.06-2.2-3.91-2.61,3.49-.57,6.34-2.96,9.87-1.75.49.55.98,1.1,1.47,1.66-2.49.89-4.98,1.78-7.47,2.67,0,0,.03.04.03.04Z"/>
    <path class="cls5" d="M332.85,601.46c-1.15-9.9-.75-19.82-.14-29.73,1.82,9.9.22,19.82.14,29.73Z"/>
    <path class="cls5" d="M242.66,242.46c-.07,11.91-.13,23.82-.2,35.73.07-11.91.13-23.82.2-35.73Z"/>
    <path class="cls1"
          d="M213.11,385.29c.69-2.34,3.15-.64,4.31-1.89.43.21.85.58,1.3.61,3.63.26,7.27.46,10.9.68-3.91.28-7.82.62-11.74.82-1.59.08-3.19-.14-4.78-.22Z"/>
    <path class="cls1"
          d="M241.74,364.2c.19-.37.38-.73.57-1.1,3.35.18,6.7.35,10.04.53-3.32,1.81-6.84.5-10.27.7-.11,0-.23-.08-.35-.13Z"/>
    <path class="cls1"
          d="M341.23,525.2c1.22,1.87-1.97,1.13-1.51,2.54-2.81-.17-5.98,1.28-8.13-1.81.92-.03,1.84-.07,2.75-.1.82,2.04,1.66,2.2,2.52.03.94-.21,1.89-.42,2.83-.63.51,0,1.02-.02,1.53-.03Z"/>
    <path class="cls5" d="M242.46,281.31c.93,5.72,1.02,11.43-.03,17.14,0-5.71.02-11.43.03-17.14Z"/>
    <path class="cls5" d="M320.81,569.05c-.78,2.83-1.57,5.66-2.35,8.49-.73-3.25-.21-6.15,2.35-8.49Z"/>
    <path class="cls7"
          d="M178.59,352.03c1.17-.29,2.35-.59,3.52-.88,1.65.29,3.3.57,4.95.85-2.83.09-5.67,2.34-8.47.03Z"/>
    <path class="cls1"
          d="M275.15,512c-2.17-.02-4.34-.03-6.51-.08,0,0,0-.82,0-.82,2.17-.05,4.34-.07,6.51-.09,0,.33,0,.66,0,.99Z"/>
    <path class="cls7"
          d="M324.91,461.04c0-.33-.02-.66-.02-.99.12-.04.25-.13.35-.1,1.81.57,4.9-1.84,5.1.23.16,1.66-3.47.72-5.42.86Z"/>
    <path class="cls5" d="M332.36,615.96c.1-4.26.19-8.53.29-12.79-.1,4.27-.19,8.53-.29,12.79Z"/>
    <path class="cls7"
          d="M289.67,504.32c-.83.96-1.35,1.55-1.87,2.15-.4-.69-.83-1.36-1.15-2.08-.04-.09-.84-1.82.8-.83.59.36,1.33.47,2.22.76Z"/>
    <path class="cls1"
          d="M220.74,402.34c.4-.05.8-.11,1.19-.16.08.85.16,1.7.24,2.55-.57-.03-1.15-.07-1.72-.1.1-.76.19-1.53.29-2.29Z"/>
    <path class="cls5"
          d="M339.7,525.23c-.94.21-1.89.42-2.83.63-.84-.01-1.68-.02-2.52-.03-.92.03-1.84.07-2.75.1,2.57-1.81,5.4-.53,8.11-.7Z"/>
    <path class="cls5" d="M228.64,402.82h6.23c0,.13,0,.26,0,.39h-6.26l.02-.39Z"/>
    <path class="cls1"
          d="M228.82,549.69c-.5-.07-1-.13-1.5-.2,1.26-2.35,2.79-1.09,3.8.01,1.09,1.18-.69.64-.97,1.07,0,0,.08,0,.08,0-.47-.29-.94-.59-1.42-.88Z"/>
    <path class="cls5" d="M331.29,568.91c-2,.48-3.47.22-3.34-2.34,1.11.78,2.23,1.56,3.34,2.34Z"/>
    <path class="cls1"
          d="M344.84,375.07c.33,2.91-1.82.81-2.68,1.33-.03-.2-.06-.41-.08-.61.02-.23.05-.46.08-.69.89,0,1.79-.02,2.68-.03Z"/>
    <path class="cls5" d="M342.16,375.1c-.03.23-.06.46-.08.69-1.97,0-3.94,0-5.91,0,0-.23,0-.46,0-.69h5.99Z"/>
    <path class="cls1"
          d="M329.99,375.22c.94.32,1.89.65,2.83.97-.12.31-.23.61-.35.92-.83-.51-1.65-1.03-2.48-1.54,0,0-.01-.35-.01-.35Z"/>
    <path class="cls7"
          d="M239.92,474.28c-.56-.47-.95-.8-1.34-1.13.36-.19.73-.55,1.07-.52.4.04.78.41,1.16.63-.26.29-.51.58-.89,1.01Z"/>
    <path class="cls1"
          d="M339.29,451.92c.32.51.53.84.73,1.16-.31.15-.65.48-.91.42-.38-.08-.7-.44-1.04-.68.33-.25.67-.5,1.22-.91Z"/>
    <path class="cls5"
          d="M260.27,425.32c-.64-.16-1.09-.26-1.54-.37.36-.21.71-.56,1.09-.6.43-.04.89.19,1.34.31-.32.24-.64.48-.89.66Z"/>
    <path class="cls8" d="M275.15,512c0-.33,0-.66,0-.99.85.17,1.71.33,2.56.5-.85.17-1.71.33-2.56.5Z"/>
    <path class="cls5" d="M323.26,567.03c-.17,1.47-.92,2.23-2.46,2.03.38-1.21,1.03-2.1,2.46-2.03Z"/>
    <path class="cls5"
          d="M232.14,465.48c-.81-.67-1.63-1.34-2.44-2.01.18-.22.36-.45.54-.67.79.69,1.59,1.39,2.38,2.08-.16.2-.32.4-.48.6Z"/>
    <path class="cls1"
          d="M329.72,455.04c-.27.14-.59.3-.91.46-.15-.56-.4-1.11-.42-1.68,0-.25.46-.52.71-.78.18.57.35,1.14.62,2Z"/>
    <path class="cls5" d="M261.85,626.72c-.16.55-.32,1.1-.48,1.65.11-1.2.23-2.41.34-3.61.05.65.09,1.31.14,1.96Z"/>
    <path class="cls1"
          d="M254.38,424.17c-.59.44-.94.76-1.35.95-.09.04-.39-.36-.6-.56.39-.21.76-.46,1.16-.6.17-.06.42.1.78.21Z"/>
    <path class="cls1"
          d="M354.24,456.86c.3-.06.6-.11.9-.17.36.46.72.91,1.08,1.37-.33.11-.85.4-.95.29-.41-.43-.69-.98-1.02-1.49Z"/>
    <path class="cls1"
          d="M230.91,471.3c-.16-.13-.19-.28-.08-.46.68-.05,1.35-.11,2.03-.13.02,0,.05.39.07.6-.68,0-1.35-.01-2.03-.02Z"/>
    <path class="cls8"
          d="M270.02,515.41c.35-.2.62-.35.88-.5.14.29.42.61.37.87-.04.23-.44.39-.68.58-.17-.27-.33-.55-.58-.95Z"/>
    <path class="cls5"
          d="M156.05,490.68c-.14-.62-.3-.95-.22-1.03.41-.39.89-.72,1.34-1.07.08.21.29.52.22.63-.31.42-.7.78-1.34,1.47Z"/>
    <path class="cls8"
          d="M269.12,519.77c-.38-.27-.64-.44-.9-.62.19-.24.36-.65.58-.68.25-.03.55.26.83.42-.15.26-.3.52-.5.88Z"/>
    <path class="cls7"
          d="M329.99,375.22s.01.35.01.35c-.44.3-.87.61-1.31.91-.17-.31-.33-.62-.5-.92.6-.11,1.2-.23,1.8-.34Z"/>
    <path class="cls7"
          d="M290.45,466.97c-.35.1-.68.23-1.01.24-.07,0-.15-.46-.22-.71.33-.09.66-.22.99-.25.05,0,.14.41.24.72Z"/>
    <path class="cls1" d="M275.17,497.19c0,.45,0,.89,0,1.34-.23,0-.45-.02-.68-.02.23-.43.46-.87.68-1.3,0,0,0,0,0,0Z"/>
    <path class="cls1"
          d="M296.14,421.08c-.13-.17-.26-.34-.38-.51.26-.12.51-.24.77-.36.07.2.24.45.18.57-.08.15-.36.2-.57.3Z"/>
    <path class="cls5"
          d="M254.38,341.41c-.75.29-1.05.5-1.34.49-.46-.03-.9-.21-1.35-.33.28-.15.56-.41.85-.42.45-.02.92.12,1.83.27Z"/>
    <path class="cls7"
          d="M228.28,582.3c-.51.15-.89.39-1.07.29-.23-.13-.3-.54-.44-.83.21-.09.47-.31.61-.25.28.13.48.41.9.79Z"/>
    <path class="cls1"
          d="M288.55,461.11c-.16.14-.33.27-.49.39-.16-.23-.33-.46-.49-.69.21-.07.44-.21.63-.17.14.03.23.3.34.47Z"/>
    <path class="cls1"
          d="M207.17,349.71c.13.15.25.3.37.46-.23.14-.45.28-.68.43-.08-.19-.26-.42-.21-.57.04-.14.33-.21.52-.31Z"/>
    <path class="cls5" d="M327.54,566.56c-1.09.05-2.18.1-3.27.15,1.05-1.01,2.13-1.12,3.27-.15Z"/>
    <path class="cls1"
          d="M245.34,343.14c-.23.08-.47.21-.7.21-.21,0-.42-.15-.63-.24.22-.07.44-.21.65-.21.23,0,.45.15.68.24Z"/>
    <path class="cls5" d="M232.62,464.88c.24.24.48.48.72.71-.4-.04-.8-.08-1.19-.11.16-.2.32-.4.48-.6Z"/>
    <path class="cls1" d="M235.69,365.15c.19-.37.37-.73.56-1.1-.19.37-.37.73-.56,1.1Z"/>
    <path class="cls5" d="M242.43,311.27c.05.19.12.38.13.57,0,.05-.18.11-.28.16.05-.24.1-.49.15-.73Z"/>
    <path class="cls2"
          d="M238.34,201.81c0-1.55.02-3.09.02-4.64.11-.47.23-.93.34-1.4,7.29-23.26,28.22-42.04,60.5-40.43,9.22,1.4,18,4.2,26.3,8.45,6.6,4.87,12.12,10.74,16.38,17.76,3.06,5.9,5.19,12.11,6.16,18.7-.67,4.6-2.62,7.95-7.77,8.64-5.35.71-8.07-2.25-10.02-6.59-1.01-2.25-2.15-4.44-3.23-6.66-2.76-10.06-13.24-19-23.27-19.85-.53-.09-1.05-.18-1.58-.27-.97-.18-1.95-.36-2.92-.54-1.76-.07-3.53-.14-5.29-.2-.24,0-.49.01-.73.02-1.74.03-3.49.06-5.23.1-1.25.2-2.49.4-3.74.59-1.01.17-2.02.35-3.04.52-2.94.2-5.63,1.12-7.99,2.92,0,0-.27.14-.27.14-.43.21-.86.43-1.28.64-.31.11-.63.23-.94.34-2.17.62-4.03,1.71-5.25,3.69-.53.49-1.05.98-1.58,1.46-6.76,6.09-7.63,15.54-12.85,22.51-5.48,2.31-9.51.57-12.37-4.43-.12-.49-.25-.97-.37-1.46Z"/>
    <path class="cls3"
          d="M349.69,120.68c-3,.46-4.93-.29-4.81-3.82.04-1.22-.46-2.53-2.03-2.72-1.76-.22-2.38,1.24-2.97,2.4-2.14,4.18-5.78,4.58-9.84,4.24-1.5-.12-2.61-.42-3.04-2.12-.61-2.4-2.63-4.56-.29-7.24,2.22-2.54,4.8-1.66,7.23-1.13,4.33.94,8.43,5.64,12.41-1.79,1.35-2.51,5.8,2.15,8.7,3.81,1.9,1.09,2.48,3,1.65,4.84-1.31,2.93-3.81,4.14-7.01,3.52Z"/>
    <path class="cls3"
          d="M368.4,125.35c-3.26-.41-5.17-2.83-5.12-5.41.06-2.8,1.42-5.95,5.32-5.94,3.56.02,5.88,2.32,5.94,5.43.07,3.45-2.78,5.24-6.14,5.92Z"/>
    <path class="cls3"
          d="M209.86,142c-.12,1.08-1.25,3.32-4.22,3.4-2.59.07-4.57-1.43-4.56-4.27.01-2.89,1.73-4.12,4.65-3.93,2.18.14,4.45-.1,4.13,4.8Z"/>
    <path class="cls6"
          d="M434.55,313.66c-4.1-.54-6.63-2.63-6.62-6.76.01-4.1,2.3-6.69,6.49-6.49,3.87.19,6.34,3,6.25,6.6-.09,3.41-2.07,6.36-6.12,6.64Z"/>
    <path class="cls7"
          d="M348.06,200.26c-.98-6.59-3.1-12.8-6.16-18.7.32-.57.99-1.2.89-1.69-1.35-6.66,2.35-10.22,8.61-8.48,1.53.43,3.85.46,4.96-.41,6.11-4.8,12.26-9.63,17.82-15.05,5.61-5.47,30.77-8.56,36.43-3.93,3.66,3,1.2,6.96,1.8,10.44-11.43,1.45-19.68,8.94-20.21,18.37-17.98-1.59-32.39,4.16-41.74,20.31l-2.4-.86Z"/>
    <path class="cls2"
          d="M350.46,201.12c9.35-16.15,23.76-21.9,41.74-20.31,2.7,1.58,5.39,3.15,8.09,4.73.25,1.52.49,3.03.74,4.55l-.2.19.15.23c-1.12,2-2.25,4-3.37,6-12.07-1.08-24-1.88-30.81,11.4-1.91,3.73-2.83,8.06-6.22,10.96-.42.28-.83.56-1.25.83-.54.11-1.07.22-1.61.33-3.01.04-5.52-.9-7.45-3.4-4.06-5.26-1.28-10.37.18-15.52Z"/>
    <path class="cls3"
          d="M288.02,174.9c1.74-.03,3.49-.06,5.23-.1.24,0,.49-.01.73-.02,1.76.07,3.53.14,5.29.2.7,1.65,1.74,1.51,2.92.54.53.09,1.05.18,1.58.27-1.61,2.76-.11,3.45,2.36,4.13,4.03,1.11,6.76,3.89,6.53,8.22-.25,4.71-3.82,4.77-7.59,4.74-6.18-.04-12.32-1.9-18.57-.22-2.3.62-3.87,1.51-4.48,3.82,0,0-.02.02-.02.02-3.6.97-7.15,2.33-10.82,2.84-7.02.98-5.84-4.62-6.44-8.68-.27-1.83-.53-3.65-.8-5.48.53-.49,1.05-.97,1.58-1.46,1.75-1.23,3.5-2.46,5.25-3.69.31-.11.63-.23.94-.34.43-.21.86-.43,1.28-.64,0,0,.27-.14.27-.14,3.88,2.37,5.25-2.16,7.99-2.92,1.01-.17,2.02-.35,3.04-.52,1.44.99,2.77,1.35,3.74-.59ZM266.17,185.75l.26-.12-.25-.12v.25Z"/>
    <path class="cls1"
          d="M350.46,201.12c-1.46,5.15-4.25,10.26-.18,15.52,1.93,2.5,4.43,3.43,7.45,3.4-5.13,3.29-8.47-.21-11.38-3.46-5.31-5.92-13.45-4.43-16.82,3.4-.49,1.14-.83,2.36-1.05,3.58-.58,3.21-.71,6.46-5.34,6.74-4.84.29-5.92-3.25-6.95-6.45-2.06-6.4,5.11-24.46,10.86-28.18,1.08,2.22,2.22,4.41,3.23,6.66,1.95,4.34,4.67,7.3,10.02,6.59,5.15-.69,7.09-4.04,7.77-8.64.8.29,1.6.57,2.4.86Z"/>
    <path class="cls1"
          d="M401.03,190.09c-.25-1.52-.49-3.03-.74-4.55,7.27.53,12.29,9.38,8.84,15.67-.78,1.43-1.84,2.79-3.75,2.57-4.35-.5-5.96-4-7.77-7.26,1.12-2,2.25-4,3.37-6,0,0,.17-.2.17-.2l-.12-.23Z"/>
    <path class="cls3"
          d="M380.48,201.33c4.14-.86,6.28.78,5.48,2.93-1.8,4.84-6.02,7.72-10.79,9.42-1.3.46-3.39.71-3.62-2.24-.6-7.7,6.33-7.58,8.92-10.11Z"/>
    <path class="cls3"
          d="M282.01,196.49c1.24-.01,2.5-.17,3.71,0,2,.29,5.23-1.12,5.47,1.95.15,1.93-1.38,4.55-4.28,4.81-3.24.29-4.15-2.09-4.88-4.53-.2-.68-.04-1.48-.04-2.22,0,0,.02-.02.02-.02Z"/>
    <path class="cls1" d="M359.33,219.71c.42-.28.83-.56,1.25-.83-.03.87-.05,1.73-1.25.83Z"/>
    <path class="cls8" d="M449.35,50.89c-1.75.23-3.35.27-2.92-2.29,1.55.03,2.73.53,2.92,2.29Z"/>
    <path class="cls8" d="M450.75,52.52c-.47-.54-.93-1.08-1.39-1.62.47.54.93,1.08,1.39,1.62Z"/>
    <path class="cls3"
          d="M375.82,72.33c-5.93-.89-9.48-4.44-9.12-8.72.34-4,5.25-5.84,9.34-5.77,5.02.09,8.63,3.25,8.51,8.25-.15,5.86-6.37,3.91-8.73,6.24Z"/>
    <path class="cls3"
          d="M497.25,136.23c.31-3.16.06-6.82,5-6.5,4.27.27,6.17,2.96,6.19,6.85.02,3.88-2.52,5.14-6.18,5.23-4.05.1-5.45-1.76-5.01-5.58Z"/>
    <path class="cls1" d="M548.51,133.42c7.03,5.76,6.29,13.94,6.76,21.73-2.44-7.19-2.02-15.26-6.76-21.73Z"/>
    <path class="cls1" d="M555.28,162.83c-.09.47-.19.95-.28,1.42.09-.47.19-.95.28-1.42Z"/>
    <path class="cls3"
          d="M427.4,521.15c-2.33.31-2.58-1.46-2.92-3.02-.85-3.94,2.08-6.38,4.61-7.66,3.85-1.96,7.55-5.5,12.72-3.69.53.18,1.79-1.74,2.71-2.69-.66-.36-1.52-1.17-1.96-.99-3.3,1.34-4.03-2.63-6.45-2.98,1.09-1.47,2.05-3.07,3.31-4.39,5.54-5.81,11.17-11.54,16.76-17.3-.54,9.24-1.07,18.48-1.61,27.72-1.5,1.16-2.68,3.91-5.01,1.02-.35,1.27-1.41,2.97-.93,3.72,1.45,2.31,3.41-.66,5.2,0-.47,7.19-.94,14.37-1.41,21.56,0,.28,0,.55,0,.83-.28,2.73-.55,5.46-.83,8.19-5.57,2.17-10.11,7.06-17.25,5.12-2.63-.71-4.36-1.35-4.21-3.72.17-2.72-4.68-6.34,1.47-8.33,1.91-.62,3.23-3.16,4.73-4.89.19-.22-.15-.89-.24-1.35-.83.39-1.63.87-2.5,1.15-2.29.74-4.16,4.32-6.33,2.76-1.76-1.26-3.2-3.99-2.85-7.16.29-2.64,1.84-2.79,3.52-3.35-.64-2.24,6.33.14,2.55-4.26-.57-.66.2-2.57-1.17-3.45-.02,1.35.18,2.75-.14,4.02-.28,1.12-1.15,2.09-1.76,3.12ZM447.99,504.52c-.24-.09-.48-.19-.72-.28.12.21.25.41.37.62.39.37.79.74,1.18,1.11.12-.17.37-.48.35-.5-.37-.34-.78-.64-1.18-.95ZM435.49,535.73c-.35-.24-.71-.48-1.06-.73.17.43.34.86.51,1.3.31.49.61.99.96,1.45.03.04.35-.14.53-.22-.32-.6-.63-1.21-.95-1.81ZM429.22,525.83c.09.37.19.75.28,1.12.19-.1.38-.2.57-.29-.15-.28-.3-.55-.45-.83-.4-.74-.8-1.49-1.23-2.21-.02-.03-.39.15-.59.23.47.66.95,1.32,1.42,1.98ZM436.38,540.43c2.55-1.08,4.86-1.98,7.09-3.03,2.59-1.22,5.11-2.58,7.67-3.88-3.08.71-6.24,1.19-9.21,2.21-1.91.65-3.55,2.08-5.28,3.22-.35.23-.55.74-.73,1.15-.03.06.48.34.45.33ZM449.79,523.63c-4.2-.49-7.51.13-10.7,1.46-.88.37-2.72,1.43-1.33,2.18,3.88,2.1,6.22-3.76,10.22-2.54.29.09.76-.44,1.81-1.1ZM442.08,514.95c-2.5.05-5.18-.01-6.66,2.47-.15.25.01.68.03,1.02,2.21-1.16,4.42-2.33,6.64-3.49Z"/>
    <path class="cls6"
          d="M451.58,541.48c.28-2.73.55-5.46.83-8.2,2.72-.37,5.43-.74,7.35-3.04l-.02.02c3.15.44,3.7,3.3,4.64,5.46,5.91,13.71,3.56,20.74-11.19,33.49-2.28,1.97-3.41,5.25-6.77,5.97,1.46-9.67,2.92-19.34,4.38-29.02.5-1.52,2.76-2.75.79-4.69Z"/>
    <path class="cls6"
          d="M454.57,506.15c.54-9.24,1.07-18.48,1.61-27.72,6.13-5.33,9.63-14.78,20.45-12.75,5.13.96,5.85,4.72,3.03,7.33-6.55,6.06-8.56,15.61-16.99,20.33-3.11,1.74-1.05,8.2-5.2,10.77-1,.62-1.93,1.35-2.9,2.04Z"/>
    <path class="cls6"
          d="M452.42,532.46c.47-7.19.94-14.37,1.41-21.56,4.95-5.04,5.08-1.22,5.08,2.77,0,3.57.85,6.83,3.14,9.67,2.78,3.44-1.54,4.61-2.31,6.92,0,0,.02-.02.02-.02-2.45.74-4.9,1.48-7.34,2.22Z"/>
    <path class="cls5" d="M328.59,291.78c.88.84.81,1.6-.21,2.26.07-.76.14-1.51.21-2.26Z"/>
    <path class="cls3"
          d="M175.16,546.02c-5.03,6.68-1.13,14.25-2.08,21.35-.24,1.83.04,3.72.08,5.59-3.99-12.15-7.99-24.29-11.93-36.45-.27-.84-.12-1.82-.16-2.74.66.49,1.35.93,1.96,1.47,4.05,3.58,8.09,7.19,12.13,10.79Z"/>
    <path class="cls1"
          d="M164.19,610.38c-.02,3.45-.8,6.6-3.5,9.02-.22-.04-.45-.09-.66-.16-2.62-5.89-5.24-11.78-7.86-17.68.21-.07.42-.11.63-.1,2.94.83,5.87,1.65,8.81,2.48.86,2.15,1.72,4.29,2.58,6.44Z"/>
    <path class="cls10"
          d="M144.73,541.65c.07,3.32-1.78,4.25-4.09,4.27-2.27.02-4-1.42-3.94-3.63.06-2.4,1.64-4.37,4.23-4.36,2.46.01,3.61,1.86,3.8,3.73Z"/>
    <path class="cls3"
          d="M130.51,543.76c.69-2.01-3.27-2.3-1.62-4.43.12-.16,2.61,1.03,3.47,2.04,1.73,2.04,3.1,4.4,4.62,6.63-2,.97-2.71-.17-3.57-1.8-.56-1.06-1.94-1.67-2.95-2.49,0,0,.05.06.05.06Z"/>
    <path class="cls7" d="M238.71,195.77c-.11.47-.23.93-.34,1.4.11-.47.23-.93.34-1.4Z"/>
    <path class="cls7" d="M238.34,201.81c.12.49.25.97.37,1.46-.12-.49-.25-.97-.37-1.46Z"/>
    <path class="cls1" d="M583.8,155.65c-.12-.15-.24-.3-.36-.45.16.1.32.2.48.31,0,0-.12.14-.12.14Z"/>
    <path class="cls5" d="M332.29,266.99c-.29,0-.57-.01-.86-.02.29,0,.57.01.86.02Z"/>
    <path class="cls3"
          d="M199.58,521.64c-.95-4.67-5.93-5.65-8.3-9.03-.34-.48-.74-.92-1.11-1.37.65-.06,1.31-.25,1.94-.18,5.07.57,10.22.83,15.19,1.87,7.9,1.65,9.62-5.21,11.25-9.38,3.95-10.14,11.17-10.8,19.87-9.21,1.98.36,3.65.52,5.71-.02,2.04-.53,4.46.43,6.72.74-.9,1.54-1.75,3.12-2.71,4.62-2.4,3.75-5.01,7.38-7.2,11.25-1.03,1.82-5.81,5.35,1.47,5.2,1.39-.03,1.53,1.34,1.14,2.59-1.42,4.62,2.19,10.66-3.25,14.04-9.66,6-19.29,11.84-28.85-.91-3.04-4.05-6.33-8.74-11.91-10.26,0,0,.03.04.03.04ZM232.78,498.39c-.18.11-.49.19-.52.33-.04.17.15.4.24.61.23-.14.47-.27.7-.41-.13-.17-.27-.35-.42-.53ZM238.14,498.64c-.11-.16-.2-.42-.35-.46-.17-.04-.39.11-.59.17.16.23.31.46.47.69.16-.13.31-.25.48-.4Z"/>
    <path class="cls3"
          d="M177.02,499.47c-10.91-7.71-12.07-11.33-7.42-23.36.21-.55.66-1.01,1-1.52.07.16.18.3.22.47,2.02,8.17,5.99,15.84,6.14,24.48l.06-.07Z"/>
    <path class="cls3"
          d="M211.11,473.24c-2.25.33-3.58-2.7-3.73-4.52-.15-1.78,2.04-4.08,4.62-4.09,2.59-.01,3.44,2.01,3.51,4.23.07,2.22-.51,4.16-4.4,4.39ZM210.29,469.5c-.24.3-.42.52-.59.74.19.12.41.36.58.32.31-.06.58-.28.87-.44-.25-.19-.51-.37-.85-.63Z"/>
    <path class="cls3"
          d="M182.11,477.12c-1.14-1.03-3.6-2.2-4.04-3.89-.59-2.33,1.58-4.08,3.98-4.56,2.09-.42,3.62.61,4.09,2.76.62,2.79.3,5.14-4.04,5.69Z"/>
    <path class="cls3"
          d="M189.61,495.11c-2.3.05-4.55.52-4.6-2.53-.05-2.93,2.47-4.15,4.36-4.01,2.56.18,5.16,2.79,5.12,4.95-.04,2.63-3.44.92-4.88,1.59Z"/>
    <path class="cls1"
          d="M278.27,431.46c-.92-.3-1.67-.54-2.41-.78.83-.26,1.65-.69,2.48-.73.75-.04,1.52.35,2.29.54-.8.33-1.59.65-2.36.97Z"/>
    <path class="cls8"
          d="M199.58,521.64s-.03-.04-.03-.04c-1.78.12-3.56.25-5.34.37,0,0,.05.05.05.05,1.62-2.28,3.56.02,5.31-.38Z"/>
    <path class="cls8" d="M346.32,442.29h-3.55v-.26h3.5l.05.26Z"/>
    <path class="cls8"
          d="M337.82,437.26c.35.14.72.28,1.1.42-.34.07-.69.2-1.03.2-.34,0-.69-.13-1.03-.2.29-.13.59-.25.97-.42Z"/>
    <path class="cls3" d="M228.82,549.69c.47.29.94.59,1.42.88-.47-.29-.94-.59-1.42-.88Z"/>
    <path class="cls3"
          d="M176.96,499.53c.12.08.23.16.35.24-.07,0-.17,0-.2-.03-.05-.08-.06-.18-.09-.27,0,0-.06.07-.06.07Z"/>
    <path class="cls3"
          d="M300.02,502.52c.14-.17.28-.34.41-.51.04.12.07.24.11.35-.19.03-.39.05-.58.08,0,0,.06.08.06.08Z"/>
    <path class="cls8" d="M276.21,657.22h3.27v.25h-3.27c0-.08,0-.17,0-.25Z"/>
    <path class="cls8" d="M300.62,660.52h-3.57v-.26h3.51l.06.26Z"/>
    <path class="cls8" d="M291.92,682.73h3.56c0,.09,0,.18,0,.26h-3.51c-.02-.09-.03-.18-.05-.26Z"/>
    <path class="cls10"
          d="M358.48,714.43c.12-2.96,1.37-4.24,3.78-4.14,2.31.1,4.25.99,4.02,3.7-.19,2.25-.78,4.67-3.85,4.43-2.64-.21-3.75-2.03-3.95-3.99Z"/>
    <path class="cls10"
          d="M152.16,601.56c2.62,5.89,5.24,11.78,7.86,17.68-4.55,5.07-9.25,2.6-12.64-.84-4.43-4.49-4.32-9.9.64-14.44,1.15-1.05,2.75-1.61,4.14-2.39Z"/>
    <path class="cls3"
          d="M312.15,336.66c-1.59.18-3.28.05-4.73.59-2.93,1.09-2.28-1.97-3.53-2.76.78-.27,1.54-.65,2.35-.79,5.06-.87,10.12-1.73,15.19-2.51,1.63-.25,4.07-1.72,4.57.89.51,2.69-2.35,1.4-3.55,2.09-2.28,1.32-4.49.96-6.78.96-2.33-2.17-2.95-.39-3.51,1.52Z"/>
    <path class="cls1" d="M312.15,336.66c.57-1.91,1.18-3.69,3.51-1.52-.39,2.32-2.18,1.4-3.51,1.52Z"/>
    <path class="cls1"
          d="M292.58,347.18c-1.27.25-2.54.5-3.81.75-.06-.33-.12-.66-.18-.99,1.28-.18,2.56-.37,3.84-.55.05.26.1.53.15.79Z"/>
    <path class="cls8" d="M327.2,397.7h7.05c0,.09,0,.17,0,.26h-7.01c-.01-.09-.03-.17-.04-.26Z"/>
    <path class="cls8" d="M340.26,380.79h-3.29c0-.09,0-.18,0-.27h3.46c-.06.09-.11.18-.17.27Z"/>
    <path class="cls1"
          d="M285.06,347.53c-.23.21-.39.47-.5.45-.39-.07-.76-.24-1.13-.37.2-.1.4-.29.59-.29.32,0,.64.12,1.04.21Z"/>
    <path class="cls1"
          d="M270.92,412.24c-.2-.08-.39-.16-.58-.24.08-.19.13-.47.26-.53.13-.05.46.09.52.22.06.12-.12.36-.21.55Z"/>
    <path class="cls8"
          d="M309.75,381.73c-.37.18-.74.37-1.12.53-.01,0-.12-.22-.18-.33.45-.05.89-.11,1.34-.16,0,0-.03-.04-.03-.04Z"/>
    <path class="cls1"
          d="M215.16,323.46c-.6.14-.95.32-1.23.24-.16-.04-.22-.49-.32-.76.21-.08.47-.26.64-.2.27.1.48.36.92.72Z"/>
    <path class="cls3"
          d="M247.08,553.93c-.19-1.34-.54-2.1-.32-2.61,1.01-2.32,2.19-4.58,3.31-6.85.17.88.05,2,.55,2.6,4.07,4.91-2.49,3.95-3.53,6.87Z"/>
    <path class="cls1"
          d="M247.39,554.88c-.15.17-.29.33-.43.49-.17-.23-.34-.46-.51-.7.2-.11.41-.29.61-.29.12,0,.23.31.34.49Z"/>
    <path class="cls8"
          d="M246.84,557.11c-.38.37-.57.68-.82.73-.15.04-.45-.29-.56-.51-.05-.09.21-.47.36-.49.26-.03.53.13,1.02.27Z"/>
    <path class="cls3" d="M334.34,525.83c.84.01,1.68.02,2.52.03-.87,2.17-1.71,2.01-2.52-.03Z"/>
    <path class="cls8" d="M281.24,176.02c-2.74.75-4.11,5.28-7.99,2.92,2.36-1.79,5.04-2.71,7.99-2.92Z"/>
    <path class="cls6" d="M270.76,180.05c-1.75,1.23-3.5,2.46-5.25,3.69,1.22-1.98,3.08-3.06,5.25-3.69Z"/>
    <path class="cls8" d="M288.02,174.9c-.97,1.95-2.31,1.58-3.74.59,1.25-.2,2.49-.4,3.74-.59Z"/>
    <path class="cls8" d="M302.19,175.53c-1.19.98-2.22,1.12-2.92-.54.97.18,1.95.36,2.92.54Z"/>
    <path class="cls8" d="M293.98,174.79c-.24,0-.49.01-.73.02.24,0,.49-.01.73-.02Z"/>
    <path class="cls8" d="M272.98,179.07c-.43.21-.86.43-1.28.64.43-.21.86-.43,1.28-.64Z"/>
    <polygon class="cls8" points="266.17 185.75 266.18 185.51 266.43 185.63 266.17 185.75"/>
    <path class="cls5"
          d="M436.38,540.43s-.48-.27-.45-.33c.18-.42.38-.92.73-1.15,1.72-1.14,3.37-2.57,5.28-3.22,2.97-1.02,6.13-1.5,9.21-2.21-2.55,1.3-5.08,2.66-7.67,3.88-2.23,1.05-4.54,1.95-7.09,3.03Z"/>
    <path class="cls5"
          d="M449.79,523.63c-1.05.66-1.53,1.19-1.81,1.1-4-1.22-6.35,4.64-10.22,2.54-1.39-.75.45-1.81,1.33-2.18,3.19-1.33,6.5-1.95,10.7-1.46Z"/>
    <path class="cls5"
          d="M427.4,521.15c.61-1.03,1.48-2,1.76-3.12.32-1.27.12-2.68.14-4.02,1.37.88.6,2.79,1.17,3.45,3.78,4.4-3.19,2.02-2.55,4.26-.18-.19-.35-.37-.53-.56Z"/>
    <path class="cls5"
          d="M442.08,514.95c-2.21,1.16-4.42,2.33-6.64,3.49-.02-.35-.18-.78-.03-1.02,1.48-2.48,4.17-2.42,6.66-2.47Z"/>
    <path class="cls5"
          d="M452.42,532.46c2.45-.74,4.9-1.48,7.34-2.22-1.92,2.3-4.64,2.67-7.35,3.04,0-.27,0-.55.01-.83Z"/>
    <path class="cls5"
          d="M429.22,525.83c-.47-.66-.95-1.32-1.42-1.98.21-.08.57-.26.59-.23.43.72.83,1.47,1.23,2.21,0,0-.2-.16-.2-.16l-.2.17Z"/>
    <path class="cls1"
          d="M429.22,525.83l.2-.17s.2.16.2.16c.15.28.3.56.46.83-.19.1-.38.2-.57.29-.09-.37-.19-.75-.28-1.12Z"/>
    <path class="cls5"
          d="M435.49,535.73l.95,1.81c-.18.08-.51.26-.53.22-.34-.47-.65-.96-.96-1.45.18-.19.36-.38.54-.57Z"/>
    <path class="cls7"
          d="M447.99,504.52c.4.31.8.61,1.18.95.02.02-.23.32-.35.5-.39-.37-.79-.74-1.18-1.11.12-.11.23-.22.35-.34Z"/>
    <path class="cls5" d="M434.94,536.3c-.17-.43-.34-.86-.51-1.3.35.24.71.48,1.06.73-.18.19-.36.38-.54.57Z"/>
    <path class="cls7" d="M447.64,504.86c-.12-.21-.25-.41-.37-.62.24.09.48.19.72.28-.12.11-.24.22-.35.33Z"/>
    <path class="cls1"
          d="M232.79,498.4c.14.18.28.35.41.52-.23.14-.47.27-.7.41-.09-.2-.28-.43-.24-.61.03-.14.34-.23.53-.33Z"/>
    <path class="cls1"
          d="M238.14,498.65c-.16.14-.32.26-.47.39-.16-.23-.31-.46-.47-.69.2-.07.42-.21.59-.17.15.04.24.3.35.47Z"/>
    <path class="cls5"
          d="M210.29,469.5c.35.26.6.44.85.63-.29.16-.56.38-.87.44-.16.03-.38-.21-.58-.32.18-.22.36-.45.59-.74Z"/>
</svg>