<?xml version="1.0" encoding="UTF-8"?>
<svg id="CameronMarr_Logo_Image" xmlns="http://www.w3.org/2000/svg" viewBox="0 0 451.2 168">
    <defs>
        <style>.cls-1{fill:#3b10a4;}.cls-1,.cls-2,.cls-3{stroke-width:0px;}.cls-2{fill:#4cc8ef;}.cls-3{fill:#f22686;}
        </style>
    </defs>
    <path class="cls-2"
          d="M410.42,126.37c-.37-.08-.74-.12-1.1.07-.11,0-.23.02-.34.02h-7.59c-2.01-11.73-3.97-23.11-5.92-34.51h-5.44c0,.89,0,1.72,0,2.54,0,.79,0,1.59,0,2.38-.03,9.73-.07,19.46-.07,29.19-.77.36-1.51.07-2.2.24-.26.01-.52.02-.78.04h-18.05c-1.81-15.86-3.61-31.57-5.41-47.29-.68,4.34-1.36,8.66-1.65,13.04-.73,3.35-.92,6.78-1.35,10.17-.89,7.03-1.69,14.08-2.55,21.12-.11.91-.04,1.84-.46,2.81-.44.04-.94.08-1.45.12-.35,0-.7,0-1.04,0h-18.31v-39.31c-.05,0-.11,0-.16-.01-.91,4.45-1.83,8.9-2.74,13.35-1.1,5.1-2.23,10.2-3.28,15.31-.58,2.85-1.78,5.43-3.18,7.94-.97.79-1.8,1.75-2.94,2.33-7.43,1.79-9.02-10.08-10.01-14.79-1.69-8.12-3.35-16.24-5.03-24.36-.04,5.49-.34,10.95-.05,16.4-.27.44-.14.93-.15,1.4-.02,6.69-.02,13.39-.03,20.08,0,.39,0,.79,0,1.18-.75.35-1.48.07-2.17.23-.32,0-.66-.17-.93.14h-7.91c0-15.31.14-30.62.17-45.93.01-7.83.02-15.66.01-23.48,0-6.94-.68-14.36,2.45-20.8.4-.5.8-1,1.2-1.49,1.7-2.04,3.97-2.16,5.81-.26,2.13,2.19,2.88,5.03,3.47,7.9,3.48,17.04,6.94,34.09,10.41,51.13.02.11.11.21.16.31.34,1.84.68,3.68,1.07,5.78.17-.58.3-.91.37-1.25,3.29-15.78,6.53-31.57,9.89-47.33,1.06-4.98,1.52-10.12,3.81-14.79,3.31-3.97,6.62-3.5,8.87,1.46,2.6,5.73,1.89,12.34,1.89,18.46,0,6.54,0,13.07-.02,19.61-.02,6.76-.59,13.75,0,20.49,0,7.14,0,14.29,0,21.34,1.68-13.93,3.36-27.86,5-41.8.85-7.14,1.69-14.28,2.58-21.41.75-6,.74-12.5,3.76-17.92,1.67-1.88,3.36-3.86,6.05-2.62,2.2,1.02,3.53,3.84,4.24,6.02,1.72,5.26,1.86,11.18,2.45,16.66.65,6,1.4,11.98,2.09,17.97.35,3.02.7,6.04,1.04,9.05.15,1.31.05,7.75,1.13,8.38.6,8.48,1.91,16.88,2.81,25.34.09-.71.08-1.42.09-2.12.01-14.15.02-28.29.05-42.44.02-12.23.07-24.45.11-36.68v-2.42c.59-.35,1.08-.22,1.55-.22,7.8,0,15.6.09,23.4,0,2.67-.03,4.4,1.08,5.61,3.31.28.52.61,1.03.91,1.54,2.86,8.22,1.92,17.17,1.89,25.73-.03,7.97,1.4,17.52-2.06,24.96l-1.01,1.58c-.75.9-1.8,1.4-2.82,1.91,0,1.12.23,2.13.48,3.13,1.1,6.37,2.2,12.75,3.29,19.12.65,3.96,1.3,7.91,1.95,11.86-.71.27-1.3.07-1.89.08ZM390.07,62.55v5.07h8.57c.94,0,1.89.16,2.81-.11v-9.88h-11.36c0,.89,0,1.71,0,2.54,0,.79-.01,1.58-.02,2.38Z"/>
    <path class="cls-2"
          d="M118.34,122.33v2.95c-.75.37-1.49.09-2.17.24l-.73.02h-7.97v-39.25s-.1,0-.15,0l-2.74,13.35c-1.1,5.1-2.23,10.2-3.28,15.31-.58,2.85-1.78,5.43-3.18,7.94-.97.79-1.8,1.75-2.94,2.33-7.43,1.79-9.02-10.08-10.01-14.79-1.69-8.12-3.35-16.24-5.03-24.36-.04,5.49-.34,10.95-.05,16.4-.27.44-.14.93-.15,1.4-.02,6.69-.02,13.39-.03,20.08,0,.39,0,.79,0,1.18-.75.35-1.48.07-2.17.23-.24.01-.48.02-.73.03-6.05-.11-12.11-.22-18.21-.33-1.81-15.82-3.6-31.51-5.4-47.2-.68,4.34-1.36,8.66-1.65,13.04-.72,3.36-.92,6.79-1.35,10.18-.89,7.04-1.7,14.09-2.56,21.14-.11.9-.04,1.84-.45,2.79-.47.03-.98.07-1.49.1-.34,0-.67.02-1.01.02-5.55-.23-11.16.08-16.73.03-2.77-.03-5.54-.06-8.31-.06-2.41,0-5.16.41-7.54-.08-8.94-1.86-7.1-18-7.09-24.44.02-11.17.03-22.33.04-33.5.01-10.69-1.29-21.97,2.87-32.04,0,0-.01.03-.01.03.06-.05.12-.1.18-.15,1.53-2.42,3.73-3.08,6.54-3.02,7.46.17,14.93.09,22.39.11.47,0,.96-.11,1.43.16v24.18c-.79.04-1.46.07-2.13.1-.25,0-.5,0-.75,0h-19.47v2.54c0,.8,0,1.59,0,2.39-.03,13.14-.08,26.27-.08,39.41,6.98,0,13.83,0,20.68,0,.53.13,1.11-.12,1.7.23v5.71c2.38-12.09,3.06-24.72,4.54-36.95.75-6.24,1.51-12.48,2.26-18.73.65-5.39.81-11.16,3.53-16.01,10.33-11.62,12.23,15.37,12.81,20.68,1.34,12.26,2.2,24.84,4.39,36.97.69,8.04,1.77,16.02,2.77,24.02.07-.13.06-.24.06-.36.04-23.46.07-46.92.15-70.38.01-3.75.77-7.38,2.56-10.73,2.65-4.48,6.21-3.79,8.46.52,1.72,3.28,2.1,6.94,2.83,10.48,3.18,15.43,6.3,30.88,9.44,46.32.02.11.11.21.16.31.34,1.84.68,3.68,1.07,5.78.17-.58.3-.91.37-1.25,3.29-15.78,6.53-31.57,9.89-47.33,1.06-4.98,1.52-10.12,3.81-14.79,5.65-6.85,8.98,1.17,10.5,6.77,1.25,13.07.22,26.65.19,39.78-.04,13.51-.07,27.01-.1,40.52Z"/>
    <path class="cls-2"
          d="M221.43,120.15c-.89.9-1.15,2.16-1.86,3.17-.17.13-.34.27-.23.53v-.02c-.9.47-1.54,1.36-2.53,1.72-6.68,0-13.36-.14-20.03.08-3.29.11-5.15-1.38-6.47-4.09-1.96-4.02-2.44-8.32-2.43-12.71.03-18.36.07-36.72.06-55.08,0-6.25-.03-12.49,2.9-18.26,2.43-2.76,3.94-3.08,7.6-3.05,3.8.03,7.61.05,11.41.04,2.77,0,6.27-.68,8.62,1.11,2.59,1.97,3.33,5.72,4.2,8.66,1.52,12.83.63,26.33.44,39.24-.19,12.69,1.6,26.28-1.66,38.68ZM198.99,59.46c0,.8,0,1.59,0,2.39-.4,6.47-.05,13.06-.06,19.54,0,6.49-.69,13.4.08,19.84h13.05v-44.27h-13.06v2.5Z"/>
    <path class="cls-2"
          d="M413.44,36.02v-2.42c.59-.35,1.08-.22,1.54-.22,7.79,0,15.58.09,23.37,0,2.72-.03,4.44,1.12,5.68,3.39,2,3.67,2.75,7.67,2.78,11.77.07,9.95.04,19.9-.03,29.85-.03,4.27-.59,8.45-3.06,12.13-.75.9-1.8,1.4-2.82,1.91,0,1.12.23,2.13.48,3.13,1.73,10.33,3.49,20.65,5.26,30.97-1.05.36-2.06-.25-3.01.17-.11,0-.23.02-.34.02h-7.59c-2.01-11.73-3.97-23.11-5.92-34.51h-5.44v2.54c0,.79,0,1.59,0,2.38-.03,9.73-.07,19.46-.07,29.19-.77.36-1.51.07-2.2.24-.24,0-.48.01-.72.02h-8.08c0-30.18.08-60.37.17-90.55ZM424.39,62.79v5.07h8.57c.94,0,1.89.16,2.81-.11v-9.88h-11.36c0,.89,0,1.71,0,2.54,0,.79-.01,1.58-.02,2.38Z"/>
    <path class="cls-2"
          d="M187.18,124.56c-.02.34-.04.68-.06,1.04-1,.26-1.99-.29-2.92.12-.11,0-.23.02-.34.02h-7.59c-2.01-11.73-3.97-23.11-5.92-34.51h-5.44c0,.89,0,1.72,0,2.54,0,.79,0,1.59,0,2.38-.03,9.73-.07,19.46-.07,29.19-.77.36-1.51.07-2.2.24-.24,0-.48.01-.72.02h-8.08c0-30.18.09-60.37.17-90.55,0-.83,0-1.66,0-2.42.58-.35,1.07-.22,1.54-.22,7.82,0,15.65.09,23.47,0,2.61-.03,4.3,1.09,5.52,3.25.97,1.71,1.49,3.59,2.17,5.41,1.15,8.11.71,16.37.7,24.55,0,7.24,1.3,16.22-2.4,22.81-.24.37-.47.74-.71,1.11-.75.9-1.8,1.4-2.82,1.91,0,1.12.23,2.13.48,3.13,1.01,5.89,2.03,11.78,3.04,17.66.63,3.7,1.27,7.4,1.9,11.1.03.2.06.4.09.61.01.23-.05.49.22.62h-.02ZM164.95,61.83v5.07h8.57c.94,0,1.89.16,2.81-.11v-9.88h-11.36c0,.89,0,1.71,0,2.54l-.02,2.38Z"/>
    <path class="cls-2"
          d="M235.39,93.13c-1.04,10.63-.17,21.77-.17,32.46-.74.36-1.48.07-2.17.23-.24.01-.48.02-.73.03h-8.04c0-15.23.05-30.46.08-45.68.01-7.79.03-15.58.04-23.37.01-7.3-.41-14.37,2.64-21.18,6.71-7.77,9.86,3.29,11.21,8.92.91,3.8,1.81,7.61,2.72,11.41.5,2.11,1.01,4.23,1.51,6.34.32,1.34.38,4.3,1.42,5.23.62,4.01,1.8,7.9,2.76,11.84.47-14.65.16-29.35.2-44,.04-.83.08-1.67.12-2.59h10.62c.35.47.2.96.2,1.42-.02,22.77-.04,45.54-.06,68.31,0,.52.02,1.04.03,1.56-.01,1.08-.05,2.15-.03,3.23.08,4.72-.09,9.41-1.89,13.88-.49.87-.98,1.75-1.47,2.62-.75.81-1.53,1.59-2.6,1.99-3.62.57-5.6-3.24-6.49-6.14-1.33-4.33-2.2-8.86-3.25-13.27-2.16-9.03-4.27-18.06-6.49-27.08-.98,4.1-.71,9.65-.16,13.82Z"/>
    <path class="cls-2"
          d="M122.88,35.17c2.64-4.34,8.72-2.98,12.97-2.95,5.83.04,11.72-.24,17.54.15,0,.94,0,1.81,0,2.68,0,7.16,0,14.33,0,21.52-.88.06-1.55.1-2.22.14-.25-.01-.5-.03-.75-.04h-19.52v2.53c0,.8-.01,1.59-.02,2.39v4.98h16.94v24.41h-2.1c-.24,0-.48,0-.72,0h-14.15v2.54c0,.8,0,1.59,0,2.39,0,1.66,0,3.31,0,5.09h20.16c.7.13,1.43-.12,2.09.17v24.12c-.25.05-.41.1-.56.1-8.64-.03-17.28-.06-25.92-.09-1.11,0-1.98-.54-2.75-1.29-.96-.95-1.58-2.11-2.11-3.32-1.59-3.67-2-7.54-1.98-11.49.06-20.2.12-40.4.15-60.59,0-4.7.7-9.24,2.96-13.43Z"/>
    <path class="cls-2"
          d="M258.72,104.09c.04-.83.07-1.65.12-2.6,12.24,0,24.4,0,36.55,0,.56.15,1.19-.15,1.69.2v24.21c-.64.03-1.18.06-1.73.09-.13-.01-.26-.03-.39-.04-.24.01-.48.03-.72.04h-35.51v-21.9Z"/>
    <path class="cls-1"
          d="M122.88,35.17c-2.26,4.2-2.95,8.73-2.96,13.43-.03,20.2-.09,40.4-.15,60.59-.01,3.95.4,7.82,1.98,11.49.53,1.21,1.15,2.38,2.11,3.32.76.75,1.63,1.29,2.75,1.29,8.64.03,17.28.06,25.92.09.15,0,.31-.05.56-.1v-24.12c-.66-.29-1.4-.04-2.09-.17,0-3.87.02-7.74.02-11.61,0-9.25.02-18.5.02-27.76.29-1.64.04-3.29.13-4.93.67-.04,1.34-.09,2.22-.14,0-7.19,0-14.36,0-21.52.21,0,.41,0,.62,0-.09,30.18-.17,60.37-.17,90.55,2.75,0,5.42,0,8.08,0,0,.82.13,1.65-.13,2.6h-10.1c-.22-.01-.44-.02-.66-.03-.19-.89.17-1.86-.32-2.88-.83.84-.14,1.83-.67,2.68-6.14,0-12.28-.06-18.41-.05-2.58,0-5.85.53-8.37-.13-2.08-.55-3.05-2.17-4.2-3.85,0,0,0,.02,0,.02.03-.26-.05-.48-.25-.66-.15-.33-.3-.65-.46-.98.03-13.51.06-27.01.1-40.52.04-13.13,1.06-26.7-.19-39.78.67-2.17,1.52-4.24,3.15-5.89.42-.43.89-.78,1.47-.97Z"/>
    <path class="cls-1"
          d="M8.17,35.03c-4.16,10.07-2.86,21.36-2.87,32.04-.01,11.17-.03,22.33-.04,33.5,0,6.44-1.85,22.58,7.09,24.44,2.38.49,5.13.08,7.54.08,2.77,0,5.54.03,8.31.06,5.56.05,11.17-.26,16.73-.03-.03.83-.09,1.66-.4,2.58-.37,0-.76,0-1.15,0-10.21,0-20.42-.1-30.63.06-3.36.05-6.18-.37-7.82-3.66-.01-.02-.08-.01-.11-.02,0,0,0,.01,0,.01.07-.33.02-.59-.35-.7-1.81-4.74-2.12-9.67-2.1-14.69.1-19.17.08-38.35.12-57.52,0-4.22.48-8.37,2.34-12.24.76-1.58,1.62-3.13,3.35-3.9Z"/>
    <path class="cls-1"
          d="M295.34,125.99c.55-.03,1.09-.06,1.73-.09v-24.21c-.5-.34-1.13-.05-1.69-.2.02-17.69-.03-35.39.1-53.08.03-3.86.96-7.64,3.28-10.91.51-.72,1.03-1.41,2-1.51-3.13,6.44-2.46,13.86-2.45,20.8.01,7.83,0,15.66-.01,23.48-.03,15.31-.17,30.62-.17,45.93,2.69,0,5.3,0,7.91,0,.4.79.21,1.58.09,2.48h-10.07c-.24-.05-.48-.1-.72-.16,0,0,0-.03,0-.03,0-.83,0-1.67.01-2.5Z"/>
    <path class="cls-1"
          d="M186.89,123.34c-.63-3.7-1.27-7.4-1.9-11.1,0-7.94,0-15.87.01-23.81,3.71-6.58,2.39-15.56,2.4-22.81.01-8.18.45-16.44-.7-24.55.79-1.77,1.52-3.59,3.05-4.91.32-.28.73-.47,1.09-.7-2.93,5.78-2.9,12.01-2.9,18.26.01,18.36-.03,36.72-.06,55.08,0,4.4.47,8.69,2.43,12.71,1.32,2.71,3.18,4.2,6.47,4.09,6.67-.21,13.36-.07,20.03-.08-1.05,1.78-2.49,2.73-4.68,2.69-5.26-.1-10.53-.16-15.8-.01-3.59.1-6.96.05-8.9-3.67h0c.04-.5-.14-.91-.56-1.21Z"/>
    <path class="cls-1"
          d="M379.12,35.78c-.04,12.23-.08,24.45-.11,36.68-.03,14.15-.03,28.29-.05,42.44,0,.71,0,1.41-.09,2.12-.91-8.45-2.21-16.86-2.81-25.34.11-18.64.1-37.27.1-55.91h2.95Z"/>
    <path class="cls-1"
          d="M71.72,35.24c-1.79,3.35-2.54,6.99-2.56,10.73-.08,23.46-.11,46.92-.15,70.38,0,.12.02.23-.06.36-1-8-2.09-15.99-2.77-24.02.02-14.21.04-28.42.07-42.63,0-4.23.5-8.37,2.62-12.13.65-1.16,1.31-2.41,2.84-2.68Z"/>
    <path class="cls-1"
          d="M413.44,36.02c-.09,30.18-.17,60.37-.17,90.55,2.75,0,5.42,0,8.08,0,0,.82.13,1.65-.13,2.6h-10.1c-.2-.03-.39-.05-.69-.09,0-.9,0-1.8,0-2.7.59-.01,1.18.19,1.89-.08-.65-3.95-1.3-7.91-1.95-11.86.02-4.87.05-9.74.06-14.61,0-3.71,0-7.42,0-11.13,3.46-7.44,2.03-16.99,2.06-24.96.03-8.57.97-17.51-1.89-25.73v-1.97h2.85Z"/>
    <path class="cls-1"
          d="M51.78,90.89c.29-4.38.97-8.7,1.65-13.04,1.79,15.69,3.59,31.38,5.4,47.2,6.1.11,12.16.22,18.21.33,0,.82,0,1.64,0,2.51-6.88,0-13.77-.28-20.65-.09-1.25-.13-2.19-15.49-2.41-17.41-.75-6.5-1.48-12.99-2.2-19.49Z"/>
    <path class="cls-1"
          d="M361.86,92.09c.29-4.37.97-8.7,1.65-13.04,1.8,15.71,3.59,31.43,5.41,47.29,6.09,0,12.07,0,18.05,0,0,.82,0,1.64,0,2.55-6.83,0-13.67.06-20.5.1-1.24-.13-2.19-15.49-2.41-17.41-.75-6.5-1.48-12.99-2.2-19.49Z"/>
    <path class="cls-1"
          d="M359.06,36.22c-3.01,5.42-3.01,11.92-3.76,17.92-.89,7.13-1.74,14.27-2.58,21.41-1.65,13.94-3.32,27.87-5,41.8,0-7.06,0-14.2,0-21.34,1.3-10.82,2.59-21.64,3.89-32.47.64-5.3,1.19-10.62,1.92-15.92.5-3.6,1.58-9.92,5.53-11.41Z"/>
    <path class="cls-1"
          d="M227.04,35.62c-3.05,6.81-2.63,13.88-2.64,21.18-.02,7.79-.03,15.58-.04,23.37-.03,15.23-.08,30.46-.08,45.68,2.73,0,5.39,0,8.04,0,0,.82,0,1.64,0,2.59h-10.25c-.69.05-.72-.39-.71-.92.04-2.46.05-4.92.07-7.38,3.27-12.4,1.47-25.99,1.66-38.68.19-12.91,1.08-26.4-.44-39.24.67-2.12,1.46-4.18,3.11-5.77.36-.35.85-.56,1.28-.84Z"/>
    <path class="cls-1"
          d="M48.98,35.02c-2.72,4.85-2.88,10.62-3.53,16.01-.75,6.24-1.51,12.48-2.26,18.73-1.47,12.23-2.16,24.87-4.54,36.95v-5.71c-.59-.35-1.17-.1-1.7-.23,1.4-11.73,2.79-23.45,4.2-35.17.69-5.71,1.35-11.43,2.04-17.14.51-4.13,1.21-11.58,5.79-13.43Z"/>
    <path class="cls-1"
          d="M235.39,93.13c-.55-4.17-.81-9.71.16-13.82,2.22,9.01,4.32,18.05,6.49,27.08,1.05,4.4,1.92,8.94,3.25,13.27.89,2.9,2.87,6.71,6.49,6.14-1.97,3.3-4.78,3.58-7.3.71-.41-.47-.74-1-1.11-1.5-1.96-5.15-2.88-10.59-4.16-15.93-1.23-5.13-3.48-10.69-3.83-15.95Z"/>
    <path class="cls-1"
          d="M333.79,100.35c.91-4.45,1.83-8.9,2.74-13.35.05,0,.11,0,.16.01v39.31h18.31c-.05.83-.04,1.67-.41,2.58-6.69,0-13.39-.02-20.08-.03-1.4.04-.71-11.86-.71-13.36,0-5.05.11-10.11-.02-15.16Z"/>
    <path class="cls-1"
          d="M424.35,94.74v-2.54h5.44c1.96,11.4,3.91,22.78,5.92,34.51,2.52,0,5.05,0,7.59,0,.13.78.26,1.56.42,2.53h-10.6c-.79-.94-.66-2.15-.85-3.24-1.67-9.54-3.28-19.09-4.92-28.64-.01-.08-.06-.14-.1-.22-.05-.78-.08-1.56-.48-2.4h-2.43Z"/>
    <path class="cls-1"
          d="M164.91,93.78v-2.54h5.44c1.96,11.4,3.91,22.78,5.92,34.51,2.52,0,5.05,0,7.59,0,.13.78.26,1.56.42,2.53h-10.6c-.79-.94-.66-2.15-.85-3.24-1.67-9.54-3.28-19.09-4.92-28.64-.01-.08-.06-.15-.1-.22-.05-.78-.08-1.56-.48-2.4h-2.43Z"/>
    <path class="cls-1"
          d="M390.03,94.5v-2.54h5.44c1.96,11.4,3.91,22.78,5.92,34.51,2.52,0,5.05,0,7.59,0,.13.78.26,1.56.42,2.53h-10.6c-.79-.94-.66-2.15-.85-3.24-1.67-9.54-3.28-19.09-4.92-28.64-.01-.08-.06-.14-.1-.22-.05-.78-.08-1.56-.48-2.4h-2.43Z"/>
    <path class="cls-1"
          d="M107.76,35.27c-2.29,4.66-2.75,9.81-3.81,14.79-3.36,15.76-6.6,31.55-9.89,47.33-.07.34-.2.67-.37,1.25-.39-2.09-.73-3.94-1.07-5.78,2.17-10.25,4.34-20.5,6.48-30.76,1.09-5.2,2.17-10.4,3.26-15.6.68-3.23,1.39-10.12,5.4-11.24Z"/>
    <path class="cls-1"
          d="M336.96,35.99c-2.29,4.66-2.75,9.81-3.81,14.79-3.36,15.76-6.6,31.55-9.89,47.33-.07.34-.2.67-.37,1.25-.39-2.09-.73-3.94-1.07-5.78,2.17-10.25,4.34-20.5,6.48-30.76,1.09-5.2,2.17-10.4,3.26-15.6.68-3.23,1.39-10.12,5.4-11.24Z"/>
    <path class="cls-1"
          d="M258.72,104.09v21.9h35.51v2.47c-12.55,0-25.1-.01-37.65-.02-.19-.03-.39-.06-.73-.11,0-2.38,0-4.77,0-7.16,1.8-4.47,1.97-9.16,1.89-13.88-.02-1.08.02-2.15.03-3.23.32,0,.63.01.94.02Z"/>
    <path class="cls-1"
          d="M309.31,103.17c-.29-5.45,0-10.91.05-16.4,1.68,8.12,3.33,16.24,5.03,24.36.98,4.71,2.58,16.58,10,14.79-2.31,3.56-5.97,3.72-8.53.38-.5-.65-.99-1.31-1.48-1.97h0c.04-.27-.02-.48-.36-.49-2.3-6.72-3.17-13.77-4.72-20.66Z"/>
    <path class="cls-1"
          d="M80.11,102.45c-.29-5.45,0-10.91.05-16.4,1.68,8.12,3.33,16.24,5.03,24.36.98,4.71,2.58,16.58,10,14.79-2.31,3.56-5.97,3.72-8.53.38-.5-.65-.99-1.31-1.48-1.97h0c.04-.27-.02-.48-.36-.49-2.3-6.72-3.17-13.77-4.72-20.66Z"/>
    <path class="cls-1"
          d="M104.59,99.63l2.74-13.35s.1,0,.15,0v39.25c2.72,0,5.34,0,7.97,0,0,.82,0,1.64,0,2.61h-10.13c-1.4.04-.71-11.86-.71-13.36,0-5.05.11-10.11-.02-15.16Z"/>
    <path class="cls-1"
          d="M246.86,35.37c-.04,14.65.27,29.36-.2,44-.96-3.95-2.15-7.83-2.76-11.84,0-10.68,0-21.36,0-32.16h2.96Z"/>
    <path class="cls-3"
          d="M4.8,124.07s.1,0,.11.02c1.64,3.29,4.47,3.71,7.82,3.66,10.21-.16,20.42-.06,30.63-.06.39,0,.78,0,1.15,0,.32-.91.37-1.74.4-2.58.34,0,.67-.02,1.01-.02-.17,1.62-.35,3.25-.54,5.01-7.86,0-15.71-.03-23.57-.01-5.44.01-16.26,2.21-17.03-6.02Z"/>
    <path class="cls-3"
          d="M256.58,128.44c12.55,0,25.1.02,37.65.02v-2.47c.24-.01.48-.03.72-.04,0,1.62,0,3.25,0,4.86h-38.37v-2.37Z"/>
    <path class="cls-3"
          d="M119.03,123.95c1.16,1.68,2.12,3.3,4.2,3.85,2.52.66,5.79.14,8.37.13,6.14-.01,12.28.05,18.41.05.53-.85-.16-1.84.67-2.68.48,1.02.13,1.99.32,2.88,0,.71,0,1.42,0,2.22-6.51,0-13.03-.08-19.54-.06-5.19.02-11.7.63-12.43-6.38Z"/>
    <path class="cls-3"
          d="M187.44,124.55c1.94,3.72,5.31,3.77,8.9,3.67,5.26-.15,10.53-.08,15.8.01,2.19.04,3.63-.91,4.68-2.69.99-.36,1.63-1.25,2.54-1.72-.54,2.6-2.19,5.96-4.97,6.71-3.26.88-7.74.07-11.13.06-3.42,0-7.26.52-10.62-.05-2.82-.48-4.58-3.38-5.19-6Z"/>
    <path class="cls-3"
          d="M366.47,129c6.83-.05,13.67-.1,20.5-.1,0-.91,0-1.73,0-2.55.26-.01.52-.02.78-.04,0,1.63,0,3.26,0,4.99h-20.96c-.1-.75-.21-1.52-.32-2.3Z"/>
    <path class="cls-3"
          d="M334.51,128.86c6.69.01,13.39.03,20.08.03.37-.9.36-1.74.41-2.58.35,0,.7,0,1.04,0-.19,1.62-.38,3.24-.57,4.89h-20.96v-2.33Z"/>
    <path class="cls-3"
          d="M56.39,127.8c6.87-.19,13.77.09,20.65.09,0-.87,0-1.69,0-2.51.24-.01.48-.02.73-.03,0,1.63,0,3.25,0,4.95-7.08.24-14.03-.31-21.04-.14-.13-.87-.23-1.61-.34-2.35Z"/>
    <path class="cls-3"
          d="M16.35,61.36c0-.8,0-1.59,0-2.39,6.44,0,12.88,0,19.47,0v-2.54c.25,0,.5,0,.75,0,0,1.63,0,3.25,0,4.92h-20.22Z"/>
    <path class="cls-3"
          d="M314.38,124.32c.49.66.98,1.32,1.48,1.97,2.56,3.34,6.23,3.18,8.53-.38,1.13-.58,1.97-1.54,2.94-2.33-.67,3-2.77,7.16-6.27,7.58-3.49.41-5.97-4.05-6.68-6.84Z"/>
    <path class="cls-3"
          d="M85.18,123.6c.49.66.98,1.32,1.48,1.97,2.56,3.34,6.23,3.18,8.53-.38,1.13-.58,1.97-1.54,2.94-2.33-.67,3-2.77,7.16-6.27,7.58-3.49.41-5.97-4.05-6.68-6.84Z"/>
    <path class="cls-3"
          d="M173.69,128.27h10.6c-.16-.97-.29-1.75-.42-2.53.11,0,.23-.02.34-.02.27,1.6.54,3.21.83,4.9h-10.92c-.15-.81-.28-1.58-.42-2.35Z"/>
    <path class="cls-3"
          d="M433.13,129.23h10.6c-.16-.97-.29-1.75-.42-2.53.11,0,.23-.02.34-.02.27,1.6.54,3.21.83,4.9h-10.92c-.15-.81-.28-1.58-.42-2.35Z"/>
    <path class="cls-3"
          d="M398.81,128.99h10.6c-.16-.97-.29-1.75-.42-2.53.11,0,.23-.02.34-.02.27,1.6.54,3.21.83,4.9h-10.92c-.15-.81-.28-1.58-.42-2.35Z"/>
    <path class="cls-3"
          d="M151.67,128.2h10.1c.27-.95.13-1.78.13-2.6.24,0,.48-.01.72-.02,0,1.63,0,3.25,0,4.93h-10.96v-2.31Z"/>
    <path class="cls-3"
          d="M222.07,128.44h10.25c0-.95,0-1.77,0-2.59.24-.01.48-.02.73-.03,0,1.63,0,3.25,0,4.93h-10.97v-2.31Z"/>
    <path class="cls-3"
          d="M411.11,129.16h10.1c.27-.95.13-1.78.13-2.6.24,0,.48-.01.72-.02,0,1.63,0,3.25,0,4.93h-10.96v-2.31Z"/>
    <path class="cls-3"
          d="M105.31,128.14h10.13c0-.97,0-1.79,0-2.61.24,0,.48-.01.73-.02,0,1.6,0,3.19,0,4.89h-10.76c-.27-.76,0-1.52-.09-2.26Z"/>
    <path class="cls-3"
          d="M296.06,128.69h10.07c.12-.9.31-1.7-.09-2.48.27-.31.61-.14.93-.14,0,1.62,0,3.24,0,4.93h-10.91v-2.31Z"/>
    <path class="cls-3"
          d="M243.37,125.01c.37.5.7,1.03,1.11,1.5,2.51,2.87,5.32,2.58,7.3-.71,1.06-.4,1.85-1.18,2.6-1.99-.59,2.58-2.19,6.63-5.22,7.05-3.04.42-5.27-3.29-5.78-5.84Z"/>
    <path class="cls-3" d="M424.35,94.74h2.43c.41.84.43,1.62.48,2.4-.97,0-1.95-.01-2.92-.02,0-.79,0-1.59,0-2.38Z"/>
    <path class="cls-3" d="M390.03,94.5h2.43c.41.84.43,1.62.48,2.4-.97,0-1.95-.01-2.92-.02,0-.79,0-1.59,0-2.38Z"/>
    <path class="cls-3" d="M164.91,93.78h2.43c.41.84.43,1.62.48,2.4-.97,0-1.95-.01-2.92-.02,0-.79,0-1.59,0-2.38Z"/>
    <path class="cls-3"
          d="M441.39,95.54c-.25-1-.47-2.01-.48-3.13,1.02-.51,2.06-1.01,2.82-1.91-.39,1.86-1.06,3.59-2.34,5.04Z"/>
    <path class="cls-3"
          d="M186.89,123.34c.42.3.6.71.56,1.22-.09,0-.18,0-.26,0,0,0,.02.01.02.01,0-.24,0-.47-.22-.62-.03-.2-.06-.4-.09-.61Z"/>
    <path class="cls-3" d="M4.45,123.39c.37.1.42.37.35.7-.33-.13-.24-.46-.35-.7Z"/>
    <path class="cls-3" d="M84.83,123.12c.34,0,.4.22.36.5-.31-.03-.25-.32-.36-.5Z"/>
    <path class="cls-3" d="M118.8,123.31c.2.18.27.4.25.66-.25-.16-.26-.4-.25-.66Z"/>
    <path class="cls-3" d="M314.03,123.84c.34,0,.4.22.36.5-.31-.03-.25-.32-.36-.5Z"/>
    <path class="cls-3" d="M219.35,123.85c-.11-.26.06-.39.23-.53,0,.21.03.43-.23.53Z"/>
    <path class="cls-1" d="M8.33,34.9c-.06.05-.12.1-.18.15.05-.07.11-.12.18-.15Z"/>
    <polygon class="cls-2" points="295.33 128.5 295.34 128.53 295.28 128.52 295.33 128.5"/>
    <path class="cls-1"
          d="M390.09,60.18v-2.54h11.36v9.88c-.92.27-1.87.1-2.81.11-.01-1.67-.02-3.34-.04-5.02.02-.78.16-1.57-.13-2.43h-8.38Z"/>
    <path class="cls-3"
          d="M398.6,62.61c-2.85-.02-5.69-.04-8.54-.05,0-.79.01-1.58.02-2.38,2.79,0,5.57,0,8.38,0,.29.86.15,1.65.13,2.43Z"/>
    <path class="cls-3"
          d="M409.41,90.26c-.39,1.86-1.06,3.59-2.34,5.04-.25-1-.47-2.01-.48-3.13,1.02-.51,2.06-1.01,2.82-1.91Z"/>
    <path class="cls-1" d="M35.82,56.44v2.54c-6.59,0-13.03,0-19.47,0,0-.8,0-1.59,0-2.54h19.47Z"/>
    <path class="cls-1"
          d="M209.22,101.22c.02-12.71.04-25.42.05-38.13,0-.4-.02-.8-.03-1.2.03-.78.14-1.56-.11-2.44h-10.14v-2.5h13.06v44.27h-2.83Z"/>
    <path class="cls-3" d="M198.99,59.46h10.14c.25.88.14,1.67.11,2.44-3.42-.02-6.83-.04-10.25-.06,0-.8,0-1.59,0-2.39Z"/>
    <path class="cls-1"
          d="M424.41,60.42v-2.54h11.36v9.88c-.92.27-1.87.1-2.81.11-.01-1.67-.02-3.34-.04-5.02.02-.78.16-1.57-.13-2.43h-8.38Z"/>
    <path class="cls-3"
          d="M432.92,62.85c-2.85-.02-5.69-.04-8.54-.05,0-.79.01-1.58.02-2.38,2.79,0,5.57,0,8.38,0,.29.86.15,1.65.13,2.43Z"/>
    <path class="cls-1"
          d="M164.97,59.46v-2.54h11.36v9.88c-.92.27-1.87.1-2.81.11-.01-1.67-.02-3.34-.04-5.02.02-.78.16-1.57-.13-2.43h-8.38Z"/>
    <path class="cls-3"
          d="M173.48,61.89c-2.85-.02-5.69-.04-8.54-.05,0-.79.01-1.58.02-2.38,2.79,0,5.57,0,8.38,0,.29.86.15,1.65.13,2.43Z"/>
    <path class="cls-3"
          d="M184.29,89.54c-.39,1.86-1.06,3.59-2.34,5.04-.25-1-.47-2.01-.48-3.13,1.02-.51,2.06-1.01,2.82-1.91Z"/>
    <path class="cls-1" d="M130.89,59.21v-2.53c6.58,0,13.05,0,19.52,0,0,.83,0,1.65,0,2.53h-19.52Z"/>
    <path class="cls-3"
          d="M130.89,59.21h19.52c0-.88,0-1.71,0-2.53.25.01.5.03.75.04-.09,1.64.16,3.3-.13,4.93-6.72-.02-13.44-.04-20.16-.05,0-.8.01-1.59.02-2.39Z"/>
    <path class="cls-3"
          d="M145.7,90.98v4.94c-5.03,0-9.95,0-14.88,0,0-.8,0-1.59,0-2.39,4.7,0,9.39,0,14.15,0v-2.54c.24,0,.48,0,.72,0Z"/>
    <path class="cls-1" d="M144.98,90.99v2.54c-4.76,0-9.46,0-14.15,0,0-.82,0-1.65,0-2.54h14.15Z"/>
</svg>