<?xml version="1.0" encoding="UTF-8"?>
<svg id="silhouette_female_Image" xmlns="http://www.w3.org/2000/svg" viewBox="0 0 768 768.75">
    <defs>
        <style>.cls-1{stroke-width:0px;}</style>
    </defs>
    <path class="cls-1"
          d="M750.75,768.75H18.75c-.19-6.32,1.35-12.37,2.85-18.42,6.13-24.86,20.3-43.53,43.34-54.88,21.92-10.79,45.67-14.88,69.7-17.57,9.67-1.08,19.39-1.78,28.69-4.99,28.51-9.84,55.14-23.35,80.01-40.43,20.47-14.06,33.61-33,39.86-57.03,5.3-20.35,7.09-41,6.97-61.94-.02-4.18-1.17-7.36-4.21-10.27-16.83-16.14-27.21-35.86-32.01-58.6-1.19-5.62-2.46-11.21-3.71-16.81-.13-.6-.39-1.41-1.01-1.38-.73.03-.74.9-.77,1.51-.25,4.29-1.38,8.41-3.04,12.3-1.26,2.95-1.02,5.42.35,8.18,3.69,7.41,8.5,14.12,12.83,21.13,4.07,6.58,6.77,13.7,6.9,21.49.06,3.62.81,6.35,4.35,7.83.42.17.7.67,1.04,1.02-.57.52-1.17.31-1.68-.02-3.18-2.07-3.57-.13-3.97,2.49-.85,5.49-2.75,10.61-6.1,15.14-2.7,3.67-2.67,3.73.76,6.72,4.96,4.31,9.36,9.12,11.66,15.37,5.34,14.5,1.07,27.03-8.69,38.02-5.08,5.72-11.83,8.17-19.57,7.54-1.23-.1-3.05.09-3.2-1.19-.1-.84,1.85-.46,2.88-.61,7.61-1.15,13.9-4.42,17.01-11.82,2.9-6.9,2.14-13.92-.34-20.85-.78-2.18-1.43-2.28-3.19-.68-7.83,7.14-16.3,7.75-25.33,2.19-4.4-2.71-7.56-6.55-10-10.94-3.55-6.39-6.23-13.32-12.29-17.98-.38-.29-.58-.81-.88-1.21-6.9-9.26-8.28-19.94-7.55-30.99.49-7.33,1.08-14.75,3.61-21.74,1.13-3.12-.07-4.24-2.79-5.08-15.34-4.71-26.99-13.77-33.49-28.79-.18-.41-.58-.72-.88-1.07-.4.47-.17.95-.02,1.41,2.22,6.66,4.88,13.08,9.1,18.79,5.26,7.12,11.41,13.22,19.08,17.74.85.5,2.63,1.09,2.04,2.05-.55.89-1.98-.38-2.92-.86-5.85-2.99-11.01-6.96-15.26-11.94-12.58-14.77-21.27-31.34-22.67-51.08-.16-2.3-1.08-3.79-2.82-5.32-9.15-8.05-15.05-18.04-16.25-30.28-.8-8.2-1.79-16.31-4.27-24.2-.29-.93-.26-1.98-.32-2.97-1.4-22.32,6.27-41.7,19.58-59.09,2.46-3.21,5.61-5.72,3.82-10.32-.08-.21-.03-.5.03-.74.08-.36.21-.7.33-1.05.17.3.42.57.49.89.1.48.02,1,.11,1.49.56,3.04,1.05,3.26,3.31,1.21,5.04-4.56,10.71-8.18,16.69-11.36,2.09-1.11,4.21-2.18,6.32-3.26,1.53-.78,2.38-1.53.07-2.47-.8-.32-1.5-.89-2.24-1.36-7.9-5.13-10.72-14.18-7.08-22.89.4-.96.7-1.82.41-2.86-2.29-8.32-1.56-16.56.72-24.76.51-1.83.7-3.69.1-5.54-3.57-10.99-2.14-21.67,1.95-32.2,3.87-9.96,10.07-18.36,17.56-25.84,1.95-1.95,3.05-3.93,3-6.83-.13-8.13,1.87-15.81,5.53-23.07,8.12-16.16,20.36-28.34,36.27-36.69,4.34-2.27,7.01-4.65,6.5-9.82-.15-1.55.42-3.21.81-4.78,1.04-4.23,2.71-8.11,6.79-10.31,6.51-3.51,13.25-2.75,20.01-.86.32.09.85.45.82.63-.09.74-.73.44-1.15.4-.87-.07-1.73-.24-2.59-.36-3.61-.5-7.23-.5-10.84-.12-.43.04-.81.49-1.21.75.29.13.58.34.88.37,5.85.63,11.54,2.02,17.21,3.51.61.16,1.41.43,1.71-.13.19-.36-.17-1.21-.53-1.64-1.33-1.61-1.5-3.66-2.2-5.5-1.13-2.97-.48-5.43,2.4-7.03,1.3-.72,1.93-1.75,2.45-3.11,2.64-6.87,7.79-11.19,14.59-13.56,5.78-2.01,11.75-2.1,17.77-1.2.88.13,2.21.53,2.55-.76.21-.82-.93-.96-1.52-1.38-.54-.38-1.65-.25-1.46-1.25.03-.15,1.44-.27,2.09-.04,4.29,1.49,6.9-.53,8.83-4.08.12-.22.26-.42.41-.62,15.66-21.11,44.66-20.2,59.39-2.39,3.19,3.86,6.38,7.68,8.96,11.98.27.45.58,1.36,1.33.66.36-.34-.15-.87-.46-1.26-.79-.97-1.57-1.94-2.28-2.96-.25-.36-.7-.88-.22-1.3.44-.39.92,0,1.31.3,1.16.94,2.4,1.81,3.46,2.85,2.07,2.03,3.86,2.32,5.83-.23,1.91-2.47,4.14-4.68,6.16-7.06,16.09-18.96,45.32-22.2,64.94-7.08,2.6,2,5.37,3.52,8.33,4.9,10.46,4.87,17.77,12.35,19.09,24.41.14,1.3.7,2.34,1.46,3.37,4.89,6.65,8.95,13.93,15.12,19.6.63.57,1,1.43,1.47,2.16,1.13,1.77,2.65,2.79,4.78,3.24,3.66.78,7.18,2.07,10.64,3.52,17.84,7.46,28.67,21.48,36.36,38.51,3.29,7.29,4.17,14.8,2.65,22.68-.73,3.81-4.1,6.93-3.68,10.67.43,3.88,2.5,7.67,2.74,11.61.28,4.72,2.22,8.12,5.49,11.39,3.86,3.87,6.92,8.62,5.41,14.43-1.14,4.41-.8,8.51.29,12.75.34,1.31.38,2.72.43,4.09.09,2.5-1.04,4.59-2.43,6.55-.34.48-.85,1.26-1.44.87-.81-.55.16-1.03.43-1.46,1.01-1.6,1.96-3.21,1.82-5.2-.03-.44.18-1.09-.5-1.17-.27-.03-.64.3-.88.55-1.75,1.82-3.66,3.37-6.1,4.22-.72.25-2.03,0-1.96,1.23.04.75,1.06.94,1.7,1.31,8.53,4.89,14.42,11.77,16.21,21.69.35,1.97,1.08,3.46,3.15,4.22,2.4.88,3.83,2.83,4.33,5.28.76,3.68,1.76,7.25,3.73,10.5.29.48.81,1.35.25,1.69-.8.49-1.18-.54-1.63-1.01-1.67-1.73-3.34-3.42-5.95-3.54-.75-.04-1.53.01-1.97.78-.49.85.09,1.49.63,1.94,4.34,3.66,7.89,7.96,10.9,12.76.67,1.08,1.86,1.6,3.09,2,1.3.42,2.59.92,3.83,1.5.39.19,1.53.82.7,1.16-3.43,1.42-.3,2.7.2,3.44,1.7,2.48,3.59,4.91,4.48,7.75,1,3.18,3.01,4.83,5.89,6.16,4.15,1.91,7.45,5.08,10.1,8.76,4.23,5.89,5.55,12.29,2.2,19.05-3.46,6.97-9.5,10.43-16.97,11.38-3.95.5-8,.34-11.87-.93-2.07-.68-2.79-.11-3.16,2.11-.48,2.92,1.26,4.4,2.97,6,6.32,5.9,12.36,12,16.46,19.78,6.42,12.18,3.4,26.78-7.44,34.94-1.23.92-2.31,2.28-4.13,2.14.66-1.41,2.13-1.9,3.23-2.79,8.05-6.52,11-15.06,7.97-23.89-2.76-8.03-9.52-12.62-15.63-17.73-.18-.15-.54-.31-.67-.23-.58.37-.12.82-.02,1.24,1.84,7.93.56,15.59-1.79,23.22-1.87,6.09-5.04,11.64-6.69,17.84-3.42,12.88-4.68,25.5-.63,38.69,3.28,10.66,18.38,17.97,27.04,14.24.42-.18,1.25-.84,1.53,0,.23.71-.74.87-1.24,1.17-6.64,3.88-13.27,3.73-19.89-.09-.63-.37-1.67-1.08-1.91-.88-.84.68,0,1.58.23,2.32,3.24,10.23,4.81,20.65,3.62,31.39-1.21,10.91-4.78,20.67-13.68,27.78-8.35,6.67-15.2,7.19-24.47,1.93-.4-.23-.85-.36-1.28-.54.22.39.37.88.69,1.17,2.51,2.34,4.21,5.25,5.8,8.23,6.31,11.84,2.54,24.19-4.96,32.57-.39.44-1.3,1.09-1.41.99-.69-.59.07-1.08.36-1.53,7.37-11.47,6.62-21.94-2.23-32.18-4.35-5.03-9.7-9.02-14.22-13.87-.98-1.05-1.89-3.08-3.23-2.69-1.28.37-1.11,2.55-1.42,3.97-3.36,15.39-9.11,29.58-22.59,38.83-5.29,3.63-6.98,8.38-8.14,13.92-.28,1.35-.45,2.72-.8,4.04-.25.95.21,2.63-1.6,2.34-1.35-.21-1.56-1.46-1.52-2.65.1-2.76.73-5.43,1.48-8.08,1.97-6.94,5.91-12.9,9.47-19.05.34-.58,1.18-1.4.58-1.93-.65-.57-1.31.39-1.8.85-10.52,9.94-18.95,20.8-15.69,36.65.12.59.33,1.62-.21,1.71-.86.13-1.05-.94-1.18-1.6-.88-4.3-1.3-8.63-.56-13.02,1.5-8.85,5.56-16.48,11.07-23.44,4.8-6.07,9.87-11.93,14.34-18.27,7.89-11.17,8.76-23.31,5.27-36.1-.12-.45-.35-.87-.53-1.3-.32.35-.69.68-.97,1.06-7.59,10.47-17.8,17.72-29.11,23.59-5.44,2.83-11.22,4.83-17.01,6.83-3.5,1.21-5.19,3.24-5.2,7.44-.1,22.69,1.7,45.12,7.76,67.09,4.61,16.7,12.32,31.58,25.01,43.67,7.91,7.54,16.66,13.93,25.72,19.97,18.69,12.46,38.58,22.55,59.51,30.67,13.47,5.22,27.67,6.26,41.82,7.65,18.87,1.86,37.16,6.13,54.82,13.03,17.57,6.87,32.26,17.43,42.45,33.61,8.37,13.3,11.9,28.17,13.78,43.54ZM552.84,432.52c-.55-.83.28-2.52-.66-2.59-1.07-.08-.73,1.6-1.15,2.46-.21.43-.27.95-.35,1.44-1.9,11.56-1.43,23.05,1.15,34.47.1.45.39.86.59,1.29.61-.43.36-1.08.34-1.62-.23-7.21,0-14.42-.6-21.64-.38-4.59-1.24-9.38.76-13.91.08,10.36,2.27,20.57,1.94,30.97-.12,3.7-.19,7.49.71,11.17.13.55.04,1.4.75,1.54.87.17.81-.75,1.04-1.27,1.58-3.66,3.14-7.32,4.38-11.12.62-1.91.33-3.26-.87-4.77-3.49-4.39-5.47-9.43-6.18-15.01-.49-3.81-.69-7.68-1.85-11.39ZM601.36,470.87c-.02-3.79-.6-7.35-1.64-10.84-2.52-8.49-7.25-15.81-12.12-23.1-6.02-9-12.52-17.78-15.37-28.51-.12-.46-.12-1.14-.71-1.09-.83.07-.67.9-.74,1.48-.92,7.67-1.95,15.33-2.72,23.02-1.09,10.97,1.23,21.09,8.02,29.99,4.83,6.33,9.35,6.93,15.57,2.07.4-.31.74-1.29,1.37-.64.49.51-.2,1.12-.52,1.61-2.7,4.13-8.37,6.27-13.55,5.06-4.7-1.09-8.91-3.24-12.6-6.3-1.32-1.1-1.97-1.38-2.49.55-1.21,4.49-3.63,8.47-5.53,12.66-.49,1.08-.9,1.92-.18,3.08,3.66,5.86,7.64,11.35,13.51,15.31,8.82,5.95,17.3,2.55,22.42-3.35,5.28-6.08,7.03-13.34,7.29-21ZM229.3,530.97c.37,0,.77-.07,1.12.01.75.18,1.76-.73,2.16.48.03.1-1.21.74-1.91.94-3.49,1.03-6.9.54-10.26-.65-1.2-.43-2.57-.7-1.81,1.22,3.08,7.8,7.01,15.01,15.42,18.29,6.45,2.51,12.77,1.64,18.75-1.56,4.01-2.15,4.34-3.86,1.79-7.3-2.01-2.7-4.17-5.29-6.16-8-1.83-2.48-4.07-4.14-7.06-5.18-7.54-2.62-14.13-6.74-19.07-13.21-3.66-4.8-6.51-10.02-8.57-15.68-.21-.58-.31-1.58-.86-1.47-.95.18-.46,1.22-.42,1.83.44,6.46.9,12.93,2.52,19.24,2.15,8.36,5.74,11.12,14.36,11.06ZM147.13,332.91c-.25,1.53.28,3.23.64,4.93,1.78,8.39,5.67,15.64,11.76,21.72,1.38,1.38,2.02,1.46,2.68-.61,1.34-4.17,2.1-8.22,1.6-12.76-2.08-18.64,1.45-36.24,10.92-52.54,2.38-4.1,4.74-8.21,7.08-12.32.36-.63.83-1.5.11-1.98-.55-.37-1.02.5-1.47.9-3.18,2.84-5.68,6.29-8.47,9.48-9.94,11.36-17.76,24.05-23.73,37.89-.7,1.61-1.36,3.23-1.11,5.29ZM173.85,410.02c-2.62-.6-1.46,1.24-1.18,2.32,4.12,15.84,11.44,29.99,22.54,42.07,2.45,2.67,5.43,4.76,8.46,6.75,1.36.9,2.44,1.13,3.16-.79,2.14-5.71,4.35-11.4,6.53-17.1.49-1.29.32-1.93-1.34-2.21-12.38-2.06-20.29-9.99-24.83-20.93-2.68-6.46-6.59-9.63-13.34-10.11ZM200.44,135.28c.23.5-.53,1.44.45,1.8.65.24,1.05-.52,1.51-.9,3.69-3.01,7.72-5.48,11.97-7.61,5.79-2.9,8.72-7.64,8.26-14.13-.51-7.1,2.13-12.87,6.75-18.01,3.56-3.96,7.84-6.92,12.37-9.6,1.4-.82,2.82-1.61,4.14-2.54,1.59-1.12,1.06-2.7.46-4.05-.52-1.16-1.33-.51-2.15-.08-13.12,6.92-24.36,16.08-32.96,28.22-5.68,8.02-10.02,16.68-10.8,26.9ZM258.78,498.77c.9-2.78-.47-4.87-3.32-6.54-2.24-1.31-4.27-3.02-6.27-4.71-6.02-5.08-11.62-10.57-15.95-17.22-.4-.61-.81-1.5-1.65-1.12-.59.27-.22,1.1-.11,1.69.68,3.67,1.18,7.38,2.04,11,2.85,11.99,8.68,22.5,16.32,32.06,2.73,3.42,3.02,3.31,5.13-.71,2.29-4.36,3.7-8.96,3.81-14.45ZM614,321.75c2.93.07,5.7-.6,8.42-1.59,9.15-3.34,13.38-12.36,9.99-21.45-2.29-6.14-6.81-10.31-12.35-13.53-.53-.3-1.19-.9-1.66-.47-.32.29-.26,1.18-.15,1.76.7,3.59.69,7.22.47,10.82-.5,8.04-3.12,15.08-9.87,20.12-1.27.95-3.1.92-3.95,2.48,1.67.5,3.31,1.1,5.01,1.46,1.33.28,2.72.27,4.09.39ZM141.98,357.86c.27,11.8,4.21,22.33,11.78,31.51.54.65,1.03,1.78,1.96,1.45.83-.29.78-1.47.84-2.34.55-7.48,2.06-14.8,3.95-22.03.42-1.6.08-2.55-.99-3.6-2.22-2.19-4.45-4.35-6.41-6.8-3.33-4.15-5.57-8.83-7.47-13.73-.21-.55-.17-1.52-.83-1.51-1.07.03-.62,1.13-.8,1.76-1.35,4.97-1.61,10.09-2.03,15.29ZM444.38,6.71c-11.11.22-21.67,4.92-29.81,14.75-.42.51-1.41,1.02-.9,1.75.29.41,1.04-.33,1.56-.61,6.16-3.41,12.58-5.95,19.72-6.37,1.33-.08,2.7-.58,3.91-1.17,7.1-3.41,14.58-3.94,22.25-3.15.55.06,1.21-.17,1.5.57-.48.08-.97.28-1.43.23-4.27-.4-8.43.63-12.63,1.08-.55.06-1.05.57-1.57.87.59.07,1.2.27,1.77.2,5.95-.7,11.9-1.17,17.87-.11.44.08,1.25.01,1.33-.2.29-.77-.52-1.01-.98-1.35-6.23-4.69-13.4-6.33-22.6-6.48ZM354.98,5.96c-2.42-.14-4.74.49-7.06.91-6.7,1.19-12.35,4.55-17.49,8.85-.35.29-.84,1.04-.75,1.14.46.54,1.12.34,1.69.1.69-.28,1.34-.66,2.04-.94,6.11-2.45,12.48-4.04,19.01-3.12,10.1,1.43,20.2,3.13,29.42,7.97.38.2.84.82,1.25.2.31-.47-.18-.92-.49-1.28-7.34-8.33-16.36-13.32-27.61-13.83ZM174.93,226.06c-.2,2.41.31,5.11.84,7.81.22,1.15.64,2.22,2.26,1.46,5.22-2.45,10.48-4.84,13.59-10.09.35-.58,3.49-3.05-.79-1.39-1.11.43-.36-.72-.13-1.01.63-.77,1.47-1.37,2.04-2.18,1.39-1.96.79-3.33-1.54-3.94-1.81-.47-3.59-1.03-5.38-1.57-.45-.14-.87-.64-1.32-.17-.08.08.25.67.5.91.35.34.83.55,1.21.86.41.34,1.18.46.9,1.23-.02.06-.9-.09-1.33-.27-2.93-1.19-5.61-2.72-7.35-5.51-.25-.4-.66-.69-.99-1.03-.14.42-.29.85-.43,1.27-1.42,4.3-2.17,8.71-2.09,13.61ZM574.65,393.43c.64,3.74,1.18,7.81,2.43,11.76,4.47,14.13,13.61,25.72,20.84,38.35.23.4.45.99.98.81.16-.05.18-.94.05-1.39-1.07-3.58-2.15-7.12-4.03-10.42-3.81-6.69-8.5-12.92-10.73-20.47-1.96-6.63-2.85-13.4-3.14-20.28-.04-1.05.4-2.45-.92-2.99-1.51-.62-5.51,2.62-5.47,4.62ZM531.7,464.53c-.27-1.97-.53-3.95-.83-5.91-.09-.57.08-1.5-.72-1.49-.75,0-.55.94-.72,1.49-2.87,8.75-7.84,16.01-14.91,21.97-6.58,5.54-14.52,8.7-21.83,12.96-2.35,1.37-4.13,3.13-5.92,5.01-.31.33-.74,1.04-.61,1.2.48.63,1.08.18,1.65-.06,8.82-3.81,17.58-7.76,25.41-13.42,6.72-4.86,12.77-10.38,17.12-17.56.78-1.29,1.59-2.55,1.36-4.18ZM570.12,128.26c.12-4.5-1.4-9.72-3.87-14.7-.21-.42-.44-1.07-.77-1.15-.9-.21-.8.75-.97,1.22-1.39,3.82-3.45,7.19-6.57,9.84-1.31,1.12-1.38,2.1-.35,3.47,3.3,4.38,6.47,8.86,8.45,14.04.17.44.31,1.06.87,1.05.8,0,.83-.82,1.05-1.35,1.52-3.61,2.25-7.38,2.16-12.41ZM612.75,299.7c-.19-4.19-2.78-6.95-5.88-9.4-1.24-.98-1.72.03-2.18.94-1.14,2.27-2.64,4.27-4.87,5.51-1.41.78-1.08,1.61-.7,2.76.86,2.59,1.71,5.2,2.29,7.86.32,1.43.47,2.75,2.22,2.93,1.82.19,3.82.81,5.22-.97,2.19-2.79,3.53-5.97,3.9-9.64ZM185.88,179.92c-.07-.57-.13-1.05-.19-1.54-.36.46-.92.87-1.04,1.38-1.41,6.06-2.45,12.21-4.21,18.2-1.87,6.4.63,12.24,6.49,15.38,1.72.92,4.03,2.36,5.45,1.13,1.45-1.26-.22-3.44-.97-5.1-4.25-9.39-8.37-18.8-5.53-29.45ZM599.92,350.86c.28-7.38-2.23-13.45-8.13-17.96-1-.76-1.77-3.05-2.96-2.06-1.22,1.02-2.55,2.77-2.26,4.84.1.72.44,1.42.77,2.08,3.87,7.51,8.03,14.91,9.67,23.34.06.3.3.57.46.86.27-.39.71-.75.79-1.18.6-3.3,1.12-6.61,1.67-9.92ZM177.57,191.65c.06,1.37.1,2.75.19,4.12.03.46.15,1.29.31,1.31.58.07.78-.55.9-1,.36-1.32.64-2.66.94-4,1.34-5.97,2.68-12.06,5.84-17.29,5.79-9.57,9.91-20.24,18.11-28.27.3-.3.84-.61.5-1.22-.4.25-.82.46-1.19.74-5.73,4.5-10.89,9.58-14.9,15.68-5.98,9.09-10.43,18.77-10.71,29.93ZM214.27,435.1c-.56-.65-1.07-1.36-1.7-1.95-5.82-5.52-11.03-11.57-15.18-18.45-1.82-3.02-3.84-4.73-7.79-3.75-2.16.54-2.85.72-1.68,2.84,5.69,10.26,14.53,16.91,24.91,21.79.45.21,1.19.6,1.43-.48ZM212.89,470.25c-.03-1.62-.31-2.13-1.27-2.19-1.19-.07-1.33.76-1.54,1.68-2.78,12.48-4.38,25.07-2.82,37.83.59,4.8,2.24,9.45,4.84,13.66.31.5.62,1.21,1.33.88.22-.1.23-.95.11-1.39-.42-1.56-1.06-3.07-1.39-4.64-2.3-10.86-1.88-21.83-1.05-32.78.33-4.34,1.16-8.63,1.78-13.04ZM308.27,30.82c-6.27.89-12.63,1.99-18.16,5.76-2.29,1.56-4.27,3.41-5.68,5.83-.91,1.56-.78,2.5,1.27,2.75,4.51.54,8.68-.08,12.01-3.48,3.41-3.48,7.01-6.7,11.22-9.21.49-.3,1.48-.32,1.35-1.02-.18-.98-1.19-.45-2.01-.62ZM177.73,384.65c0-2.49-.04-4.99.01-7.48.04-1.97-.64-3.65-1.8-5.18-.36-.47-.85-1.26-1.23-1.23-1.01.09-.62,1.16-.76,1.78-.45,2.06-.87,4.15-1.05,6.25-.78,9.05-.49,17.97,3.93,26.22.71,1.33,1.08,3.97,2.78,3.44,2.03-.64.3-2.84,0-4.14-1.43-6.49-2.13-13.02-1.9-19.66ZM582.97,390.21c.22,2.83.39,5.32.61,7.8.76,8.65,3.08,16.86,6.99,24.61.24.47.47,1.52,1.04,1.26.53-.24-.07-1.09-.27-1.66-1.88-5.57-3.09-11.25-3.04-17.19.05-6.01.92-11.89,2.3-17.72.36-1.52,1.13-3.59-.05-4.51-.85-.66-1.94,1.5-3.11,2.16-.86.49-1.57,1.27-2.46,1.68-1.77.81-2.33,2.11-2.01,3.57ZM216.3,419.84c.23-.9.05-1.76-.61-2.4-5.13-4.99-9.18-10.76-12.47-17.09-.21-.4-.68-.67-1.03-.99-.49.53-.28,1.13-.13,1.7,1.3,5.04,2.42,10.14,3.99,15.09,1.44,4.55,4.1,8.47,7.58,11.79.44.42.82,1.12,1.48.94.72-.2.59-1.01.64-1.6.21-2.47.38-4.95.56-7.43ZM519.67,430.36c.05-1,.12-2,.15-2.99.01-.45.15-.97-.33-1.31-.22.42-.53.81-.63,1.26-.65,2.79-1.38,5.58-1.85,8.4-3.12,18.66-10.48,35.57-20.91,51.25-.39.59-1.34,1.47-.84,1.85.96.73,1.43-.56,1.89-1.15,4.56-5.82,8.22-12.19,11.56-18.77,6.17-12.14,10.42-24.81,10.97-38.54ZM238.83,468.63c-.85.13-2.1-.03-2.48.47-.71.94.42,1.78.92,2.58,4.13,6.65,9.53,12.17,15.59,17.04,1.39,1.12,3.89,3.25,4.49,2.4,1.07-1.5-.64-3.68-1.83-5.2-3.9-5.03-8.01-9.9-11.91-14.92-1.28-1.64-2.72-2.47-4.79-2.36ZM463,17.3c-.37,0-.75-.03-1.12,0-.95.08-1.91.19-2.86.29.49,1.08,1.61,1.01,2.48,1.35,8.46,3.32,16.16,7.68,21.43,15.44.55.81,1.29,1.52,2.02,2.19.77.71,1.73,1.98,2.71,1.12.75-.65-.51-1.7-.87-2.57-.52-1.26-1.08-2.51-1.71-3.72-4.65-8.94-11.4-14.61-22.09-14.1ZM584.3,369.39c.08,4.71-.5,8.54-1.09,12.36-.13.82-.27,1.64.97,1.06,3.54-1.64,7.07-8.25,6.51-12.35-.59-4.35-1.99-8.49-3.5-12.59-.22-.59-.41-1.45-1.05-1.39-.91.09-.82,1.1-.88,1.79-.31,3.98-1.21,7.91-.97,11.12ZM573.92,385.05c.48.81-1.12,3.53,1.72,3.07,2.5-.4,4.98-1.5,5.6-4.65,1.1-5.62.29-11.39,1.4-17.01.07-.34-.05-1.02-.17-1.04-.65-.11-.72.54-.86.94-1.69,4.82-4.26,9.21-6.67,13.67-.79,1.46-1.3,2.94-1.04,5.02ZM188.81,410.13c4.48.07,4.88-.54,2.91-4.47-1.51-3.01-2.59-6.18-3.46-9.42-1.3-4.81-1.96-9.74-2.77-14.65-.08-.46-.39-1.27-.53-1.25-.9.1-.58.91-.54,1.4.56,8.68.68,17.39,1.65,26.05.22,1.96,1.08,2.63,2.75,2.35ZM593.91,277.71c-1.76-.08-3.38-.16-5.01-.22-.49-.02-1.24-.18-1.41.05-.45.61.23,1.1.53,1.62,2.74,4.74,6.74,6.71,12.19,5.66,1.97-.38,4.26-5.69,3.07-7.29-.46-.62-1.05-.48-1.68-.31-2.57.71-5.21.39-7.69.49ZM518.86,537.52c.56-.37,1.11-.68,1.59-1.07,7.76-6.24,13.13-14.16,16.49-23.49.16-.45.44-1.26.32-1.33-.8-.49-1.01.39-1.31.8-3.92,5.29-7.58,10.77-11.73,15.9-2.03,2.5-3.77,5.24-5.6,7.9-.26.38-.86,1.05.24,1.28ZM190.12,420.35c-.3-.14-.56-.05-.54.26.02.36.14.75.31,1.07,1.57,3.01,3.61,5.7,5.85,8.21,4.34,4.86,9.69,8.17,16.02,9.86.93.25,2,.95,2.57-.37.62-1.44-.56-1.96-1.59-2.45-.22-.11-.44-.24-.67-.31-8.73-2.86-15.39-8.55-21.18-15.44-.24-.29-.51-.55-.77-.82ZM556.52,109.01c.3-8.69-3.68-14.02-9.91-18.05-.69-.45-1.77-1.41-2.25-.78-.54.71.74,1.38,1.36,1.78,4.38,2.75,6.23,6.88,6.76,11.83.38,3.58.82,7.16,1.35,10.72.11.73-.14,2.02.91,2.08.7.04.75-1.12.95-1.83.6-2.17.96-4.37.84-5.75ZM220.15,488.22c-.61.25-.41.78-.43,1.23-.08,2.51.43,4.96.94,7.4,1.65,7.8,5.4,14.41,11.48,19.62.42.36.7,1.09,1.49.8-.36-.47-.68-.96-1.07-1.4-2.46-2.71-4.13-5.9-5.63-9.21-2.43-5.34-4.36-10.85-5.8-16.54-.18-.7-.2-1.49-.97-1.9ZM155.95,401.77c.18-1.35-1.27-2.35-2.41-3.43-5.15-4.84-9.28-10.39-11.96-16.96-.22-.54-.44-1.47-.96-1.26-.48.19-.09,1.11.07,1.71,2.34,8.53,7.43,15.4,13.17,21.89.37.42.77,1.16,1.48.71.73-.47.46-1.34.61-2.64ZM589.42,251.2c-1.62,1.09-3.19,2.04-4.94,2.67-.4.14-.92.58-.96.93-.06.52.57.71,1.04.88,4.19,1.47,8.38,2.95,12.59,4.38.51.17,1.23.5,1.64-.09.11-.16-.38-.83-.69-1.18-2.15-2.39-4.42-4.68-7.08-6.53-.49-.34-1-.66-1.6-1.07ZM495.77,40.27c-.02-5.02-6.31-14.32-10.89-16.09-.3-.12-.73-.5-.88.05-.07.24.3.63.52.92,3.12,4.05,5.87,8.29,7.22,13.3.34,1.25,1.3,2.1,2.31,2.83.37.27.92.66,1.26.56.76-.23.43-1,.46-1.57ZM186.73,187.6c.34,4.36.95,8.14,2.34,11.77.18.48.39,1.13.88,1.04.56-.1.35-.79.27-1.22-1.03-5.59-.74-11.1.81-16.56.48-1.68.13-3.19-1.05-4.49-.29-.32-.29-1.08-.98-.79-.27.11-.51.55-.57.87-.62,3.28-1.21,6.57-1.72,9.38ZM564.66,145.34c-1.74-6-4.55-11.88-8.73-17.07-.19-.24-.67-.45-.92-.38-.54.17-.68.76-.51,1.22.28.8.58,1.67,1.11,2.31,3.67,4.47,5.85,9.44,5.56,15.36-.06,1.14-.12,3.07,1.08,3.15,1.39.09,1.66-1.88,2.26-3.05.16-.31.08-.73.16-1.54ZM237.19,466.31c.41-.07,1.65.33,2.17-.69.44-.88-.65-1.47-1.06-2.18-2.14-3.77-4.35-7.51-6.56-11.24-.24-.4-.64-.69-.97-1.04-.12.29-.38.61-.33.87.8,4.5,1.36,9.07,3.73,13.14.59,1.01,1.39,1.33,3.02,1.14ZM562.77,111.26c-.12-2.5-1.09-4.35-2.33-6.08-.27-.38-.79-.99-1.01-.92-.77.25-.41,1-.35,1.55.51,4.84-.62,9.34-2.75,13.65-.33.66-.64,1.35-.86,2.05-.1.3-.11.81.08,1,.47.47.9.01,1.21-.31,3.07-3.17,5.5-6.69,6.02-10.93ZM171.7,327.51c.19,1.75-.33,2.88.2,3.97,1.24-.73,1.1-2.01,1.3-3.18,1.15-6.63,2.35-13.24,4.72-19.58,1.05-2.8,1.99-5.65,2.96-8.48.15-.45.21-.93.3-1.39-.75.03-.81.71-1.06,1.17-4.7,8.81-7.14,18.29-8.43,27.49ZM525.48,461.56c-.07-.24-.13-.46-.19-.69-.32.33-.77.6-.95,1-3.93,8.49-10.87,14.48-17.35,20.84-.47.46-1.32.66-1.25,1.56.68-.22,1.48-.3,2.04-.7,6.96-5.01,12.96-10.88,16.46-18.91.45-1.03.84-2.08,1.25-3.11ZM614.14,290.27c-.03-2.92-.26-5.64-1.3-8.22-.24-.6-.59-1.21-1.24-1.26-.77-.05-.84.72-1.12,1.26-1.72,3.22-3.87,6.38.65,9.24.96.61,1.47,2.82,2.4,2.49,1.45-.52.28-2.42.63-3.51ZM353.68,15.98c.37.07.74.18,1.11.18.41,0,.88.37,1.22-.15-.71-.23-1.4-.6-2.12-.67-8.92-.85-17.41.46-25.04,5.47-.87.57-2.7,1.21-2,2.53.35.67,1.91-.52,2.85-1.03,7.5-4.02,15.47-6.21,23.99-6.34ZM174.52,242.82c-.7.44-.44,1.09-.46,1.62-.29,6.45,4.96,14.59,10.99,17.06.66.27,1.63.78,2.01.03.38-.73-.61-1.3-1.16-1.71-5.47-4.1-9.6-9.07-10.86-16.02-.06-.33-.33-.63-.52-.98ZM555.83,430.12c-.08.55-.21,1.03-.21,1.51-.04,7.12.56,14.15,3.24,20.85.5,1.25,1.25,2.41,1.94,3.58.23.38.57.88,1.13.53.1-.06-.07-.63-.18-.95-2.8-7.76-4.13-15.83-5.27-23.95-.07-.51.18-1.2-.65-1.57ZM573.47,211.58c.13.22.25.44.38.65,3.03,4.9,6.86,9.18,10.56,13.57.23.27.59.43.88.64.06-.34.25-.73.15-1.02-2.15-5.92-5.75-10.75-10.97-14.31-.26-.17-.66-.12-1-.18,0,.21,0,.43,0,.64ZM141.03,317.85c.03-.6.06-1.21.08-1.81-1.1,0-.95,1.06-1.15,1.6-1.07,2.93-1.97,5.91-2.95,8.87-1.41,4.29-2.25,8.69-2.68,13.18-.05.47.1.96.16,1.45.22-.42.54-.82.66-1.27.55-2.04,1.08-4.1,1.57-6.16,1.28-5.33,3.83-10.31,4.3-15.86ZM586.74,284.93c.48-.14,1.43.33,1.82-.42.39-.77-.44-1.32-.85-1.92-2.1-3.09-4.57-5.85-7.39-8.31-.35-.31-.77-.8-1.25-.43-.48.38-.1.93.11,1.33,1.42,2.74,2.94,5.44,4.29,8.22.68,1.4,1.77,1.57,3.27,1.52ZM183.87,390.11c0-3.49.02-6.98-.02-10.47,0-.54.19-1.22-.48-1.59-.26.54-.53,1.07-.76,1.62-.09.22-.12.48-.15.73-.81,8.35-.63,16.67.69,24.96.08.47.05,1.16.75.98.22-.06.4-.86.35-1.3-.48-4.97-.59-9.95-.38-14.93ZM182.17,360.19c-.21-2.21-1.13-4.56-3.07-4.68-1.86-.12-1.19,2.56-1.66,3.99-.45,1.37-.06,2.76.53,4.01.62,1.31.84,3.52,2.11,3.62.88.07,1.11-2.32,1.37-3.72.2-1.1.49-2.18.72-3.21ZM262.58,485.92c-.37-4.13-2-7.74-3.98-11.21-.93-1.62-1.9-3.23-3.43-4.37-.58-.43-1.35-1.02-1.97-.3-.51.59.3,1.05.65,1.5,3.36,4.39,5.59,9.38,7.65,14.46.19.46,0,1.33.87,1.25.12-.01.15-.9.22-1.33ZM598.1,287.21c-4.44,0-4.53.14-2.5,3.98.17.33.37.64.54.97,1.02,1.95,2.07,2.68,3.76.5,1.03-1.33,3.22-2.37,2.64-4.09-.63-1.87-2.96-1.25-4.45-1.36ZM577.45,502.92c1.22-.25,3.05-.59,4.85-1.02.4-.09,1.11-.15.92-.86-.04-.16-.66-.26-1-.24-6.15.43-11.78-1.2-17.06-4.24-.37-.21-.83-.86-1.24-.24-.31.46.24.87.57,1.21,3.39,3.45,7.58,5.06,12.96,5.38ZM225.51,109.11c.06.38-.02,1.12.25,1.27.78.44.96-.43,1.23-.88,2.8-4.69,5.19-9.63,8.5-14.02.19-.26.59-.61.16-.88-.19-.12-.71.07-.95.27-4.55,3.72-7.84,8.27-9.19,14.24Z"/>
    <path class="cls-1"
          d="M532.4,590.04c-9.66-1.3-19.98-11.62-22.45-22.4-.39-1.69-.81-3.39-.72-5.18.07-1.4.42-2.43,2.02-2.62,1.75-.2,1.66,1.16,1.86,2.2.39,2.08.56,4.22,1.07,6.27,2.46,9.96,8.65,16.63,18.18,20.29.57.22,1.45.25,1.39.98-.07.93-.9.45-1.34.46Z"/>
</svg>