<?xml version="1.0" encoding="UTF-8"?>
<svg id="silhouette_male_Image" xmlns="http://www.w3.org/2000/svg" width="768.81" height="768.81"
     viewBox="0 0 768.81 768.81">
    <defs>
        <style>.cls-1{stroke-width:0px;}</style>
    </defs>
    <path class="cls-1"
          d="M.75,683.25c3.43-1.9,7.27-2.61,10.95-3.82,52.11-17.15,104.02-34.87,154.94-55.38,3.01-1.21,5.95-2.74,9.06-3.55,9.39-2.43,15.26-9.65,22.01-15.68,1.3-1.17,2.46-2.55,3.9-3.5,11.84-7.78,19-20.03,28.67-29.88,12.53-12.78,21.39-28.64,34.5-40.91.7-.66,1.26-1.86,2.37-1.57,1.26.32-.17,1.93,1.21,2.75,1.74-4.47,1.28-9.14,1.38-13.58.36-15.73.21-31.48-.5-47.21-.06-1.39-.21-2.77-1.02-3.94-8.35-12.02-10.8-25.88-12.67-39.97-.8-6.06-1.95-12.08-2.82-18.14-.33-2.31-1.26-2.82-3.54-2.29-10.55,2.46-17.04-.67-22.49-10.07-11.03-19.02-17.96-39.51-22.61-60.88-2.19-10.08-1.79-20.12.41-30.1,1.7-7.69,5.79-11.53,12.43-10.99,2.57.21,3-1.32,2.06-3.39-2.1-4.64-3.23-9.62-2.89-14.59.66-9.72-2.24-18.38-6.17-27.02-4.71-10.35-6.2-21.24-4.19-32.56.9-5.02-.03-10.18.99-15.23-1.97,5-2.46,10.21-2.72,15.47-3.66-12.46-.51-24.34,3.76-36.23-3.11-.22-5.23,2.11-8.2.79,2.32-1.23,4.39-2.25,6.4-3.4,2.33-1.33,3.65-3.41,3.85-6.08.63-8.31,2.08-16.36,6.97-23.61-3.6,1.55-7.93,2.17-9.75,6-1.78,3.76,1.13,7.73.7,12.31-2.63-3.25-3.83-6.58-5.07-10.45-3.54,5.29-3.35,10.78-2.84,16.41-2.36-1.66-3.52-4.73-3.1-8.45.21-1.85.59-3.71,1.14-5.49.75-2.41.74-4.03-2.5-3.53-.63.1-1.42-.01-1.41-.79,0-.51.46-1.18.92-1.48.82-.54,1.76-1,2.71-1.25,5.3-1.34,6.98-5.43,7.28-10.14.61-9.67,5.84-16.74,12.37-23.17.8-.79,1.72-1.44,2.55-2.2.24-.22.36-.59.8-1.36-3.57,1.19-5.75,3.58-8.32,5.48,2.02-4.77,5.49-8.34,9.35-11.57,1.72-1.44,3.67-2.6,5.45-3.97,2.03-1.56,4.04-3.13,2.18-6.18-.63-1.02.14-2.19.48-3.24,5.51-16.82,16.79-28.37,32.77-35.47,6.29-2.79,12.88-4.78,19.57-6.42,2.26-.55,4.46-1.33,6.61-2.28-9.36-.42-18.17,1.73-26.69,5.52,3.54-3.69,8.09-5.86,12.67-7.43,11.18-3.83,22.75-6.36,34.07-9.79,7.78-2.35,15.9-.81,23.64,1.48,3.02.89,5.62.93,8.6-.43,4.3-1.97,8.93-3.2,13.76-4.25-.82-.94-2.26-.13-2.84-1.31.25-1.41,1.57-1.37,2.56-1.66,12.72-3.74,25.08-2.31,36.78,3.49,6.61,3.28,13.34,5.44,20.63,6.3,9.4,1.11,18.31,3.84,26.59,8.53,5.64,3.2,11.76,5.19,18.95,7.38-5.27-8.39-12.52-12.48-20.27-15.78.18-.92.77-.84,1.18-.76,10.11,1.79,19.19,5.87,24.5,14.92,3.52,6,8.56,6.76,15.11,7.45-4.03-3.33-8.9-3.42-12.79-6.8,3.4-.53,5.86,1.19,8.81,1.09-3.95-4.01-8.42-6.63-13.11-9.1,4.08.23,7.71,1.78,11.1,3.86,5.05,3.09,9.55,6.84,12.75,11.94,1.08,1.72,2.4,3.18,4.21,4.18,5.87,3.24,11.16,7.13,14.28,13.36-2.34-8.84-8.73-14.51-15.54-19.95,2.9.09,4.82,1.86,6.88,3.37,6.76,4.94,10.67,11.44,10.93,19.92.03,1.14-.13,2.26,1.05,2.98,3.49,2.14,6.97,4.3,11.13,6.86-1.24-5.06-4.99-7.87-6.64-12.36,3.73.92,4.91,4.31,8.05,6.53-4.01-9.61-10-16.47-17.95-21.82,6.67,1.01,11.87,4.65,16.32,9.32,5.53,5.8,9.33,12.65,10.92,20.59,1.19,5.95,4.43,11.03,6.98,17.31,1.99-9.2-.05-16.8-4.66-24.39,4.76,3.02,9.8,11.42,9.28,17.5-.78,9.13.33,18.07.84,27.1.25,4.53,1.06,7.57,5.68,9.05,1.95.62,3.62,2.12,6.06,2.97-1.6-2.75-3.2-5.51-4.8-8.26,2.35.84,3.89,2.61,5.25,4.57,4.73,6.82,8.22,14.33,11.26,21.96,3.13,7.86,4.04,16.04-1.27,23.65-.89,1.28-.13,2.38.34,3.51,2.81,6.9,3,13.98,1.5,21.22-1.69-4.96-1.23-10.43-3.93-15.14,2.16,9.08,2.78,18.28,2.62,27.58-.15,9.36-1.81,18.39-5.33,27.05-2.05,5.05-3.26,10.18-2.99,15.68.35,7.29-.45,14.48-2.61,21.47-.51,1.64-.52,2.73,1.62,2.63,7.24-.33,10.53,4.16,12.4,10.26,2.42,7.9,3.01,16.09,1.72,24.13-3.84,24.02-11.42,46.81-23.81,67.86-5.14,8.73-12.5,12-22.5,9.76-2.87-.64-3.2.89-3.52,2.9-1.71,10.73-3.36,21.47-5.16,32.19-1.44,8.6-4.42,16.64-9.36,23.89-1.46,2.14-2,4.54-1.99,7.1.01,15.87.03,31.75,0,47.62,0,3.57,1.04,6.52,3.77,8.99,8.49,7.67,14.77,17.24,22.05,25.95,10.73,12.83,21.03,26.12,32.73,38.02,7.99,8.12,16.81,15.64,25.78,22.8,4.48,3.58,10.41,4.78,15.75,6.88,36.05,14.16,72.27,27.88,109.08,39.97,17.8,5.85,35.56,11.84,53.34,17.74,1.42.47,2.9.75,4.35,1.11,0,28.12-.03,56.25.06,84.37,0,2.24-.45,2.69-2.69,2.69-254.25-.06-508.5-.06-762.75,0-2.24,0-2.7-.45-2.69-2.69.1-27.62.06-55.25.06-82.87ZM547.61,155.84c5.12,6.2,9.34,12.77,8.94,22.02,4.48-11.01,1.26-18.75-8.94-22.02Z"/>
</svg>